<svg width="471" height="368" viewBox="0 0 471 368" fill="none" xmlns="http://www.w3.org/2000/svg">
<path d="M463.73 57.1719H366.708V286.479H463.73V57.1719Z" fill="white"/>
<path d="M463.73 287.224H366.708C366.506 287.224 366.313 287.144 366.171 287.002C366.028 286.859 365.948 286.666 365.948 286.464V57.1721C365.948 56.9705 366.028 56.7772 366.171 56.6347C366.313 56.4922 366.506 56.4121 366.708 56.4121H463.73C463.931 56.4121 464.124 56.4922 464.267 56.6347C464.41 56.7772 464.49 56.9705 464.49 57.1721V286.464C464.49 286.666 464.41 286.859 464.267 287.002C464.124 287.144 463.931 287.224 463.73 287.224ZM367.468 285.704H463V57.9321H367.468V285.704Z" fill="#012E6C"/>
<path d="M367.194 57.1719H339.378V286.479H367.194V57.1719Z" fill="#6DB0E2"/>
<path d="M367.24 287.224H339.424C339.222 287.224 339.029 287.144 338.887 287.002C338.744 286.859 338.664 286.666 338.664 286.464V57.1721C338.664 56.9705 338.744 56.7772 338.887 56.6347C339.029 56.4922 339.222 56.4121 339.424 56.4121H367.24C367.442 56.4121 367.635 56.4922 367.777 56.6347C367.92 56.7772 368 56.9705 368 57.1721V286.464C368 286.666 367.92 286.859 367.777 287.002C367.635 287.144 367.442 287.224 367.24 287.224ZM340.184 285.704H366.48V57.9321H340.184V285.704Z" fill="#012E6C"/>
<path d="M463.73 69.7583H339.378C339.177 69.7583 338.983 69.6782 338.841 69.5357C338.698 69.3932 338.618 69.1998 338.618 68.9983C338.618 68.7967 338.698 68.6034 338.841 68.4609C338.983 68.3184 339.177 68.2383 339.378 68.2383H463.73C463.931 68.2383 464.124 68.3184 464.267 68.4609C464.41 68.6034 464.49 68.7967 464.49 68.9983C464.49 69.1998 464.41 69.3932 464.267 69.5357C464.124 69.6782 463.931 69.7583 463.73 69.7583Z" fill="#012E6C"/>
<path d="M463.73 79.897H339.378C339.177 79.897 338.983 79.8169 338.841 79.6744C338.698 79.5318 338.618 79.3385 338.618 79.137C338.622 78.9366 338.704 78.7455 338.845 78.6039C338.987 78.4622 339.178 78.3808 339.378 78.377H463.73C463.93 78.3808 464.121 78.4622 464.263 78.6039C464.404 78.7455 464.486 78.9366 464.49 79.137C464.49 79.3385 464.41 79.5318 464.267 79.6744C464.124 79.8169 463.931 79.897 463.73 79.897Z" fill="#012E6C"/>
<path d="M463.73 90.0337H339.378C339.177 90.0337 338.983 89.9536 338.841 89.8111C338.698 89.6685 338.618 89.4752 338.618 89.2737C338.622 89.0733 338.704 88.8823 338.845 88.7406C338.987 88.5989 339.178 88.5176 339.378 88.5137H463.73C463.93 88.5176 464.121 88.5989 464.263 88.7406C464.404 88.8823 464.486 89.0733 464.49 89.2737C464.49 89.4752 464.41 89.6685 464.267 89.8111C464.124 89.9536 463.931 90.0337 463.73 90.0337Z" fill="#012E6C"/>
<path d="M463.73 100.188H339.378C339.178 100.184 338.987 100.103 338.845 99.9611C338.704 99.8194 338.622 99.6283 338.618 99.428C338.618 99.2264 338.698 99.0331 338.841 98.8906C338.983 98.748 339.177 98.668 339.378 98.668H463.73C463.931 98.668 464.124 98.748 464.267 98.8906C464.41 99.0331 464.49 99.2264 464.49 99.428C464.486 99.6283 464.404 99.8194 464.263 99.9611C464.121 100.103 463.93 100.184 463.73 100.188Z" fill="#012E6C"/>
<path d="M463.73 110.327H339.378C339.178 110.323 338.987 110.241 338.845 110.1C338.704 109.958 338.622 109.767 338.618 109.567C338.618 109.365 338.698 109.172 338.841 109.029C338.983 108.887 339.177 108.807 339.378 108.807H463.73C463.931 108.807 464.124 108.887 464.267 109.029C464.41 109.172 464.49 109.365 464.49 109.567C464.486 109.767 464.404 109.958 464.263 110.1C464.121 110.241 463.93 110.323 463.73 110.327Z" fill="#012E6C"/>
<path d="M463.73 120.465H339.378C339.177 120.465 338.983 120.385 338.841 120.243C338.698 120.1 338.618 119.907 338.618 119.705C338.618 119.504 338.698 119.31 338.841 119.168C338.983 119.025 339.177 118.945 339.378 118.945H463.73C463.931 118.945 464.124 119.025 464.267 119.168C464.41 119.31 464.49 119.504 464.49 119.705C464.49 119.907 464.41 120.1 464.267 120.243C464.124 120.385 463.931 120.465 463.73 120.465Z" fill="#012E6C"/>
<path d="M463.73 130.604H339.378C339.177 130.604 338.983 130.524 338.841 130.381C338.698 130.239 338.618 130.046 338.618 129.844C338.622 129.644 338.704 129.453 338.845 129.311C338.987 129.169 339.178 129.088 339.378 129.084H463.73C463.93 129.088 464.121 129.169 464.263 129.311C464.404 129.453 464.486 129.644 464.49 129.844C464.49 130.046 464.41 130.239 464.267 130.381C464.124 130.524 463.931 130.604 463.73 130.604Z" fill="#012E6C"/>
<path d="M463.73 140.741H339.378C339.177 140.741 338.983 140.661 338.841 140.518C338.698 140.376 338.618 140.182 338.618 139.981C338.622 139.78 338.704 139.589 338.845 139.448C338.987 139.306 339.178 139.225 339.378 139.221H463.73C463.93 139.225 464.121 139.306 464.263 139.448C464.404 139.589 464.486 139.78 464.49 139.981C464.49 140.182 464.41 140.376 464.267 140.518C464.124 140.661 463.931 140.741 463.73 140.741Z" fill="#012E6C"/>
<path d="M463.73 150.879H339.378C339.177 150.879 338.983 150.799 338.841 150.657C338.698 150.514 338.618 150.321 338.618 150.119C338.622 149.919 338.704 149.728 338.845 149.586C338.987 149.445 339.178 149.363 339.378 149.359H463.73C463.93 149.363 464.121 149.445 464.263 149.586C464.404 149.728 464.486 149.919 464.49 150.119C464.49 150.321 464.41 150.514 464.267 150.657C464.124 150.799 463.931 150.879 463.73 150.879Z" fill="#012E6C"/>
<path d="M463.73 161.034H339.378C339.178 161.03 338.987 160.948 338.845 160.807C338.704 160.665 338.622 160.474 338.618 160.274C338.618 160.072 338.698 159.879 338.841 159.736C338.983 159.594 339.177 159.514 339.378 159.514H463.73C463.931 159.514 464.124 159.594 464.267 159.736C464.41 159.879 464.49 160.072 464.49 160.274C464.486 160.474 464.404 160.665 464.263 160.807C464.121 160.948 463.93 161.03 463.73 161.034Z" fill="#012E6C"/>
<path d="M463.73 171.172H339.378C339.178 171.168 338.987 171.087 338.845 170.945C338.704 170.804 338.622 170.613 338.618 170.412C338.618 170.211 338.698 170.017 338.841 169.875C338.983 169.732 339.177 169.652 339.378 169.652H463.73C463.931 169.652 464.124 169.732 464.267 169.875C464.41 170.017 464.49 170.211 464.49 170.412C464.486 170.613 464.404 170.804 464.263 170.945C464.121 171.087 463.93 171.168 463.73 171.172Z" fill="#012E6C"/>
<path d="M463.73 181.311H339.378C339.177 181.311 338.983 181.231 338.841 181.088C338.698 180.946 338.618 180.753 338.618 180.551C338.618 180.349 338.698 180.156 338.841 180.014C338.983 179.871 339.177 179.791 339.378 179.791H463.73C463.931 179.791 464.124 179.871 464.267 180.014C464.41 180.156 464.49 180.349 464.49 180.551C464.49 180.753 464.41 180.946 464.267 181.088C464.124 181.231 463.931 181.311 463.73 181.311Z" fill="#012E6C"/>
<path d="M463.73 191.45H339.378C339.177 191.45 338.983 191.37 338.841 191.227C338.698 191.085 338.618 190.891 338.618 190.69C338.622 190.489 338.704 190.298 338.845 190.157C338.987 190.015 339.178 189.934 339.378 189.93H463.73C463.93 189.934 464.121 190.015 464.263 190.157C464.404 190.298 464.486 190.489 464.49 190.69C464.49 190.891 464.41 191.085 464.267 191.227C464.124 191.37 463.931 191.45 463.73 191.45Z" fill="#012E6C"/>
<path d="M463.73 201.586H339.378C339.177 201.586 338.983 201.506 338.841 201.364C338.698 201.221 338.618 201.028 338.618 200.826C338.622 200.626 338.704 200.435 338.845 200.293C338.987 200.152 339.178 200.07 339.378 200.066H463.73C463.93 200.07 464.121 200.152 464.263 200.293C464.404 200.435 464.486 200.626 464.49 200.826C464.49 201.028 464.41 201.221 464.267 201.364C464.124 201.506 463.931 201.586 463.73 201.586Z" fill="#012E6C"/>
<path d="M463.73 211.741H339.378C339.178 211.737 338.987 211.655 338.845 211.514C338.704 211.372 338.622 211.181 338.618 210.981C338.618 210.779 338.698 210.586 338.841 210.443C338.983 210.301 339.177 210.221 339.378 210.221H463.73C463.931 210.221 464.124 210.301 464.267 210.443C464.41 210.586 464.49 210.779 464.49 210.981C464.486 211.181 464.404 211.372 464.263 211.514C464.121 211.655 463.93 211.737 463.73 211.741Z" fill="#012E6C"/>
<path d="M463.73 221.879H339.378C339.178 221.875 338.987 221.794 338.845 221.652C338.704 221.511 338.622 221.32 338.618 221.119C338.618 220.918 338.698 220.725 338.841 220.582C338.983 220.439 339.177 220.359 339.378 220.359H463.73C463.931 220.359 464.124 220.439 464.267 220.582C464.41 220.725 464.49 220.918 464.49 221.119C464.486 221.32 464.404 221.511 464.263 221.652C464.121 221.794 463.93 221.875 463.73 221.879Z" fill="#012E6C"/>
<path d="M463.73 232.018H339.378C339.177 232.018 338.983 231.938 338.841 231.795C338.698 231.653 338.618 231.46 338.618 231.258C338.618 231.056 338.698 230.863 338.841 230.721C338.983 230.578 339.177 230.498 339.378 230.498H463.73C463.931 230.498 464.124 230.578 464.267 230.721C464.41 230.863 464.49 231.056 464.49 231.258C464.49 231.46 464.41 231.653 464.267 231.795C464.124 231.938 463.931 232.018 463.73 232.018Z" fill="#012E6C"/>
<path d="M463.73 242.157H339.378C339.177 242.157 338.983 242.077 338.841 241.934C338.698 241.792 338.618 241.598 338.618 241.397C338.622 241.196 338.704 241.005 338.845 240.864C338.987 240.722 339.178 240.641 339.378 240.637H463.73C463.93 240.641 464.121 240.722 464.263 240.864C464.404 241.005 464.486 241.196 464.49 241.397C464.49 241.598 464.41 241.792 464.267 241.934C464.124 242.077 463.931 242.157 463.73 242.157Z" fill="#012E6C"/>
<path d="M463.73 252.293H339.378C339.177 252.293 338.983 252.213 338.841 252.071C338.698 251.928 338.618 251.735 338.618 251.533C338.622 251.333 338.704 251.142 338.845 251C338.987 250.859 339.178 250.777 339.378 250.773H463.73C463.93 250.777 464.121 250.859 464.263 251C464.404 251.142 464.486 251.333 464.49 251.533C464.49 251.735 464.41 251.928 464.267 252.071C464.124 252.213 463.931 252.293 463.73 252.293Z" fill="#012E6C"/>
<path d="M367.194 49.4648H334.803V57.1712H367.194V49.4648Z" fill="#012E6C"/>
<path d="M367.24 57.9315H334.803C334.602 57.9315 334.408 57.8514 334.266 57.7089C334.123 57.5663 334.043 57.373 334.043 57.1715V49.4651C334.043 49.2635 334.123 49.0702 334.266 48.9277C334.408 48.7851 334.602 48.7051 334.803 48.7051H367.24C367.442 48.7051 367.635 48.7851 367.777 48.9277C367.92 49.0702 368 49.2635 368 49.4651V57.1715C368 57.373 367.92 57.5663 367.777 57.7089C367.635 57.8514 367.442 57.9315 367.24 57.9315ZM335.609 56.4115H366.48V50.2403H335.563L335.609 56.4115Z" fill="#012E6C"/>
<path d="M469.354 49.4648H367.195V57.1712H469.354V49.4648Z" fill="#012E6C"/>
<path d="M469.354 57.9315H367.24C367.04 57.9276 366.849 57.8463 366.707 57.7046C366.565 57.5629 366.484 57.3718 366.48 57.1715V49.4651C366.48 49.2635 366.56 49.0702 366.703 48.9277C366.845 48.7851 367.038 48.7051 367.24 48.7051H469.399C469.601 48.7051 469.794 48.7851 469.937 48.9277C470.079 49.0702 470.159 49.2635 470.159 49.4651V57.1715C470.159 57.2752 470.138 57.3779 470.097 57.4733C470.056 57.5686 469.996 57.6545 469.921 57.7257C469.845 57.7969 469.756 57.8519 469.658 57.8873C469.561 57.9226 469.457 57.9377 469.354 57.9315ZM367.954 56.4115H468.594V50.2403H367.954V56.4115Z" fill="#012E6C"/>
<path d="M448.241 256.033H382.182V282.132H448.241V256.033Z" fill="#012E6C"/>
<path d="M448.241 282.892H382.182C381.98 282.892 381.787 282.812 381.644 282.669C381.502 282.527 381.422 282.333 381.422 282.132V256.033C381.422 255.832 381.502 255.639 381.644 255.496C381.787 255.354 381.98 255.273 382.182 255.273H448.241C448.442 255.273 448.636 255.354 448.778 255.496C448.921 255.639 449.001 255.832 449.001 256.033V282.132C449.001 282.333 448.921 282.527 448.778 282.669C448.636 282.812 448.442 282.892 448.241 282.892ZM382.881 281.372H447.42V256.793H382.942L382.881 281.372Z" fill="#012E6C"/>
<path d="M339.758 286.465H241.202V1.38867L339.758 43.6447V286.465Z" fill="white"/>
<path d="M339.759 287.224H241.202C241 287.224 240.807 287.144 240.664 287.001C240.522 286.859 240.442 286.666 240.442 286.464V1.38799C240.44 1.26428 240.47 1.14218 240.528 1.03316C240.587 0.924146 240.672 0.831796 240.776 0.764792C240.882 0.692874 241.004 0.648293 241.131 0.635031C241.259 0.62177 241.387 0.640239 241.506 0.688791L340.063 42.9448C340.197 43.0057 340.312 43.1039 340.393 43.2278C340.473 43.3517 340.517 43.4961 340.519 43.644V286.464C340.519 286.666 340.438 286.859 340.296 287.001C340.153 287.144 339.96 287.224 339.759 287.224ZM241.962 285.704H338.999V44.1608L241.962 2.54319V285.704Z" fill="#012E6C"/>
<path d="M242.327 286.465H215.681V8.71507L242.327 1.38867V286.465Z" fill="#6DB0E2"/>
<path d="M242.327 287.224H215.681C215.479 287.224 215.286 287.144 215.144 287.001C215.001 286.859 214.921 286.666 214.921 286.464V8.71438C214.922 8.54797 214.977 8.38646 215.079 8.25466C215.181 8.12286 215.323 8.02804 215.483 7.98478L242.114 0.658378C242.227 0.627617 242.346 0.622573 242.462 0.643609C242.578 0.664646 242.687 0.711233 242.783 0.779977C242.874 0.853726 242.948 0.946152 243 1.05103C243.053 1.15591 243.082 1.2708 243.087 1.38798V286.464C243.087 286.666 243.006 286.859 242.864 287.001C242.721 287.144 242.528 287.224 242.327 287.224ZM216.487 285.704H241.612V2.39118L216.487 9.29198V285.704Z" fill="#012E6C"/>
<path d="M267.65 247.324C267.448 247.324 267.255 247.243 267.112 247.101C266.97 246.958 266.89 246.765 266.89 246.564V12.7268C266.89 12.5252 266.97 12.3319 267.112 12.1894C267.255 12.0469 267.448 11.9668 267.65 11.9668C267.851 11.9668 268.045 12.0469 268.187 12.1894C268.33 12.3319 268.41 12.5252 268.41 12.7268V246.564C268.41 246.765 268.33 246.958 268.187 247.101C268.045 247.243 267.851 247.324 267.65 247.324Z" fill="#012E6C"/>
<path d="M293.854 247.323C293.653 247.323 293.46 247.243 293.317 247.101C293.175 246.958 293.094 246.765 293.094 246.563V23.9592C293.094 23.7577 293.175 23.5643 293.317 23.4218C293.46 23.2793 293.653 23.1992 293.854 23.1992C294.055 23.2031 294.246 23.2844 294.388 23.4261C294.529 23.5678 294.611 23.7589 294.614 23.9592V246.563C294.614 246.765 294.534 246.958 294.392 247.101C294.249 247.243 294.056 247.323 293.854 247.323Z" fill="#012E6C"/>
<path d="M320.029 247.324C319.827 247.324 319.634 247.244 319.491 247.102C319.349 246.959 319.269 246.766 319.269 246.564V35.178C319.273 34.9776 319.354 34.7866 319.496 34.6449C319.637 34.5032 319.828 34.4219 320.029 34.418C320.23 34.418 320.424 34.498 320.566 34.6406C320.709 34.7831 320.789 34.9764 320.789 35.178V246.564C320.789 246.766 320.709 246.959 320.566 247.102C320.424 247.244 320.23 247.324 320.029 247.324Z" fill="#012E6C"/>
<path d="M339.758 247.325H242.326C242.125 247.325 241.932 247.245 241.789 247.102C241.646 246.96 241.566 246.766 241.566 246.565C241.566 246.363 241.646 246.17 241.789 246.027C241.932 245.885 242.125 245.805 242.326 245.805H339.758C339.96 245.805 340.153 245.885 340.296 246.027C340.438 246.17 340.518 246.363 340.518 246.565C340.518 246.766 340.438 246.96 340.296 247.102C340.153 247.245 339.96 247.325 339.758 247.325Z" fill="#012E6C"/>
<path d="M338.786 50.2407H242.175C241.973 50.2407 241.78 50.1606 241.637 50.0181C241.495 49.8756 241.415 49.6823 241.415 49.4807C241.415 49.2791 241.495 49.0858 241.637 48.9433C241.78 48.8008 241.973 48.7207 242.175 48.7207H338.786C338.987 48.7207 339.181 48.8008 339.323 48.9433C339.466 49.0858 339.546 49.2791 339.546 49.4807C339.546 49.6823 339.466 49.8756 339.323 50.0181C339.181 50.1606 338.987 50.2407 338.786 50.2407Z" fill="#012E6C"/>
<path d="M338.786 74.8345H242.175C241.974 74.8306 241.783 74.7492 241.641 74.6076C241.5 74.4659 241.418 74.2748 241.415 74.0745C241.415 73.8729 241.495 73.6796 241.637 73.5371C241.78 73.3945 241.973 73.3145 242.175 73.3145H338.786C338.987 73.3145 339.181 73.3945 339.323 73.5371C339.466 73.6796 339.546 73.8729 339.546 74.0745C339.546 74.276 339.466 74.4693 339.323 74.6119C339.181 74.7544 338.987 74.8345 338.786 74.8345Z" fill="#012E6C"/>
<path d="M338.786 99.4282H242.175C241.973 99.4282 241.78 99.3481 241.637 99.2056C241.495 99.0631 241.415 98.8698 241.415 98.6682C241.418 98.4679 241.5 98.2768 241.641 98.1351C241.783 97.9934 241.974 97.9121 242.175 97.9082H338.786C338.987 97.9082 339.181 97.9883 339.323 98.1308C339.466 98.2733 339.546 98.4666 339.546 98.6682C339.546 98.8698 339.466 99.0631 339.323 99.2056C339.181 99.3481 338.987 99.4282 338.786 99.4282Z" fill="#012E6C"/>
<path d="M338.786 124.038H242.175C241.974 124.034 241.783 123.952 241.641 123.811C241.5 123.669 241.418 123.478 241.415 123.278C241.415 123.076 241.495 122.883 241.637 122.74C241.78 122.598 241.973 122.518 242.175 122.518H338.786C338.987 122.518 339.181 122.598 339.323 122.74C339.466 122.883 339.546 123.076 339.546 123.278C339.546 123.479 339.466 123.672 339.323 123.815C339.181 123.958 338.987 124.038 338.786 124.038Z" fill="#012E6C"/>
<path d="M338.786 148.631H242.175C241.973 148.631 241.78 148.551 241.637 148.409C241.495 148.266 241.415 148.073 241.415 147.871C241.418 147.671 241.5 147.48 241.641 147.338C241.783 147.197 241.974 147.115 242.175 147.111H338.786C338.987 147.111 339.181 147.191 339.323 147.334C339.466 147.476 339.546 147.67 339.546 147.871C339.546 148.073 339.466 148.266 339.323 148.409C339.181 148.551 338.987 148.631 338.786 148.631Z" fill="#012E6C"/>
<path d="M338.786 173.239H242.175C241.974 173.235 241.783 173.154 241.641 173.012C241.5 172.87 241.418 172.679 241.415 172.479C241.415 172.277 241.495 172.084 241.637 171.941C241.78 171.799 241.973 171.719 242.175 171.719H338.786C338.987 171.719 339.181 171.799 339.323 171.941C339.466 172.084 339.546 172.277 339.546 172.479C339.546 172.68 339.466 172.874 339.323 173.016C339.181 173.159 338.987 173.239 338.786 173.239Z" fill="#012E6C"/>
<path d="M338.786 197.832H242.175C241.973 197.832 241.78 197.752 241.637 197.61C241.495 197.467 241.415 197.274 241.415 197.072C241.418 196.872 241.5 196.681 241.641 196.539C241.783 196.398 241.974 196.316 242.175 196.312H338.786C338.987 196.312 339.181 196.393 339.323 196.535C339.466 196.678 339.546 196.871 339.546 197.072C339.546 197.274 339.466 197.467 339.323 197.61C339.181 197.752 338.987 197.832 338.786 197.832Z" fill="#012E6C"/>
<path d="M338.786 222.442H242.175C241.974 222.438 241.783 222.357 241.641 222.215C241.5 222.073 241.418 221.882 241.415 221.682C241.415 221.48 241.495 221.287 241.637 221.144C241.78 221.002 241.973 220.922 242.175 220.922H338.786C338.987 220.922 339.181 221.002 339.323 221.144C339.466 221.287 339.546 221.48 339.546 221.682C339.546 221.883 339.466 222.077 339.323 222.219C339.181 222.362 338.987 222.442 338.786 222.442Z" fill="#012E6C"/>
<path d="M231.231 43.6445H164.001V286.465H231.231V43.6445Z" fill="white"/>
<path d="M231.231 287.225H164.001C163.799 287.225 163.606 287.145 163.464 287.002C163.321 286.86 163.241 286.666 163.241 286.465V43.6448C163.241 43.4432 163.321 43.2499 163.464 43.1074C163.606 42.9648 163.799 42.8848 164.001 42.8848H231.231C231.432 42.8848 231.625 42.9648 231.768 43.1074C231.91 43.2499 231.991 43.4432 231.991 43.6448V286.465C231.991 286.666 231.91 286.86 231.768 287.002C231.625 287.145 231.432 287.225 231.231 287.225ZM164.761 285.705H230.44V44.4048H164.761V285.705Z" fill="#012E6C"/>
<path d="M124.314 286.479H164.001L164.001 43.6585H124.314L124.314 286.479Z" fill="#6DB0E2"/>
<path d="M164.001 287.225H124.314C124.112 287.225 123.919 287.145 123.776 287.002C123.634 286.86 123.554 286.666 123.554 286.465V43.6448C123.554 43.4432 123.634 43.2499 123.776 43.1074C123.919 42.9648 124.112 42.8848 124.314 42.8848H164.001C164.202 42.8848 164.396 42.9648 164.538 43.1074C164.681 43.2499 164.761 43.4432 164.761 43.6448V286.465C164.761 286.565 164.741 286.663 164.703 286.756C164.665 286.848 164.609 286.932 164.538 287.002C164.468 287.073 164.384 287.129 164.292 287.167C164.2 287.205 164.101 287.225 164.001 287.225ZM125.074 285.705H163.241V44.4048H125.074V285.705Z" fill="#012E6C"/>
<path d="M179.657 52.3984H171.282V277.723H179.657V52.3984Z" fill="#012E6C"/>
<path d="M179.642 278.483H171.282C171.08 278.483 170.887 278.403 170.744 278.261C170.602 278.118 170.522 277.925 170.522 277.723V52.3987C170.522 52.1971 170.602 52.0038 170.744 51.8613C170.887 51.7187 171.08 51.6387 171.282 51.6387H179.642C179.843 51.6387 180.037 51.7187 180.179 51.8613C180.322 52.0038 180.402 52.1971 180.402 52.3987V277.723C180.402 277.925 180.322 278.118 180.179 278.261C180.037 278.403 179.843 278.483 179.642 278.483ZM172.042 276.964H178.882V53.1587H172.042V276.964Z" fill="#012E6C"/>
<path d="M194.416 52.3984H186.041V277.723H194.416V52.3984Z" fill="#012E6C"/>
<path d="M194.416 278.483H186.041C185.84 278.48 185.649 278.398 185.508 278.257C185.366 278.115 185.285 277.924 185.281 277.723V52.3987C185.281 52.1971 185.361 52.0038 185.503 51.8613C185.646 51.7187 185.839 51.6387 186.041 51.6387H194.416C194.618 51.6387 194.811 51.7187 194.953 51.8613C195.096 52.0038 195.176 52.1971 195.176 52.3987V277.723C195.176 277.925 195.096 278.118 194.953 278.261C194.811 278.403 194.618 278.483 194.416 278.483ZM186.816 276.964H193.671V53.1587H186.816V276.964Z" fill="#012E6C"/>
<path d="M209.19 52.3984H200.815V277.723H209.19V52.3984Z" fill="#012E6C"/>
<path d="M209.16 278.483H200.785C200.585 278.48 200.393 278.398 200.252 278.257C200.11 278.115 200.029 277.924 200.025 277.723V52.3987C200.025 52.1971 200.105 52.0038 200.247 51.8613C200.39 51.7187 200.583 51.6387 200.785 51.6387H209.16C209.362 51.6387 209.555 51.7187 209.697 51.8613C209.84 52.0038 209.92 52.1971 209.92 52.3987V277.723C209.92 277.925 209.84 278.118 209.697 278.261C209.555 278.403 209.362 278.483 209.16 278.483ZM201.56 276.964H208.415V53.1587H201.56V276.964Z" fill="#012E6C"/>
<path d="M223.965 52.3984H215.59V277.723H223.965V52.3984Z" fill="#012E6C"/>
<path d="M223.965 278.483H215.59C215.388 278.483 215.195 278.403 215.052 278.261C214.91 278.118 214.83 277.925 214.83 277.723V52.3987C214.83 52.1971 214.91 52.0038 215.052 51.8613C215.195 51.7187 215.388 51.6387 215.59 51.6387H223.965C224.166 51.6387 224.36 51.7187 224.502 51.8613C224.645 52.0038 224.725 52.1971 224.725 52.3987V277.723C224.721 277.924 224.64 278.115 224.498 278.257C224.356 278.398 224.165 278.48 223.965 278.483ZM216.365 276.964H223.22V53.1587H216.365V276.964Z" fill="#012E6C"/>
<path d="M136.808 52.3984H130.987V277.723H136.808V52.3984Z" fill="#012E6C"/>
<path d="M136.808 278.483H130.987C130.786 278.48 130.595 278.398 130.453 278.257C130.312 278.115 130.23 277.924 130.227 277.723V52.3987C130.227 52.1971 130.307 52.0038 130.449 51.8613C130.592 51.7187 130.785 51.6387 130.987 51.6387H136.808C137.01 51.6387 137.203 51.7187 137.346 51.8613C137.488 52.0038 137.568 52.1971 137.568 52.3987V277.723C137.568 277.925 137.488 278.118 137.346 278.261C137.203 278.403 137.01 278.483 136.808 278.483ZM131.747 276.964H136.048V53.1587H131.747V276.964Z" fill="#012E6C"/>
<path d="M147.068 52.3984H141.247V277.723H147.068V52.3984Z" fill="#012E6C"/>
<path d="M147.068 278.483H141.247C141.046 278.48 140.855 278.398 140.713 278.257C140.572 278.115 140.49 277.924 140.487 277.723V52.3987C140.487 52.1971 140.567 52.0038 140.709 51.8613C140.852 51.7187 141.045 51.6387 141.247 51.6387H147.068C147.27 51.6387 147.463 51.7187 147.606 51.8613C147.748 52.0038 147.828 52.1971 147.828 52.3987V277.723C147.828 277.925 147.748 278.118 147.606 278.261C147.463 278.403 147.27 278.483 147.068 278.483ZM142.007 276.964H146.308V53.1587H142.007V276.964Z" fill="#012E6C"/>
<path d="M157.343 52.3984H151.522V277.723H157.343V52.3984Z" fill="#012E6C"/>
<path d="M157.328 278.483H151.522C151.32 278.483 151.127 278.403 150.984 278.261C150.842 278.118 150.762 277.925 150.762 277.723V52.3987C150.762 52.1971 150.842 52.0038 150.984 51.8613C151.127 51.7187 151.32 51.6387 151.522 51.6387H157.328C157.53 51.6387 157.723 51.7187 157.866 51.8613C158.008 52.0038 158.088 52.1971 158.088 52.3987V277.723C158.088 277.925 158.008 278.118 157.866 278.261C157.723 278.403 157.53 278.483 157.328 278.483ZM152.282 276.964H156.568V53.1587H152.282V276.964Z" fill="#012E6C"/>
<path d="M222.293 34.0684H164.001V43.6444H222.293V34.0684Z" fill="white"/>
<path d="M222.293 44.4046H164.001C163.799 44.4046 163.606 44.3245 163.464 44.182C163.321 44.0395 163.241 43.8462 163.241 43.6446V34.0686C163.241 33.867 163.321 33.6737 163.464 33.5312C163.606 33.3887 163.799 33.3086 164.001 33.3086H222.293C222.495 33.3086 222.688 33.3887 222.83 33.5312C222.973 33.6737 223.053 33.867 223.053 34.0686V43.6446C223.053 43.8462 222.973 44.0395 222.83 44.182C222.688 44.3245 222.495 44.4046 222.293 44.4046ZM164.761 42.8846H221.533V34.8286H164.761V42.8846Z" fill="#012E6C"/>
<path d="M164.016 34.0684H134.863V43.6444H164.016V34.0684Z" fill="#6DB0E2"/>
<path d="M164.001 44.4046H134.863C134.661 44.4046 134.468 44.3245 134.325 44.182C134.183 44.0395 134.103 43.8462 134.103 43.6446V34.0686C134.103 33.867 134.183 33.6737 134.325 33.5312C134.468 33.3887 134.661 33.3086 134.863 33.3086H164.001C164.203 33.3086 164.396 33.3887 164.538 33.5312C164.681 33.6737 164.761 33.867 164.761 34.0686V43.6446C164.761 43.7444 164.741 43.8432 164.703 43.9354C164.665 44.0276 164.609 44.1114 164.538 44.182C164.468 44.2526 164.384 44.3085 164.292 44.3467C164.2 44.3849 164.101 44.4046 164.001 44.4046ZM135.623 42.8846H163.241V34.8286H135.623V42.8846Z" fill="#012E6C"/>
<path d="M164.001 30.1465H131.716V34.0681H164.001V30.1465Z" fill="#6DB0E2"/>
<path d="M164.001 34.8283H131.716C131.514 34.8283 131.321 34.7483 131.179 34.6057C131.036 34.4632 130.956 34.2699 130.956 34.0683V30.1467C130.956 29.9452 131.036 29.7518 131.179 29.6093C131.321 29.4668 131.514 29.3867 131.716 29.3867H164.001C164.202 29.3867 164.396 29.4668 164.538 29.6093C164.681 29.7518 164.761 29.9452 164.761 30.1467V34.0683C164.761 34.1681 164.741 34.267 164.703 34.3592C164.665 34.4514 164.609 34.5352 164.538 34.6057C164.468 34.6763 164.384 34.7323 164.292 34.7705C164.199 34.8087 164.101 34.8283 164.001 34.8283ZM132.476 33.3083H163.241V30.9067H132.476V33.3083Z" fill="#012E6C"/>
<path d="M224.755 30.1465H164.001V34.0681H224.755V30.1465Z" fill="#6DB0E2"/>
<path d="M224.755 34.8283H163.955C163.754 34.8283 163.56 34.7483 163.418 34.6057C163.275 34.4632 163.195 34.2699 163.195 34.0683V30.1467C163.195 29.9452 163.275 29.7518 163.418 29.6093C163.56 29.4668 163.754 29.3867 163.955 29.3867H224.755C224.957 29.3867 225.15 29.4668 225.293 29.6093C225.435 29.7518 225.515 29.9452 225.515 30.1467V34.0683C225.515 34.2699 225.435 34.4632 225.293 34.6057C225.15 34.7483 224.957 34.8283 224.755 34.8283ZM164.761 33.3083H224.041V30.9067H164.761V33.3083Z" fill="#012E6C"/>
<path d="M126.609 112.379H5.98169V286.465H126.609V112.379Z" fill="white"/>
<path d="M126.594 287.225H5.98168C5.78012 287.225 5.58681 287.145 5.44428 287.002C5.30175 286.86 5.22168 286.666 5.22168 286.465V112.379C5.22168 112.178 5.30175 111.984 5.44428 111.842C5.58681 111.699 5.78012 111.619 5.98168 111.619H126.594C126.795 111.619 126.989 111.699 127.131 111.842C127.274 111.984 127.354 112.178 127.354 112.379V286.465C127.354 286.666 127.274 286.86 127.131 287.002C126.989 287.145 126.795 287.225 126.594 287.225ZM6.74168 285.705H125.834V113.139H6.74168V285.705Z" fill="#012E6C"/>
<path d="M38.7832 287.225C38.5816 287.225 38.3883 287.144 38.2458 287.002C38.1033 286.859 38.0232 286.666 38.0232 286.465V167.905C38.0232 167.703 38.1033 167.51 38.2458 167.367C38.3883 167.225 38.5816 167.145 38.7832 167.145C38.9848 167.145 39.1781 167.225 39.3206 167.367C39.4631 167.51 39.5432 167.703 39.5432 167.905V286.465C39.5432 286.666 39.4631 286.859 39.3206 287.002C39.1781 287.144 38.9848 287.225 38.7832 287.225Z" fill="#012E6C"/>
<path d="M114.738 258.375H55.3057V279.807H114.738V258.375Z" fill="#012E6C"/>
<path d="M114.738 280.552H55.3057C55.1041 280.552 54.9108 280.472 54.7683 280.329C54.6257 280.187 54.5457 279.994 54.5457 279.792V258.375C54.5457 258.174 54.6257 257.98 54.7683 257.838C54.9108 257.695 55.1041 257.615 55.3057 257.615H114.738C114.939 257.615 115.133 257.695 115.275 257.838C115.418 257.98 115.498 258.174 115.498 258.375V279.762C115.502 279.864 115.485 279.966 115.449 280.062C115.412 280.158 115.357 280.245 115.286 280.319C115.215 280.393 115.13 280.451 115.036 280.491C114.941 280.532 114.84 280.552 114.738 280.552ZM56.0657 279.032H113.978V259.135H56.0657V279.032Z" fill="#012E6C"/>
<path d="M38.7985 112.379H5.98169V286.465H38.7985V112.379Z" fill="#6DB0E2"/>
<path d="M38.7833 287.225H5.98168C5.78012 287.225 5.58681 287.145 5.44428 287.002C5.30175 286.86 5.22168 286.666 5.22168 286.465V112.379C5.22168 112.178 5.30175 111.984 5.44428 111.842C5.58681 111.699 5.78012 111.619 5.98168 111.619H38.7833C38.9848 111.619 39.1781 111.699 39.3207 111.842C39.4632 111.984 39.5433 112.178 39.5433 112.379V286.465C39.5433 286.666 39.4632 286.86 39.3207 287.002C39.1781 287.145 38.9848 287.225 38.7833 287.225ZM6.74168 285.705H38.0233V113.139H6.74168V285.705Z" fill="#012E6C"/>
<path d="M129.998 111.346H24.5408V116.423H129.998V111.346Z" fill="white"/>
<path d="M130.014 117.12H24.541C24.3407 117.116 24.1496 117.035 24.0079 116.893C23.8662 116.751 23.7849 116.56 23.781 116.36V111.344C23.7849 111.144 23.8662 110.953 24.0079 110.811C24.1496 110.669 24.3407 110.588 24.541 110.584H130.014C130.214 110.588 130.405 110.669 130.547 110.811C130.689 110.953 130.77 111.144 130.774 111.344V116.421C130.755 116.61 130.667 116.786 130.527 116.915C130.387 117.044 130.204 117.117 130.014 117.12ZM25.2402 115.6H129.193V112.104H25.2402V115.6Z" fill="#012E6C"/>
<path d="M38.7985 111.346H1.57373V116.423H38.7985V111.346Z" fill="#6DB0E2"/>
<path d="M38.7833 117.12H1.57372C1.37216 117.12 1.17885 117.04 1.03632 116.897C0.893791 116.755 0.813721 116.562 0.813721 116.36V111.344C0.813721 111.142 0.893791 110.949 1.03632 110.807C1.17885 110.664 1.37216 110.584 1.57372 110.584H38.7833C38.9849 110.584 39.1782 110.664 39.3207 110.807C39.4632 110.949 39.5433 111.142 39.5433 111.344V116.421C39.528 116.612 39.4412 116.79 39.3003 116.919C39.1594 117.049 38.9748 117.121 38.7833 117.12ZM2.30332 115.6H38.0233V112.104H2.33372L2.30332 115.6Z" fill="#012E6C"/>
<path d="M126.594 126.377H24.5408V131.454H126.594V126.377Z" fill="white"/>
<path d="M126.594 132.199H24.541C24.3394 132.199 24.1461 132.119 24.0036 131.976C23.8611 131.834 23.781 131.64 23.781 131.439V126.377C23.781 126.176 23.8611 125.982 24.0036 125.84C24.1461 125.697 24.3394 125.617 24.541 125.617H126.594C126.795 125.617 126.989 125.697 127.131 125.84C127.274 125.982 127.354 126.176 127.354 126.377V131.439C127.354 131.64 127.274 131.834 127.131 131.976C126.989 132.119 126.795 132.199 126.594 132.199ZM25.301 130.679H125.834V127.137H25.2402L25.301 130.679Z" fill="#012E6C"/>
<path d="M38.7985 126.377H1.57373V131.454H38.7985V126.377Z" fill="#6DB0E2"/>
<path d="M38.7833 132.199H1.57372C1.37216 132.199 1.17885 132.119 1.03632 131.976C0.893791 131.834 0.813721 131.64 0.813721 131.439V126.377C0.813721 126.176 0.893791 125.982 1.03632 125.84C1.17885 125.697 1.37216 125.617 1.57372 125.617H38.7833C38.9849 125.617 39.1782 125.697 39.3207 125.84C39.4632 125.982 39.5433 126.176 39.5433 126.377V131.439C39.5433 131.64 39.4632 131.834 39.3207 131.976C39.1782 132.119 38.9849 132.199 38.7833 132.199ZM2.30332 130.679H38.0233V127.137H2.33372L2.30332 130.679Z" fill="#012E6C"/>
<path d="M126.594 141.395H24.5408V146.471H126.594V141.395Z" fill="white"/>
<path d="M126.594 147.233H24.541C24.3407 147.229 24.1496 147.148 24.0079 147.006C23.8662 146.864 23.7849 146.673 23.781 146.473V141.442C23.781 141.24 23.8611 141.047 24.0036 140.904C24.1461 140.762 24.3394 140.682 24.541 140.682H126.594C126.795 140.682 126.989 140.762 127.131 140.904C127.274 141.047 127.354 141.24 127.354 141.442V146.518C127.342 146.712 127.257 146.894 127.116 147.027C126.974 147.159 126.788 147.233 126.594 147.233ZM25.301 145.713H125.834V142.156H25.2402L25.301 145.713Z" fill="#012E6C"/>
<path d="M38.7985 141.395H1.57373V146.471H38.7985V141.395Z" fill="#6DB0E2"/>
<path d="M38.7833 147.233H1.57372C1.37216 147.233 1.17885 147.153 1.03632 147.01C0.893791 146.868 0.813721 146.674 0.813721 146.473V141.442C0.813721 141.24 0.893791 141.047 1.03632 140.904C1.17885 140.762 1.37216 140.682 1.57372 140.682H38.7833C38.9849 140.682 39.1782 140.762 39.3207 140.904C39.4632 141.047 39.5433 141.24 39.5433 141.442V146.518C39.5317 146.712 39.4465 146.894 39.3052 147.027C39.1639 147.159 38.9772 147.233 38.7833 147.233ZM2.30332 145.713H38.0233V142.156H2.33372L2.30332 145.713Z" fill="#012E6C"/>
<path d="M126.594 156.412H24.5408V161.489H126.594V156.412Z" fill="white"/>
<path d="M126.594 162.249H24.541C24.3394 162.249 24.1461 162.169 24.0036 162.027C23.8611 161.884 23.781 161.691 23.781 161.489V156.412C23.7849 156.212 23.8662 156.021 24.0079 155.879C24.1496 155.738 24.3407 155.656 24.541 155.652H126.594C126.795 155.652 126.989 155.732 127.131 155.875C127.274 156.017 127.354 156.211 127.354 156.412V161.489C127.354 161.691 127.274 161.884 127.131 162.027C126.989 162.169 126.795 162.249 126.594 162.249ZM25.301 160.729H125.834V157.172H25.2402L25.301 160.729Z" fill="#012E6C"/>
<path d="M38.7985 156.412H1.57373V161.489H38.7985V156.412Z" fill="#6DB0E2"/>
<path d="M38.7833 162.249H1.57372C1.37216 162.249 1.17885 162.169 1.03632 162.027C0.893791 161.884 0.813721 161.691 0.813721 161.489V156.412C0.813721 156.211 0.893791 156.017 1.03632 155.875C1.17885 155.732 1.37216 155.652 1.57372 155.652H38.7833C38.9849 155.652 39.1782 155.732 39.3207 155.875C39.4632 156.017 39.5433 156.211 39.5433 156.412V161.489C39.5433 161.691 39.4632 161.884 39.3207 162.027C39.1782 162.169 38.9849 162.249 38.7833 162.249ZM2.30332 160.729H38.0233V157.172H2.33372L2.30332 160.729Z" fill="#012E6C"/>
<path d="M126.594 171.445H24.5408V176.522H126.594V171.445Z" fill="white"/>
<path d="M126.594 177.267H24.541C24.3394 177.267 24.1461 177.187 24.0036 177.045C23.8611 176.902 23.781 176.709 23.781 176.507V171.446C23.781 171.244 23.8611 171.051 24.0036 170.908C24.1461 170.766 24.3394 170.686 24.541 170.686H126.594C126.795 170.686 126.989 170.766 127.131 170.908C127.274 171.051 127.354 171.244 127.354 171.446V176.507C127.354 176.709 127.274 176.902 127.131 177.045C126.989 177.187 126.795 177.267 126.594 177.267ZM25.301 175.747H125.834V172.206H25.2402L25.301 175.747Z" fill="#012E6C"/>
<path d="M38.7985 171.445H1.57373V176.522H38.7985V171.445Z" fill="#6DB0E2"/>
<path d="M38.7833 177.267H1.57372C1.37216 177.267 1.17885 177.187 1.03632 177.045C0.893791 176.902 0.813721 176.709 0.813721 176.507V171.446C0.813721 171.244 0.893791 171.051 1.03632 170.908C1.17885 170.766 1.37216 170.686 1.57372 170.686H38.7833C38.9849 170.686 39.1782 170.766 39.3207 170.908C39.4632 171.051 39.5433 171.244 39.5433 171.446V176.507C39.5433 176.709 39.4632 176.902 39.3207 177.045C39.1782 177.187 38.9849 177.267 38.7833 177.267ZM2.30332 175.747H38.0233V172.206H2.33372L2.30332 175.747Z" fill="#012E6C"/>
<path d="M126.594 186.463H24.5408V191.54H126.594V186.463Z" fill="white"/>
<path d="M126.594 192.3H24.541C24.3407 192.296 24.1496 192.215 24.0079 192.073C23.8662 191.931 23.7849 191.74 23.781 191.54V186.463C23.7849 186.263 23.8662 186.072 24.0079 185.93C24.1496 185.788 24.3407 185.707 24.541 185.703H126.594C126.795 185.703 126.989 185.783 127.131 185.926C127.274 186.068 127.354 186.262 127.354 186.463V191.601C127.338 191.792 127.252 191.97 127.111 192.099C126.97 192.229 126.785 192.301 126.594 192.3ZM25.301 190.78H125.834V187.223H25.2402L25.301 190.78Z" fill="#012E6C"/>
<path d="M38.7985 186.463H1.57373V191.54H38.7985V186.463Z" fill="#6DB0E2"/>
<path d="M38.7833 192.3H1.57372C1.37216 192.3 1.17885 192.22 1.03632 192.077C0.893791 191.935 0.813721 191.742 0.813721 191.54V186.463C0.813721 186.262 0.893791 186.068 1.03632 185.926C1.17885 185.783 1.37216 185.703 1.57372 185.703H38.7833C38.9849 185.703 39.1782 185.783 39.3207 185.926C39.4632 186.068 39.5433 186.262 39.5433 186.463V191.601C39.528 191.792 39.4412 191.97 39.3003 192.099C39.1594 192.229 38.9748 192.301 38.7833 192.3ZM2.30332 190.78H38.0233V187.223H2.33372L2.30332 190.78Z" fill="#012E6C"/>
<path d="M126.594 201.496H24.5408V206.573H126.594V201.496Z" fill="white"/>
<path d="M126.594 207.318H24.541C24.3394 207.318 24.1461 207.238 24.0036 207.095C23.8611 206.953 23.781 206.759 23.781 206.558V201.496C23.781 201.295 23.8611 201.101 24.0036 200.959C24.1461 200.816 24.3394 200.736 24.541 200.736H126.594C126.795 200.736 126.989 200.816 127.131 200.959C127.274 201.101 127.354 201.295 127.354 201.496V206.558C127.354 206.759 127.274 206.953 127.131 207.095C126.989 207.238 126.795 207.318 126.594 207.318ZM25.301 205.798H125.834V202.241H25.2402L25.301 205.798Z" fill="#012E6C"/>
<path d="M38.7985 201.496H1.57373V206.573H38.7985V201.496Z" fill="#6DB0E2"/>
<path d="M38.7833 207.318H1.57372C1.37216 207.318 1.17885 207.238 1.03632 207.095C0.893791 206.953 0.813721 206.759 0.813721 206.558V201.496C0.813721 201.295 0.893791 201.101 1.03632 200.959C1.17885 200.816 1.37216 200.736 1.57372 200.736H38.7833C38.9849 200.736 39.1782 200.816 39.3207 200.959C39.4632 201.101 39.5433 201.295 39.5433 201.496V206.558C39.5433 206.759 39.4632 206.953 39.3207 207.095C39.1782 207.238 38.9849 207.318 38.7833 207.318ZM2.30332 205.798H38.0233V202.241H2.33372L2.30332 205.798Z" fill="#012E6C"/>
<path d="M126.594 216.514H24.5408V221.59H126.594V216.514Z" fill="white"/>
<path d="M126.594 222.351H24.541C24.3407 222.347 24.1496 222.265 24.0079 222.124C23.8662 221.982 23.7849 221.791 23.781 221.591V216.514C23.781 216.312 23.8611 216.119 24.0036 215.977C24.1461 215.834 24.3394 215.754 24.541 215.754H126.594C126.795 215.754 126.989 215.834 127.131 215.977C127.274 216.119 127.354 216.312 127.354 216.514V221.591C127.354 221.792 127.274 221.986 127.131 222.128C126.989 222.271 126.795 222.351 126.594 222.351ZM25.301 220.831H125.834V217.274H25.2402L25.301 220.831Z" fill="#012E6C"/>
<path d="M38.7985 216.514H1.57373V221.59H38.7985V216.514Z" fill="#6DB0E2"/>
<path d="M38.7833 222.351H1.57372C1.37216 222.351 1.17885 222.271 1.03632 222.128C0.893791 221.986 0.813721 221.792 0.813721 221.591V216.514C0.813721 216.312 0.893791 216.119 1.03632 215.977C1.17885 215.834 1.37216 215.754 1.57372 215.754H38.7833C38.9849 215.754 39.1782 215.834 39.3207 215.977C39.4632 216.119 39.5433 216.312 39.5433 216.514V221.591C39.5433 221.792 39.4632 221.986 39.3207 222.128C39.1782 222.271 38.9849 222.351 38.7833 222.351ZM2.30332 220.831H38.0233V217.274H2.33372L2.30332 220.831Z" fill="#012E6C"/>
<path d="M126.594 231.531H24.5408V236.608H126.594V231.531Z" fill="white"/>
<path d="M126.594 237.368H24.541C24.3394 237.368 24.1461 237.288 24.0036 237.146C23.8611 237.003 23.781 236.81 23.781 236.608V231.531C23.7849 231.331 23.8662 231.14 24.0079 230.998C24.1496 230.857 24.3407 230.775 24.541 230.771H126.594C126.795 230.771 126.989 230.852 127.131 230.994C127.274 231.137 127.354 231.33 127.354 231.531V236.608C127.354 236.81 127.274 237.003 127.131 237.146C126.989 237.288 126.795 237.368 126.594 237.368ZM25.301 235.848H125.834V232.291H25.2402L25.301 235.848Z" fill="#012E6C"/>
<path d="M38.7985 231.531H1.57373V236.608H38.7985V231.531Z" fill="#6DB0E2"/>
<path d="M38.7833 237.368H1.57372C1.37216 237.368 1.17885 237.288 1.03632 237.146C0.893791 237.003 0.813721 236.81 0.813721 236.608V231.531C0.813721 231.33 0.893791 231.137 1.03632 230.994C1.17885 230.852 1.37216 230.771 1.57372 230.771H38.7833C38.9849 230.771 39.1782 230.852 39.3207 230.994C39.4632 231.137 39.5433 231.33 39.5433 231.531V236.608C39.5433 236.81 39.4632 237.003 39.3207 237.146C39.1782 237.288 38.9849 237.368 38.7833 237.368ZM2.30332 235.848H38.0233V232.291H2.33372L2.30332 235.848Z" fill="#012E6C"/>
<path d="M126.594 246.564H24.5408V251.641H126.594V246.564Z" fill="white"/>
<path d="M126.594 252.401H24.541C24.3407 252.398 24.1496 252.316 24.0079 252.175C23.8662 252.033 23.7849 251.842 23.781 251.641V246.565C23.781 246.363 23.8611 246.17 24.0036 246.027C24.1461 245.885 24.3394 245.805 24.541 245.805H126.594C126.795 245.805 126.989 245.885 127.131 246.027C127.274 246.17 127.354 246.363 127.354 246.565V251.641C127.354 251.843 127.274 252.036 127.131 252.179C126.989 252.321 126.795 252.401 126.594 252.401ZM25.2402 250.881H125.773V247.325H25.2402V250.881Z" fill="#012E6C"/>
<path d="M38.7985 246.564H1.57373V251.641H38.7985V246.564Z" fill="#6DB0E2"/>
<path d="M38.7833 252.401H1.57372C1.37216 252.401 1.17885 252.321 1.03632 252.179C0.893791 252.036 0.813721 251.843 0.813721 251.641V246.565C0.813721 246.363 0.893791 246.17 1.03632 246.027C1.17885 245.885 1.37216 245.805 1.57372 245.805H38.7833C38.9849 245.805 39.1782 245.885 39.3207 246.027C39.4632 246.17 39.5433 246.363 39.5433 246.565V251.641C39.5433 251.843 39.4632 252.036 39.3207 252.179C39.1782 252.321 38.9849 252.401 38.7833 252.401ZM2.30332 250.881H38.0233V247.325H2.33372L2.30332 250.881Z" fill="#012E6C"/>
<path d="M161.493 258.937C161.567 261.641 161.098 264.333 160.115 266.854C159.131 269.374 157.652 271.671 155.765 273.61C153.879 275.55 151.623 277.091 149.13 278.143C146.638 279.196 143.96 279.738 141.254 279.738C138.549 279.738 135.871 279.196 133.378 278.143C130.886 277.091 128.63 275.55 126.743 273.61C124.856 271.671 123.377 269.374 122.394 266.854C121.41 264.333 120.941 261.641 121.015 258.937C121.015 247.765 130.135 210.297 141.247 210.297C152.358 210.297 161.493 247.841 161.493 258.937Z" fill="#E30238"/>
<path d="M141.854 294.505C141.451 294.505 141.065 294.345 140.78 294.06C140.495 293.775 140.334 293.388 140.334 292.985V247.522C140.334 247.119 140.495 246.732 140.78 246.447C141.065 246.162 141.451 246.002 141.854 246.002C142.258 246.002 142.644 246.162 142.929 246.447C143.214 246.732 143.374 247.119 143.374 247.522V292.985C143.374 293.388 143.214 293.775 142.929 294.06C142.644 294.345 142.258 294.505 141.854 294.505Z" fill="#012E6C"/>
<path d="M340.26 260.777C340.26 266.142 338.129 271.288 334.334 275.082C330.54 278.876 325.394 281.008 320.029 281.008C314.663 281.008 309.517 278.876 305.723 275.082C301.929 271.288 299.798 266.142 299.798 260.777C299.798 249.605 308.918 212.137 320.029 212.137C331.14 212.137 340.26 249.605 340.26 260.777Z" fill="#E30238"/>
<path d="M320.637 296.343C320.234 296.343 319.847 296.183 319.562 295.898C319.277 295.613 319.117 295.226 319.117 294.823V249.36C319.117 248.957 319.277 248.57 319.562 248.285C319.847 248 320.234 247.84 320.637 247.84C321.04 247.84 321.427 248 321.712 248.285C321.997 248.57 322.157 248.957 322.157 249.36V294.823C322.157 295.226 321.997 295.613 321.712 295.898C321.427 296.183 321.04 296.343 320.637 296.343Z" fill="#012E6C"/>
<path d="M100.115 293C98.8537 290.127 95.8593 285.233 88.6393 278.986C76.8441 268.802 68.0889 278.986 68.0889 278.986C50.0161 257.387 29.1009 276.721 29.1009 276.721C13.9009 272.951 3.64088 287.954 0.646484 293.061L100.115 293Z" fill="#E30238"/>
<path d="M428.739 293.001C427.493 290.128 424.498 285.233 417.278 278.986C405.483 268.802 396.728 278.986 396.728 278.986C378.655 257.387 357.74 276.661 357.74 276.661C342.54 272.891 332.28 287.893 329.286 293.001H428.739Z" fill="#E30238"/>
<path d="M264.61 293.001C263.363 290.128 260.354 285.233 253.134 278.986C241.354 268.802 232.598 278.986 232.598 278.986C214.526 257.387 193.595 276.661 193.595 276.661C178.395 272.891 168.15 287.893 165.156 293.001H264.61Z" fill="#E30238"/>
<path d="M305.361 293.001C302.321 287.893 292.122 272.891 276.906 276.661C276.906 276.661 255.976 257.387 237.903 278.986C237.903 278.986 229.163 268.802 217.368 278.986C210.148 285.233 207.138 290.128 205.892 293.001H305.361Z" fill="#E30238"/>
<path d="M469.354 313.733H1.57372C1.37216 313.733 1.17885 313.653 1.03632 313.51C0.893791 313.368 0.813721 313.174 0.813721 312.973C0.813721 312.771 0.893791 312.578 1.03632 312.435C1.17885 312.293 1.37216 312.213 1.57372 312.213H469.354C469.555 312.213 469.749 312.293 469.891 312.435C470.034 312.578 470.114 312.771 470.114 312.973C470.114 313.174 470.034 313.368 469.891 313.51C469.749 313.653 469.555 313.733 469.354 313.733Z" fill="#012E6C"/>
<path d="M469.354 367.374H1.57372C1.37216 367.374 1.17885 367.293 1.03632 367.151C0.893791 367.008 0.813721 366.815 0.813721 366.614C0.813721 366.412 0.893791 366.219 1.03632 366.076C1.17885 365.934 1.37216 365.854 1.57372 365.854H469.354C469.555 365.854 469.749 365.934 469.891 366.076C470.034 366.219 470.114 366.412 470.114 366.614C470.114 366.815 470.034 367.008 469.891 367.151C469.749 367.293 469.555 367.374 469.354 367.374Z" fill="#012E6C"/>
<path d="M19.8137 340.561H1.57372C1.37216 340.561 1.17885 340.481 1.03632 340.338C0.893791 340.196 0.813721 340.003 0.813721 339.801C0.813721 339.599 0.893791 339.406 1.03632 339.264C1.17885 339.121 1.37216 339.041 1.57372 339.041H19.8137C20.0141 339.045 20.2051 339.126 20.3468 339.268C20.4885 339.41 20.5698 339.601 20.5737 339.801C20.5737 340.003 20.4936 340.196 20.3511 340.338C20.2086 340.481 20.0153 340.561 19.8137 340.561Z" fill="#012E6C"/>
<path d="M51.916 340.561H33.676C33.4745 340.561 33.2811 340.481 33.1386 340.338C32.9961 340.196 32.916 340.003 32.916 339.801C32.9199 339.601 33.0012 339.41 33.1429 339.268C33.2846 339.126 33.4757 339.045 33.676 339.041H51.916C52.1176 339.041 52.3109 339.121 52.4534 339.264C52.5959 339.406 52.676 339.599 52.676 339.801C52.676 340.003 52.5959 340.196 52.4534 340.338C52.3109 340.481 52.1176 340.561 51.916 340.561Z" fill="#012E6C"/>
<path d="M84.0337 340.561H65.7937C65.5921 340.561 65.3988 340.481 65.2563 340.338C65.1138 340.196 65.0337 340.003 65.0337 339.801C65.0337 339.599 65.1138 339.406 65.2563 339.264C65.3988 339.121 65.5921 339.041 65.7937 339.041H84.0337C84.234 339.045 84.4251 339.126 84.5668 339.268C84.7085 339.41 84.7898 339.601 84.7937 339.801C84.7937 340.003 84.7136 340.196 84.5711 340.338C84.4286 340.481 84.2353 340.561 84.0337 340.561Z" fill="#012E6C"/>
<path d="M116.136 340.561H97.896C97.6944 340.561 97.5011 340.481 97.3586 340.338C97.2161 340.196 97.136 340.003 97.136 339.801C97.1399 339.601 97.2212 339.41 97.3629 339.268C97.5046 339.126 97.6956 339.045 97.896 339.041H116.136C116.338 339.041 116.531 339.121 116.673 339.264C116.816 339.406 116.896 339.599 116.896 339.801C116.896 340.003 116.816 340.196 116.673 340.338C116.531 340.481 116.338 340.561 116.136 340.561Z" fill="#012E6C"/>
<path d="M148.254 340.561H130.014C129.812 340.561 129.619 340.481 129.476 340.338C129.334 340.196 129.254 340.003 129.254 339.801C129.254 339.599 129.334 339.406 129.476 339.264C129.619 339.121 129.812 339.041 130.014 339.041H148.254C148.454 339.045 148.645 339.126 148.787 339.268C148.928 339.41 149.01 339.601 149.014 339.801C149.014 340.003 148.934 340.196 148.791 340.338C148.649 340.481 148.455 340.561 148.254 340.561Z" fill="#012E6C"/>
<path d="M180.356 340.561H162.116C161.915 340.561 161.721 340.481 161.579 340.338C161.436 340.196 161.356 340.003 161.356 339.801C161.36 339.601 161.441 339.41 161.583 339.268C161.725 339.126 161.916 339.045 162.116 339.041H180.356C180.558 339.041 180.751 339.121 180.894 339.264C181.036 339.406 181.116 339.599 181.116 339.801C181.116 340.003 181.036 340.196 180.894 340.338C180.751 340.481 180.558 340.561 180.356 340.561Z" fill="#012E6C"/>
<path d="M212.474 340.561H194.234C194.032 340.561 193.839 340.481 193.696 340.338C193.554 340.196 193.474 340.003 193.474 339.801C193.474 339.599 193.554 339.406 193.696 339.264C193.839 339.121 194.032 339.041 194.234 339.041H212.474C212.674 339.045 212.865 339.126 213.007 339.268C213.148 339.41 213.23 339.601 213.234 339.801C213.234 340.003 213.154 340.196 213.011 340.338C212.869 340.481 212.675 340.561 212.474 340.561Z" fill="#012E6C"/>
<path d="M244.576 340.561H226.336C226.135 340.561 225.941 340.481 225.799 340.338C225.656 340.196 225.576 340.003 225.576 339.801C225.58 339.601 225.661 339.41 225.803 339.268C225.945 339.126 226.136 339.045 226.336 339.041H244.576C244.778 339.041 244.971 339.121 245.114 339.264C245.256 339.406 245.336 339.599 245.336 339.801C245.336 340.003 245.256 340.196 245.114 340.338C244.971 340.481 244.778 340.561 244.576 340.561Z" fill="#012E6C"/>
<path d="M276.694 340.561H258.454C258.252 340.561 258.059 340.481 257.916 340.338C257.774 340.196 257.694 340.003 257.694 339.801C257.694 339.599 257.774 339.406 257.916 339.264C258.059 339.121 258.252 339.041 258.454 339.041H276.694C276.894 339.045 277.085 339.126 277.227 339.268C277.368 339.41 277.45 339.601 277.454 339.801C277.454 340.003 277.374 340.196 277.231 340.338C277.088 340.481 276.895 340.561 276.694 340.561Z" fill="#012E6C"/>
<path d="M308.796 340.561H290.556C290.355 340.561 290.161 340.481 290.019 340.338C289.876 340.196 289.796 340.003 289.796 339.801C289.8 339.601 289.881 339.41 290.023 339.268C290.165 339.126 290.356 339.045 290.556 339.041H308.796C308.998 339.041 309.191 339.121 309.334 339.264C309.476 339.406 309.556 339.599 309.556 339.801C309.556 340.003 309.476 340.196 309.334 340.338C309.191 340.481 308.998 340.561 308.796 340.561Z" fill="#012E6C"/>
<path d="M340.914 340.561H322.674C322.472 340.561 322.279 340.481 322.136 340.338C321.994 340.196 321.914 340.003 321.914 339.801C321.914 339.599 321.994 339.406 322.136 339.264C322.279 339.121 322.472 339.041 322.674 339.041H340.914C341.115 339.041 341.308 339.121 341.451 339.264C341.593 339.406 341.674 339.599 341.674 339.801C341.674 340.003 341.593 340.196 341.451 340.338C341.308 340.481 341.115 340.561 340.914 340.561Z" fill="#012E6C"/>
<path d="M373.016 340.561H354.776C354.575 340.561 354.381 340.481 354.239 340.338C354.096 340.196 354.016 340.003 354.016 339.801C354.016 339.599 354.096 339.406 354.239 339.264C354.381 339.121 354.575 339.041 354.776 339.041H373.016C373.218 339.041 373.411 339.121 373.554 339.264C373.696 339.406 373.776 339.599 373.776 339.801C373.776 340.003 373.696 340.196 373.554 340.338C373.411 340.481 373.218 340.561 373.016 340.561Z" fill="#012E6C"/>
<path d="M405.134 340.561H386.894C386.692 340.561 386.499 340.481 386.356 340.338C386.214 340.196 386.134 340.003 386.134 339.801C386.134 339.599 386.214 339.406 386.356 339.264C386.499 339.121 386.692 339.041 386.894 339.041H405.134C405.335 339.041 405.529 339.121 405.671 339.264C405.814 339.406 405.894 339.599 405.894 339.801C405.894 340.003 405.814 340.196 405.671 340.338C405.529 340.481 405.335 340.561 405.134 340.561Z" fill="#012E6C"/>
<path d="M437.236 340.561H418.996C418.795 340.561 418.601 340.481 418.459 340.338C418.316 340.196 418.236 340.003 418.236 339.801C418.236 339.599 418.316 339.406 418.459 339.264C418.601 339.121 418.795 339.041 418.996 339.041H437.236C437.438 339.041 437.631 339.121 437.774 339.264C437.916 339.406 437.996 339.599 437.996 339.801C437.996 340.003 437.916 340.196 437.774 340.338C437.631 340.481 437.438 340.561 437.236 340.561Z" fill="#012E6C"/>
<path d="M469.354 340.561H451.114C450.912 340.561 450.719 340.481 450.576 340.338C450.434 340.196 450.354 340.003 450.354 339.801C450.354 339.599 450.434 339.406 450.576 339.264C450.719 339.121 450.912 339.041 451.114 339.041H469.354C469.555 339.041 469.749 339.121 469.891 339.264C470.034 339.406 470.114 339.599 470.114 339.801C470.114 340.003 470.034 340.196 469.891 340.338C469.749 340.481 469.555 340.561 469.354 340.561Z" fill="#012E6C"/>
<path d="M76.3882 349.94H33.6306C27.049 349.94 12.1986 345.38 11.4234 343.86C10.6482 342.34 11.4234 334.421 11.4234 334.421H13.3538C13.3538 334.421 13.2322 325.635 14.129 324.48C15.0258 323.325 25.2402 323.188 26.7298 322.793C28.2194 322.398 36.473 314.661 56.233 312.852C75.993 311.043 94.233 317.412 101.651 324.48C101.651 324.48 120.179 325.772 126.898 326.547C133.616 327.322 140.456 331.107 140.715 331.974C140.973 332.84 141.368 336.017 141.368 336.017C141.368 336.017 143.299 337.658 143.435 338.692C143.572 339.726 143.435 346.186 143.435 347.599C143.435 349.013 141.49 349.53 140.395 349.925C139.301 350.32 76.3882 349.94 76.3882 349.94Z" fill="#E30238"/>
<path d="M36.4121 355.396C41.7596 355.396 46.0945 351.061 46.0945 345.714C46.0945 340.366 41.7596 336.031 36.4121 336.031C31.0647 336.031 26.7297 340.366 26.7297 345.714C26.7297 351.061 31.0647 355.396 36.4121 355.396Z" fill="#012E6C"/>
<path d="M36.4121 356.156C34.3468 356.156 32.3279 355.544 30.6106 354.396C28.8934 353.249 27.555 351.618 26.7646 349.71C25.9743 347.802 25.7675 345.702 26.1704 343.677C26.5733 341.651 27.5679 339.79 29.0282 338.33C30.4886 336.87 32.3493 335.875 34.3749 335.472C36.4005 335.069 38.5002 335.276 40.4083 336.066C42.3164 336.857 43.9472 338.195 45.0947 339.912C46.2421 341.63 46.8545 343.649 46.8545 345.714C46.8505 348.482 45.749 351.136 43.7916 353.093C41.8341 355.051 39.1804 356.152 36.4121 356.156ZM36.4121 336.791C34.6474 336.791 32.9224 337.315 31.4551 338.295C29.9878 339.276 28.8442 340.669 28.1689 342.299C27.4936 343.93 27.3169 345.724 27.6612 347.455C28.0054 349.185 28.8552 350.775 30.103 352.023C31.3509 353.271 32.9407 354.121 34.6715 354.465C36.4022 354.809 38.1962 354.632 39.8266 353.957C41.4569 353.282 42.8504 352.138 43.8308 350.671C44.8112 349.204 45.3345 347.479 45.3345 345.714C45.3345 343.348 44.3945 341.078 42.7212 339.405C41.0479 337.732 38.7785 336.791 36.4121 336.791Z" fill="#012E6C"/>
<path d="M36.412 351.854C39.8035 351.854 42.5528 349.105 42.5528 345.713C42.5528 342.322 39.8035 339.572 36.412 339.572C33.0206 339.572 30.2712 342.322 30.2712 345.713C30.2712 349.105 33.0206 351.854 36.412 351.854Z" fill="white"/>
<path d="M36.412 352.614C35.0472 352.614 33.713 352.209 32.5782 351.451C31.4433 350.693 30.5588 349.615 30.0365 348.354C29.5142 347.093 29.3776 345.706 29.6438 344.367C29.9101 343.028 30.5673 341.799 31.5324 340.834C32.4975 339.869 33.7271 339.211 35.0658 338.945C36.4044 338.679 37.7919 338.815 39.0529 339.338C40.3138 339.86 41.3916 340.745 42.1498 341.879C42.9081 343.014 43.3128 344.348 43.3128 345.713C43.3088 347.542 42.5805 349.295 41.2872 350.588C39.9939 351.882 38.241 352.61 36.412 352.614ZM36.412 340.333C35.3478 340.333 34.3075 340.648 33.4226 341.239C32.5378 341.831 31.8481 342.671 31.4408 343.654C31.0336 344.637 30.927 345.719 31.1346 346.763C31.3422 347.807 31.8547 348.766 32.6072 349.518C33.3598 350.271 34.3185 350.783 35.3623 350.991C36.4061 351.198 37.488 351.092 38.4712 350.684C39.4544 350.277 40.2948 349.588 40.886 348.703C41.4773 347.818 41.7928 346.778 41.7928 345.713C41.7888 344.287 41.2206 342.921 40.2124 341.913C39.2042 340.905 37.8379 340.337 36.412 340.333Z" fill="#012E6C"/>
<path d="M121.061 355.396C126.408 355.396 130.743 351.061 130.743 345.714C130.743 340.366 126.408 336.031 121.061 336.031C115.713 336.031 111.378 340.366 111.378 345.714C111.378 351.061 115.713 355.396 121.061 355.396Z" fill="#012E6C"/>
<path d="M121 356.156C118.935 356.156 116.916 355.544 115.199 354.396C113.481 353.249 112.143 351.618 111.352 349.71C110.562 347.802 110.355 345.702 110.758 343.677C111.161 341.651 112.156 339.79 113.616 338.33C115.077 336.87 116.937 335.875 118.963 335.472C120.988 335.069 123.088 335.276 124.996 336.066C126.904 336.857 128.535 338.195 129.683 339.912C130.83 341.63 131.442 343.649 131.442 345.714C131.438 348.482 130.337 351.136 128.379 353.093C126.422 355.051 123.768 356.152 121 356.156ZM121 336.791C119.235 336.791 117.51 337.315 116.043 338.295C114.576 339.276 113.432 340.669 112.757 342.299C112.081 343.93 111.905 345.724 112.249 347.455C112.593 349.185 113.443 350.775 114.691 352.023C115.939 353.271 117.529 354.121 119.259 354.465C120.99 354.809 122.784 354.632 124.414 353.957C126.045 353.282 127.438 352.138 128.419 350.671C129.399 349.204 129.922 347.479 129.922 345.714C129.922 343.348 128.982 341.078 127.309 339.405C125.636 337.732 123.366 336.791 121 336.791Z" fill="#012E6C"/>
<path d="M121.061 351.854C124.452 351.854 127.202 349.105 127.202 345.713C127.202 342.322 124.452 339.572 121.061 339.572C117.669 339.572 114.92 342.322 114.92 345.713C114.92 349.105 117.669 351.854 121.061 351.854Z" fill="white"/>
<path d="M121 352.614C119.635 352.614 118.301 352.209 117.166 351.451C116.031 350.693 115.147 349.615 114.625 348.354C114.102 347.093 113.966 345.706 114.232 344.367C114.498 343.028 115.155 341.799 116.121 340.834C117.086 339.869 118.315 339.211 119.654 338.945C120.993 338.679 122.38 338.815 123.641 339.338C124.902 339.86 125.98 340.745 126.738 341.879C127.496 343.014 127.901 344.348 127.901 345.713C127.897 347.542 127.169 349.295 125.875 350.588C124.582 351.882 122.829 352.61 121 352.614ZM121 340.333C119.936 340.333 118.896 340.648 118.011 341.239C117.126 341.831 116.436 342.671 116.029 343.654C115.622 344.637 115.515 345.719 115.723 346.763C115.93 347.807 116.443 348.766 117.195 349.518C117.948 350.271 118.907 350.783 119.95 350.991C120.994 351.198 122.076 351.092 123.059 350.684C124.043 350.277 124.883 349.588 125.474 348.703C126.065 347.818 126.381 346.778 126.381 345.713C126.377 344.287 125.809 342.921 124.801 341.913C123.792 340.905 122.426 340.337 121 340.333Z" fill="#012E6C"/>
<path d="M60.9298 326.471V314.311C60.9298 314.311 47.7058 315.618 42.553 318.46C35.865 322.154 31.0314 326.501 33.7522 326.501L60.9298 326.471Z" fill="#012E6C"/>
<path d="M95.3273 326.47C95.0689 325.71 88.6393 320.055 82.7417 317.699C76.7565 315.547 70.4517 314.416 64.0913 314.355V326.515L95.3273 326.47Z" fill="#012E6C"/>
<path d="M62.8297 347.704C62.7289 347.704 62.6323 347.664 62.561 347.593C62.4897 347.522 62.4497 347.425 62.4497 347.324V327.868C62.4497 327.767 62.4897 327.671 62.561 327.6C62.6323 327.528 62.7289 327.488 62.8297 327.488C62.9305 327.488 63.0271 327.528 63.0984 327.6C63.1697 327.671 63.2097 327.767 63.2097 327.868V347.324C63.2097 347.425 63.1697 347.522 63.0984 347.593C63.0271 347.664 62.9305 347.704 62.8297 347.704Z" fill="#012E6C"/>
<path d="M134.026 339.162H142.599V344.452H137.355C136.92 344.452 136.489 344.366 136.087 344.199C135.685 344.033 135.32 343.789 135.012 343.481C134.704 343.173 134.46 342.808 134.294 342.406C134.127 342.004 134.042 341.573 134.042 341.138V339.177L134.026 339.162Z" fill="white"/>
<path d="M443.726 345.562C442.693 347.842 441.294 351.414 436.263 351.414C431.232 351.414 310.802 352.235 307.17 351.414C306.046 351.078 305.022 350.471 304.187 349.647C303.352 348.823 302.732 347.806 302.382 346.687C302.382 346.687 301.834 339.087 302.093 336.047C302.076 335.911 302.076 335.773 302.093 335.637C302.189 334.882 302.458 334.16 302.88 333.527C303.302 332.894 303.865 332.368 304.525 331.989C304.232 329.833 304.408 327.64 305.042 325.559C306.075 323.142 318.919 312.396 318.919 312.396C318.919 312.396 316.138 311.682 315.621 310.42C315.104 309.158 369.718 306.164 379.461 308.125C389.204 310.086 412.901 327.003 412.901 327.003C412.901 327.003 437.631 327.307 440.261 329.557C442.89 331.806 444.76 343.282 443.726 345.562Z" fill="#E30238"/>
<path d="M329.544 360.213C334.959 360.213 339.348 355.824 339.348 350.409C339.348 344.995 334.959 340.605 329.544 340.605C324.129 340.605 319.74 344.995 319.74 350.409C319.74 355.824 324.129 360.213 329.544 360.213Z" fill="#012E6C"/>
<path d="M329.544 355.26C332.222 355.26 334.393 353.089 334.393 350.411C334.393 347.733 332.222 345.562 329.544 345.562C326.866 345.562 324.695 347.733 324.695 350.411C324.695 353.089 326.866 355.26 329.544 355.26Z" fill="white"/>
<path d="M329.544 356.035C328.431 356.038 327.342 355.711 326.415 355.095C325.488 354.479 324.765 353.601 324.337 352.574C323.909 351.546 323.796 350.415 324.011 349.323C324.226 348.231 324.761 347.228 325.547 346.44C326.333 345.652 327.335 345.115 328.426 344.896C329.517 344.678 330.649 344.789 331.677 345.214C332.706 345.639 333.585 346.36 334.204 347.285C334.823 348.21 335.153 349.298 335.153 350.411C335.153 351.9 334.562 353.328 333.511 354.383C332.46 355.437 331.033 356.031 329.544 356.035ZM329.544 346.322C328.731 346.319 327.935 346.558 327.258 347.008C326.581 347.457 326.053 348.098 325.74 348.849C325.428 349.599 325.345 350.426 325.503 351.223C325.661 352.021 326.052 352.753 326.627 353.328C327.202 353.903 327.934 354.294 328.732 354.452C329.529 354.61 330.356 354.527 331.106 354.215C331.857 353.902 332.498 353.374 332.947 352.697C333.397 352.02 333.636 351.224 333.633 350.411C333.629 349.328 333.197 348.29 332.431 347.524C331.665 346.758 330.627 346.326 329.544 346.322Z" fill="#012E6C"/>
<path d="M415.09 360.213C420.504 360.213 424.894 355.824 424.894 350.409C424.894 344.995 420.504 340.605 415.09 340.605C409.675 340.605 405.286 344.995 405.286 350.409C405.286 355.824 409.675 360.213 415.09 360.213Z" fill="#012E6C"/>
<path d="M415.09 355.26C417.768 355.26 419.939 353.089 419.939 350.411C419.939 347.733 417.768 345.562 415.09 345.562C412.412 345.562 410.241 347.733 410.241 350.411C410.241 353.089 412.412 355.26 415.09 355.26Z" fill="white"/>
<path d="M415.09 356.035C413.978 356.035 412.89 355.705 411.965 355.087C411.04 354.469 410.32 353.591 409.894 352.563C409.468 351.536 409.357 350.405 409.574 349.314C409.791 348.223 410.327 347.221 411.113 346.434C411.9 345.648 412.902 345.112 413.993 344.895C415.084 344.678 416.214 344.79 417.242 345.215C418.27 345.641 419.148 346.362 419.766 347.287C420.384 348.211 420.714 349.299 420.714 350.411C420.714 351.903 420.121 353.333 419.067 354.388C418.012 355.443 416.581 356.035 415.09 356.035ZM415.09 346.322C414.277 346.322 413.483 346.563 412.808 347.015C412.133 347.467 411.607 348.109 411.297 348.859C410.987 349.61 410.906 350.436 411.066 351.233C411.225 352.029 411.618 352.76 412.193 353.334C412.769 353.907 413.501 354.297 414.299 354.453C415.096 354.61 415.921 354.527 416.671 354.214C417.421 353.901 418.06 353.372 418.51 352.695C418.959 352.018 419.197 351.223 419.194 350.411C419.19 349.325 418.756 348.285 417.986 347.519C417.217 346.753 416.176 346.322 415.09 346.322Z" fill="#012E6C"/>
<path d="M319.74 313.885C319.315 314.158 308.72 324.038 308.72 324.038C310.685 323.886 312.612 323.408 314.42 322.625C317.369 321.318 322.431 315.542 322.431 315.542L319.74 313.885Z" fill="#012E6C"/>
<path d="M308.72 324.799C308.57 324.797 308.423 324.75 308.299 324.665C308.175 324.579 308.079 324.459 308.024 324.319C307.969 324.179 307.956 324.025 307.988 323.878C308.02 323.731 308.095 323.596 308.203 323.492C312.186 319.768 318.919 313.506 319.36 313.247C319.476 313.173 319.61 313.133 319.748 313.133C319.885 313.133 320.02 313.173 320.135 313.247L322.826 314.889C322.922 314.946 323.004 315.023 323.067 315.116C323.129 315.208 323.171 315.313 323.188 315.423C323.206 315.534 323.198 315.647 323.167 315.754C323.136 315.861 323.082 315.96 323.008 316.044C322.795 316.287 317.795 321.957 314.724 323.31C312.84 324.155 310.825 324.67 308.766 324.83L308.72 324.799ZM319.816 314.828C318.555 315.938 314.481 319.707 311.031 322.93C312.072 322.688 313.09 322.352 314.071 321.926C316.244 320.954 319.801 317.245 321.215 315.71L319.816 314.828Z" fill="#012E6C"/>
<path d="M337.357 312.502C337.357 312.502 330.76 313.277 327.994 314.98C327.158 318.962 329.635 328.356 337.707 328.462L337.357 312.502Z" fill="#012E6C"/>
<path d="M337.706 329.222C336.239 329.225 334.79 328.891 333.473 328.245C332.155 327.6 331.003 326.66 330.106 325.498C328.945 324.004 328.092 322.294 327.599 320.467C327.106 318.64 326.982 316.734 327.234 314.858C327.253 314.755 327.294 314.656 327.355 314.57C327.415 314.483 327.493 314.411 327.583 314.357C330.456 312.593 336.977 311.803 337.25 311.773C337.356 311.76 337.464 311.77 337.566 311.802C337.668 311.833 337.762 311.885 337.843 311.955C337.925 312.024 337.99 312.11 338.035 312.207C338.08 312.305 338.102 312.41 338.102 312.517L338.451 328.477C338.453 328.582 338.434 328.685 338.394 328.782C338.355 328.878 338.297 328.966 338.223 329.04C338.08 329.163 337.895 329.228 337.706 329.222ZM328.678 315.451C328.374 318.714 329.313 321.97 331.307 324.571C331.982 325.447 332.829 326.176 333.796 326.712C334.763 327.248 335.83 327.58 336.931 327.687L336.612 313.384C333.885 313.705 331.215 314.4 328.678 315.451Z" fill="#012E6C"/>
<path d="M313.326 331.941C312.543 333.307 311.443 334.464 310.118 335.316C308.918 335.969 305.71 336.045 303.476 336C303.476 335.848 303.476 335.711 303.476 335.589C303.572 334.835 303.842 334.113 304.264 333.48C304.686 332.847 305.248 332.32 305.908 331.941H313.326Z" fill="white"/>
<path d="M437.92 345.942H305.163C305.062 345.942 304.966 345.902 304.895 345.83C304.823 345.759 304.783 345.662 304.783 345.562C304.783 345.461 304.823 345.364 304.895 345.293C304.966 345.222 305.062 345.182 305.163 345.182H437.92C438.021 345.182 438.117 345.222 438.189 345.293C438.26 345.364 438.3 345.461 438.3 345.562C438.3 345.662 438.26 345.759 438.189 345.83C438.117 345.902 438.021 345.942 437.92 345.942Z" fill="#012E6C"/>
<path d="M341.4 328.765V312.501C341.4 312.501 358.12 312.182 362.239 312.592L361.707 328.902L341.4 328.765Z" fill="#012E6C"/>
<path d="M361.647 329.662L341.4 329.525C341.199 329.525 341.005 329.445 340.863 329.303C340.72 329.16 340.64 328.967 340.64 328.765V312.501C340.644 312.304 340.723 312.115 340.862 311.973C341 311.832 341.187 311.749 341.385 311.741C342.069 311.741 358.105 311.422 362.315 311.833C362.507 311.855 362.684 311.949 362.811 312.095C362.937 312.241 363.004 312.43 362.999 312.623L362.467 328.933C362.464 329.035 362.439 329.136 362.395 329.229C362.352 329.321 362.289 329.404 362.213 329.473C362.136 329.541 362.046 329.593 361.949 329.625C361.852 329.658 361.749 329.67 361.647 329.662ZM342.099 328.021L360.917 328.142L361.388 313.292C357.026 313.018 345.185 313.201 342.099 313.292V328.021Z" fill="#012E6C"/>
<path d="M366.343 328.902V312.501C366.343 312.501 380.282 312.091 383.519 313.139C386.757 314.188 405.635 328.947 405.301 328.902C404.966 328.856 366.343 328.902 366.343 328.902Z" fill="#012E6C"/>
<path d="M405.24 329.661C404.541 329.661 379.507 329.661 366.389 329.661C366.184 329.661 365.987 329.579 365.842 329.433C365.704 329.291 365.628 329.1 365.629 328.901V312.501C365.629 312.304 365.705 312.115 365.841 311.974C365.977 311.832 366.162 311.749 366.359 311.741C366.936 311.741 380.479 311.33 383.793 312.409C385.602 312.987 391.499 317.258 396.135 320.724C406.259 328.324 406.198 328.552 406.091 329.069C406.048 329.255 405.937 329.419 405.779 329.528C405.622 329.638 405.43 329.685 405.24 329.661ZM367.103 313.2V328.096C381.255 328.096 397.397 328.096 403.188 328.096C398.628 324.509 385.754 314.629 383.291 313.823C380.829 313.017 371.405 313.2 367.103 313.2Z" fill="#012E6C"/>
<path d="M441.218 337.672H431.931C432.431 338.875 433.277 339.901 434.363 340.621C436.187 341.821 441.963 341.046 441.963 341.046L441.218 337.672Z" fill="white"/>
</svg>
