<svg width="736" height="545" viewBox="0 0 736 545" fill="none" xmlns="http://www.w3.org/2000/svg">
<path d="M727.54 469.201H1.6121C1.29119 469.201 0.983419 469.073 0.756499 468.846C0.52958 468.619 0.4021 468.31 0.4021 467.989C0.4021 467.668 0.52958 467.359 0.756499 467.132C0.983419 466.905 1.29119 466.777 1.6121 466.777H727.612C727.931 466.784 728.235 466.913 728.461 467.139C728.686 467.365 728.816 467.67 728.822 467.989C728.822 468.154 728.789 468.318 728.724 468.47C728.658 468.622 728.563 468.759 728.442 468.873C728.322 468.986 728.18 469.074 728.025 469.13C727.87 469.187 727.704 469.211 727.54 469.201Z" fill="white"/>
<path d="M668.564 515.923H228.415L294.214 1.8125H734.388L668.564 515.923Z" fill="white"/>
<path d="M668.588 517.256H228.414C228.241 517.258 228.068 517.222 227.91 517.151C227.751 517.08 227.61 516.975 227.495 516.844C227.384 516.715 227.301 516.565 227.251 516.402C227.201 516.24 227.185 516.068 227.204 515.899L292.98 1.66789C293.015 1.37649 293.155 1.10777 293.373 0.911656C293.591 0.715545 293.873 0.605374 294.166 0.601621H734.388C734.562 0.599902 734.735 0.635881 734.894 0.707089C735.053 0.778298 735.195 0.883058 735.31 1.01421C735.424 1.14537 735.51 1.29982 735.56 1.46701C735.609 1.6342 735.622 1.81018 735.598 1.98292L669.774 516.069C669.768 516.382 669.641 516.68 669.42 516.902C669.199 517.123 668.901 517.25 668.588 517.256ZM229.794 514.833H667.499L733.009 3.02495H295.4L229.794 514.833Z" fill="#6DB0E2"/>
<path d="M670.5 64.4322H391.474C390.088 64.4685 388.712 64.1978 387.442 63.6395C386.173 63.0813 385.043 62.2493 384.132 61.2029C383.221 60.1565 382.552 58.9215 382.173 57.5863C381.794 56.2511 381.714 54.8485 381.939 53.4787L382.665 47.7839C383.109 44.7989 384.59 42.0661 386.847 40.0669C389.105 38.0677 391.994 36.9302 395.007 36.8547H674.009C675.392 36.8191 676.767 37.0893 678.034 37.6462C679.301 38.203 680.43 39.0328 681.34 40.0763C682.251 41.1199 682.92 42.3517 683.301 43.6839C683.682 45.0161 683.765 46.416 683.544 47.7839L682.794 53.4787C682.357 56.4602 680.885 59.1923 678.637 61.1954C676.389 63.1985 673.508 64.3445 670.5 64.4322Z" fill="#E6E7E8"/>
<path d="M352.343 41.3628H327.465C327.144 41.3628 326.836 41.2351 326.61 41.0079C326.383 40.7807 326.255 40.4725 326.255 40.1511C326.261 39.8317 326.391 39.5271 326.616 39.3012C326.842 39.0753 327.146 38.9457 327.465 38.9395H352.343C352.662 38.9457 352.966 39.0753 353.191 39.3012C353.417 39.5271 353.547 39.8317 353.553 40.1511C353.553 40.4725 353.425 40.7807 353.198 41.0079C352.971 41.2351 352.664 41.3628 352.343 41.3628Z" fill="#D1D3D4"/>
<path d="M351.06 52.2905H326.062C325.741 52.2905 325.433 52.1629 325.206 51.9356C324.979 51.7084 324.852 51.4002 324.852 51.0789C324.852 50.7575 324.979 50.4493 325.206 50.2221C325.433 49.9948 325.741 49.8672 326.062 49.8672H351.06C351.381 49.8672 351.689 49.9948 351.916 50.2221C352.143 50.4493 352.27 50.7575 352.27 51.0789C352.27 51.4002 352.143 51.7084 351.916 51.9356C351.689 52.1629 351.381 52.2905 351.06 52.2905Z" fill="#D1D3D4"/>
<path d="M349.536 63.1968H324.682C324.361 63.1968 324.053 63.0691 323.827 62.8419C323.6 62.6147 323.472 62.3065 323.472 61.9851C323.472 61.6638 323.6 61.3556 323.827 61.1283C324.053 60.9011 324.361 60.7734 324.682 60.7734H349.536C349.856 60.7734 350.164 60.9011 350.391 61.1283C350.618 61.3556 350.746 61.6638 350.746 61.9851C350.746 62.3065 350.618 62.6147 350.391 62.8419C350.164 63.0691 349.856 63.1968 349.536 63.1968Z" fill="#D1D3D4"/>
<path d="M352.343 41.3628H327.465C327.144 41.3628 326.836 41.2351 326.61 41.0079C326.383 40.7807 326.255 40.4725 326.255 40.1511C326.261 39.8317 326.391 39.5271 326.616 39.3012C326.842 39.0753 327.146 38.9457 327.465 38.9395H352.343C352.662 38.9457 352.966 39.0753 353.191 39.3012C353.417 39.5271 353.547 39.8317 353.553 40.1511C353.553 40.4725 353.425 40.7807 353.198 41.0079C352.971 41.2351 352.664 41.3628 352.343 41.3628Z" stroke="#6DB0E2" stroke-linecap="round" stroke-linejoin="round"/>
<path d="M351.06 52.2905H326.062C325.741 52.2905 325.433 52.1629 325.206 51.9356C324.979 51.7084 324.852 51.4002 324.852 51.0789C324.852 50.7575 324.979 50.4493 325.206 50.2221C325.433 49.9948 325.741 49.8672 326.062 49.8672H351.06C351.381 49.8672 351.689 49.9948 351.916 50.2221C352.143 50.4493 352.27 50.7575 352.27 51.0789C352.27 51.4002 352.143 51.7084 351.916 51.9356C351.689 52.1629 351.381 52.2905 351.06 52.2905Z" stroke="#6DB0E2" stroke-linecap="round" stroke-linejoin="round"/>
<path d="M349.536 63.1968H324.682C324.361 63.1968 324.053 63.0691 323.827 62.8419C323.6 62.6147 323.472 62.3065 323.472 61.9851C323.472 61.6638 323.6 61.3556 323.827 61.1283C324.053 60.9011 324.361 60.7734 324.682 60.7734H349.536C349.856 60.7734 350.164 60.9011 350.391 61.1283C350.618 61.3556 350.746 61.6638 350.746 61.9851C350.746 62.3065 350.618 62.6147 350.391 62.8419C350.164 63.0691 349.856 63.1968 349.536 63.1968Z" stroke="#6DB0E2" stroke-linecap="round" stroke-linejoin="round"/>
<path d="M652.665 199H330.514C326.931 199.095 323.372 198.398 320.088 196.959C316.805 195.52 313.879 193.375 311.517 190.675C309.156 187.975 307.418 184.787 306.427 181.338C305.435 177.889 305.215 174.264 305.782 170.72L311.082 129.257C312.198 121.487 316.021 114.363 321.875 109.144C327.73 103.924 335.238 100.946 343.074 100.734H665.249C668.832 100.658 672.388 101.373 675.665 102.829C678.941 104.284 681.857 106.444 684.206 109.155C686.555 111.865 688.28 115.061 689.257 118.514C690.234 121.967 690.44 125.594 689.86 129.135L684.657 170.72C683.494 178.447 679.649 185.517 673.799 190.688C667.948 195.86 660.466 198.803 652.665 199Z" fill="white"/>
<path d="M652.665 200.213H330.514C326.78 200.288 323.073 199.554 319.647 198.06C316.222 196.567 313.16 194.35 310.67 191.561C308.195 188.691 306.369 185.319 305.316 181.675C304.264 178.032 304.01 174.205 304.572 170.454L309.92 128.991C311.106 120.96 315.079 113.605 321.142 108.216C327.205 102.827 334.971 99.7491 343.074 99.5231H665.249C668.971 99.4616 672.663 100.202 676.074 101.695C679.486 103.188 682.537 105.397 685.02 108.174C687.495 111.05 689.32 114.427 690.373 118.074C691.425 121.72 691.68 125.552 691.119 129.306L685.867 170.721C684.68 178.762 680.701 186.127 674.629 191.52C668.556 196.914 660.779 199.992 652.665 200.213ZM343.074 101.946C335.559 102.167 328.36 105.03 322.741 110.032C317.122 115.034 313.44 121.858 312.34 129.306L306.968 170.721C306.46 174.129 306.69 177.607 307.642 180.918C308.594 184.229 310.246 187.297 312.485 189.913C314.75 192.441 317.534 194.449 320.646 195.8C323.757 197.151 327.124 197.813 330.514 197.741H652.665C660.187 197.537 667.396 194.685 673.026 189.685C678.656 184.686 682.346 177.859 683.447 170.406L688.771 128.942C689.279 125.53 689.05 122.049 688.098 118.733C687.146 115.418 685.494 112.346 683.254 109.725C680.99 107.202 678.211 105.196 675.104 103.846C671.997 102.495 668.635 101.831 665.249 101.898L343.074 101.946Z" fill="#6DB0E2"/>
<path d="M394.197 173.186C408.828 159.441 410.904 137.854 398.834 124.97C386.764 112.085 365.118 112.782 350.487 126.526C335.856 140.27 333.78 161.857 345.85 174.742C357.92 187.626 379.566 186.93 394.197 173.186Z" fill="#E30238"/>
<path d="M395.637 139.023C395.373 139.37 395.091 139.702 394.79 140.017L365.871 165.656C364.878 166.528 364.201 166.552 363.451 165.656L351.06 150.728C350.383 149.92 350.503 149.112 351.423 148.304L355.465 145.057C356.312 144.379 357.013 144.379 357.643 145.057L365.048 153.757C365.822 154.654 366.476 154.678 367.468 153.757L389.78 134.079C390.748 133.231 391.426 133.231 392.2 134.079C392.975 134.928 394.185 136.333 395.153 137.472C395.37 137.763 395.516 138.126 395.709 138.441L395.637 139.023Z" fill="white"/>
<path d="M645.574 134.975H438.446C437.484 134.975 436.56 134.592 435.88 133.91C435.199 133.229 434.816 132.304 434.816 131.34C434.816 130.376 435.199 129.451 435.88 128.77C436.56 128.088 437.484 127.705 438.446 127.705H645.574C646.537 127.705 647.46 128.088 648.141 128.77C648.822 129.451 649.204 130.376 649.204 131.34C649.204 132.304 648.822 133.229 648.141 133.91C647.46 134.592 646.537 134.975 645.574 134.975Z" fill="#E6E7E8"/>
<path d="M598.868 169.944H433.969C433.007 169.944 432.083 169.561 431.403 168.879C430.722 168.197 430.339 167.273 430.339 166.309C430.339 165.345 430.722 164.42 431.403 163.738C432.083 163.057 433.007 162.674 433.969 162.674H598.868C599.831 162.674 600.754 163.057 601.435 163.738C602.116 164.42 602.498 165.345 602.498 166.309C602.498 167.273 602.116 168.197 601.435 168.879C600.754 169.561 599.831 169.944 598.868 169.944Z" fill="#E6E7E8"/>
<path d="M638.096 312.678H315.946C312.352 312.772 308.782 312.07 305.491 310.622C302.2 309.175 299.268 307.018 296.906 304.305C294.543 301.592 292.808 298.39 291.824 294.928C290.84 291.465 290.632 287.828 291.213 284.276L296.537 242.813C297.664 235.053 301.492 227.94 307.345 222.73C313.198 217.521 320.701 214.549 328.53 214.339H650.68C654.275 214.254 657.844 214.965 661.132 216.421C664.421 217.878 667.347 220.043 669.703 222.763C672.059 225.484 673.786 228.691 674.76 232.157C675.735 235.623 675.933 239.262 675.34 242.813L670.04 284.276C668.904 292.017 665.078 299.109 659.235 304.304C653.392 309.499 645.907 312.464 638.096 312.678Z" fill="white"/>
<path d="M638.12 313.889H315.946C312.217 313.964 308.516 313.232 305.095 311.743C301.675 310.254 298.615 308.044 296.126 305.262C293.653 302.386 291.828 299.009 290.776 295.362C289.723 291.716 289.468 287.885 290.028 284.131L295.4 242.667C296.597 234.635 300.581 227.282 306.653 221.898C312.724 216.513 320.495 213.443 328.602 213.224H650.68C654.413 213.149 658.118 213.881 661.542 215.37C664.967 216.858 668.03 219.069 670.524 221.851C672.993 224.73 674.815 228.107 675.868 231.753C676.92 235.399 677.177 239.228 676.623 242.983L671.299 284.446C670.107 292.476 666.128 299.829 660.06 305.214C653.993 310.598 646.225 313.67 638.12 313.889ZM328.53 215.647C321.023 215.877 313.836 218.74 308.223 223.737C302.61 228.733 298.928 235.545 297.82 242.983L292.52 284.446C292.012 287.858 292.242 291.339 293.194 294.655C294.146 297.97 295.798 301.042 298.038 303.663C300.302 306.183 303.083 308.185 306.19 309.532C309.297 310.878 312.658 311.538 316.043 311.466H638.12C645.641 311.257 652.848 308.403 658.477 303.405C664.106 298.406 667.797 291.583 668.903 284.131L674.203 242.667C674.722 239.255 674.498 235.771 673.545 232.454C672.593 229.137 670.935 226.065 668.685 223.45C666.422 220.929 663.641 218.926 660.534 217.579C657.426 216.233 654.065 215.574 650.68 215.647H328.53Z" fill="#6DB0E2"/>
<path d="M353.48 298.889C349.032 298.977 344.619 298.099 340.542 296.317C336.465 294.535 332.821 291.891 329.861 288.566C326.92 285.14 324.75 281.12 323.497 276.78C322.245 272.44 321.939 267.881 322.601 263.412C324.011 253.811 328.761 245.017 336.013 238.58C343.265 232.143 352.553 228.476 362.24 228.225C366.689 228.136 371.105 229.01 375.186 230.787C379.267 232.565 382.916 235.204 385.884 238.524C388.828 241.953 391 245.977 392.252 250.321C393.505 254.666 393.809 259.23 393.144 263.703C391.733 273.307 386.979 282.105 379.723 288.542C372.466 294.98 363.172 298.644 353.48 298.889ZM362.216 230.648C353.123 230.902 344.41 234.354 337.604 240.398C330.798 246.442 326.335 254.693 324.997 263.703C324.368 267.846 324.642 272.077 325.799 276.105C326.956 280.133 328.969 283.863 331.7 287.039C334.433 290.1 337.794 292.534 341.553 294.174C345.312 295.813 349.381 296.62 353.48 296.539C362.577 296.29 371.297 292.841 378.107 286.797C384.918 280.752 389.385 272.498 390.724 263.484C391.348 259.35 391.074 255.129 389.922 251.111C388.769 247.092 386.764 243.369 384.045 240.196C381.303 237.118 377.927 234.67 374.151 233.022C370.375 231.374 366.286 230.564 362.168 230.648H362.216Z" fill="#D1D3D4"/>
<path d="M381.092 252.702C380.829 253.049 380.546 253.381 380.245 253.695L351.326 279.334C350.31 280.207 349.632 280.231 348.906 279.334L336.395 264.431C335.717 263.631 335.862 262.855 336.782 262.007L340.823 258.76C341.67 258.082 342.372 258.082 342.977 258.76L350.407 267.46C351.181 268.381 351.834 268.381 352.827 267.46L375.308 247.613C376.276 246.765 376.93 246.765 377.728 247.613C378.527 248.461 379.689 249.866 380.657 251.03C380.878 251.327 381.073 251.643 381.237 251.975L381.092 252.702Z" fill="white"/>
<path d="M631.03 248.655H423.902C422.939 248.655 422.016 248.272 421.335 247.59C420.654 246.908 420.272 245.984 420.272 245.02C420.272 244.056 420.654 243.131 421.335 242.449C422.016 241.768 422.939 241.385 423.902 241.385H631.03C631.992 241.385 632.916 241.768 633.597 242.449C634.277 243.131 634.66 244.056 634.66 245.02C634.66 245.984 634.277 246.908 633.597 247.59C632.916 248.272 631.992 248.655 631.03 248.655Z" fill="#E6E7E8"/>
<path d="M584.3 283.624H419.425C418.462 283.624 417.539 283.241 416.858 282.559C416.177 281.877 415.795 280.953 415.795 279.989C415.795 279.024 416.177 278.1 416.858 277.418C417.539 276.737 418.462 276.354 419.425 276.354H584.3C585.262 276.354 586.186 276.737 586.866 277.418C587.547 278.1 587.93 279.024 587.93 279.989C587.93 280.953 587.547 281.877 586.866 282.559C586.186 283.241 585.262 283.624 584.3 283.624Z" fill="#E6E7E8"/>
<path d="M623.552 426.358H301.402C297.808 426.452 294.238 425.75 290.947 424.303C287.656 422.855 284.724 420.698 282.362 417.985C279.999 415.272 278.264 412.07 277.28 408.608C276.296 405.146 276.087 401.509 276.669 397.956L281.969 356.517C283.133 348.786 286.981 341.713 292.837 336.541C298.692 331.369 306.18 328.429 313.986 328.237H636.136C639.714 328.154 643.266 328.859 646.541 330.302C649.816 331.746 652.735 333.892 655.09 336.591C657.445 339.289 659.179 342.472 660.169 345.916C661.159 349.359 661.381 352.978 660.82 356.517L655.496 397.956C654.36 405.698 650.534 412.79 644.691 417.985C638.848 423.179 631.363 426.144 623.552 426.358Z" fill="white"/>
<path d="M623.552 427.593H301.402C297.672 427.671 293.97 426.94 290.549 425.451C287.128 423.962 284.069 421.749 281.582 418.966C279.105 416.091 277.275 412.715 276.219 409.069C275.162 405.422 274.903 401.59 275.459 397.834L280.88 356.347C282.073 348.312 286.055 340.956 292.128 335.571C298.2 330.186 305.974 327.117 314.083 326.903H636.136C639.868 326.819 643.573 327.544 646.999 329.029C650.424 330.514 653.488 332.723 655.98 335.506C658.453 338.383 660.278 341.759 661.33 345.406C662.383 349.052 662.638 352.883 662.079 356.637L656.779 398.101C655.596 406.148 651.614 413.518 645.536 418.914C639.457 424.309 631.672 427.383 623.552 427.593ZM313.986 329.326C306.484 329.562 299.302 332.428 293.694 337.423C288.086 342.419 284.408 349.228 283.3 356.662L278 398.125C277.481 401.537 277.705 405.021 278.658 408.338C279.61 411.656 281.268 414.727 283.518 417.342C285.781 419.864 288.562 421.866 291.669 423.213C294.777 424.56 298.138 425.219 301.523 425.145H623.552C631.075 424.937 638.286 422.084 643.918 417.086C649.551 412.088 653.247 405.264 654.359 397.81L659.659 356.347C660.178 352.934 659.954 349.45 659.001 346.133C658.049 342.816 656.391 339.744 654.141 337.13C651.877 334.608 649.097 332.605 645.99 331.259C642.882 329.912 639.521 329.253 636.136 329.326H313.986Z" fill="#6DB0E2"/>
<path d="M338.96 412.569C334.513 412.656 330.099 411.779 326.022 409.997C321.945 408.215 318.301 405.571 315.341 402.245C312.401 398.819 310.23 394.8 308.978 390.459C307.725 386.119 307.419 381.56 308.081 377.091C309.492 367.49 314.241 358.696 321.493 352.259C328.745 345.822 338.033 342.155 347.721 341.904C352.172 341.817 356.589 342.694 360.67 344.476C364.751 346.258 368.399 348.902 371.364 352.228C374.305 355.654 376.475 359.674 377.727 364.014C378.98 368.354 379.286 372.913 378.624 377.382C377.213 386.987 372.46 395.784 365.203 402.222C357.946 408.659 348.652 412.324 338.96 412.569ZM347.696 344.328C338.599 344.576 329.88 348.025 323.069 354.07C316.258 360.114 311.792 368.368 310.453 377.382C309.835 381.514 310.115 385.731 311.271 389.746C312.428 393.76 314.435 397.478 317.156 400.646C319.889 403.707 323.25 406.141 327.009 407.78C330.768 409.42 334.837 410.227 338.936 410.146C348.033 409.897 356.753 406.448 363.563 400.404C370.374 394.359 374.841 386.105 376.18 377.091C376.8 372.961 376.525 368.745 375.372 364.73C374.22 360.716 372.217 356.997 369.501 353.827C366.755 350.756 363.378 348.317 359.602 346.677C355.825 345.037 351.739 344.236 347.624 344.328H347.696Z" fill="#D1D3D4"/>
<path d="M366.524 366.403C366.275 366.754 365.991 367.079 365.677 367.373C355.997 375.919 346.357 384.465 336.758 393.011C335.766 393.908 335.088 393.908 334.338 393.011L321.826 378.108C321.149 377.308 321.294 376.533 322.214 375.806L326.255 372.534C327.102 371.856 327.78 371.856 328.409 372.534C330.877 375.442 333.354 378.342 335.838 381.234C336.589 382.155 337.266 382.155 338.258 381.234L360.716 361.363C361.684 360.515 362.362 360.515 363.136 361.363C363.91 362.211 365.096 363.616 366.064 364.78C366.287 365.071 366.473 365.389 366.621 365.725L366.524 366.403Z" fill="white"/>
<path d="M616.486 362.332H409.334C408.371 362.332 407.448 361.95 406.767 361.268C406.086 360.586 405.704 359.662 405.704 358.697C405.704 357.733 406.086 356.809 406.767 356.127C407.448 355.445 408.371 355.062 409.334 355.062H616.486C617.448 355.062 618.372 355.445 619.052 356.127C619.733 356.809 620.116 357.733 620.116 358.697C620.116 359.662 619.733 360.586 619.052 361.268C618.372 361.95 617.448 362.332 616.486 362.332Z" fill="#E6E7E8"/>
<path d="M569.755 397.301H404.857C403.894 397.301 402.971 396.918 402.29 396.237C401.609 395.555 401.227 394.63 401.227 393.666C401.227 392.702 401.609 391.778 402.29 391.096C402.971 390.414 403.894 390.031 404.857 390.031H569.755C570.718 390.031 571.641 390.414 572.322 391.096C573.003 391.778 573.385 392.702 573.385 393.666C573.385 394.63 573.003 395.555 572.322 396.237C571.641 396.918 570.718 397.301 569.755 397.301Z" fill="#E6E7E8"/>
<path d="M604.507 490.211C604.256 490.21 604.012 490.134 603.805 489.993L584.929 476.834C584.762 476.719 584.628 476.562 584.539 476.38C584.45 476.197 584.409 475.995 584.421 475.792C584.432 475.592 584.49 475.398 584.591 475.225C584.692 475.052 584.833 474.906 585.002 474.799L607.266 461.64C607.403 461.54 607.559 461.47 607.724 461.435C607.89 461.4 608.061 461.399 608.227 461.434C608.392 461.469 608.549 461.539 608.686 461.638C608.823 461.737 608.938 461.864 609.023 462.011C609.108 462.157 609.162 462.32 609.18 462.489C609.198 462.657 609.181 462.828 609.13 462.989C609.078 463.151 608.993 463.3 608.88 463.426C608.768 463.553 608.63 463.654 608.476 463.724L587.857 475.841L605.184 487.957C605.395 488.104 605.553 488.314 605.636 488.557C605.72 488.799 605.724 489.062 605.648 489.307C605.573 489.553 605.422 489.768 605.217 489.921C605.012 490.075 604.763 490.159 604.507 490.163V490.211Z" fill="#D1D3D4"/>
<path d="M620.745 490.211C620.479 490.214 620.219 490.129 620.006 489.968C619.793 489.808 619.639 489.583 619.568 489.326C619.496 489.069 619.511 488.796 619.61 488.549C619.709 488.301 619.887 488.094 620.116 487.958L640.734 475.841L623.407 463.724C623.144 463.538 622.965 463.254 622.911 462.936C622.856 462.618 622.93 462.291 623.116 462.028C623.303 461.764 623.586 461.586 623.903 461.531C624.221 461.477 624.547 461.551 624.81 461.737L643.662 474.896C643.827 475.015 643.961 475.171 644.054 475.353C644.146 475.534 644.195 475.734 644.195 475.938C644.183 476.14 644.122 476.337 644.016 476.51C643.911 476.684 643.764 476.828 643.59 476.931L621.35 490.09C621.163 490.186 620.954 490.227 620.745 490.211Z" fill="#D1D3D4"/>
<path d="M149.716 274.439C149.716 274.439 170.141 310.449 189.936 313.697C214.354 317.719 250.146 296.152 250.146 296.152L230.06 276.402L188.92 276.256L166.414 230.213L149.716 274.439Z" fill="#E30238"/>
<path d="M183.136 509.259L184.637 524.768L206.247 523.096L204.214 504.461L183.136 509.259Z" fill="white"/>
<path d="M184.637 525.981C184.338 525.982 184.05 525.87 183.831 525.668C183.611 525.466 183.475 525.188 183.451 524.89L181.926 509.381C181.901 509.086 181.982 508.791 182.155 508.551C182.329 508.311 182.582 508.141 182.87 508.072L203.948 503.225C204.114 503.189 204.286 503.188 204.452 503.221C204.619 503.255 204.777 503.322 204.916 503.419C205.056 503.522 205.174 503.652 205.261 503.802C205.349 503.952 205.404 504.119 205.424 504.292L207.457 522.903C207.481 523.067 207.469 523.233 207.423 523.392C207.377 523.551 207.298 523.698 207.191 523.824C206.977 524.075 206.672 524.231 206.344 524.26L184.733 525.932L184.637 525.981ZM184.443 510.205L185.726 523.485L204.916 521.982L203.174 505.94L184.443 510.205Z" fill="#6DB0E2"/>
<path d="M31.7411 474.896L17.8745 485.947L25.7153 500.826L39.5577 494.695L31.7411 474.896Z" fill="white"/>
<path d="M25.7154 502.038C25.4972 502.042 25.2823 501.985 25.0944 501.873C24.9066 501.762 24.753 501.601 24.6506 501.408L16.8098 486.505C16.6711 486.259 16.6265 485.971 16.6844 485.694C16.7423 485.418 16.8987 485.172 17.1243 485.002L30.9668 473.952C31.1163 473.837 31.2889 473.756 31.4727 473.714C31.6565 473.672 31.8471 473.671 32.0315 473.71C32.2154 473.759 32.3853 473.85 32.5281 473.977C32.6708 474.103 32.7825 474.26 32.8543 474.437L40.6952 494.26C40.8082 494.552 40.8032 494.878 40.6813 495.167C40.5594 495.457 40.3301 495.687 40.0418 495.811L26.2236 501.942C26.0627 502.009 25.8896 502.042 25.7154 502.038ZM19.5202 486.263L26.393 499.276L38.1299 494.066L31.3298 476.86L19.5202 486.263Z" fill="#6DB0E2"/>
<path d="M73.4377 333.713L74.8897 432.851L26.4897 474.824L36.4601 499.517C36.4601 499.517 106.834 465.591 117.796 450.324C128.759 435.057 130.405 398.077 130.405 398.077L166.487 434.427L180.329 513.137L207.869 511.634C207.869 511.634 204.36 453.886 204.36 432.439C204.36 410.993 149.813 337.227 149.813 337.227L73.4377 333.713Z" fill="#6DB0E2"/>
<path d="M180.402 514.275C180.118 514.279 179.842 514.181 179.625 513.998C179.407 513.816 179.262 513.562 179.216 513.281L165.422 434.862L131.542 400.79C130.937 409.684 128.299 437.77 118.885 450.953C107.85 466.366 39.9691 499.153 37.0893 500.535C36.9362 500.6 36.7716 500.634 36.6053 500.634C36.4389 500.634 36.2743 500.6 36.1213 500.535C35.9666 500.476 35.8262 500.386 35.7093 500.269C35.5925 500.152 35.5019 500.011 35.4437 499.856L25.4975 475.138C25.4041 474.907 25.3842 474.653 25.4405 474.41C25.4968 474.167 25.6266 473.947 25.8121 473.781L73.6555 432.439L72.2277 333.834C72.2253 333.671 72.2563 333.51 72.3188 333.36C72.3812 333.21 72.4737 333.074 72.5907 332.961C72.7042 332.84 72.844 332.747 72.9991 332.688C73.1543 332.629 73.3209 332.606 73.4861 332.622L149.934 336.063C150.114 336.067 150.291 336.113 150.451 336.197C150.61 336.281 150.748 336.401 150.853 336.548C153.104 339.577 205.642 410.871 205.642 432.488C205.642 453.643 209.103 511.028 209.151 511.609C209.165 511.929 209.054 512.242 208.842 512.482C208.629 512.721 208.333 512.869 208.014 512.894L180.474 514.396L180.402 514.275ZM130.477 396.889C130.792 396.892 131.094 397.013 131.324 397.228L167.406 433.578C167.579 433.75 167.697 433.969 167.745 434.208L181.418 511.876L206.659 510.495C206.15 502.037 203.222 451.947 203.222 432.439C203.222 412.495 153.878 344.69 149.256 338.414L74.6719 335.045L76.0997 432.924C76.0981 433.097 76.0608 433.269 75.99 433.427C75.9192 433.586 75.8165 433.728 75.6883 433.845L28.0385 475.162L37.1619 497.869C46.3579 493.386 106.979 463.458 116.877 449.62C127.525 434.765 129.243 398.391 129.267 398.028C129.27 397.792 129.346 397.562 129.485 397.371C129.623 397.18 129.818 397.037 130.041 396.961C130.181 396.912 130.329 396.887 130.477 396.889Z" fill="#6DB0E2"/>
<path d="M68.4768 343.528L70.3402 294.892C70.3402 294.892 69.5174 234.89 91.5152 224.179C113.513 213.468 157.581 218.072 166.124 230.213C174.666 242.354 154.411 343.528 154.411 343.528H68.4768Z" fill="#E30238"/>
<path d="M161.042 178.814C160.779 173.694 158.591 168.863 154.919 165.292C147.151 158.288 129.775 155.598 123.29 165.946C121.198 166.12 119.219 166.97 117.651 168.369C115.673 170.316 114.238 172.747 113.489 175.421C109.907 185.696 112.86 196.601 116.828 206.537C118.034 209.916 119.949 212.998 122.443 215.576C128.517 221.367 136.963 218.193 143.763 215.285C148.335 213.469 152.402 210.576 155.621 206.852C159.396 202.223 161.308 193.572 161.356 187.683C161.427 184.723 161.322 181.761 161.042 178.814Z" fill="#6DB0E2"/>
<path d="M130.84 219.888C129.144 219.935 127.456 219.644 125.874 219.032C124.291 218.421 122.845 217.501 121.62 216.326C118.967 213.647 116.942 210.41 115.691 206.851C112.109 197.836 108.431 186.035 112.351 174.887C113.177 172.028 114.727 169.431 116.853 167.351C118.481 165.99 120.478 165.146 122.588 164.927C123.922 163.04 125.645 161.462 127.641 160.3C129.636 159.138 131.858 158.418 134.156 158.19C137.99 157.721 141.88 158.04 145.588 159.128C149.295 160.215 152.742 162.048 155.718 164.515C159.642 168.259 161.98 173.368 162.252 178.789C162.524 181.745 162.629 184.714 162.566 187.682C162.566 193.983 160.437 202.852 156.565 207.626C153.229 211.517 148.991 214.529 144.223 216.399C140.033 218.428 135.486 219.614 130.84 219.888ZM137.471 160.274C136.475 160.265 135.48 160.33 134.494 160.468C132.448 160.668 130.472 161.323 128.71 162.383C126.947 163.444 125.443 164.884 124.306 166.599C124.204 166.76 124.065 166.894 123.901 166.991C123.737 167.088 123.552 167.145 123.362 167.157C121.575 167.288 119.877 167.993 118.522 169.168C116.72 170.984 115.405 173.226 114.699 175.687C111.093 186.059 114.699 197.327 118.014 205.954C119.14 209.19 120.966 212.136 123.362 214.581C128.686 219.67 136.164 217.005 143.352 214.048C147.756 212.325 151.676 209.555 154.774 205.979C158.235 201.689 160.171 193.28 160.219 187.537C160.282 184.666 160.177 181.793 159.904 178.934C159.69 174.107 157.637 169.546 154.169 166.187C149.457 162.336 143.554 160.245 137.471 160.274Z" fill="#6DB0E2"/>
<path d="M144.876 217.611L143.376 232.297C143.376 232.297 139.939 240.124 130.864 236.223C128.265 235.09 126.03 233.259 124.406 230.932C122.783 228.605 121.835 225.873 121.668 223.04L124.548 196.722C124.548 196.722 132.195 194.299 132.752 178.596C132.752 178.596 141.851 178.596 156.202 179.274C156.202 179.274 158.186 203.508 155.79 210.632C153.394 217.757 144.876 217.611 144.876 217.611Z" fill="white"/>
<path d="M135.68 238.574C133.86 238.537 132.065 238.133 130.404 237.386C127.584 236.173 125.16 234.192 123.406 231.67C121.653 229.147 120.64 226.183 120.482 223.113L123.362 196.65C123.39 196.42 123.482 196.203 123.628 196.023C123.773 195.843 123.966 195.708 124.185 195.632C124.185 195.632 131.058 193.015 131.566 178.669C131.579 178.356 131.712 178.06 131.937 177.843C132.163 177.627 132.463 177.506 132.776 177.506C132.776 177.506 142.069 177.506 156.274 178.184C156.568 178.189 156.85 178.304 157.065 178.505C157.28 178.707 157.412 178.981 157.436 179.275C157.436 180.293 159.396 203.847 156.952 211.142C156.094 213.37 154.599 215.294 152.653 216.674C150.707 218.054 148.397 218.827 146.013 218.896L144.61 232.54C144.635 232.668 144.635 232.799 144.61 232.927C143.783 234.599 142.512 236.011 140.937 237.007C139.362 238.003 137.543 238.545 135.68 238.574ZM125.71 197.595L122.854 223.161C123.04 225.741 123.93 228.22 125.428 230.328C126.927 232.435 128.974 234.089 131.348 235.109C138.608 238.259 141.682 233 142.214 231.982L143.69 217.442C143.725 217.145 143.868 216.87 144.09 216.669C144.313 216.468 144.601 216.356 144.9 216.352C145.215 216.352 152.572 216.352 154.58 210.197C156.589 204.041 155.379 185.115 155.04 180.39C144.319 179.929 136.648 179.808 133.865 179.76C133.26 192.531 127.718 196.456 125.685 197.547L125.71 197.595Z" fill="#6DB0E2"/>
<path d="M130.163 197.207C130.064 195.854 129.529 194.569 128.638 193.548C127.77 192.631 126.745 191.876 125.613 191.318C125.033 190.932 124.369 190.691 123.677 190.615C123.19 190.611 122.707 190.693 122.249 190.858C121.149 191.197 120.199 191.908 119.563 192.869C119.152 193.704 118.952 194.628 118.982 195.559C118.93 196.567 119.012 197.577 119.224 198.564C119.457 199.539 119.88 200.457 120.469 201.267C121.058 202.077 121.802 202.762 122.657 203.283C123.512 203.803 124.461 204.149 125.451 204.3C126.44 204.451 127.449 204.404 128.42 204.162" fill="white"/>
<path d="M126.605 205.615C124.992 205.617 123.409 205.173 122.031 204.331C120.025 203.099 118.589 201.121 118.038 198.83C117.801 197.74 117.712 196.624 117.772 195.51C117.748 194.382 118.006 193.265 118.522 192.263C119.316 191.087 120.499 190.229 121.862 189.839C122.462 189.602 123.105 189.495 123.75 189.524C124.612 189.611 125.441 189.902 126.17 190.372C127.425 190.975 128.564 191.795 129.533 192.796C130.612 194.013 131.251 195.558 131.348 197.182C131.368 197.5 131.263 197.812 131.055 198.053C130.846 198.293 130.552 198.442 130.235 198.466C129.917 198.481 129.605 198.374 129.362 198.167C129.12 197.96 128.965 197.669 128.928 197.352C128.851 196.262 128.427 195.226 127.718 194.395C126.925 193.594 126.01 192.923 125.008 192.408C124.584 192.131 124.105 191.949 123.604 191.875C123.273 191.882 122.945 191.948 122.636 192.069C121.809 192.299 121.09 192.814 120.604 193.523C120.297 194.182 120.148 194.904 120.168 195.631C120.109 196.532 120.174 197.438 120.362 198.321C120.775 199.981 121.816 201.414 123.266 202.319C124.721 203.188 126.459 203.449 128.106 203.046C128.426 202.966 128.766 203.017 129.05 203.187C129.333 203.358 129.538 203.634 129.618 203.955C129.698 204.277 129.648 204.617 129.478 204.901C129.307 205.185 129.031 205.389 128.711 205.47C128.017 205.599 127.31 205.648 126.605 205.615Z" fill="#6DB0E2"/>
<path d="M144.174 224.664C141.039 223.803 138.238 222.012 136.14 219.527C135.27 218.6 134.658 217.461 134.365 216.224C134.072 214.986 134.108 213.694 134.47 212.475C135.725 214.04 137.306 215.311 139.104 216.199C140.902 217.086 142.872 217.569 144.876 217.612L144.174 224.664Z" fill="#6DB0E2"/>
<path d="M144.174 225.874H143.932C140.548 224.961 137.519 223.044 135.245 220.373C134.215 219.285 133.494 217.94 133.158 216.478C132.822 215.017 132.882 213.492 133.333 212.061C133.404 211.86 133.53 211.683 133.697 211.55C133.864 211.417 134.065 211.334 134.277 211.31C134.49 211.273 134.71 211.296 134.911 211.378C135.112 211.459 135.286 211.595 135.414 211.771C136.568 213.171 138.007 214.31 139.634 215.113C141.261 215.915 143.039 216.362 144.852 216.423C145.196 216.433 145.524 216.571 145.772 216.811C145.885 216.939 145.972 217.089 146.026 217.251C146.08 217.414 146.101 217.586 146.086 217.756L145.36 224.808C145.347 224.974 145.299 225.135 145.22 225.281C145.141 225.427 145.032 225.555 144.9 225.656C144.683 225.795 144.432 225.871 144.174 225.874ZM135.39 215.163C135.547 216.495 136.123 217.743 137.035 218.726C138.696 220.618 140.776 222.096 143.11 223.039L143.545 218.774C140.512 218.471 137.654 217.206 135.39 215.163Z" fill="#6DB0E2"/>
<path d="M148.022 204.768C146.858 204.732 145.71 204.485 144.634 204.041C144.336 203.919 144.098 203.683 143.973 203.385C143.848 203.088 143.847 202.753 143.968 202.454C144.09 202.155 144.326 201.917 144.623 201.792C144.92 201.667 145.255 201.665 145.554 201.787C146.545 202.239 147.645 202.399 148.724 202.248C148.226 199.49 147.286 196.83 145.941 194.372C145.8 194.083 145.779 193.749 145.883 193.445C145.988 193.14 146.209 192.89 146.497 192.748C146.786 192.607 147.119 192.586 147.423 192.691C147.727 192.795 147.978 193.016 148.119 193.306C152.523 202.272 150.95 203.581 150.539 204.017C149.823 204.573 148.925 204.841 148.022 204.768Z" fill="#6DB0E2"/>
<path d="M144.368 209.686C142.862 209.724 141.382 209.292 140.133 208.45C139.445 207.924 138.875 207.26 138.458 206.5C138.042 205.741 137.788 204.903 137.713 204.039C137.689 203.882 137.697 203.72 137.737 203.566C137.777 203.411 137.848 203.266 137.945 203.139C138.042 203.013 138.164 202.907 138.303 202.828C138.442 202.75 138.595 202.7 138.754 202.682C139.068 202.641 139.385 202.724 139.639 202.914C139.892 203.105 140.061 203.387 140.109 203.7C140.141 204.243 140.29 204.773 140.545 205.254C140.799 205.735 141.154 206.155 141.585 206.487C142.689 207.152 143.99 207.409 145.263 207.214C145.577 207.164 145.898 207.236 146.159 207.417C146.421 207.598 146.602 207.872 146.667 208.183C146.724 208.498 146.654 208.823 146.472 209.086C146.291 209.349 146.013 209.53 145.699 209.589C145.26 209.669 144.814 209.701 144.368 209.686Z" fill="#6DB0E2"/>
<path d="M142.65 191.052C142.48 191.05 142.313 191.013 142.158 190.942C142.004 190.871 141.866 190.768 141.754 190.64C141.551 190.386 141.298 190.176 141.011 190.022C140.724 189.867 140.409 189.773 140.085 189.744C139.193 189.808 138.345 190.156 137.665 190.737C137.549 190.855 137.411 190.948 137.258 191.011C137.105 191.073 136.942 191.103 136.777 191.1C136.612 191.097 136.449 191.06 136.299 190.991C136.149 190.923 136.015 190.824 135.904 190.702C135.793 190.58 135.709 190.436 135.655 190.279C135.602 190.123 135.582 189.957 135.595 189.793C135.608 189.628 135.654 189.468 135.731 189.322C135.808 189.176 135.915 189.047 136.043 188.944C137.214 187.895 138.731 187.317 140.302 187.32C140.95 187.367 141.581 187.543 142.159 187.838C142.737 188.134 143.249 188.543 143.666 189.041C143.874 189.287 143.978 189.604 143.955 189.926C143.932 190.247 143.785 190.547 143.545 190.761C143.423 190.867 143.281 190.948 143.127 190.998C142.973 191.048 142.811 191.066 142.65 191.052Z" fill="#6DB0E2"/>
<path d="M149.934 192.53C149.758 192.564 149.577 192.564 149.401 192.53C149.258 192.46 149.13 192.363 149.025 192.244C148.919 192.124 148.838 191.985 148.787 191.834C148.735 191.683 148.713 191.524 148.723 191.364C148.733 191.205 148.775 191.05 148.845 190.907C149.105 190.375 149.482 189.909 149.947 189.544C150.412 189.179 150.954 188.924 151.531 188.798C152.276 188.756 153.02 188.9 153.696 189.217C154.372 189.534 154.959 190.015 155.403 190.616C155.516 190.728 155.606 190.862 155.668 191.01C155.729 191.158 155.761 191.316 155.761 191.476C155.761 191.636 155.729 191.794 155.668 191.942C155.606 192.09 155.516 192.224 155.403 192.336C155.177 192.558 154.873 192.683 154.556 192.683C154.239 192.683 153.935 192.558 153.709 192.336C153.007 191.585 152.402 191.197 151.967 191.27C151.531 191.343 151.144 191.924 151.095 192.046C150.961 192.221 150.783 192.359 150.579 192.444C150.376 192.529 150.153 192.559 149.934 192.53Z" fill="#6DB0E2"/>
<path d="M135.075 237.943L126.992 241.942L131.711 248.388L117.699 308.293L130.985 323.439L142.65 302.889L135.922 248.461L141.27 242.645L135.075 237.943Z" fill="white"/>
<path d="M17.8745 485.947L1.61206 496.998C1.61206 496.998 29.2001 543.913 36.8715 531.797C38.9527 528.453 25.7153 500.802 25.7153 500.802L17.8745 485.947Z" fill="#6DB0E2"/>
<path d="M33.5319 535.043C22.9081 534.897 2.89475 501.431 0.644145 497.627C0.486232 497.361 0.435862 497.044 0.503355 496.743C0.570847 496.441 0.751086 496.176 1.00714 496.003L17.1001 484.953C17.2395 484.855 17.3974 484.788 17.5639 484.754C17.7305 484.721 17.9022 484.723 18.0681 484.759C18.2333 484.805 18.3872 484.885 18.5204 484.994C18.6535 485.102 18.7632 485.236 18.8425 485.389L26.7801 500.292C30.8457 508.822 40.0659 528.936 37.8637 532.474C37.4343 533.249 36.8067 533.895 36.0454 534.346C35.2842 534.798 34.4167 535.038 33.5319 535.043ZM3.23354 497.36C9.62234 508.023 25.8847 532.523 33.4835 532.619C33.9787 532.61 34.4627 532.471 34.8873 532.216C35.312 531.961 35.6624 531.599 35.9035 531.165C36.7747 529.081 30.7731 514.057 24.6747 501.359L17.4147 487.715L3.23354 497.36Z" fill="#6DB0E2"/>
<path d="M184.443 524.768C184.443 524.768 183.935 542.87 185.58 543.161C187.226 543.452 238.554 536.521 234.658 532.595C230.762 528.669 206.247 523.096 206.247 523.096L184.443 524.768Z" fill="#6DB0E2"/>
<path d="M185.387 544.373C184.395 544.179 182.725 543.889 183.257 524.744C183.268 524.447 183.388 524.165 183.593 523.951C183.798 523.736 184.075 523.605 184.371 523.581L206.151 521.885H206.514C209.055 522.466 231.488 527.652 235.554 531.699C235.836 531.973 236.021 532.332 236.082 532.721C236.143 533.11 236.077 533.508 235.892 533.856C233.134 539.066 186.5 544.373 185.387 544.373ZM185.629 525.908C185.362 531.27 185.556 536.645 186.21 541.974C191.897 541.829 228.608 536.085 233.351 533.056C229.721 530.366 215.443 526.441 206.175 524.308L185.629 525.908Z" fill="#6DB0E2"/>
<path d="M155.887 337.712H155.718C155.556 337.694 155.4 337.643 155.258 337.564C155.116 337.484 154.991 337.376 154.892 337.248C154.793 337.119 154.72 336.971 154.679 336.813C154.638 336.656 154.629 336.491 154.653 336.33C156.54 321.548 165.736 264.745 165.833 264.188C165.84 264.013 165.884 263.842 165.962 263.685C166.039 263.529 166.149 263.391 166.284 263.28C166.419 263.169 166.576 263.088 166.745 263.043C166.913 262.997 167.089 262.988 167.262 263.016C167.434 263.043 167.598 263.107 167.744 263.203C167.89 263.299 168.014 263.425 168.108 263.572C168.201 263.72 168.263 263.885 168.288 264.058C168.313 264.231 168.301 264.407 168.253 264.575C168.253 265.157 158.985 321.911 157.097 336.645C157.056 336.939 156.912 337.208 156.69 337.403C156.468 337.599 156.183 337.709 155.887 337.712Z" fill="white"/>
<path d="M255.639 319.124C295.04 319.124 326.981 287.139 326.981 247.684C326.981 208.229 295.04 176.244 255.639 176.244C216.239 176.244 184.298 208.229 184.298 247.684C184.298 287.139 216.239 319.124 255.639 319.124Z" fill="#6DB0E2"/>
<path d="M255.591 320.361C241.413 320.36 227.545 316.203 215.699 308.401C203.853 300.599 194.548 289.494 188.932 276.457C183.316 263.421 181.635 249.023 184.096 235.04C186.557 221.058 193.054 208.103 202.783 197.775C212.512 187.447 225.048 180.198 238.844 176.922C252.64 173.647 267.091 174.488 280.415 179.342C293.739 184.196 305.352 192.851 313.821 204.238C322.289 215.625 327.243 229.246 328.07 243.42C329.181 262.653 322.623 281.542 309.836 295.936C297.049 310.331 279.08 319.055 259.874 320.191C258.455 320.304 257.027 320.361 255.591 320.361ZM255.736 177.384C254.357 177.384 252.953 177.384 251.55 177.384C237.688 178.185 224.375 183.085 213.296 191.465C202.216 199.845 193.868 211.327 189.307 224.459C184.746 237.591 184.177 251.783 187.673 265.239C191.169 278.694 198.572 290.809 208.946 300.051C219.32 309.292 232.198 315.244 245.951 317.155C259.704 319.065 273.713 316.847 286.207 310.782C298.701 304.716 309.117 295.076 316.138 283.081C323.16 271.086 326.47 257.275 325.65 243.396C324.596 225.531 316.776 208.741 303.784 196.452C290.792 184.163 273.608 177.3 255.736 177.263V177.384Z" fill="#6DB0E2"/>
<path d="M244.628 319.778C284.029 319.778 315.97 287.793 315.97 248.338C315.97 208.883 284.029 176.898 244.628 176.898C205.228 176.898 173.287 208.883 173.287 248.338C173.287 287.793 205.228 319.778 244.628 319.778Z" fill="#E30238"/>
<path d="M244.58 320.967C225.553 320.397 207.514 312.355 194.36 298.578C181.205 284.801 173.991 266.395 174.275 247.336C174.559 228.277 182.32 210.095 195.88 196.718C209.44 183.34 227.711 175.842 246.746 175.842C265.781 175.842 284.052 183.34 297.612 196.718C311.172 210.095 318.932 228.277 319.217 247.336C319.501 266.395 312.287 284.801 299.132 298.578C285.977 312.355 267.938 320.397 248.912 320.967C247.411 320.967 245.959 320.967 244.58 320.967ZM244.725 177.99C243.346 177.99 241.966 177.99 240.587 177.99C222.161 178.535 204.689 186.316 191.946 199.654C179.203 212.992 172.212 230.816 172.484 249.273C172.755 267.73 180.268 285.339 193.398 298.295C206.529 311.251 224.222 318.513 242.656 318.513C261.09 318.513 278.783 311.251 291.914 298.295C305.044 285.339 312.557 267.73 312.828 249.273C313.1 230.816 306.109 212.992 293.366 199.654C280.623 186.316 263.151 178.535 244.725 177.99Z" fill="#E30238"/>
<path d="M289.592 224.275C289.129 225.029 288.603 225.743 288.019 226.408L232.65 281.781C232.371 282.227 231.984 282.594 231.525 282.849C231.065 283.104 230.549 283.237 230.024 283.237C229.499 283.237 228.982 283.104 228.523 282.849C228.064 282.594 227.677 282.227 227.398 281.781C216.992 271.038 206.61 260.302 196.253 249.575C195.859 249.281 195.542 248.896 195.33 248.452C195.118 248.008 195.018 247.519 195.037 247.028C195.056 246.536 195.194 246.057 195.44 245.631C195.685 245.205 196.031 244.845 196.446 244.583L204.263 237.531C204.544 237.178 204.901 236.892 205.307 236.696C205.714 236.5 206.159 236.398 206.61 236.398C207.061 236.398 207.507 236.5 207.913 236.696C208.32 236.892 208.677 237.178 208.958 237.531C215.072 243.816 221.211 250.084 227.374 256.336C229.286 258.275 230.714 258.299 232.625 256.336L275.677 213.443C275.957 213.018 276.338 212.669 276.786 212.428C277.233 212.187 277.734 212.061 278.242 212.061C278.751 212.061 279.251 212.187 279.699 212.428C280.147 212.669 280.527 213.018 280.808 213.443C283.228 215.866 285.648 218.29 288.068 220.713C288.614 221.365 289.115 222.053 289.568 222.773L289.592 224.275Z" fill="white"/>
<path d="M175.731 288.76C175.731 288.76 190.251 286.919 192.478 285.416C194.704 283.914 200.827 274.075 203.997 273.3C207.167 272.524 206.586 279.818 203.997 282.799C201.407 285.78 216.266 274.923 218.686 277.346C220.297 279.459 221.17 282.043 221.17 284.701C221.17 287.359 220.297 289.944 218.686 292.056C214.596 297.072 190.058 306.79 177.232 307.42" fill="white"/>
<path d="M177.231 308.51C176.921 308.516 176.62 308.401 176.394 308.188C176.168 307.975 176.034 307.681 176.021 307.371C176.012 307.211 176.033 307.052 176.085 306.901C176.137 306.75 176.218 306.611 176.324 306.492C176.43 306.373 176.558 306.275 176.701 306.206C176.844 306.136 177 306.095 177.159 306.086C189.259 305.48 213.87 295.932 217.742 291.158C219.154 289.275 219.917 286.983 219.917 284.628C219.917 282.272 219.154 279.981 217.742 278.097C216.435 277.539 209.756 281.392 207.554 282.677C204.166 284.615 203.464 285.1 202.714 284.082C201.964 283.065 202.351 282.798 203.029 282.022C203.833 280.99 204.391 279.788 204.659 278.507C204.927 277.226 204.9 275.9 204.577 274.631C204.577 274.486 204.432 274.437 204.215 274.631C202.714 274.971 199.374 279.066 197.342 281.756C196.134 283.547 194.703 285.176 193.082 286.603C190.662 288.154 178.32 289.826 175.852 290.141C175.534 290.182 175.213 290.095 174.959 289.9C174.705 289.705 174.539 289.417 174.497 289.099C174.473 288.941 174.481 288.78 174.521 288.625C174.561 288.47 174.632 288.325 174.729 288.198C174.826 288.072 174.948 287.966 175.087 287.887C175.226 287.809 175.379 287.759 175.537 287.742C181.442 286.99 190.372 285.488 191.751 284.591C193.108 283.272 194.347 281.837 195.454 280.302C198.89 275.94 201.504 272.814 203.658 272.305C204.227 272.149 204.831 272.188 205.375 272.416C205.919 272.645 206.371 273.049 206.659 273.565C207.571 275.819 207.571 278.339 206.659 280.593C212.757 277.079 217.573 274.583 219.533 276.546C221.333 278.882 222.309 281.75 222.309 284.7C222.309 287.651 221.333 290.518 219.533 292.855C215.225 298.162 190.493 308.025 177.207 308.679L177.231 308.51Z" fill="#6DB0E2"/>
<path d="M96.5487 223.814C96.5487 223.814 102.72 285.949 120.749 286.24C142.698 286.627 180.208 285.803 180.208 285.803L187.468 309.237C187.468 309.237 129.388 323.195 104.946 312.605C80.5042 302.015 78.7375 260.116 78.7375 260.116L96.5487 223.814Z" fill="#E30238"/>
<path d="M138.536 288.18C128.614 288.18 120.241 287.84 117.893 286.822C111.48 283.987 99.6948 243.202 97.3958 235.133C97.3519 234.975 97.3396 234.811 97.3597 234.648C97.3798 234.486 97.4319 234.329 97.513 234.187C97.594 234.045 97.7024 233.921 97.8318 233.821C97.9613 233.721 98.1092 233.648 98.267 233.606C98.4227 233.558 98.5864 233.542 98.7484 233.559C98.9104 233.576 99.0672 233.626 99.2096 233.705C99.3519 233.784 99.4769 233.892 99.5769 234.02C99.6769 234.149 99.7499 234.297 99.7916 234.454C104.995 252.847 114.771 282.703 118.91 284.52C123.048 286.338 157.92 285.587 180.136 284.52C180.3 284.507 180.466 284.528 180.623 284.581C180.779 284.635 180.923 284.719 181.046 284.831C181.168 284.942 181.267 285.077 181.335 285.228C181.403 285.379 181.44 285.542 181.442 285.708C181.452 285.872 181.429 286.037 181.375 286.192C181.32 286.347 181.235 286.49 181.124 286.612C181.014 286.734 180.88 286.832 180.731 286.902C180.582 286.971 180.421 287.01 180.257 287.016C176.651 287.21 155.379 288.18 138.536 288.18Z" fill="white"/>
<path d="M130.985 317.355C121.973 317.676 112.972 316.463 104.365 313.768C81.351 305.02 77.6 272.353 77.6 270.948C77.566 270.624 77.6614 270.299 77.8654 270.045C78.0694 269.791 78.3654 269.627 78.689 269.591C79.0155 269.557 79.3426 269.651 79.6003 269.855C79.858 270.059 80.026 270.355 80.0684 270.681C80.0684 271.021 83.7952 303.227 105.478 311.418C127.573 319.754 177.546 310.085 178.078 309.988C178.369 309.988 178.651 310.089 178.876 310.273C179.101 310.458 179.255 310.715 179.312 311.001C179.369 311.286 179.326 311.583 179.189 311.84C179.052 312.097 178.831 312.299 178.562 312.411C162.87 315.391 146.955 317.045 130.985 317.355Z" fill="white"/>
</svg>
