<svg width="471" height="629" viewBox="0 0 471 629" fill="none" xmlns="http://www.w3.org/2000/svg">
<g clip-path="url(#clip0_3046_50772)">
<path d="M315.487 314.512V471.744H158.23V338.762L182.481 314.512H315.487Z" fill="#1B3F7E"/>
<path d="M235.224 442.904C212.226 442.046 194.351 422.409 194.351 399.388V387.796C194.351 383.715 197.666 380.377 201.77 380.377H271.971C276.051 380.377 279.366 383.692 279.366 387.796V400.431C279.366 424.426 259.405 443.831 235.224 442.904ZM209.165 395.191V399.619C209.165 414.527 220.595 427.347 235.479 428.089C251.383 428.877 264.575 416.173 264.575 400.431V395.191H209.189H209.165Z" fill="white"/>
<path d="M233.856 364.055H204.644C199.498 364.055 194.884 360.276 194.397 355.153C193.841 349.264 198.454 344.303 204.227 344.303H233.439C238.586 344.303 243.199 348.082 243.686 353.205C244.243 359.094 239.629 364.055 233.856 364.055Z" fill="white"/>
<path d="M276.12 362.039C271.785 366.374 264.737 366.374 260.402 362.039C256.066 357.703 256.066 350.655 260.402 346.32C264.737 341.985 271.785 341.985 276.12 346.32C280.456 350.655 280.456 357.703 276.12 362.039Z" fill="#6DB0E2"/>
<path d="M315.487 471.744V629H158.23V495.994L182.481 471.744H315.487Z" fill="white"/>
<path d="M235.224 600.16C212.226 599.302 194.351 579.665 194.351 556.644V545.052C194.351 540.971 197.666 537.633 201.77 537.633H271.971C276.051 537.633 279.366 540.948 279.366 545.052V557.687C279.366 581.682 259.405 601.087 235.224 600.16ZM209.165 552.447V556.875C209.165 571.783 220.595 584.603 235.479 585.345C251.383 586.133 264.575 573.429 264.575 557.687V552.447H209.189H209.165Z" fill="#E30238"/>
<path d="M233.856 521.311H204.644C199.498 521.311 194.884 517.532 194.397 512.409C193.841 506.52 198.454 501.559 204.227 501.559H233.439C238.586 501.559 243.199 505.338 243.686 510.461C244.243 516.35 239.629 521.311 233.856 521.311Z" fill="#E30238"/>
<path d="M276.12 519.294C271.785 523.63 264.737 523.63 260.402 519.294C256.066 514.959 256.066 507.911 260.402 503.576C264.737 499.24 271.785 499.24 276.12 503.576C280.456 507.911 280.456 514.959 276.12 519.294Z" fill="#1B3F7E"/>
<path d="M472.743 471.744V629H315.487V495.994L339.737 471.744H472.743Z" fill="#6DB0E2"/>
<path d="M392.481 600.16C369.482 599.302 351.607 579.665 351.607 556.644V545.052C351.607 540.971 354.923 537.633 359.026 537.633H429.227C433.308 537.633 436.623 540.948 436.623 545.052V557.687C436.623 581.682 416.661 601.087 392.481 600.16ZM366.422 552.447V556.875C366.422 571.783 377.852 584.603 392.736 585.345C408.64 586.133 421.832 573.429 421.832 557.687V552.447H366.445H366.422Z" fill="white"/>
<path d="M391.113 521.311H361.901C356.754 521.311 352.141 517.532 351.654 512.409C351.097 506.52 355.711 501.559 361.484 501.559H390.696C395.842 501.559 400.456 505.338 400.943 510.461C401.499 516.35 396.886 521.311 391.113 521.311Z" fill="white"/>
<path d="M433.377 519.294C429.042 523.63 421.994 523.63 417.658 519.294C413.323 514.959 413.323 507.911 417.658 503.576C421.994 499.24 429.042 499.24 433.377 503.576C437.712 507.911 437.712 514.959 433.377 519.294Z" fill="#1B3F7E"/>
<path d="M472.743 314.512V471.744H315.487V338.762L339.737 314.512H472.743Z" fill="#E30238"/>
<path d="M392.481 442.904C369.482 442.046 351.607 422.409 351.607 399.388V387.796C351.607 383.715 354.923 380.377 359.026 380.377H429.227C433.308 380.377 436.623 383.692 436.623 387.796V400.431C436.623 424.426 416.661 443.831 392.481 442.904ZM366.422 395.191V399.619C366.422 414.527 377.852 427.347 392.736 428.089C408.64 428.877 421.832 416.173 421.832 400.431V395.191H366.445H366.422Z" fill="white"/>
<path d="M391.113 364.055H361.901C356.754 364.055 352.141 360.276 351.654 355.153C351.097 349.264 355.711 344.303 361.484 344.303H390.696C395.842 344.303 400.456 348.082 400.943 353.205C401.499 359.094 396.886 364.055 391.113 364.055Z" fill="white"/>
<path d="M433.377 362.039C429.042 366.374 421.994 366.374 417.658 362.039C413.323 357.703 413.323 350.655 417.658 346.32C421.994 341.985 429.042 341.985 433.377 346.32C437.712 350.655 437.712 357.703 433.377 362.039Z" fill="#1B3F7E"/>
<path d="M472.743 157.256V314.512H315.487V181.506L339.737 157.256H472.743Z" fill="white"/>
<path d="M392.481 285.648C369.482 284.79 351.607 265.153 351.607 242.132V230.54C351.607 226.46 354.923 223.121 359.026 223.121H429.227C433.308 223.121 436.623 226.436 436.623 230.54V243.175C436.623 267.17 416.661 286.575 392.481 285.648ZM366.422 237.936V242.364C366.422 257.271 377.852 270.092 392.736 270.833C408.64 271.622 421.832 258.917 421.832 243.175V237.936H366.445H366.422Z" fill="#1B3F7E"/>
<path d="M391.113 206.799H361.901C356.754 206.799 352.141 203.021 351.654 197.897C351.097 192.008 355.711 187.047 361.484 187.047H390.696C395.842 187.047 400.456 190.826 400.943 195.949C401.499 201.838 396.886 206.799 391.113 206.799Z" fill="#1B3F7E"/>
<path d="M433.377 204.783C429.042 209.118 421.994 209.118 417.658 204.783C413.323 200.447 413.323 193.399 417.658 189.064C421.994 184.729 429.042 184.729 433.377 189.064C437.712 193.399 437.712 200.447 433.377 204.783Z" fill="#6DB0E2"/>
<path d="M472.743 0V157.256H315.487V24.2503L339.737 0H472.743Z" fill="#1B3F7E"/>
<path d="M392.481 128.415C369.482 127.558 351.607 107.921 351.607 84.8994V73.3075C351.607 69.2271 354.923 65.8887 359.026 65.8887H429.227C433.308 65.8887 436.623 69.204 436.623 73.3075V85.9427C436.623 109.938 416.661 129.343 392.481 128.415ZM366.422 80.7031V85.1312C366.422 100.038 377.852 112.859 392.736 113.601C408.64 114.389 421.832 101.684 421.832 85.9427V80.7031H366.445H366.422Z" fill="white"/>
<path d="M391.113 49.5436H361.901C356.754 49.5436 352.141 45.7647 351.654 40.641C351.097 34.7524 355.711 29.791 361.484 29.791H390.696C395.842 29.791 400.456 33.57 400.943 38.6936C401.499 44.5823 396.886 49.5436 391.113 49.5436Z" fill="white"/>
<path d="M433.377 47.5268C429.042 51.8622 421.994 51.8622 417.658 47.5268C413.323 43.1914 413.323 36.1435 417.658 31.8082C421.994 27.4728 429.042 27.4728 433.377 31.8082C437.712 36.1435 437.712 43.1914 433.377 47.5268Z" fill="#E30238"/>
<path d="M157.257 471.744V629H0V495.994L24.2504 471.744H157.257Z" fill="#1B3F7E"/>
<path d="M76.9939 600.16C53.9954 599.302 36.1206 579.665 36.1206 556.644V545.052C36.1206 540.971 39.4359 537.633 43.5395 537.633H113.74C117.821 537.633 121.136 540.948 121.136 545.052V557.687C121.136 581.682 101.175 601.087 76.9939 600.16ZM50.9351 552.447V556.875C50.9351 571.783 62.3648 584.603 77.2489 585.345C93.1531 586.133 106.345 573.429 106.345 557.687V552.447H50.9583H50.9351Z" fill="white"/>
<path d="M75.6259 521.311H46.4142C41.2674 521.311 36.6538 517.532 36.1669 512.409C35.6105 506.52 40.2241 501.559 45.9969 501.559H75.2086C80.3555 501.559 84.9691 505.338 85.4559 510.461C86.0123 516.35 81.3987 521.311 75.6259 521.311Z" fill="white"/>
<path d="M117.89 519.294C113.555 523.63 106.507 523.63 102.171 519.294C97.8361 514.959 97.8361 507.911 102.171 503.576C106.507 499.24 113.555 499.24 117.89 503.576C122.226 507.911 122.226 514.959 117.89 519.294Z" fill="#E30238"/>
</g>
<defs>
<clipPath id="clip0_3046_50772">
<rect width="630" height="629" fill="white"/>
</clipPath>
</defs>
</svg>
