<svg width="244" height="643" viewBox="0 0 244 643" fill="none" xmlns="http://www.w3.org/2000/svg">
<g clip-path="url(#clip0_3046_47596)">
<path d="M-1.52748 5.39769C-0.0373635 5.39769 1.17065 4.18938 1.17065 2.69885C1.17065 1.20831 -0.0373635 0 -1.52748 0C-3.01761 0 -4.22559 1.20831 -4.22559 2.69885C-4.22559 4.18938 -3.01761 5.39769 -1.52748 5.39769Z" fill="#6DB0E2"/>
<path d="M28.8263 5.39769C30.3229 5.39769 31.5244 4.19586 31.5244 2.69885C31.5244 1.20183 30.3229 0 28.8263 0C27.3297 0 26.1282 1.20183 26.1282 2.69885C26.1282 4.19586 27.3297 5.39769 28.8263 5.39769Z" fill="#6DB0E2"/>
<path d="M59.1798 5.39769C60.6764 5.39769 61.8779 4.19586 61.8779 2.69885C61.8779 1.20183 60.6764 0 59.1798 0C57.6832 0 56.4817 1.20183 56.4817 2.69885C56.4817 4.19586 57.6832 5.39769 59.1798 5.39769Z" fill="#6DB0E2"/>
<path d="M89.5336 5.39769C91.0302 5.39769 92.2317 4.19586 92.2317 2.69885C92.2317 1.20183 91.0302 0 89.5336 0C88.0369 0 86.8354 1.20183 86.8354 2.69885C86.8354 4.19586 88.0369 5.39769 89.5336 5.39769Z" fill="#6DB0E2"/>
<path d="M119.887 5.39769C121.384 5.39769 122.585 4.19586 122.585 2.69885C122.585 1.20183 121.384 0 119.887 0C118.39 0 117.189 1.20183 117.189 2.69885C117.189 4.19586 118.39 5.39769 119.887 5.39769Z" fill="#6DB0E2"/>
<path d="M150.241 5.39769C151.731 5.39769 152.939 4.18938 152.939 2.69885C152.939 1.20831 151.731 0 150.241 0C148.751 0 147.543 1.20831 147.543 2.69885C147.543 4.18938 148.751 5.39769 150.241 5.39769Z" fill="#6DB0E2"/>
<path d="M180.595 5.39769C182.091 5.39769 183.293 4.19586 183.293 2.69885C183.293 1.20183 182.091 0 180.595 0C179.098 0 177.896 1.20183 177.896 2.69885C177.896 4.19586 179.098 5.39769 180.595 5.39769Z" fill="#6DB0E2"/>
<path d="M210.948 5.39769C212.445 5.39769 213.646 4.19586 213.646 2.69885C213.646 1.20183 212.445 0 210.948 0C209.451 0 208.25 1.20183 208.25 2.69885C208.25 4.19586 209.451 5.39769 210.948 5.39769Z" fill="#6DB0E2"/>
<path d="M241.302 5.39769C242.798 5.39769 244 4.19586 244 2.69885C244 1.20183 242.798 0 241.302 0C239.805 0 238.604 1.20183 238.604 2.69885C238.604 4.19586 239.805 5.39769 241.302 5.39769Z" fill="#6DB0E2"/>
<path d="M13.6493 35.759C15.1459 35.759 16.3474 34.5572 16.3474 33.0602C16.3474 31.5632 15.1459 30.3613 13.6493 30.3613C12.1527 30.3613 10.9512 31.5632 10.9512 33.0602C10.9512 34.5572 12.1527 35.759 13.6493 35.759Z" fill="#6DB0E2"/>
<path d="M44.003 35.759C45.4996 35.759 46.7011 34.5572 46.7011 33.0602C46.7011 31.5632 45.4996 30.3613 44.003 30.3613C42.5064 30.3613 41.3049 31.5632 41.3049 33.0602C41.3049 34.5572 42.5064 35.759 44.003 35.759Z" fill="#6DB0E2"/>
<path d="M74.3568 35.759C75.8469 35.759 77.0549 34.5507 77.0549 33.0602C77.0549 31.5696 75.8469 30.3613 74.3568 30.3613C72.8667 30.3613 71.6587 31.5696 71.6587 33.0602C71.6587 34.5507 72.8667 35.759 74.3568 35.759Z" fill="#6DB0E2"/>
<path d="M104.71 35.759C106.207 35.759 107.408 34.5572 107.408 33.0602C107.408 31.5632 106.207 30.3613 104.71 30.3613C103.214 30.3613 102.012 31.5632 102.012 33.0602C102.012 34.5572 103.214 35.759 104.71 35.759Z" fill="#6DB0E2"/>
<path d="M135.064 35.759C136.561 35.759 137.762 34.5572 137.762 33.0602C137.762 31.5632 136.561 30.3613 135.064 30.3613C133.567 30.3613 132.366 31.5632 132.366 33.0602C132.366 34.5572 133.567 35.759 135.064 35.759Z" fill="#6DB0E2"/>
<path d="M165.418 35.759C166.914 35.759 168.116 34.5572 168.116 33.0602C168.116 31.5632 166.914 30.3613 165.418 30.3613C163.921 30.3613 162.72 31.5632 162.72 33.0602C162.72 34.5572 163.921 35.759 165.418 35.759Z" fill="#6DB0E2"/>
<path d="M195.771 35.759C197.268 35.759 198.469 34.5572 198.469 33.0602C198.469 31.5632 197.268 30.3613 195.771 30.3613C194.275 30.3613 193.073 31.5632 193.073 33.0602C193.073 34.5572 194.275 35.759 195.771 35.759Z" fill="#6DB0E2"/>
<path d="M226.125 35.759C227.615 35.759 228.823 34.5507 228.823 33.0602C228.823 31.5696 227.615 30.3613 226.125 30.3613C224.635 30.3613 223.427 31.5696 223.427 33.0602C223.427 34.5507 224.635 35.759 226.125 35.759Z" fill="#6DB0E2"/>
<path d="M-1.52748 66.1223C-0.0308805 66.1223 1.17065 64.9205 1.17065 63.4235C1.17065 61.9264 -0.0308805 60.7246 -1.52748 60.7246C-3.02409 60.7246 -4.22559 61.9264 -4.22559 63.4235C-4.22559 64.9205 -3.02409 66.1223 -1.52748 66.1223Z" fill="#6DB0E2"/>
<path d="M28.8263 66.1223C30.3229 66.1223 31.5244 64.9205 31.5244 63.4235C31.5244 61.9264 30.3229 60.7246 28.8263 60.7246C27.3297 60.7246 26.1282 61.9264 26.1282 63.4235C26.1282 64.9205 27.3297 66.1223 28.8263 66.1223Z" fill="#6DB0E2"/>
<path d="M59.1798 66.1223C60.6764 66.1223 61.8779 64.9205 61.8779 63.4235C61.8779 61.9264 60.6764 60.7246 59.1798 60.7246C57.6832 60.7246 56.4817 61.9264 56.4817 63.4235C56.4817 64.9205 57.6832 66.1223 59.1798 66.1223Z" fill="#6DB0E2"/>
<path d="M89.5336 66.1223C91.0302 66.1223 92.2317 64.9205 92.2317 63.4235C92.2317 61.9264 91.0302 60.7246 89.5336 60.7246C88.0369 60.7246 86.8354 61.9264 86.8354 63.4235C86.8354 64.9205 88.0369 66.1223 89.5336 66.1223Z" fill="#6DB0E2"/>
<path d="M119.887 66.1223C121.384 66.1223 122.585 64.9205 122.585 63.4235C122.585 61.9264 121.384 60.7246 119.887 60.7246C118.39 60.7246 117.189 61.9264 117.189 63.4235C117.189 64.9205 118.39 66.1223 119.887 66.1223Z" fill="#6DB0E2"/>
<path d="M150.241 66.1223C151.737 66.1223 152.939 64.9205 152.939 63.4235C152.939 61.9264 151.737 60.7246 150.241 60.7246C148.744 60.7246 147.543 61.9264 147.543 63.4235C147.543 64.9205 148.744 66.1223 150.241 66.1223Z" fill="#6DB0E2"/>
<path d="M180.595 66.1223C182.091 66.1223 183.293 64.9205 183.293 63.4235C183.293 61.9264 182.091 60.7246 180.595 60.7246C179.098 60.7246 177.896 61.9264 177.896 63.4235C177.896 64.9205 179.098 66.1223 180.595 66.1223Z" fill="#6DB0E2"/>
<path d="M210.948 66.1223C212.445 66.1223 213.646 64.9205 213.646 63.4235C213.646 61.9264 212.445 60.7246 210.948 60.7246C209.451 60.7246 208.25 61.9264 208.25 63.4235C208.25 64.9205 209.451 66.1223 210.948 66.1223Z" fill="#6DB0E2"/>
<path d="M241.302 66.1223C242.798 66.1223 244 64.9205 244 63.4235C244 61.9264 242.798 60.7246 241.302 60.7246C239.805 60.7246 238.604 61.9264 238.604 63.4235C238.604 64.9205 239.805 66.1223 241.302 66.1223Z" fill="#6DB0E2"/>
<path d="M13.6493 96.4836C15.1459 96.4836 16.3474 95.2818 16.3474 93.7848C16.3474 92.2878 15.1459 91.0859 13.6493 91.0859C12.1527 91.0859 10.9512 92.2878 10.9512 93.7848C10.9512 95.2818 12.1527 96.4836 13.6493 96.4836Z" fill="#6DB0E2"/>
<path d="M44.003 96.4836C45.4996 96.4836 46.7011 95.2818 46.7011 93.7848C46.7011 92.2878 45.4996 91.0859 44.003 91.0859C42.5064 91.0859 41.3049 92.2878 41.3049 93.7848C41.3049 95.2818 42.5064 96.4836 44.003 96.4836Z" fill="#6DB0E2"/>
<path d="M74.3568 96.4836C75.8534 96.4836 77.0549 95.2818 77.0549 93.7848C77.0549 92.2878 75.8534 91.0859 74.3568 91.0859C72.8602 91.0859 71.6587 92.2878 71.6587 93.7848C71.6587 95.2818 72.8602 96.4836 74.3568 96.4836Z" fill="#6DB0E2"/>
<path d="M104.71 96.4836C106.207 96.4836 107.408 95.2818 107.408 93.7848C107.408 92.2878 106.207 91.0859 104.71 91.0859C103.214 91.0859 102.012 92.2878 102.012 93.7848C102.012 95.2818 103.214 96.4836 104.71 96.4836Z" fill="#6DB0E2"/>
<path d="M135.064 96.4836C136.561 96.4836 137.762 95.2818 137.762 93.7848C137.762 92.2878 136.561 91.0859 135.064 91.0859C133.567 91.0859 132.366 92.2878 132.366 93.7848C132.366 95.2818 133.567 96.4836 135.064 96.4836Z" fill="#6DB0E2"/>
<path d="M165.418 96.4836C166.914 96.4836 168.116 95.2818 168.116 93.7848C168.116 92.2878 166.914 91.0859 165.418 91.0859C163.921 91.0859 162.72 92.2878 162.72 93.7848C162.72 95.2818 163.921 96.4836 165.418 96.4836Z" fill="#6DB0E2"/>
<path d="M195.771 96.4836C197.268 96.4836 198.469 95.2818 198.469 93.7848C198.469 92.2878 197.268 91.0859 195.771 91.0859C194.275 91.0859 193.073 92.2878 193.073 93.7848C193.073 95.2818 194.275 96.4836 195.771 96.4836Z" fill="#6DB0E2"/>
<path d="M226.125 96.4836C227.622 96.4836 228.823 95.2818 228.823 93.7848C228.823 92.2878 227.622 91.0859 226.125 91.0859C224.628 91.0859 223.427 92.2878 223.427 93.7848C223.427 95.2818 224.628 96.4836 226.125 96.4836Z" fill="#6DB0E2"/>
<path d="M-1.52748 126.845C-0.0308805 126.845 1.17065 125.643 1.17065 124.146C1.17065 122.649 -0.0308805 121.447 -1.52748 121.447C-3.02409 121.447 -4.22559 122.649 -4.22559 124.146C-4.22559 125.643 -3.02409 126.845 -1.52748 126.845Z" fill="#6DB0E2"/>
<path d="M28.8263 126.845C30.3229 126.845 31.5244 125.643 31.5244 124.146C31.5244 122.649 30.3229 121.447 28.8263 121.447C27.3297 121.447 26.1282 122.649 26.1282 124.146C26.1282 125.643 27.3297 126.845 28.8263 126.845Z" fill="#6DB0E2"/>
<path d="M59.1798 126.845C60.6764 126.845 61.8779 125.643 61.8779 124.146C61.8779 122.649 60.6764 121.447 59.1798 121.447C57.6832 121.447 56.4817 122.649 56.4817 124.146C56.4817 125.643 57.6832 126.845 59.1798 126.845Z" fill="#6DB0E2"/>
<path d="M89.5336 126.845C91.0302 126.845 92.2317 125.643 92.2317 124.146C92.2317 122.649 91.0302 121.447 89.5336 121.447C88.0369 121.447 86.8354 122.649 86.8354 124.146C86.8354 125.643 88.0369 126.845 89.5336 126.845Z" fill="#6DB0E2"/>
<path d="M119.887 126.845C121.384 126.845 122.585 125.643 122.585 124.146C122.585 122.649 121.384 121.447 119.887 121.447C118.39 121.447 117.189 122.649 117.189 124.146C117.189 125.643 118.39 126.845 119.887 126.845Z" fill="#6DB0E2"/>
<path d="M150.241 126.845C151.737 126.845 152.939 125.643 152.939 124.146C152.939 122.649 151.737 121.447 150.241 121.447C148.744 121.447 147.543 122.649 147.543 124.146C147.543 125.643 148.744 126.845 150.241 126.845Z" fill="#6DB0E2"/>
<path d="M180.595 126.845C182.091 126.845 183.293 125.643 183.293 124.146C183.293 122.649 182.091 121.447 180.595 121.447C179.098 121.447 177.896 122.649 177.896 124.146C177.896 125.643 179.098 126.845 180.595 126.845Z" fill="#6DB0E2"/>
<path d="M210.948 126.845C212.445 126.845 213.646 125.643 213.646 124.146C213.646 122.649 212.445 121.447 210.948 121.447C209.451 121.447 208.25 122.649 208.25 124.146C208.25 125.643 209.451 126.845 210.948 126.845Z" fill="#6DB0E2"/>
<path d="M241.302 126.845C242.798 126.845 244 125.643 244 124.146C244 122.649 242.798 121.447 241.302 121.447C239.805 121.447 238.604 122.649 238.604 124.146C238.604 125.643 239.805 126.845 241.302 126.845Z" fill="#6DB0E2"/>
<path d="M13.6493 157.208C15.1459 157.208 16.3474 156.006 16.3474 154.509C16.3474 153.012 15.1459 151.811 13.6493 151.811C12.1527 151.811 10.9512 153.012 10.9512 154.509C10.9512 156.006 12.1527 157.208 13.6493 157.208Z" fill="#6DB0E2"/>
<path d="M44.003 157.208C45.4996 157.208 46.7011 156.006 46.7011 154.509C46.7011 153.012 45.4996 151.811 44.003 151.811C42.5064 151.811 41.3049 153.012 41.3049 154.509C41.3049 156.006 42.5064 157.208 44.003 157.208Z" fill="#6DB0E2"/>
<path d="M74.3568 157.208C75.8469 157.208 77.0549 156 77.0549 154.509C77.0549 153.019 75.8469 151.811 74.3568 151.811C72.8667 151.811 71.6587 153.019 71.6587 154.509C71.6587 156 72.8667 157.208 74.3568 157.208Z" fill="#6DB0E2"/>
<path d="M104.71 157.208C106.207 157.208 107.408 156.006 107.408 154.509C107.408 153.012 106.207 151.811 104.71 151.811C103.214 151.811 102.012 153.012 102.012 154.509C102.012 156.006 103.214 157.208 104.71 157.208Z" fill="#6DB0E2"/>
<path d="M135.064 157.208C136.561 157.208 137.762 156.006 137.762 154.509C137.762 153.012 136.561 151.811 135.064 151.811C133.567 151.811 132.366 153.012 132.366 154.509C132.366 156.006 133.567 157.208 135.064 157.208Z" fill="#6DB0E2"/>
<path d="M165.418 157.208C166.914 157.208 168.116 156.006 168.116 154.509C168.116 153.012 166.914 151.811 165.418 151.811C163.921 151.811 162.72 153.012 162.72 154.509C162.72 156.006 163.921 157.208 165.418 157.208Z" fill="#6DB0E2"/>
<path d="M195.771 157.208C197.268 157.208 198.469 156.006 198.469 154.509C198.469 153.012 197.268 151.811 195.771 151.811C194.275 151.811 193.073 153.012 193.073 154.509C193.073 156.006 194.275 157.208 195.771 157.208Z" fill="#6DB0E2"/>
<path d="M226.125 157.208C227.615 157.208 228.823 156 228.823 154.509C228.823 153.019 227.615 151.811 226.125 151.811C224.635 151.811 223.427 153.019 223.427 154.509C223.427 156 224.635 157.208 226.125 157.208Z" fill="#6DB0E2"/>
<path d="M-1.52748 187.57C-0.0373635 187.57 1.17065 186.361 1.17065 184.871C1.17065 183.38 -0.0373635 182.172 -1.52748 182.172C-3.01761 182.172 -4.22559 183.38 -4.22559 184.871C-4.22559 186.361 -3.01761 187.57 -1.52748 187.57Z" fill="#6DB0E2"/>
<path d="M28.8263 187.57C30.3229 187.57 31.5244 186.368 31.5244 184.871C31.5244 183.374 30.3229 182.172 28.8263 182.172C27.3297 182.172 26.1282 183.374 26.1282 184.871C26.1282 186.368 27.3297 187.57 28.8263 187.57Z" fill="#6DB0E2"/>
<path d="M59.1798 187.57C60.6764 187.57 61.8779 186.368 61.8779 184.871C61.8779 183.374 60.6764 182.172 59.1798 182.172C57.6832 182.172 56.4817 183.374 56.4817 184.871C56.4817 186.368 57.6832 187.57 59.1798 187.57Z" fill="#6DB0E2"/>
<path d="M89.5336 187.57C91.0302 187.57 92.2317 186.368 92.2317 184.871C92.2317 183.374 91.0302 182.172 89.5336 182.172C88.0369 182.172 86.8354 183.374 86.8354 184.871C86.8354 186.368 88.0369 187.57 89.5336 187.57Z" fill="#6DB0E2"/>
<path d="M119.887 187.57C121.384 187.57 122.585 186.368 122.585 184.871C122.585 183.374 121.384 182.172 119.887 182.172C118.39 182.172 117.189 183.374 117.189 184.871C117.189 186.368 118.39 187.57 119.887 187.57Z" fill="#6DB0E2"/>
<path d="M150.241 187.57C151.731 187.57 152.939 186.361 152.939 184.871C152.939 183.38 151.731 182.172 150.241 182.172C148.751 182.172 147.543 183.38 147.543 184.871C147.543 186.361 148.751 187.57 150.241 187.57Z" fill="#6DB0E2"/>
<path d="M180.595 187.57C182.091 187.57 183.293 186.368 183.293 184.871C183.293 183.374 182.091 182.172 180.595 182.172C179.098 182.172 177.896 183.374 177.896 184.871C177.896 186.368 179.098 187.57 180.595 187.57Z" fill="#6DB0E2"/>
<path d="M210.948 187.57C212.445 187.57 213.646 186.368 213.646 184.871C213.646 183.374 212.445 182.172 210.948 182.172C209.451 182.172 208.25 183.374 208.25 184.871C208.25 186.368 209.451 187.57 210.948 187.57Z" fill="#6DB0E2"/>
<path d="M241.302 187.57C242.798 187.57 244 186.368 244 184.871C244 183.374 242.798 182.172 241.302 182.172C239.805 182.172 238.604 183.374 238.604 184.871C238.604 186.368 239.805 187.57 241.302 187.57Z" fill="#6DB0E2"/>
<path d="M13.6493 217.931C15.1459 217.931 16.3474 216.729 16.3474 215.232C16.3474 213.735 15.1459 212.533 13.6493 212.533C12.1527 212.533 10.9512 213.735 10.9512 215.232C10.9512 216.729 12.1527 217.931 13.6493 217.931Z" fill="#6DB0E2"/>
<path d="M44.003 217.931C45.4996 217.931 46.7011 216.729 46.7011 215.232C46.7011 213.735 45.4996 212.533 44.003 212.533C42.5064 212.533 41.3049 213.735 41.3049 215.232C41.3049 216.729 42.5064 217.931 44.003 217.931Z" fill="#6DB0E2"/>
<path d="M74.3568 217.931C75.8534 217.931 77.0549 216.729 77.0549 215.232C77.0549 213.735 75.8534 212.533 74.3568 212.533C72.8602 212.533 71.6587 213.735 71.6587 215.232C71.6587 216.729 72.8602 217.931 74.3568 217.931Z" fill="#6DB0E2"/>
<path d="M104.71 217.931C106.207 217.931 107.408 216.729 107.408 215.232C107.408 213.735 106.207 212.533 104.71 212.533C103.214 212.533 102.012 213.735 102.012 215.232C102.012 216.729 103.214 217.931 104.71 217.931Z" fill="#6DB0E2"/>
<path d="M135.064 217.931C136.561 217.931 137.762 216.729 137.762 215.232C137.762 213.735 136.561 212.533 135.064 212.533C133.567 212.533 132.366 213.735 132.366 215.232C132.366 216.729 133.567 217.931 135.064 217.931Z" fill="#6DB0E2"/>
<path d="M165.418 217.931C166.914 217.931 168.116 216.729 168.116 215.232C168.116 213.735 166.914 212.533 165.418 212.533C163.921 212.533 162.72 213.735 162.72 215.232C162.72 216.729 163.921 217.931 165.418 217.931Z" fill="#6DB0E2"/>
<path d="M195.771 217.931C197.268 217.931 198.469 216.729 198.469 215.232C198.469 213.735 197.268 212.533 195.771 212.533C194.275 212.533 193.073 213.735 193.073 215.232C193.073 216.729 194.275 217.931 195.771 217.931Z" fill="#6DB0E2"/>
<path d="M226.125 217.931C227.622 217.931 228.823 216.729 228.823 215.232C228.823 213.735 227.622 212.533 226.125 212.533C224.628 212.533 223.427 213.735 223.427 215.232C223.427 216.729 224.628 217.931 226.125 217.931Z" fill="#6DB0E2"/>
<path d="M-1.52748 248.294C-0.0308805 248.294 1.17065 247.092 1.17065 245.595C1.17065 244.098 -0.0308805 242.896 -1.52748 242.896C-3.02409 242.896 -4.22559 244.098 -4.22559 245.595C-4.22559 247.092 -3.02409 248.294 -1.52748 248.294Z" fill="#6DB0E2"/>
<path d="M28.8263 248.294C30.3229 248.294 31.5244 247.092 31.5244 245.595C31.5244 244.098 30.3229 242.896 28.8263 242.896C27.3297 242.896 26.1282 244.098 26.1282 245.595C26.1282 247.092 27.3297 248.294 28.8263 248.294Z" fill="#6DB0E2"/>
<path d="M59.1798 248.294C60.6764 248.294 61.8779 247.092 61.8779 245.595C61.8779 244.098 60.6764 242.896 59.1798 242.896C57.6832 242.896 56.4817 244.098 56.4817 245.595C56.4817 247.092 57.6832 248.294 59.1798 248.294Z" fill="#6DB0E2"/>
<path d="M89.5336 248.294C91.0302 248.294 92.2317 247.092 92.2317 245.595C92.2317 244.098 91.0302 242.896 89.5336 242.896C88.0369 242.896 86.8354 244.098 86.8354 245.595C86.8354 247.092 88.0369 248.294 89.5336 248.294Z" fill="#6DB0E2"/>
<path d="M119.887 248.294C121.384 248.294 122.585 247.092 122.585 245.595C122.585 244.098 121.384 242.896 119.887 242.896C118.39 242.896 117.189 244.098 117.189 245.595C117.189 247.092 118.39 248.294 119.887 248.294Z" fill="#6DB0E2"/>
<path d="M150.241 248.294C151.737 248.294 152.939 247.092 152.939 245.595C152.939 244.098 151.737 242.896 150.241 242.896C148.744 242.896 147.543 244.098 147.543 245.595C147.543 247.092 148.744 248.294 150.241 248.294Z" fill="#6DB0E2"/>
<path d="M180.595 248.294C182.091 248.294 183.293 247.092 183.293 245.595C183.293 244.098 182.091 242.896 180.595 242.896C179.098 242.896 177.896 244.098 177.896 245.595C177.896 247.092 179.098 248.294 180.595 248.294Z" fill="#6DB0E2"/>
<path d="M210.948 248.294C212.445 248.294 213.646 247.092 213.646 245.595C213.646 244.098 212.445 242.896 210.948 242.896C209.451 242.896 208.25 244.098 208.25 245.595C208.25 247.092 209.451 248.294 210.948 248.294Z" fill="#6DB0E2"/>
<path d="M241.302 248.294C242.798 248.294 244 247.092 244 245.595C244 244.098 242.798 242.896 241.302 242.896C239.805 242.896 238.604 244.098 238.604 245.595C238.604 247.092 239.805 248.294 241.302 248.294Z" fill="#6DB0E2"/>
<path d="M13.6493 278.655C15.1459 278.655 16.3474 277.454 16.3474 275.957C16.3474 274.46 15.1459 273.258 13.6493 273.258C12.1527 273.258 10.9512 274.46 10.9512 275.957C10.9512 277.454 12.1527 278.655 13.6493 278.655Z" fill="#6DB0E2"/>
<path d="M44.003 278.655C45.4996 278.655 46.7011 277.454 46.7011 275.957C46.7011 274.46 45.4996 273.258 44.003 273.258C42.5064 273.258 41.3049 274.46 41.3049 275.957C41.3049 277.454 42.5064 278.655 44.003 278.655Z" fill="#6DB0E2"/>
<path d="M74.3568 278.655C75.8534 278.655 77.0549 277.454 77.0549 275.957C77.0549 274.46 75.8534 273.258 74.3568 273.258C72.8602 273.258 71.6587 274.46 71.6587 275.957C71.6587 277.454 72.8602 278.655 74.3568 278.655Z" fill="#6DB0E2"/>
<path d="M104.71 278.655C106.207 278.655 107.408 277.454 107.408 275.957C107.408 274.46 106.207 273.258 104.71 273.258C103.214 273.258 102.012 274.46 102.012 275.957C102.012 277.454 103.214 278.655 104.71 278.655Z" fill="#6DB0E2"/>
<path d="M135.064 278.655C136.561 278.655 137.762 277.454 137.762 275.957C137.762 274.46 136.561 273.258 135.064 273.258C133.567 273.258 132.366 274.46 132.366 275.957C132.366 277.454 133.567 278.655 135.064 278.655Z" fill="#6DB0E2"/>
<path d="M165.418 278.655C166.914 278.655 168.116 277.454 168.116 275.957C168.116 274.46 166.914 273.258 165.418 273.258C163.921 273.258 162.72 274.46 162.72 275.957C162.72 277.454 163.921 278.655 165.418 278.655Z" fill="#6DB0E2"/>
<path d="M195.771 278.655C197.268 278.655 198.469 277.454 198.469 275.957C198.469 274.46 197.268 273.258 195.771 273.258C194.275 273.258 193.073 274.46 193.073 275.957C193.073 277.454 194.275 278.655 195.771 278.655Z" fill="#6DB0E2"/>
<path d="M226.125 278.655C227.622 278.655 228.823 277.454 228.823 275.957C228.823 274.46 227.622 273.258 226.125 273.258C224.628 273.258 223.427 274.46 223.427 275.957C223.427 277.454 224.628 278.655 226.125 278.655Z" fill="#6DB0E2"/>
<path d="M-1.52748 309.019C-0.0373635 309.019 1.17065 307.81 1.17065 306.32C1.17065 304.829 -0.0373635 303.621 -1.52748 303.621C-3.01761 303.621 -4.22559 304.829 -4.22559 306.32C-4.22559 307.81 -3.01761 309.019 -1.52748 309.019Z" fill="#6DB0E2"/>
<path d="M28.8263 309.019C30.3229 309.019 31.5244 307.817 31.5244 306.32C31.5244 304.823 30.3229 303.621 28.8263 303.621C27.3297 303.621 26.1282 304.823 26.1282 306.32C26.1282 307.817 27.3297 309.019 28.8263 309.019Z" fill="#6DB0E2"/>
<path d="M59.1798 309.019C60.6764 309.019 61.8779 307.817 61.8779 306.32C61.8779 304.823 60.6764 303.621 59.1798 303.621C57.6832 303.621 56.4817 304.823 56.4817 306.32C56.4817 307.817 57.6832 309.019 59.1798 309.019Z" fill="#6DB0E2"/>
<path d="M89.5336 309.019C91.0302 309.019 92.2317 307.817 92.2317 306.32C92.2317 304.823 91.0302 303.621 89.5336 303.621C88.0369 303.621 86.8354 304.823 86.8354 306.32C86.8354 307.817 88.0369 309.019 89.5336 309.019Z" fill="#6DB0E2"/>
<path d="M119.887 309.019C121.384 309.019 122.585 307.817 122.585 306.32C122.585 304.823 121.384 303.621 119.887 303.621C118.39 303.621 117.189 304.823 117.189 306.32C117.189 307.817 118.39 309.019 119.887 309.019Z" fill="#6DB0E2"/>
<path d="M150.241 309.019C151.731 309.019 152.939 307.81 152.939 306.32C152.939 304.829 151.731 303.621 150.241 303.621C148.751 303.621 147.543 304.829 147.543 306.32C147.543 307.81 148.751 309.019 150.241 309.019Z" fill="#6DB0E2"/>
<path d="M180.595 309.019C182.091 309.019 183.293 307.817 183.293 306.32C183.293 304.823 182.091 303.621 180.595 303.621C179.098 303.621 177.896 304.823 177.896 306.32C177.896 307.817 179.098 309.019 180.595 309.019Z" fill="#6DB0E2"/>
<path d="M210.948 309.019C212.445 309.019 213.646 307.817 213.646 306.32C213.646 304.823 212.445 303.621 210.948 303.621C209.451 303.621 208.25 304.823 208.25 306.32C208.25 307.817 209.451 309.019 210.948 309.019Z" fill="#6DB0E2"/>
<path d="M241.302 309.019C242.798 309.019 244 307.817 244 306.32C244 304.823 242.798 303.621 241.302 303.621C239.805 303.621 238.604 304.823 238.604 306.32C238.604 307.817 239.805 309.019 241.302 309.019Z" fill="#6DB0E2"/>
<path d="M13.6493 339.38C15.1459 339.38 16.3474 338.178 16.3474 336.681C16.3474 335.184 15.1459 333.982 13.6493 333.982C12.1527 333.982 10.9512 335.184 10.9512 336.681C10.9512 338.178 12.1527 339.38 13.6493 339.38Z" fill="#6DB0E2"/>
<path d="M44.003 339.38C45.4996 339.38 46.7011 338.178 46.7011 336.681C46.7011 335.184 45.4996 333.982 44.003 333.982C42.5064 333.982 41.3049 335.184 41.3049 336.681C41.3049 338.178 42.5064 339.38 44.003 339.38Z" fill="#6DB0E2"/>
<path d="M74.3568 339.38C75.8469 339.38 77.0549 338.172 77.0549 336.681C77.0549 335.191 75.8469 333.982 74.3568 333.982C72.8667 333.982 71.6587 335.191 71.6587 336.681C71.6587 338.172 72.8667 339.38 74.3568 339.38Z" fill="#6DB0E2"/>
<path d="M104.71 339.38C106.207 339.38 107.408 338.178 107.408 336.681C107.408 335.184 106.207 333.982 104.71 333.982C103.214 333.982 102.012 335.184 102.012 336.681C102.012 338.178 103.214 339.38 104.71 339.38Z" fill="#6DB0E2"/>
<path d="M135.064 339.38C136.561 339.38 137.762 338.178 137.762 336.681C137.762 335.184 136.561 333.982 135.064 333.982C133.567 333.982 132.366 335.184 132.366 336.681C132.366 338.178 133.567 339.38 135.064 339.38Z" fill="#6DB0E2"/>
<path d="M165.418 339.38C166.914 339.38 168.116 338.178 168.116 336.681C168.116 335.184 166.914 333.982 165.418 333.982C163.921 333.982 162.72 335.184 162.72 336.681C162.72 338.178 163.921 339.38 165.418 339.38Z" fill="#6DB0E2"/>
<path d="M195.771 339.38C197.268 339.38 198.469 338.178 198.469 336.681C198.469 335.184 197.268 333.982 195.771 333.982C194.275 333.982 193.073 335.184 193.073 336.681C193.073 338.178 194.275 339.38 195.771 339.38Z" fill="#6DB0E2"/>
<path d="M226.125 339.38C227.615 339.38 228.823 338.172 228.823 336.681C228.823 335.191 227.615 333.982 226.125 333.982C224.635 333.982 223.427 335.191 223.427 336.681C223.427 338.172 224.635 339.38 226.125 339.38Z" fill="#6DB0E2"/>
<path d="M-1.52748 369.741C-0.0308805 369.741 1.17065 368.54 1.17065 367.043C1.17065 365.546 -0.0308805 364.344 -1.52748 364.344C-3.02409 364.344 -4.22559 365.546 -4.22559 367.043C-4.22559 368.54 -3.02409 369.741 -1.52748 369.741Z" fill="#6DB0E2"/>
<path d="M28.8263 369.741C30.3229 369.741 31.5244 368.54 31.5244 367.043C31.5244 365.546 30.3229 364.344 28.8263 364.344C27.3297 364.344 26.1282 365.546 26.1282 367.043C26.1282 368.54 27.3297 369.741 28.8263 369.741Z" fill="#6DB0E2"/>
<path d="M59.1798 369.741C60.6764 369.741 61.8779 368.54 61.8779 367.043C61.8779 365.546 60.6764 364.344 59.1798 364.344C57.6832 364.344 56.4817 365.546 56.4817 367.043C56.4817 368.54 57.6832 369.741 59.1798 369.741Z" fill="#6DB0E2"/>
<path d="M89.5336 369.741C91.0302 369.741 92.2317 368.54 92.2317 367.043C92.2317 365.546 91.0302 364.344 89.5336 364.344C88.0369 364.344 86.8354 365.546 86.8354 367.043C86.8354 368.54 88.0369 369.741 89.5336 369.741Z" fill="#6DB0E2"/>
<path d="M119.887 369.741C121.384 369.741 122.585 368.54 122.585 367.043C122.585 365.546 121.384 364.344 119.887 364.344C118.39 364.344 117.189 365.546 117.189 367.043C117.189 368.54 118.39 369.741 119.887 369.741Z" fill="#6DB0E2"/>
<path d="M150.241 369.741C151.737 369.741 152.939 368.54 152.939 367.043C152.939 365.546 151.737 364.344 150.241 364.344C148.744 364.344 147.543 365.546 147.543 367.043C147.543 368.54 148.744 369.741 150.241 369.741Z" fill="#6DB0E2"/>
<path d="M180.595 369.741C182.091 369.741 183.293 368.54 183.293 367.043C183.293 365.546 182.091 364.344 180.595 364.344C179.098 364.344 177.896 365.546 177.896 367.043C177.896 368.54 179.098 369.741 180.595 369.741Z" fill="#6DB0E2"/>
<path d="M210.948 369.741C212.445 369.741 213.646 368.54 213.646 367.043C213.646 365.546 212.445 364.344 210.948 364.344C209.451 364.344 208.25 365.546 208.25 367.043C208.25 368.54 209.451 369.741 210.948 369.741Z" fill="#6DB0E2"/>
<path d="M241.302 369.741C242.798 369.741 244 368.54 244 367.043C244 365.546 242.798 364.344 241.302 364.344C239.805 364.344 238.604 365.546 238.604 367.043C238.604 368.54 239.805 369.741 241.302 369.741Z" fill="#6DB0E2"/>
<path d="M13.6493 400.105C15.1459 400.105 16.3474 398.903 16.3474 397.406C16.3474 395.909 15.1459 394.707 13.6493 394.707C12.1527 394.707 10.9512 395.909 10.9512 397.406C10.9512 398.903 12.1527 400.105 13.6493 400.105Z" fill="#6DB0E2"/>
<path d="M44.003 400.105C45.4996 400.105 46.7011 398.903 46.7011 397.406C46.7011 395.909 45.4996 394.707 44.003 394.707C42.5064 394.707 41.3049 395.909 41.3049 397.406C41.3049 398.903 42.5064 400.105 44.003 400.105Z" fill="#6DB0E2"/>
<path d="M74.3568 400.105C75.8534 400.105 77.0549 398.903 77.0549 397.406C77.0549 395.909 75.8534 394.707 74.3568 394.707C72.8602 394.707 71.6587 395.909 71.6587 397.406C71.6587 398.903 72.8602 400.105 74.3568 400.105Z" fill="#6DB0E2"/>
<path d="M104.71 400.105C106.207 400.105 107.408 398.903 107.408 397.406C107.408 395.909 106.207 394.707 104.71 394.707C103.214 394.707 102.012 395.909 102.012 397.406C102.012 398.903 103.214 400.105 104.71 400.105Z" fill="#6DB0E2"/>
<path d="M135.064 400.105C136.561 400.105 137.762 398.903 137.762 397.406C137.762 395.909 136.561 394.707 135.064 394.707C133.567 394.707 132.366 395.909 132.366 397.406C132.366 398.903 133.567 400.105 135.064 400.105Z" fill="#6DB0E2"/>
<path d="M165.418 400.105C166.914 400.105 168.116 398.903 168.116 397.406C168.116 395.909 166.914 394.707 165.418 394.707C163.921 394.707 162.72 395.909 162.72 397.406C162.72 398.903 163.921 400.105 165.418 400.105Z" fill="#6DB0E2"/>
<path d="M195.771 400.105C197.268 400.105 198.469 398.903 198.469 397.406C198.469 395.909 197.268 394.707 195.771 394.707C194.275 394.707 193.073 395.909 193.073 397.406C193.073 398.903 194.275 400.105 195.771 400.105Z" fill="#6DB0E2"/>
<path d="M226.125 400.105C227.622 400.105 228.823 398.903 228.823 397.406C228.823 395.909 227.622 394.707 226.125 394.707C224.628 394.707 223.427 395.909 223.427 397.406C223.427 398.903 224.628 400.105 226.125 400.105Z" fill="#6DB0E2"/>
<path d="M-1.52748 430.466C-0.0308805 430.466 1.17065 429.264 1.17065 427.767C1.17065 426.27 -0.0308805 425.068 -1.52748 425.068C-3.02409 425.068 -4.22559 426.27 -4.22559 427.767C-4.22559 429.264 -3.02409 430.466 -1.52748 430.466Z" fill="#6DB0E2"/>
<path d="M28.8263 430.466C30.3229 430.466 31.5244 429.264 31.5244 427.767C31.5244 426.27 30.3229 425.068 28.8263 425.068C27.3297 425.068 26.1282 426.27 26.1282 427.767C26.1282 429.264 27.3297 430.466 28.8263 430.466Z" fill="#6DB0E2"/>
<path d="M59.1798 430.466C60.6764 430.466 61.8779 429.264 61.8779 427.767C61.8779 426.27 60.6764 425.068 59.1798 425.068C57.6832 425.068 56.4817 426.27 56.4817 427.767C56.4817 429.264 57.6832 430.466 59.1798 430.466Z" fill="#6DB0E2"/>
<path d="M89.5336 430.466C91.0302 430.466 92.2317 429.264 92.2317 427.767C92.2317 426.27 91.0302 425.068 89.5336 425.068C88.0369 425.068 86.8354 426.27 86.8354 427.767C86.8354 429.264 88.0369 430.466 89.5336 430.466Z" fill="#6DB0E2"/>
<path d="M119.887 430.466C121.384 430.466 122.585 429.264 122.585 427.767C122.585 426.27 121.384 425.068 119.887 425.068C118.39 425.068 117.189 426.27 117.189 427.767C117.189 429.264 118.39 430.466 119.887 430.466Z" fill="#6DB0E2"/>
<path d="M150.241 430.466C151.737 430.466 152.939 429.264 152.939 427.767C152.939 426.27 151.737 425.068 150.241 425.068C148.744 425.068 147.543 426.27 147.543 427.767C147.543 429.264 148.744 430.466 150.241 430.466Z" fill="#6DB0E2"/>
<path d="M180.595 430.466C182.091 430.466 183.293 429.264 183.293 427.767C183.293 426.27 182.091 425.068 180.595 425.068C179.098 425.068 177.896 426.27 177.896 427.767C177.896 429.264 179.098 430.466 180.595 430.466Z" fill="#6DB0E2"/>
<path d="M210.948 430.466C212.445 430.466 213.646 429.264 213.646 427.767C213.646 426.27 212.445 425.068 210.948 425.068C209.451 425.068 208.25 426.27 208.25 427.767C208.25 429.264 209.451 430.466 210.948 430.466Z" fill="#6DB0E2"/>
<path d="M241.302 430.466C242.798 430.466 244 429.264 244 427.767C244 426.27 242.798 425.068 241.302 425.068C239.805 425.068 238.604 426.27 238.604 427.767C238.604 429.264 239.805 430.466 241.302 430.466Z" fill="#6DB0E2"/>
<path d="M13.6493 460.827C15.1459 460.827 16.3474 459.626 16.3474 458.129C16.3474 456.632 15.1459 455.43 13.6493 455.43C12.1527 455.43 10.9512 456.632 10.9512 458.129C10.9512 459.626 12.1527 460.827 13.6493 460.827Z" fill="#6DB0E2"/>
<path d="M44.003 460.827C45.4996 460.827 46.7011 459.626 46.7011 458.129C46.7011 456.632 45.4996 455.43 44.003 455.43C42.5064 455.43 41.3049 456.632 41.3049 458.129C41.3049 459.626 42.5064 460.827 44.003 460.827Z" fill="#6DB0E2"/>
<path d="M74.3568 460.827C75.8469 460.827 77.0549 459.619 77.0549 458.129C77.0549 456.638 75.8469 455.43 74.3568 455.43C72.8667 455.43 71.6587 456.638 71.6587 458.129C71.6587 459.619 72.8667 460.827 74.3568 460.827Z" fill="#6DB0E2"/>
<path d="M104.71 460.827C106.207 460.827 107.408 459.626 107.408 458.129C107.408 456.632 106.207 455.43 104.71 455.43C103.214 455.43 102.012 456.632 102.012 458.129C102.012 459.626 103.214 460.827 104.71 460.827Z" fill="#6DB0E2"/>
<path d="M135.064 460.827C136.561 460.827 137.762 459.626 137.762 458.129C137.762 456.632 136.561 455.43 135.064 455.43C133.567 455.43 132.366 456.632 132.366 458.129C132.366 459.626 133.567 460.827 135.064 460.827Z" fill="#6DB0E2"/>
<path d="M165.418 460.827C166.914 460.827 168.116 459.626 168.116 458.129C168.116 456.632 166.914 455.43 165.418 455.43C163.921 455.43 162.72 456.632 162.72 458.129C162.72 459.626 163.921 460.827 165.418 460.827Z" fill="#6DB0E2"/>
<path d="M195.771 460.827C197.268 460.827 198.469 459.626 198.469 458.129C198.469 456.632 197.268 455.43 195.771 455.43C194.275 455.43 193.073 456.632 193.073 458.129C193.073 459.626 194.275 460.827 195.771 460.827Z" fill="#6DB0E2"/>
<path d="M226.125 460.827C227.615 460.827 228.823 459.619 228.823 458.129C228.823 456.638 227.615 455.43 226.125 455.43C224.635 455.43 223.427 456.638 223.427 458.129C223.427 459.619 224.635 460.827 226.125 460.827Z" fill="#6DB0E2"/>
<path d="M-1.52748 491.191C-0.0373635 491.191 1.17065 489.982 1.17065 488.492C1.17065 487.001 -0.0373635 485.793 -1.52748 485.793C-3.01761 485.793 -4.22559 487.001 -4.22559 488.492C-4.22559 489.982 -3.01761 491.191 -1.52748 491.191Z" fill="#6DB0E2"/>
<path d="M28.8263 491.191C30.3229 491.191 31.5244 489.989 31.5244 488.492C31.5244 486.995 30.3229 485.793 28.8263 485.793C27.3297 485.793 26.1282 486.995 26.1282 488.492C26.1282 489.989 27.3297 491.191 28.8263 491.191Z" fill="#6DB0E2"/>
<path d="M59.1798 491.191C60.6764 491.191 61.8779 489.989 61.8779 488.492C61.8779 486.995 60.6764 485.793 59.1798 485.793C57.6832 485.793 56.4817 486.995 56.4817 488.492C56.4817 489.989 57.6832 491.191 59.1798 491.191Z" fill="#6DB0E2"/>
<path d="M89.5336 491.191C91.0302 491.191 92.2317 489.989 92.2317 488.492C92.2317 486.995 91.0302 485.793 89.5336 485.793C88.0369 485.793 86.8354 486.995 86.8354 488.492C86.8354 489.989 88.0369 491.191 89.5336 491.191Z" fill="#6DB0E2"/>
<path d="M119.887 491.191C121.384 491.191 122.585 489.989 122.585 488.492C122.585 486.995 121.384 485.793 119.887 485.793C118.39 485.793 117.189 486.995 117.189 488.492C117.189 489.989 118.39 491.191 119.887 491.191Z" fill="#6DB0E2"/>
<path d="M150.241 491.191C151.731 491.191 152.939 489.982 152.939 488.492C152.939 487.001 151.731 485.793 150.241 485.793C148.751 485.793 147.543 487.001 147.543 488.492C147.543 489.982 148.751 491.191 150.241 491.191Z" fill="#6DB0E2"/>
<path d="M180.595 491.191C182.091 491.191 183.293 489.989 183.293 488.492C183.293 486.995 182.091 485.793 180.595 485.793C179.098 485.793 177.896 486.995 177.896 488.492C177.896 489.989 179.098 491.191 180.595 491.191Z" fill="#6DB0E2"/>
<path d="M210.948 491.191C212.445 491.191 213.646 489.989 213.646 488.492C213.646 486.995 212.445 485.793 210.948 485.793C209.451 485.793 208.25 486.995 208.25 488.492C208.25 489.989 209.451 491.191 210.948 491.191Z" fill="#6DB0E2"/>
<path d="M241.302 491.191C242.798 491.191 244 489.989 244 488.492C244 486.995 242.798 485.793 241.302 485.793C239.805 485.793 238.604 486.995 238.604 488.492C238.604 489.989 239.805 491.191 241.302 491.191Z" fill="#6DB0E2"/>
<path d="M13.6493 521.552C15.1459 521.552 16.3474 520.35 16.3474 518.853C16.3474 517.356 15.1459 516.154 13.6493 516.154C12.1527 516.154 10.9512 517.356 10.9512 518.853C10.9512 520.35 12.1527 521.552 13.6493 521.552Z" fill="#6DB0E2"/>
<path d="M44.003 521.552C45.4996 521.552 46.7011 520.35 46.7011 518.853C46.7011 517.356 45.4996 516.154 44.003 516.154C42.5064 516.154 41.3049 517.356 41.3049 518.853C41.3049 520.35 42.5064 521.552 44.003 521.552Z" fill="#6DB0E2"/>
<path d="M74.3568 521.552C75.8534 521.552 77.0549 520.35 77.0549 518.853C77.0549 517.356 75.8534 516.154 74.3568 516.154C72.8602 516.154 71.6587 517.356 71.6587 518.853C71.6587 520.35 72.8602 521.552 74.3568 521.552Z" fill="#6DB0E2"/>
<path d="M104.71 521.552C106.207 521.552 107.408 520.35 107.408 518.853C107.408 517.356 106.207 516.154 104.71 516.154C103.214 516.154 102.012 517.356 102.012 518.853C102.012 520.35 103.214 521.552 104.71 521.552Z" fill="#6DB0E2"/>
<path d="M135.064 521.552C136.561 521.552 137.762 520.35 137.762 518.853C137.762 517.356 136.561 516.154 135.064 516.154C133.567 516.154 132.366 517.356 132.366 518.853C132.366 520.35 133.567 521.552 135.064 521.552Z" fill="#6DB0E2"/>
<path d="M165.418 521.552C166.914 521.552 168.116 520.35 168.116 518.853C168.116 517.356 166.914 516.154 165.418 516.154C163.921 516.154 162.72 517.356 162.72 518.853C162.72 520.35 163.921 521.552 165.418 521.552Z" fill="#6DB0E2"/>
<path d="M195.771 521.552C197.268 521.552 198.469 520.35 198.469 518.853C198.469 517.356 197.268 516.154 195.771 516.154C194.275 516.154 193.073 517.356 193.073 518.853C193.073 520.35 194.275 521.552 195.771 521.552Z" fill="#6DB0E2"/>
<path d="M226.125 521.552C227.622 521.552 228.823 520.35 228.823 518.853C228.823 517.356 227.622 516.154 226.125 516.154C224.628 516.154 223.427 517.356 223.427 518.853C223.427 520.35 224.628 521.552 226.125 521.552Z" fill="#6DB0E2"/>
<path d="M-1.52748 551.913C-0.0308805 551.913 1.17065 550.711 1.17065 549.214C1.17065 547.717 -0.0308805 546.516 -1.52748 546.516C-3.02409 546.516 -4.22559 547.717 -4.22559 549.214C-4.22559 550.711 -3.02409 551.913 -1.52748 551.913Z" fill="#6DB0E2"/>
<path d="M28.8263 551.913C30.3229 551.913 31.5244 550.711 31.5244 549.214C31.5244 547.717 30.3229 546.516 28.8263 546.516C27.3297 546.516 26.1282 547.717 26.1282 549.214C26.1282 550.711 27.3297 551.913 28.8263 551.913Z" fill="#6DB0E2"/>
<path d="M59.1798 551.913C60.6764 551.913 61.8779 550.711 61.8779 549.214C61.8779 547.717 60.6764 546.516 59.1798 546.516C57.6832 546.516 56.4817 547.717 56.4817 549.214C56.4817 550.711 57.6832 551.913 59.1798 551.913Z" fill="#6DB0E2"/>
<path d="M89.5336 551.913C91.0302 551.913 92.2317 550.711 92.2317 549.214C92.2317 547.717 91.0302 546.516 89.5336 546.516C88.0369 546.516 86.8354 547.717 86.8354 549.214C86.8354 550.711 88.0369 551.913 89.5336 551.913Z" fill="#6DB0E2"/>
<path d="M119.887 551.913C121.384 551.913 122.585 550.711 122.585 549.214C122.585 547.717 121.384 546.516 119.887 546.516C118.39 546.516 117.189 547.717 117.189 549.214C117.189 550.711 118.39 551.913 119.887 551.913Z" fill="#6DB0E2"/>
<path d="M150.241 551.913C151.737 551.913 152.939 550.711 152.939 549.214C152.939 547.717 151.737 546.516 150.241 546.516C148.744 546.516 147.543 547.717 147.543 549.214C147.543 550.711 148.744 551.913 150.241 551.913Z" fill="#6DB0E2"/>
<path d="M180.595 551.913C182.091 551.913 183.293 550.711 183.293 549.214C183.293 547.717 182.091 546.516 180.595 546.516C179.098 546.516 177.896 547.717 177.896 549.214C177.896 550.711 179.098 551.913 180.595 551.913Z" fill="#6DB0E2"/>
<path d="M210.948 551.913C212.445 551.913 213.646 550.711 213.646 549.214C213.646 547.717 212.445 546.516 210.948 546.516C209.451 546.516 208.25 547.717 208.25 549.214C208.25 550.711 209.451 551.913 210.948 551.913Z" fill="#6DB0E2"/>
<path d="M241.302 551.913C242.798 551.913 244 550.711 244 549.214C244 547.717 242.798 546.516 241.302 546.516C239.805 546.516 238.604 547.717 238.604 549.214C238.604 550.711 239.805 551.913 241.302 551.913Z" fill="#6DB0E2"/>
<path d="M13.6493 582.277C15.1459 582.277 16.3474 581.075 16.3474 579.578C16.3474 578.081 15.1459 576.879 13.6493 576.879C12.1527 576.879 10.9512 578.081 10.9512 579.578C10.9512 581.075 12.1527 582.277 13.6493 582.277Z" fill="#6DB0E2"/>
<path d="M44.003 582.277C45.4996 582.277 46.7011 581.075 46.7011 579.578C46.7011 578.081 45.4996 576.879 44.003 576.879C42.5064 576.879 41.3049 578.081 41.3049 579.578C41.3049 581.075 42.5064 582.277 44.003 582.277Z" fill="#6DB0E2"/>
<path d="M74.3568 582.277C75.8534 582.277 77.0549 581.075 77.0549 579.578C77.0549 578.081 75.8534 576.879 74.3568 576.879C72.8602 576.879 71.6587 578.081 71.6587 579.578C71.6587 581.075 72.8602 582.277 74.3568 582.277Z" fill="#6DB0E2"/>
<path d="M104.71 582.277C106.207 582.277 107.408 581.075 107.408 579.578C107.408 578.081 106.207 576.879 104.71 576.879C103.214 576.879 102.012 578.081 102.012 579.578C102.012 581.075 103.214 582.277 104.71 582.277Z" fill="#6DB0E2"/>
<path d="M135.064 582.277C136.561 582.277 137.762 581.075 137.762 579.578C137.762 578.081 136.561 576.879 135.064 576.879C133.567 576.879 132.366 578.081 132.366 579.578C132.366 581.075 133.567 582.277 135.064 582.277Z" fill="#6DB0E2"/>
<path d="M165.418 582.277C166.914 582.277 168.116 581.075 168.116 579.578C168.116 578.081 166.914 576.879 165.418 576.879C163.921 576.879 162.72 578.081 162.72 579.578C162.72 581.075 163.921 582.277 165.418 582.277Z" fill="#6DB0E2"/>
<path d="M195.771 582.277C197.268 582.277 198.469 581.075 198.469 579.578C198.469 578.081 197.268 576.879 195.771 576.879C194.275 576.879 193.073 578.081 193.073 579.578C193.073 581.075 194.275 582.277 195.771 582.277Z" fill="#6DB0E2"/>
<path d="M226.125 582.277C227.622 582.277 228.823 581.075 228.823 579.578C228.823 578.081 227.622 576.879 226.125 576.879C224.628 576.879 223.427 578.081 223.427 579.578C223.427 581.075 224.628 582.277 226.125 582.277Z" fill="#6DB0E2"/>
<path d="M-1.52748 612.638C-0.0373635 612.638 1.17065 611.43 1.17065 609.939C1.17065 608.449 -0.0373635 607.24 -1.52748 607.24C-3.01761 607.24 -4.22559 608.449 -4.22559 609.939C-4.22559 611.43 -3.01761 612.638 -1.52748 612.638Z" fill="#6DB0E2"/>
<path d="M28.8263 612.638C30.3229 612.638 31.5244 611.436 31.5244 609.939C31.5244 608.442 30.3229 607.24 28.8263 607.24C27.3297 607.24 26.1282 608.442 26.1282 609.939C26.1282 611.436 27.3297 612.638 28.8263 612.638Z" fill="#6DB0E2"/>
<path d="M59.1798 612.638C60.6764 612.638 61.8779 611.436 61.8779 609.939C61.8779 608.442 60.6764 607.24 59.1798 607.24C57.6832 607.24 56.4817 608.442 56.4817 609.939C56.4817 611.436 57.6832 612.638 59.1798 612.638Z" fill="#6DB0E2"/>
<path d="M89.5336 612.638C91.0302 612.638 92.2317 611.436 92.2317 609.939C92.2317 608.442 91.0302 607.24 89.5336 607.24C88.0369 607.24 86.8354 608.442 86.8354 609.939C86.8354 611.436 88.0369 612.638 89.5336 612.638Z" fill="#6DB0E2"/>
<path d="M119.887 612.638C121.384 612.638 122.585 611.436 122.585 609.939C122.585 608.442 121.384 607.24 119.887 607.24C118.39 607.24 117.189 608.442 117.189 609.939C117.189 611.436 118.39 612.638 119.887 612.638Z" fill="#6DB0E2"/>
<path d="M150.241 612.638C151.731 612.638 152.939 611.43 152.939 609.939C152.939 608.449 151.731 607.24 150.241 607.24C148.751 607.24 147.543 608.449 147.543 609.939C147.543 611.43 148.751 612.638 150.241 612.638Z" fill="#6DB0E2"/>
<path d="M180.595 612.638C182.091 612.638 183.293 611.436 183.293 609.939C183.293 608.442 182.091 607.24 180.595 607.24C179.098 607.24 177.896 608.442 177.896 609.939C177.896 611.436 179.098 612.638 180.595 612.638Z" fill="#6DB0E2"/>
<path d="M210.948 612.638C212.445 612.638 213.646 611.436 213.646 609.939C213.646 608.442 212.445 607.24 210.948 607.24C209.451 607.24 208.25 608.442 208.25 609.939C208.25 611.436 209.451 612.638 210.948 612.638Z" fill="#6DB0E2"/>
<path d="M241.302 612.638C242.798 612.638 244 611.436 244 609.939C244 608.442 242.798 607.24 241.302 607.24C239.805 607.24 238.604 608.442 238.604 609.939C238.604 611.436 239.805 612.638 241.302 612.638Z" fill="#6DB0E2"/>
<path d="M13.6493 642.999C15.1459 642.999 16.3474 641.797 16.3474 640.3C16.3474 638.803 15.1459 637.602 13.6493 637.602C12.1527 637.602 10.9512 638.803 10.9512 640.3C10.9512 641.797 12.1527 642.999 13.6493 642.999Z" fill="#6DB0E2"/>
<path d="M44.003 642.999C45.4996 642.999 46.7011 641.797 46.7011 640.3C46.7011 638.803 45.4996 637.602 44.003 637.602C42.5064 637.602 41.3049 638.803 41.3049 640.3C41.3049 641.797 42.5064 642.999 44.003 642.999Z" fill="#6DB0E2"/>
<path d="M74.3568 642.999C75.8469 642.999 77.0549 641.791 77.0549 640.3C77.0549 638.81 75.8469 637.602 74.3568 637.602C72.8667 637.602 71.6587 638.81 71.6587 640.3C71.6587 641.791 72.8667 642.999 74.3568 642.999Z" fill="#6DB0E2"/>
<path d="M104.71 642.999C106.207 642.999 107.408 641.797 107.408 640.3C107.408 638.803 106.207 637.602 104.71 637.602C103.214 637.602 102.012 638.803 102.012 640.3C102.012 641.797 103.214 642.999 104.71 642.999Z" fill="#6DB0E2"/>
<path d="M135.064 642.999C136.561 642.999 137.762 641.797 137.762 640.3C137.762 638.803 136.561 637.602 135.064 637.602C133.567 637.602 132.366 638.803 132.366 640.3C132.366 641.797 133.567 642.999 135.064 642.999Z" fill="#6DB0E2"/>
<path d="M165.418 642.999C166.914 642.999 168.116 641.797 168.116 640.3C168.116 638.803 166.914 637.602 165.418 637.602C163.921 637.602 162.72 638.803 162.72 640.3C162.72 641.797 163.921 642.999 165.418 642.999Z" fill="#6DB0E2"/>
<path d="M195.771 642.999C197.268 642.999 198.469 641.797 198.469 640.3C198.469 638.803 197.268 637.602 195.771 637.602C194.275 637.602 193.073 638.803 193.073 640.3C193.073 641.797 194.275 642.999 195.771 642.999Z" fill="#6DB0E2"/>
<path d="M226.125 642.999C227.615 642.999 228.823 641.791 228.823 640.3C228.823 638.81 227.615 637.602 226.125 637.602C224.635 637.602 223.427 638.81 223.427 640.3C223.427 641.791 224.635 642.999 226.125 642.999Z" fill="#6DB0E2"/>
</g>
<defs>
<clipPath id="clip0_3046_47596">
<rect width="658" height="643" fill="white" transform="translate(-414)"/>
</clipPath>
</defs>
</svg>
