<svg width="652" height="181" viewBox="0 0 652 181" fill="none" xmlns="http://www.w3.org/2000/svg">
<g clip-path="url(#clip0_3046_49493)">
<path d="M11.8749 29.1907C13.3715 29.1907 14.573 27.9888 14.573 26.4918C14.573 24.9948 13.3715 23.793 11.8749 23.793C10.3783 23.793 9.17676 24.9948 9.17676 26.4918C9.17676 27.9888 10.3783 29.1907 11.8749 29.1907Z" fill="#003876"/>
<path d="M42.2286 29.1907C43.7252 29.1907 44.9267 27.9888 44.9267 26.4918C44.9267 24.9948 43.7252 23.793 42.2286 23.793C40.732 23.793 39.5305 24.9948 39.5305 26.4918C39.5305 27.9888 40.732 29.1907 42.2286 29.1907Z" fill="#003876"/>
<path d="M72.5824 29.1907C74.079 29.1907 75.2805 27.9888 75.2805 26.4918C75.2805 24.9948 74.079 23.793 72.5824 23.793C71.0858 23.793 69.8843 24.9948 69.8843 26.4918C69.8843 27.9888 71.0858 29.1907 72.5824 29.1907Z" fill="#003876"/>
<path d="M102.936 29.1907C104.426 29.1907 105.634 27.9823 105.634 26.4918C105.634 25.0013 104.426 23.793 102.936 23.793C101.446 23.793 100.238 25.0013 100.238 26.4918C100.238 27.9823 101.446 29.1907 102.936 29.1907Z" fill="#003876"/>
<path d="M133.29 29.1907C134.786 29.1907 135.988 27.9888 135.988 26.4918C135.988 24.9948 134.786 23.793 133.29 23.793C131.793 23.793 130.592 24.9948 130.592 26.4918C130.592 27.9888 131.793 29.1907 133.29 29.1907Z" fill="#003876"/>
<path d="M163.643 29.1907C165.14 29.1907 166.341 27.9888 166.341 26.4918C166.341 24.9948 165.14 23.793 163.643 23.793C162.147 23.793 160.945 24.9948 160.945 26.4918C160.945 27.9888 162.147 29.1907 163.643 29.1907Z" fill="#003876"/>
<path d="M193.997 29.1907C195.494 29.1907 196.695 27.9888 196.695 26.4918C196.695 24.9948 195.494 23.793 193.997 23.793C192.5 23.793 191.299 24.9948 191.299 26.4918C191.299 27.9888 192.5 29.1907 193.997 29.1907Z" fill="#003876"/>
<path d="M224.351 29.1907C225.847 29.1907 227.049 27.9888 227.049 26.4918C227.049 24.9948 225.847 23.793 224.351 23.793C222.854 23.793 221.653 24.9948 221.653 26.4918C221.653 27.9888 222.854 29.1907 224.351 29.1907Z" fill="#003876"/>
<path d="M254.704 29.1907C256.194 29.1907 257.402 27.9823 257.402 26.4918C257.402 25.0013 256.194 23.793 254.704 23.793C253.214 23.793 252.006 25.0013 252.006 26.4918C252.006 27.9823 253.214 29.1907 254.704 29.1907Z" fill="#003876"/>
<path d="M285.058 29.1907C286.555 29.1907 287.756 27.9888 287.756 26.4918C287.756 24.9948 286.555 23.793 285.058 23.793C283.561 23.793 282.36 24.9948 282.36 26.4918C282.36 27.9888 283.561 29.1907 285.058 29.1907Z" fill="#003876"/>
<path d="M315.411 29.1907C316.908 29.1907 318.11 27.9888 318.11 26.4918C318.11 24.9948 316.908 23.793 315.411 23.793C313.915 23.793 312.713 24.9948 312.713 26.4918C312.713 27.9888 313.915 29.1907 315.411 29.1907Z" fill="#003876"/>
<path d="M345.765 29.1907C347.262 29.1907 348.463 27.9888 348.463 26.4918C348.463 24.9948 347.262 23.793 345.765 23.793C344.269 23.793 343.067 24.9948 343.067 26.4918C343.067 27.9888 344.269 29.1907 345.765 29.1907Z" fill="#003876"/>
<path d="M376.119 29.1907C377.616 29.1907 378.817 27.9888 378.817 26.4918C378.817 24.9948 377.616 23.793 376.119 23.793C374.622 23.793 373.421 24.9948 373.421 26.4918C373.421 27.9888 374.622 29.1907 376.119 29.1907Z" fill="#003876"/>
<path d="M406.473 29.1907C407.963 29.1907 409.171 27.9823 409.171 26.4918C409.171 25.0013 407.963 23.793 406.473 23.793C404.982 23.793 403.774 25.0013 403.774 26.4918C403.774 27.9823 404.982 29.1907 406.473 29.1907Z" fill="#003876"/>
<path d="M436.826 29.1907C438.323 29.1907 439.524 27.9888 439.524 26.4918C439.524 24.9948 438.323 23.793 436.826 23.793C435.33 23.793 434.128 24.9948 434.128 26.4918C434.128 27.9888 435.33 29.1907 436.826 29.1907Z" fill="#003876"/>
<path d="M467.18 29.1907C468.676 29.1907 469.878 27.9888 469.878 26.4918C469.878 24.9948 468.676 23.793 467.18 23.793C465.683 23.793 464.482 24.9948 464.482 26.4918C464.482 27.9888 465.683 29.1907 467.18 29.1907Z" fill="#003876"/>
<path d="M497.534 29.1907C499.03 29.1907 500.232 27.9888 500.232 26.4918C500.232 24.9948 499.03 23.793 497.534 23.793C496.037 23.793 494.835 24.9948 494.835 26.4918C494.835 27.9888 496.037 29.1907 497.534 29.1907Z" fill="#003876"/>
<path d="M527.887 29.1907C529.384 29.1907 530.585 27.9888 530.585 26.4918C530.585 24.9948 529.384 23.793 527.887 23.793C526.39 23.793 525.189 24.9948 525.189 26.4918C525.189 27.9888 526.39 29.1907 527.887 29.1907Z" fill="#003876"/>
<path d="M558.241 29.1907C559.731 29.1907 560.939 27.9823 560.939 26.4918C560.939 25.0013 559.731 23.793 558.241 23.793C556.751 23.793 555.543 25.0013 555.543 26.4918C555.543 27.9823 556.751 29.1907 558.241 29.1907Z" fill="#003876"/>
<path d="M588.595 29.1907C590.091 29.1907 591.293 27.9888 591.293 26.4918C591.293 24.9948 590.091 23.793 588.595 23.793C587.098 23.793 585.896 24.9948 585.896 26.4918C585.896 27.9888 587.098 29.1907 588.595 29.1907Z" fill="#003876"/>
<path d="M618.948 29.1907C620.445 29.1907 621.646 27.9888 621.646 26.4918C621.646 24.9948 620.445 23.793 618.948 23.793C617.451 23.793 616.25 24.9948 616.25 26.4918C616.25 27.9888 617.451 29.1907 618.948 29.1907Z" fill="#003876"/>
<path d="M649.302 29.1907C650.798 29.1907 652 27.9888 652 26.4918C652 24.9948 650.798 23.793 649.302 23.793C647.805 23.793 646.604 24.9948 646.604 26.4918C646.604 27.9888 647.805 29.1907 649.302 29.1907Z" fill="#003876"/>
<path d="M27.0519 59.552C28.5485 59.552 29.75 58.3502 29.75 56.8531C29.75 55.3561 28.5485 54.1543 27.0519 54.1543C25.5553 54.1543 24.3538 55.3561 24.3538 56.8531C24.3538 58.3502 25.5553 59.552 27.0519 59.552Z" fill="#003876"/>
<path d="M57.4054 59.552C58.902 59.552 60.1035 58.3502 60.1035 56.8531C60.1035 55.3561 58.902 54.1543 57.4054 54.1543C55.9088 54.1543 54.7073 55.3561 54.7073 56.8531C54.7073 58.3502 55.9088 59.552 57.4054 59.552Z" fill="#003876"/>
<path d="M87.7591 59.552C89.2557 59.552 90.4572 58.3502 90.4572 56.8531C90.4572 55.3561 89.2557 54.1543 87.7591 54.1543C86.2625 54.1543 85.061 55.3561 85.061 56.8531C85.061 58.3502 86.2625 59.552 87.7591 59.552Z" fill="#003876"/>
<path d="M118.113 59.552C119.609 59.552 120.811 58.3502 120.811 56.8531C120.811 55.3561 119.609 54.1543 118.113 54.1543C116.616 54.1543 115.415 55.3561 115.415 56.8531C115.415 58.3502 116.616 59.552 118.113 59.552Z" fill="#003876"/>
<path d="M148.466 59.552C149.963 59.552 151.165 58.3502 151.165 56.8531C151.165 55.3561 149.963 54.1543 148.466 54.1543C146.97 54.1543 145.768 55.3561 145.768 56.8531C145.768 58.3502 146.97 59.552 148.466 59.552Z" fill="#003876"/>
<path d="M178.82 59.552C180.317 59.552 181.518 58.3502 181.518 56.8531C181.518 55.3561 180.317 54.1543 178.82 54.1543C177.324 54.1543 176.122 55.3561 176.122 56.8531C176.122 58.3502 177.324 59.552 178.82 59.552Z" fill="#003876"/>
<path d="M209.174 59.552C210.67 59.552 211.872 58.3502 211.872 56.8531C211.872 55.3561 210.67 54.1543 209.174 54.1543C207.677 54.1543 206.476 55.3561 206.476 56.8531C206.476 58.3502 207.677 59.552 209.174 59.552Z" fill="#003876"/>
<path d="M239.527 59.552C241.024 59.552 242.226 58.3502 242.226 56.8531C242.226 55.3561 241.024 54.1543 239.527 54.1543C238.031 54.1543 236.829 55.3561 236.829 56.8531C236.829 58.3502 238.031 59.552 239.527 59.552Z" fill="#003876"/>
<path d="M269.881 59.552C271.378 59.552 272.579 58.3502 272.579 56.8531C272.579 55.3561 271.378 54.1543 269.881 54.1543C268.385 54.1543 267.183 55.3561 267.183 56.8531C267.183 58.3502 268.385 59.552 269.881 59.552Z" fill="#003876"/>
<path d="M300.235 59.552C301.731 59.552 302.933 58.3502 302.933 56.8531C302.933 55.3561 301.731 54.1543 300.235 54.1543C298.738 54.1543 297.537 55.3561 297.537 56.8531C297.537 58.3502 298.738 59.552 300.235 59.552Z" fill="#003876"/>
<path d="M330.588 59.552C332.085 59.552 333.287 58.3502 333.287 56.8531C333.287 55.3561 332.085 54.1543 330.588 54.1543C329.092 54.1543 327.89 55.3561 327.89 56.8531C327.89 58.3502 329.092 59.552 330.588 59.552Z" fill="#003876"/>
<path d="M360.942 59.552C362.439 59.552 363.64 58.3502 363.64 56.8531C363.64 55.3561 362.439 54.1543 360.942 54.1543C359.446 54.1543 358.244 55.3561 358.244 56.8531C358.244 58.3502 359.446 59.552 360.942 59.552Z" fill="#003876"/>
<path d="M391.296 59.552C392.792 59.552 393.994 58.3502 393.994 56.8531C393.994 55.3561 392.792 54.1543 391.296 54.1543C389.799 54.1543 388.598 55.3561 388.598 56.8531C388.598 58.3502 389.799 59.552 391.296 59.552Z" fill="#003876"/>
<path d="M421.649 59.552C423.146 59.552 424.347 58.3502 424.347 56.8531C424.347 55.3561 423.146 54.1543 421.649 54.1543C420.153 54.1543 418.951 55.3561 418.951 56.8531C418.951 58.3502 420.153 59.552 421.649 59.552Z" fill="#003876"/>
<path d="M452.003 59.552C453.5 59.552 454.701 58.3502 454.701 56.8531C454.701 55.3561 453.5 54.1543 452.003 54.1543C450.506 54.1543 449.305 55.3561 449.305 56.8531C449.305 58.3502 450.506 59.552 452.003 59.552Z" fill="#003876"/>
<path d="M482.357 59.552C483.853 59.552 485.055 58.3502 485.055 56.8531C485.055 55.3561 483.853 54.1543 482.357 54.1543C480.86 54.1543 479.659 55.3561 479.659 56.8531C479.659 58.3502 480.86 59.552 482.357 59.552Z" fill="#003876"/>
<path d="M512.71 59.552C514.207 59.552 515.408 58.3502 515.408 56.8531C515.408 55.3561 514.207 54.1543 512.71 54.1543C511.214 54.1543 510.012 55.3561 510.012 56.8531C510.012 58.3502 511.214 59.552 512.71 59.552Z" fill="#003876"/>
<path d="M543.064 59.552C544.561 59.552 545.762 58.3502 545.762 56.8531C545.762 55.3561 544.561 54.1543 543.064 54.1543C541.567 54.1543 540.366 55.3561 540.366 56.8531C540.366 58.3502 541.567 59.552 543.064 59.552Z" fill="#003876"/>
<path d="M573.418 59.552C574.914 59.552 576.116 58.3502 576.116 56.8531C576.116 55.3561 574.914 54.1543 573.418 54.1543C571.921 54.1543 570.72 55.3561 570.72 56.8531C570.72 58.3502 571.921 59.552 573.418 59.552Z" fill="#003876"/>
<path d="M603.771 59.552C605.268 59.552 606.469 58.3502 606.469 56.8531C606.469 55.3561 605.268 54.1543 603.771 54.1543C602.275 54.1543 601.073 55.3561 601.073 56.8531C601.073 58.3502 602.275 59.552 603.771 59.552Z" fill="#003876"/>
<path d="M634.125 59.552C635.622 59.552 636.823 58.3502 636.823 56.8531C636.823 55.3561 635.622 54.1543 634.125 54.1543C632.628 54.1543 631.427 55.3561 631.427 56.8531C631.427 58.3502 632.628 59.552 634.125 59.552Z" fill="#003876"/>
<path d="M11.8749 89.9133C13.3715 89.9133 14.573 88.7115 14.573 87.2145C14.573 85.7175 13.3715 84.5156 11.8749 84.5156C10.3783 84.5156 9.17676 85.7175 9.17676 87.2145C9.17676 88.7115 10.3783 89.9133 11.8749 89.9133Z" fill="#003876"/>
<path d="M42.2286 89.9133C43.7252 89.9133 44.9267 88.7115 44.9267 87.2145C44.9267 85.7175 43.7252 84.5156 42.2286 84.5156C40.732 84.5156 39.5305 85.7175 39.5305 87.2145C39.5305 88.7115 40.732 89.9133 42.2286 89.9133Z" fill="#003876"/>
<path d="M72.5824 89.9133C74.079 89.9133 75.2805 88.7115 75.2805 87.2145C75.2805 85.7175 74.079 84.5156 72.5824 84.5156C71.0858 84.5156 69.8843 85.7175 69.8843 87.2145C69.8843 88.7115 71.0858 89.9133 72.5824 89.9133Z" fill="#003876"/>
<path d="M102.936 89.9133C104.432 89.9133 105.634 88.7115 105.634 87.2145C105.634 85.7175 104.432 84.5156 102.936 84.5156C101.439 84.5156 100.238 85.7175 100.238 87.2145C100.238 88.7115 101.439 89.9133 102.936 89.9133Z" fill="#003876"/>
<path d="M133.29 89.9133C134.786 89.9133 135.988 88.7115 135.988 87.2145C135.988 85.7175 134.786 84.5156 133.29 84.5156C131.793 84.5156 130.592 85.7175 130.592 87.2145C130.592 88.7115 131.793 89.9133 133.29 89.9133Z" fill="#003876"/>
<path d="M163.643 89.9133C165.14 89.9133 166.341 88.7115 166.341 87.2145C166.341 85.7175 165.14 84.5156 163.643 84.5156C162.147 84.5156 160.945 85.7175 160.945 87.2145C160.945 88.7115 162.147 89.9133 163.643 89.9133Z" fill="#003876"/>
<path d="M193.997 89.9133C195.494 89.9133 196.695 88.7115 196.695 87.2145C196.695 85.7175 195.494 84.5156 193.997 84.5156C192.5 84.5156 191.299 85.7175 191.299 87.2145C191.299 88.7115 192.5 89.9133 193.997 89.9133Z" fill="#003876"/>
<path d="M224.351 89.9133C225.847 89.9133 227.049 88.7115 227.049 87.2145C227.049 85.7175 225.847 84.5156 224.351 84.5156C222.854 84.5156 221.653 85.7175 221.653 87.2145C221.653 88.7115 222.854 89.9133 224.351 89.9133Z" fill="#003876"/>
<path d="M254.704 89.9133C256.201 89.9133 257.402 88.7115 257.402 87.2145C257.402 85.7175 256.201 84.5156 254.704 84.5156C253.208 84.5156 252.006 85.7175 252.006 87.2145C252.006 88.7115 253.208 89.9133 254.704 89.9133Z" fill="#003876"/>
<path d="M285.058 89.9133C286.555 89.9133 287.756 88.7115 287.756 87.2145C287.756 85.7175 286.555 84.5156 285.058 84.5156C283.561 84.5156 282.36 85.7175 282.36 87.2145C282.36 88.7115 283.561 89.9133 285.058 89.9133Z" fill="#003876"/>
<path d="M315.411 89.9133C316.908 89.9133 318.11 88.7115 318.11 87.2145C318.11 85.7175 316.908 84.5156 315.411 84.5156C313.915 84.5156 312.713 85.7175 312.713 87.2145C312.713 88.7115 313.915 89.9133 315.411 89.9133Z" fill="#003876"/>
<path d="M345.765 89.9133C347.262 89.9133 348.463 88.7115 348.463 87.2145C348.463 85.7175 347.262 84.5156 345.765 84.5156C344.269 84.5156 343.067 85.7175 343.067 87.2145C343.067 88.7115 344.269 89.9133 345.765 89.9133Z" fill="#003876"/>
<path d="M376.119 89.9133C377.616 89.9133 378.817 88.7115 378.817 87.2145C378.817 85.7175 377.616 84.5156 376.119 84.5156C374.622 84.5156 373.421 85.7175 373.421 87.2145C373.421 88.7115 374.622 89.9133 376.119 89.9133Z" fill="#003876"/>
<path d="M406.473 89.9133C407.969 89.9133 409.171 88.7115 409.171 87.2145C409.171 85.7175 407.969 84.5156 406.473 84.5156C404.976 84.5156 403.774 85.7175 403.774 87.2145C403.774 88.7115 404.976 89.9133 406.473 89.9133Z" fill="#003876"/>
<path d="M436.826 89.9133C438.323 89.9133 439.524 88.7115 439.524 87.2145C439.524 85.7175 438.323 84.5156 436.826 84.5156C435.33 84.5156 434.128 85.7175 434.128 87.2145C434.128 88.7115 435.33 89.9133 436.826 89.9133Z" fill="#003876"/>
<path d="M467.18 89.9133C468.676 89.9133 469.878 88.7115 469.878 87.2145C469.878 85.7175 468.676 84.5156 467.18 84.5156C465.683 84.5156 464.482 85.7175 464.482 87.2145C464.482 88.7115 465.683 89.9133 467.18 89.9133Z" fill="#003876"/>
<path d="M497.534 89.9133C499.03 89.9133 500.232 88.7115 500.232 87.2145C500.232 85.7175 499.03 84.5156 497.534 84.5156C496.037 84.5156 494.835 85.7175 494.835 87.2145C494.835 88.7115 496.037 89.9133 497.534 89.9133Z" fill="#003876"/>
<path d="M527.887 89.9133C529.384 89.9133 530.585 88.7115 530.585 87.2145C530.585 85.7175 529.384 84.5156 527.887 84.5156C526.39 84.5156 525.189 85.7175 525.189 87.2145C525.189 88.7115 526.39 89.9133 527.887 89.9133Z" fill="#003876"/>
<path d="M558.241 89.9133C559.737 89.9133 560.939 88.7115 560.939 87.2145C560.939 85.7175 559.737 84.5156 558.241 84.5156C556.744 84.5156 555.543 85.7175 555.543 87.2145C555.543 88.7115 556.744 89.9133 558.241 89.9133Z" fill="#003876"/>
<path d="M588.595 89.9133C590.091 89.9133 591.293 88.7115 591.293 87.2145C591.293 85.7175 590.091 84.5156 588.595 84.5156C587.098 84.5156 585.896 85.7175 585.896 87.2145C585.896 88.7115 587.098 89.9133 588.595 89.9133Z" fill="#003876"/>
<path d="M618.948 89.9133C620.445 89.9133 621.646 88.7115 621.646 87.2145C621.646 85.7175 620.445 84.5156 618.948 84.5156C617.451 84.5156 616.25 85.7175 616.25 87.2145C616.25 88.7115 617.451 89.9133 618.948 89.9133Z" fill="#003876"/>
<path d="M649.302 89.9133C650.798 89.9133 652 88.7115 652 87.2145C652 85.7175 650.798 84.5156 649.302 84.5156C647.805 84.5156 646.604 85.7175 646.604 87.2145C646.604 88.7115 647.805 89.9133 649.302 89.9133Z" fill="#003876"/>
<path d="M27.0519 120.277C28.5485 120.277 29.75 119.075 29.75 117.578C29.75 116.081 28.5485 114.879 27.0519 114.879C25.5553 114.879 24.3538 116.081 24.3538 117.578C24.3538 119.075 25.5553 120.277 27.0519 120.277Z" fill="#003876"/>
<path d="M57.4054 120.277C58.902 120.277 60.1035 119.075 60.1035 117.578C60.1035 116.081 58.902 114.879 57.4054 114.879C55.9088 114.879 54.7073 116.081 54.7073 117.578C54.7073 119.075 55.9088 120.277 57.4054 120.277Z" fill="#003876"/>
<path d="M87.7591 120.277C89.2557 120.277 90.4572 119.075 90.4572 117.578C90.4572 116.081 89.2557 114.879 87.7591 114.879C86.2625 114.879 85.061 116.081 85.061 117.578C85.061 119.075 86.2625 120.277 87.7591 120.277Z" fill="#003876"/>
<path d="M118.113 120.277C119.609 120.277 120.811 119.075 120.811 117.578C120.811 116.081 119.609 114.879 118.113 114.879C116.616 114.879 115.415 116.081 115.415 117.578C115.415 119.075 116.616 120.277 118.113 120.277Z" fill="#003876"/>
<path d="M148.466 120.277C149.963 120.277 151.165 119.075 151.165 117.578C151.165 116.081 149.963 114.879 148.466 114.879C146.97 114.879 145.768 116.081 145.768 117.578C145.768 119.075 146.97 120.277 148.466 120.277Z" fill="#003876"/>
<path d="M178.82 120.277C180.317 120.277 181.518 119.075 181.518 117.578C181.518 116.081 180.317 114.879 178.82 114.879C177.324 114.879 176.122 116.081 176.122 117.578C176.122 119.075 177.324 120.277 178.82 120.277Z" fill="#003876"/>
<path d="M209.174 120.277C210.67 120.277 211.872 119.075 211.872 117.578C211.872 116.081 210.67 114.879 209.174 114.879C207.677 114.879 206.476 116.081 206.476 117.578C206.476 119.075 207.677 120.277 209.174 120.277Z" fill="#003876"/>
<path d="M239.527 120.277C241.024 120.277 242.226 119.075 242.226 117.578C242.226 116.081 241.024 114.879 239.527 114.879C238.031 114.879 236.829 116.081 236.829 117.578C236.829 119.075 238.031 120.277 239.527 120.277Z" fill="#003876"/>
<path d="M269.881 120.277C271.378 120.277 272.579 119.075 272.579 117.578C272.579 116.081 271.378 114.879 269.881 114.879C268.385 114.879 267.183 116.081 267.183 117.578C267.183 119.075 268.385 120.277 269.881 120.277Z" fill="#003876"/>
<path d="M300.235 120.277C301.731 120.277 302.933 119.075 302.933 117.578C302.933 116.081 301.731 114.879 300.235 114.879C298.738 114.879 297.537 116.081 297.537 117.578C297.537 119.075 298.738 120.277 300.235 120.277Z" fill="#003876"/>
<path d="M330.588 120.277C332.085 120.277 333.287 119.075 333.287 117.578C333.287 116.081 332.085 114.879 330.588 114.879C329.092 114.879 327.89 116.081 327.89 117.578C327.89 119.075 329.092 120.277 330.588 120.277Z" fill="#003876"/>
<path d="M360.942 120.277C362.439 120.277 363.64 119.075 363.64 117.578C363.64 116.081 362.439 114.879 360.942 114.879C359.446 114.879 358.244 116.081 358.244 117.578C358.244 119.075 359.446 120.277 360.942 120.277Z" fill="#003876"/>
<path d="M391.296 120.277C392.792 120.277 393.994 119.075 393.994 117.578C393.994 116.081 392.792 114.879 391.296 114.879C389.799 114.879 388.598 116.081 388.598 117.578C388.598 119.075 389.799 120.277 391.296 120.277Z" fill="#003876"/>
<path d="M421.649 120.277C423.146 120.277 424.347 119.075 424.347 117.578C424.347 116.081 423.146 114.879 421.649 114.879C420.153 114.879 418.951 116.081 418.951 117.578C418.951 119.075 420.153 120.277 421.649 120.277Z" fill="#003876"/>
<path d="M452.003 120.277C453.5 120.277 454.701 119.075 454.701 117.578C454.701 116.081 453.5 114.879 452.003 114.879C450.506 114.879 449.305 116.081 449.305 117.578C449.305 119.075 450.506 120.277 452.003 120.277Z" fill="#003876"/>
<path d="M482.357 120.277C483.853 120.277 485.055 119.075 485.055 117.578C485.055 116.081 483.853 114.879 482.357 114.879C480.86 114.879 479.659 116.081 479.659 117.578C479.659 119.075 480.86 120.277 482.357 120.277Z" fill="#003876"/>
<path d="M512.71 120.277C514.207 120.277 515.408 119.075 515.408 117.578C515.408 116.081 514.207 114.879 512.71 114.879C511.214 114.879 510.012 116.081 510.012 117.578C510.012 119.075 511.214 120.277 512.71 120.277Z" fill="#003876"/>
<path d="M543.064 120.277C544.561 120.277 545.762 119.075 545.762 117.578C545.762 116.081 544.561 114.879 543.064 114.879C541.567 114.879 540.366 116.081 540.366 117.578C540.366 119.075 541.567 120.277 543.064 120.277Z" fill="#003876"/>
<path d="M573.418 120.277C574.914 120.277 576.116 119.075 576.116 117.578C576.116 116.081 574.914 114.879 573.418 114.879C571.921 114.879 570.72 116.081 570.72 117.578C570.72 119.075 571.921 120.277 573.418 120.277Z" fill="#003876"/>
<path d="M603.771 120.277C605.268 120.277 606.469 119.075 606.469 117.578C606.469 116.081 605.268 114.879 603.771 114.879C602.275 114.879 601.073 116.081 601.073 117.578C601.073 119.075 602.275 120.277 603.771 120.277Z" fill="#003876"/>
<path d="M634.125 120.277C635.622 120.277 636.823 119.075 636.823 117.578C636.823 116.081 635.622 114.879 634.125 114.879C632.628 114.879 631.427 116.081 631.427 117.578C631.427 119.075 632.628 120.277 634.125 120.277Z" fill="#003876"/>
<path d="M11.8749 150.638C13.3715 150.638 14.573 149.436 14.573 147.939C14.573 146.442 13.3715 145.24 11.8749 145.24C10.3783 145.24 9.17676 146.442 9.17676 147.939C9.17676 149.436 10.3783 150.638 11.8749 150.638Z" fill="#003876"/>
<path d="M42.2286 150.638C43.7252 150.638 44.9267 149.436 44.9267 147.939C44.9267 146.442 43.7252 145.24 42.2286 145.24C40.732 145.24 39.5305 146.442 39.5305 147.939C39.5305 149.436 40.732 150.638 42.2286 150.638Z" fill="#003876"/>
<path d="M72.5824 150.638C74.079 150.638 75.2805 149.436 75.2805 147.939C75.2805 146.442 74.079 145.24 72.5824 145.24C71.0858 145.24 69.8843 146.442 69.8843 147.939C69.8843 149.436 71.0858 150.638 72.5824 150.638Z" fill="#003876"/>
<path d="M102.936 150.638C104.426 150.638 105.634 149.43 105.634 147.939C105.634 146.449 104.426 145.24 102.936 145.24C101.446 145.24 100.238 146.449 100.238 147.939C100.238 149.43 101.446 150.638 102.936 150.638Z" fill="#003876"/>
<path d="M133.29 150.638C134.786 150.638 135.988 149.436 135.988 147.939C135.988 146.442 134.786 145.24 133.29 145.24C131.793 145.24 130.592 146.442 130.592 147.939C130.592 149.436 131.793 150.638 133.29 150.638Z" fill="#003876"/>
<path d="M163.643 150.638C165.14 150.638 166.341 149.436 166.341 147.939C166.341 146.442 165.14 145.24 163.643 145.24C162.147 145.24 160.945 146.442 160.945 147.939C160.945 149.436 162.147 150.638 163.643 150.638Z" fill="#003876"/>
<path d="M193.997 150.638C195.494 150.638 196.695 149.436 196.695 147.939C196.695 146.442 195.494 145.24 193.997 145.24C192.5 145.24 191.299 146.442 191.299 147.939C191.299 149.436 192.5 150.638 193.997 150.638Z" fill="#003876"/>
<path d="M224.351 150.638C225.847 150.638 227.049 149.436 227.049 147.939C227.049 146.442 225.847 145.24 224.351 145.24C222.854 145.24 221.653 146.442 221.653 147.939C221.653 149.436 222.854 150.638 224.351 150.638Z" fill="#003876"/>
<path d="M254.704 150.638C256.194 150.638 257.402 149.43 257.402 147.939C257.402 146.449 256.194 145.24 254.704 145.24C253.214 145.24 252.006 146.449 252.006 147.939C252.006 149.43 253.214 150.638 254.704 150.638Z" fill="#003876"/>
<path d="M285.058 150.638C286.555 150.638 287.756 149.436 287.756 147.939C287.756 146.442 286.555 145.24 285.058 145.24C283.561 145.24 282.36 146.442 282.36 147.939C282.36 149.436 283.561 150.638 285.058 150.638Z" fill="#003876"/>
<path d="M315.411 150.638C316.908 150.638 318.11 149.436 318.11 147.939C318.11 146.442 316.908 145.24 315.411 145.24C313.915 145.24 312.713 146.442 312.713 147.939C312.713 149.436 313.915 150.638 315.411 150.638Z" fill="#003876"/>
<path d="M345.765 150.638C347.262 150.638 348.463 149.436 348.463 147.939C348.463 146.442 347.262 145.24 345.765 145.24C344.269 145.24 343.067 146.442 343.067 147.939C343.067 149.436 344.269 150.638 345.765 150.638Z" fill="#003876"/>
<path d="M376.119 150.638C377.616 150.638 378.817 149.436 378.817 147.939C378.817 146.442 377.616 145.24 376.119 145.24C374.622 145.24 373.421 146.442 373.421 147.939C373.421 149.436 374.622 150.638 376.119 150.638Z" fill="#003876"/>
<path d="M406.473 150.638C407.963 150.638 409.171 149.43 409.171 147.939C409.171 146.449 407.963 145.24 406.473 145.24C404.982 145.24 403.774 146.449 403.774 147.939C403.774 149.43 404.982 150.638 406.473 150.638Z" fill="#003876"/>
<path d="M436.826 150.638C438.323 150.638 439.524 149.436 439.524 147.939C439.524 146.442 438.323 145.24 436.826 145.24C435.33 145.24 434.128 146.442 434.128 147.939C434.128 149.436 435.33 150.638 436.826 150.638Z" fill="#003876"/>
<path d="M467.18 150.638C468.676 150.638 469.878 149.436 469.878 147.939C469.878 146.442 468.676 145.24 467.18 145.24C465.683 145.24 464.482 146.442 464.482 147.939C464.482 149.436 465.683 150.638 467.18 150.638Z" fill="#003876"/>
<path d="M497.534 150.638C499.03 150.638 500.232 149.436 500.232 147.939C500.232 146.442 499.03 145.24 497.534 145.24C496.037 145.24 494.835 146.442 494.835 147.939C494.835 149.436 496.037 150.638 497.534 150.638Z" fill="#003876"/>
<path d="M527.887 150.638C529.384 150.638 530.585 149.436 530.585 147.939C530.585 146.442 529.384 145.24 527.887 145.24C526.39 145.24 525.189 146.442 525.189 147.939C525.189 149.436 526.39 150.638 527.887 150.638Z" fill="#003876"/>
<path d="M558.241 150.638C559.731 150.638 560.939 149.43 560.939 147.939C560.939 146.449 559.731 145.24 558.241 145.24C556.751 145.24 555.543 146.449 555.543 147.939C555.543 149.43 556.751 150.638 558.241 150.638Z" fill="#003876"/>
<path d="M588.595 150.638C590.091 150.638 591.293 149.436 591.293 147.939C591.293 146.442 590.091 145.24 588.595 145.24C587.098 145.24 585.896 146.442 585.896 147.939C585.896 149.436 587.098 150.638 588.595 150.638Z" fill="#003876"/>
<path d="M618.948 150.638C620.445 150.638 621.646 149.436 621.646 147.939C621.646 146.442 620.445 145.24 618.948 145.24C617.451 145.24 616.25 146.442 616.25 147.939C616.25 149.436 617.451 150.638 618.948 150.638Z" fill="#003876"/>
<path d="M649.302 150.638C650.798 150.638 652 149.436 652 147.939C652 146.442 650.798 145.24 649.302 145.24C647.805 145.24 646.604 146.442 646.604 147.939C646.604 149.436 647.805 150.638 649.302 150.638Z" fill="#003876"/>
<path d="M27.0519 180.999C28.542 180.999 29.75 179.791 29.75 178.3C29.75 176.81 28.542 175.602 27.0519 175.602C25.5617 175.602 24.3538 176.81 24.3538 178.3C24.3538 179.791 25.5617 180.999 27.0519 180.999Z" fill="#003876"/>
<path d="M57.4054 180.999C58.902 180.999 60.1035 179.797 60.1035 178.3C60.1035 176.803 58.902 175.602 57.4054 175.602C55.9088 175.602 54.7073 176.803 54.7073 178.3C54.7073 179.797 55.9088 180.999 57.4054 180.999Z" fill="#003876"/>
<path d="M87.7591 180.999C89.2557 180.999 90.4572 179.797 90.4572 178.3C90.4572 176.803 89.2557 175.602 87.7591 175.602C86.2625 175.602 85.061 176.803 85.061 178.3C85.061 179.797 86.2625 180.999 87.7591 180.999Z" fill="#003876"/>
<path d="M118.113 180.999C119.609 180.999 120.811 179.797 120.811 178.3C120.811 176.803 119.609 175.602 118.113 175.602C116.616 175.602 115.415 176.803 115.415 178.3C115.415 179.797 116.616 180.999 118.113 180.999Z" fill="#003876"/>
<path d="M148.466 180.999C149.963 180.999 151.165 179.797 151.165 178.3C151.165 176.803 149.963 175.602 148.466 175.602C146.97 175.602 145.768 176.803 145.768 178.3C145.768 179.797 146.97 180.999 148.466 180.999Z" fill="#003876"/>
<path d="M178.82 180.999C180.31 180.999 181.518 179.791 181.518 178.3C181.518 176.81 180.31 175.602 178.82 175.602C177.33 175.602 176.122 176.81 176.122 178.3C176.122 179.791 177.33 180.999 178.82 180.999Z" fill="#003876"/>
<path d="M209.174 180.999C210.67 180.999 211.872 179.797 211.872 178.3C211.872 176.803 210.67 175.602 209.174 175.602C207.677 175.602 206.476 176.803 206.476 178.3C206.476 179.797 207.677 180.999 209.174 180.999Z" fill="#003876"/>
<path d="M239.527 180.999C241.024 180.999 242.226 179.797 242.226 178.3C242.226 176.803 241.024 175.602 239.527 175.602C238.031 175.602 236.829 176.803 236.829 178.3C236.829 179.797 238.031 180.999 239.527 180.999Z" fill="#003876"/>
<path d="M269.881 180.999C271.378 180.999 272.579 179.797 272.579 178.3C272.579 176.803 271.378 175.602 269.881 175.602C268.385 175.602 267.183 176.803 267.183 178.3C267.183 179.797 268.385 180.999 269.881 180.999Z" fill="#003876"/>
<path d="M300.235 180.999C301.731 180.999 302.933 179.797 302.933 178.3C302.933 176.803 301.731 175.602 300.235 175.602C298.738 175.602 297.537 176.803 297.537 178.3C297.537 179.797 298.738 180.999 300.235 180.999Z" fill="#003876"/>
<path d="M330.588 180.999C332.079 180.999 333.287 179.791 333.287 178.3C333.287 176.81 332.079 175.602 330.588 175.602C329.098 175.602 327.89 176.81 327.89 178.3C327.89 179.791 329.098 180.999 330.588 180.999Z" fill="#003876"/>
<path d="M360.942 180.999C362.439 180.999 363.64 179.797 363.64 178.3C363.64 176.803 362.439 175.602 360.942 175.602C359.446 175.602 358.244 176.803 358.244 178.3C358.244 179.797 359.446 180.999 360.942 180.999Z" fill="#003876"/>
<path d="M391.296 180.999C392.792 180.999 393.994 179.797 393.994 178.3C393.994 176.803 392.792 175.602 391.296 175.602C389.799 175.602 388.598 176.803 388.598 178.3C388.598 179.797 389.799 180.999 391.296 180.999Z" fill="#003876"/>
<path d="M421.649 180.999C423.146 180.999 424.347 179.797 424.347 178.3C424.347 176.803 423.146 175.602 421.649 175.602C420.153 175.602 418.951 176.803 418.951 178.3C418.951 179.797 420.153 180.999 421.649 180.999Z" fill="#003876"/>
<path d="M452.003 180.999C453.5 180.999 454.701 179.797 454.701 178.3C454.701 176.803 453.5 175.602 452.003 175.602C450.506 175.602 449.305 176.803 449.305 178.3C449.305 179.797 450.506 180.999 452.003 180.999Z" fill="#003876"/>
<path d="M482.357 180.999C483.847 180.999 485.055 179.791 485.055 178.3C485.055 176.81 483.847 175.602 482.357 175.602C480.867 175.602 479.659 176.81 479.659 178.3C479.659 179.791 480.867 180.999 482.357 180.999Z" fill="#003876"/>
<path d="M512.71 180.999C514.207 180.999 515.408 179.797 515.408 178.3C515.408 176.803 514.207 175.602 512.71 175.602C511.214 175.602 510.012 176.803 510.012 178.3C510.012 179.797 511.214 180.999 512.71 180.999Z" fill="#003876"/>
<path d="M543.064 180.999C544.561 180.999 545.762 179.797 545.762 178.3C545.762 176.803 544.561 175.602 543.064 175.602C541.567 175.602 540.366 176.803 540.366 178.3C540.366 179.797 541.567 180.999 543.064 180.999Z" fill="#003876"/>
<path d="M573.418 180.999C574.914 180.999 576.116 179.797 576.116 178.3C576.116 176.803 574.914 175.602 573.418 175.602C571.921 175.602 570.72 176.803 570.72 178.3C570.72 179.797 571.921 180.999 573.418 180.999Z" fill="#003876"/>
<path d="M603.771 180.999C605.268 180.999 606.469 179.797 606.469 178.3C606.469 176.803 605.268 175.602 603.771 175.602C602.275 175.602 601.073 176.803 601.073 178.3C601.073 179.797 602.275 180.999 603.771 180.999Z" fill="#003876"/>
<path d="M634.125 180.999C635.615 180.999 636.823 179.791 636.823 178.3C636.823 176.81 635.615 175.602 634.125 175.602C632.635 175.602 631.427 176.81 631.427 178.3C631.427 179.791 632.635 180.999 634.125 180.999Z" fill="#003876"/>
</g>
<defs>
<clipPath id="clip0_3046_49493">
<rect width="658" height="643" fill="white" transform="translate(-6 -462)"/>
</clipPath>
</defs>
</svg>
