<svg width="697" height="532" viewBox="0 0 697 532" fill="none" xmlns="http://www.w3.org/2000/svg">
<g clip-path="url(#clip0_3046_50717)">
<path d="M356.462 176.18V353.744H179.167V203.566L206.508 176.18H356.462Z" fill="white"/>
<path d="M265.972 321.174C240.043 320.206 219.891 298.03 219.891 272.031V258.941C219.891 254.333 223.628 250.562 228.255 250.562H307.401C312.001 250.562 315.739 254.306 315.739 258.941V273.21C315.739 300.308 293.234 322.222 265.972 321.174ZM236.593 267.293V272.293C236.593 289.128 249.479 303.607 266.26 304.444C284.19 305.335 299.063 290.987 299.063 273.21V267.293H236.619H236.593Z" fill="#012E6C"/>
<path d="M264.43 232.131H231.496C225.693 232.131 220.492 227.863 219.943 222.077C219.315 215.427 224.517 209.824 231.025 209.824H263.959C269.762 209.824 274.963 214.092 275.512 219.878C276.14 226.528 270.938 232.131 264.43 232.131Z" fill="#012E6C"/>
<path d="M312.079 229.853C307.192 234.749 299.246 234.749 294.358 229.853C289.47 224.957 289.47 216.998 294.358 212.102C299.246 207.206 307.192 207.206 312.079 212.102C316.967 216.998 316.967 224.957 312.079 229.853Z" fill="#6DB0E2"/>
<path d="M356.462 353.744V531.334H179.167V381.13L206.508 353.744H356.462Z" fill="white"/>
<path d="M265.972 498.764C240.043 497.796 219.891 475.62 219.891 449.621V436.531C219.891 431.923 223.628 428.152 228.255 428.152H307.401C312.001 428.152 315.739 431.896 315.739 436.531V450.8C315.739 477.898 293.234 499.812 265.972 498.764ZM236.593 444.882V449.883C236.593 466.718 249.479 481.196 266.26 482.034C284.19 482.924 299.063 468.577 299.063 450.8V444.882H236.619H236.593Z" fill="#E30238"/>
<path d="M264.43 409.721H231.496C225.693 409.721 220.492 405.453 219.943 399.667C219.315 393.017 224.517 387.414 231.025 387.414H263.959C269.762 387.414 274.963 391.682 275.512 397.468C276.14 404.118 270.938 409.721 264.43 409.721Z" fill="#E30238"/>
<path d="M312.079 407.443C307.192 412.339 299.246 412.339 294.358 407.443C289.47 402.547 289.47 394.587 294.358 389.692C299.246 384.796 307.192 384.796 312.079 389.692C316.967 394.587 316.967 402.547 312.079 407.443Z" fill="#1B3F7E"/>
<path d="M533.756 353.744V531.334H356.462V381.13L383.802 353.744H533.756Z" fill="#6DB0E2"/>
<path d="M443.266 498.764C417.337 497.796 397.185 475.62 397.185 449.621V436.531C397.185 431.923 400.923 428.152 405.549 428.152H484.695C489.296 428.152 493.033 431.896 493.033 436.531V450.8C493.033 477.898 470.528 499.812 443.266 498.764ZM413.887 444.882V449.883C413.887 466.718 426.773 481.196 443.554 482.034C461.485 482.924 476.357 468.577 476.357 450.8V444.882H413.913H413.887Z" fill="white"/>
<path d="M441.724 409.721H408.79C402.988 409.721 397.786 405.453 397.237 399.667C396.61 393.017 401.811 387.414 408.32 387.414H441.254C447.056 387.414 452.258 391.682 452.807 397.468C453.434 404.118 448.233 409.721 441.724 409.721Z" fill="white"/>
<path d="M489.374 407.443C484.486 412.339 476.54 412.339 471.652 407.443C466.764 402.547 466.764 394.587 471.652 389.692C476.54 384.796 484.486 384.796 489.374 389.692C494.262 394.587 494.262 402.547 489.374 407.443Z" fill="#1B3F7E"/>
<path d="M533.756 176.18V353.744H356.462V203.566L383.802 176.18H533.756Z" fill="#E30238"/>
<path d="M443.266 321.174C417.337 320.206 397.185 298.03 397.185 272.031V258.941C397.185 254.333 400.923 250.562 405.549 250.562H484.695C489.296 250.562 493.033 254.306 493.033 258.941V273.21C493.033 300.308 470.528 322.222 443.266 321.174ZM413.887 267.293V272.293C413.887 289.128 426.773 303.607 443.554 304.444C461.485 305.335 476.357 290.987 476.357 273.21V267.293H413.913H413.887Z" fill="white"/>
<path d="M441.724 232.131H408.79C402.988 232.131 397.786 227.863 397.237 222.077C396.61 215.427 401.811 209.824 408.32 209.824H441.254C447.056 209.824 452.258 214.092 452.807 219.878C453.434 226.528 448.233 232.131 441.724 232.131Z" fill="white"/>
<path d="M489.374 229.853C484.486 234.749 476.54 234.749 471.652 229.853C466.764 224.957 466.764 216.998 471.652 212.102C476.54 207.206 484.486 207.206 489.374 212.102C494.262 216.998 494.262 224.957 489.374 229.853Z" fill="#1B3F7E"/>
<path d="M533.756 -1.41016V176.18H356.462V25.9759L383.802 -1.41016H533.756Z" fill="#6DB0E2"/>
<path d="M443.266 143.585C417.337 142.616 397.185 120.44 397.185 94.4416V81.3508C397.185 76.7428 400.923 72.9727 405.549 72.9727H484.695C489.296 72.9727 493.033 76.7166 493.033 81.3508V95.6198C493.033 122.718 470.528 144.632 443.266 143.585ZM413.887 89.7027V94.7035C413.887 111.538 426.773 126.017 443.554 126.855C461.485 127.745 476.357 113.397 476.357 95.6198V89.7027H413.913H413.887Z" fill="#1B3F7E"/>
<path d="M441.724 54.5412H408.79C402.988 54.5412 397.786 50.2735 397.237 44.4874C396.61 37.8373 401.811 32.2344 408.32 32.2344H441.254C447.056 32.2344 452.258 36.502 452.807 42.2881C453.434 48.9383 448.233 54.5412 441.724 54.5412Z" fill="#1B3F7E"/>
<path d="M489.374 52.263C484.486 57.159 476.54 57.159 471.652 52.263C466.764 47.367 466.764 39.4078 471.652 34.5118C476.54 29.6159 484.486 29.6159 489.374 34.5118C494.262 39.4078 494.262 47.367 489.374 52.263Z" fill="white"/>
<path d="M711.051 -1.41016V176.18H533.757V25.9759L561.097 -1.41016H711.051Z" fill="white"/>
<path d="M620.561 143.585C594.632 142.616 574.48 120.44 574.48 94.4416V81.3508C574.48 76.7428 578.217 72.9727 582.844 72.9727H661.99C666.59 72.9727 670.328 76.7166 670.328 81.3508V95.6198C670.328 122.718 647.823 144.632 620.561 143.585ZM591.182 89.7027V94.7035C591.182 111.538 604.068 126.017 620.849 126.855C638.779 127.745 653.652 113.397 653.652 95.6198V89.7027H591.208H591.182Z" fill="#1B3F7E"/>
<path d="M619.019 54.5412H586.085C580.282 54.5412 575.081 50.2735 574.532 44.4874C573.905 37.8373 579.106 32.2344 585.615 32.2344H618.548C624.351 32.2344 629.553 36.502 630.102 42.2881C630.729 48.9383 625.527 54.5412 619.019 54.5412Z" fill="#1B3F7E"/>
<path d="M666.669 52.263C661.781 57.159 653.835 57.159 648.947 52.263C644.059 47.367 644.059 39.4078 648.947 34.5118C653.835 29.6159 661.781 29.6159 666.669 34.5118C671.556 39.4078 671.556 47.367 666.669 52.263Z" fill="#E30238"/>
</g>
<defs>
<clipPath id="clip0_3046_50717">
<rect width="710.276" height="710.335" fill="white" transform="translate(0.775146 -179)"/>
</clipPath>
</defs>
</svg>
