<svg width="76" height="41" viewBox="0 0 76 41" fill="none" xmlns="http://www.w3.org/2000/svg">
<path d="M3.07143 25.4995C2.12341 24.9771 1.34266 24.197 0.819447 23.2495C0.259551 22.2199 -0.022403 21.0622 0.00142375 19.8904C-0.0229782 18.7157 0.26668 17.5558 0.840444 16.5305C1.37963 15.5801 2.17478 14.8001 3.13543 14.2794C4.13806 13.7571 5.25191 13.4844 6.38244 13.4844C7.51296 13.4844 8.62681 13.7571 9.62945 14.2794C10.5918 14.799 11.3888 15.5787 11.9294 16.5294C12.5037 17.5543 12.794 18.7139 12.7704 19.8884C12.7944 21.0656 12.4967 22.2269 11.9094 23.2474C11.3555 24.1984 10.5495 24.9778 9.58043 25.4995C8.57205 26.0384 7.44373 26.3136 6.30044 26.2994C5.17315 26.3154 4.06087 26.0399 3.07143 25.4995ZM7.89544 23.1464C8.40816 22.8576 8.82528 22.4253 9.09545 21.9025C9.41002 21.2785 9.56366 20.5859 9.54244 19.8875C9.5749 19.395 9.50941 18.9009 9.34978 18.4338C9.19015 17.9668 8.93956 17.536 8.61245 17.1664C8.32033 16.8589 7.96737 16.6155 7.57604 16.4517C7.18471 16.288 6.76356 16.2075 6.33944 16.2155C5.91831 16.2064 5.50004 16.2865 5.11208 16.4506C4.72413 16.6146 4.37526 16.8589 4.08843 17.1674C3.44238 17.9215 3.11717 18.8986 3.18242 19.8895C3.11686 20.8762 3.4338 21.8502 4.06743 22.6094C4.34873 22.9189 4.69348 23.1641 5.07815 23.3282C5.46281 23.4923 5.87837 23.5715 6.29644 23.5604C6.85612 23.5618 7.40676 23.4193 7.89544 23.1464Z" fill="#231F20"/>
<path d="M22.4102 13.984C23.0712 14.3147 23.6406 14.8031 24.0681 15.406V13.489H27.2261V25.711C27.2439 26.9168 27.0075 28.1128 26.5322 29.221C26.0665 30.1284 25.3419 30.8771 24.4501 31.372C23.4202 31.9291 22.2616 32.205 21.0911 32.172C19.5518 32.2374 18.0323 31.8058 16.7572 30.941C16.2117 30.5555 15.7575 30.055 15.4266 29.4748C15.0957 28.8945 14.8962 28.2488 14.8421 27.583H17.9552C18.122 28.1546 18.5033 28.6397 19.0192 28.937C19.6198 29.2865 20.3067 29.4598 21.0012 29.437C21.4065 29.4538 21.8111 29.39 22.1916 29.2494C22.5721 29.1088 22.9211 28.8942 23.2182 28.618C23.8323 27.7788 24.133 26.7509 24.0681 25.713V24.213C23.6342 24.8226 23.0628 25.3214 22.4002 25.669C21.6532 26.0667 20.8172 26.2673 19.9711 26.252C18.9589 26.263 17.9645 25.9855 17.1041 25.452C16.2238 24.8985 15.5142 24.1117 15.0542 23.179C14.5379 22.1319 14.2804 20.9763 14.3031 19.809C14.2806 18.6526 14.5375 17.5078 15.0521 16.472C15.5085 15.5493 16.2146 14.7733 17.0902 14.232C17.9571 13.7069 18.9537 13.435 19.9672 13.447C20.813 13.4252 21.6514 13.6095 22.4102 13.984ZM23.6212 17.884C23.3434 17.3608 22.9241 16.9263 22.4111 16.63C21.9147 16.3418 21.3502 16.1913 20.7761 16.1941C20.2104 16.1897 19.6538 16.3367 19.1641 16.62C18.6577 16.9165 18.2426 17.3465 17.9641 17.863C17.6461 18.4581 17.488 19.1255 17.5051 19.8C17.4904 20.4817 17.6486 21.1561 17.9652 21.76C18.244 22.291 18.6624 22.7359 19.1752 23.047C19.6572 23.3404 20.2109 23.4951 20.7752 23.494C21.3493 23.4959 21.9136 23.3451 22.4102 23.057C22.9226 22.7604 23.3415 22.3259 23.6192 21.803C23.9137 21.1918 24.0667 20.522 24.0667 19.8435C24.0667 19.165 23.9137 18.4952 23.6192 17.884H23.6212Z" fill="#231F20"/>
<path d="M34.3171 16.2523V22.2523C34.3014 22.4159 34.3199 22.581 34.3715 22.737C34.4232 22.893 34.5068 23.0365 34.6171 23.1583C34.9108 23.3737 35.2736 23.4733 35.6362 23.4383H37.0952V26.0803H35.1251C32.4818 26.0803 31.1602 24.7966 31.1602 22.2293V16.2503H29.4521V13.5273H31.1602V10.4023H34.3181V13.5273H37.0952V16.2503L34.3171 16.2523Z" fill="#231F20"/>
<path d="M43.1041 13.5273V26.0823H39.9681V13.5283L43.1041 13.5273ZM43.1041 11.9593V8.82031H39.9661V11.9583L43.1041 11.9593Z" fill="#231F20"/>
<path d="M46.327 16.5059C46.8474 15.5619 47.6253 14.7851 48.5699 14.2659C49.5772 13.7211 50.708 13.4456 51.853 13.4659C53.2573 13.4106 54.6414 13.8151 55.795 14.6179C56.8539 15.4148 57.5959 16.5615 57.889 17.8539H54.395C54.2286 17.3413 53.8996 16.8969 53.4579 16.588C52.9753 16.2699 52.4056 16.1099 51.8279 16.1299C51.4108 16.1113 50.9951 16.1896 50.6133 16.3588C50.2316 16.528 49.8943 16.7834 49.6279 17.1049C49.0998 17.9265 48.819 18.8827 48.819 19.8594C48.819 20.8362 49.0998 21.7923 49.6279 22.614C49.8947 22.9349 50.2322 23.1897 50.6138 23.3585C50.9955 23.5273 51.411 23.6055 51.8279 23.587C52.3855 23.6392 52.9441 23.499 53.4109 23.1898C53.8778 22.8805 54.2247 22.4207 54.394 21.887H57.886C57.5746 23.1633 56.833 24.2934 55.7859 25.087C54.6435 25.9077 53.2608 26.3256 51.855 26.275C50.7106 26.2965 49.58 26.023 48.572 25.481C47.6273 24.9621 46.8495 24.1856 46.329 23.2419C45.7969 22.1981 45.5195 21.0431 45.5195 19.8715C45.5195 18.6998 45.7969 17.5448 46.329 16.501L46.327 16.5059Z" fill="#231F20"/>
<path d="M65.9741 5.67578H69.2241L67.5991 8.49078L65.9741 11.3048L64.3501 8.49078L62.7251 5.67578H65.9741Z" fill="#0064CE"/>
<path d="M75.0801 15.9557L65.9741 11.3047L68.4611 15.9567H75.0831L75.0801 15.9557Z" fill="#6BDB00"/>
<path d="M69.2221 5.67578L65.9741 11.3048L75.0831 15.9568L69.2221 5.67578Z" fill="#00ADCA"/>
<path d="M65.9741 26.2384H69.2241L67.5991 23.4234L65.9741 20.6094L64.3501 23.4234L62.7251 26.2384H65.9741Z" fill="#ED2024"/>
<path d="M75.0801 15.957L65.9741 20.609L68.4611 15.957H75.0831H75.0801Z" fill="#FFBA00"/>
<path d="M69.2221 26.238L65.9741 20.609L75.0831 15.957L69.2221 26.238Z" fill="#FF6900"/>
</svg>
