<svg width="25" height="26" viewBox="0 0 25 26" fill="none" xmlns="http://www.w3.org/2000/svg">
<path d="M25 0.625V25.3733H0.251587V4.44142L4.06802 0.625H25Z" fill="#1B3F7E"/>
<path d="M12.3685 20.8324C8.7491 20.6974 5.93604 17.6071 5.93604 13.984V12.1597C5.93604 11.5176 6.45778 10.9922 7.10359 10.9922H18.1515C18.7937 10.9922 19.3154 11.5139 19.3154 12.1597V14.1482C19.3154 17.9245 16.174 20.9784 12.3685 20.8324ZM8.26749 13.3236V14.0205C8.26749 16.3665 10.0662 18.3842 12.4086 18.501C14.9116 18.625 16.9876 16.6256 16.9876 14.1482V13.3236H8.27114H8.26749Z" fill="white"/>
<path d="M12.1532 8.42109H7.55601C6.74602 8.42109 6.01995 7.82637 5.94333 7.02004C5.85576 6.0933 6.58183 5.3125 7.49033 5.3125H12.0876C12.8976 5.3125 13.6236 5.90722 13.7003 6.71356C13.7878 7.64029 13.0617 8.42109 12.1532 8.42109Z" fill="white"/>
<path d="M18.8048 8.10264C18.1225 8.78492 17.0133 8.78492 16.3311 8.10264C15.6488 7.42035 15.6488 6.31119 16.3311 5.6289C17.0133 4.94662 18.1225 4.94662 18.8048 5.6289C19.4871 6.31119 19.4871 7.42035 18.8048 8.10264Z" fill="#E30238"/>
</svg>
