<svg width="200" height="81" viewBox="0 0 200 81" fill="none" xmlns="http://www.w3.org/2000/svg">
<path d="M10.402 70.6497C9.93983 70.8243 9.43383 70.8461 8.95837 70.7118C8.4829 70.5776 8.06305 70.2944 7.76043 69.9039L5.82316 67.4173C5.57747 67.1167 5.25906 66.8839 4.89812 66.7409C4.53718 66.5979 4.14567 66.5495 3.76077 66.6003V69.043C3.76077 69.9238 4.364 70.0746 5.1694 70.1757C5.25723 70.1881 5.19427 70.6032 5.09318 70.6032H1.28161C1.18052 70.6032 1.10513 70.189 1.20539 70.1757C1.84756 70.087 2.24943 69.8351 2.24943 69.043V63.4342C2.24943 62.6056 1.80944 62.3645 1.20539 62.2013C1.10513 62.1764 1.16809 61.7613 1.28161 61.7737C1.76161 61.828 2.24446 61.8532 2.72751 61.8491C3.65802 61.8491 4.52558 61.7737 5.13046 61.7737C7.0296 61.7737 8.29985 62.5534 8.29985 64.1004C8.29745 64.693 8.06098 65.2607 7.64194 65.6797C7.2229 66.0987 6.65523 66.3352 6.06263 66.3376V66.4014C6.56559 66.4014 6.931 66.6152 7.4845 67.3071L9.35795 69.6586C9.47218 69.8364 9.62572 69.9856 9.80674 70.0946C9.98776 70.2037 10.1914 70.2697 10.402 70.2876C10.5022 70.2859 10.4774 70.6248 10.402 70.6497ZM6.7172 64.4352C6.74204 64.1679 6.7083 63.8985 6.61833 63.6456C6.52836 63.3927 6.38435 63.1625 6.19629 62.9709C6.00824 62.7794 5.78068 62.6312 5.52948 62.5366C5.27829 62.442 5.00952 62.4034 4.74185 62.4233C3.99611 62.4233 3.76163 62.7249 3.76163 63.4292V66.0195H4.12622C5.99968 66.0211 6.7172 65.6946 6.7172 64.4368V64.4352Z" fill="white"/>
<path d="M12.4308 70.1723C13.1607 69.9834 13.7267 69.8699 13.7267 68.9386V63.3555C13.7267 62.5501 13.2113 62.3363 12.6702 62.1955C12.5691 62.1706 12.6321 61.7554 12.7332 61.7679C13.6513 61.8681 15.2355 61.8433 16.0028 61.8433C17.1471 61.8433 17.9774 61.7927 19.009 61.7679C19.3106 61.7679 19.3106 61.9692 19.2476 62.2584L18.946 63.4533C18.9079 63.6298 18.5939 63.6298 18.5433 63.4533C18.3544 62.8376 17.9774 62.4846 16.4055 62.4846C15.5247 62.4846 15.2356 62.7108 15.2356 63.3654V65.4154C15.2356 65.7468 15.4013 65.8048 15.6499 65.8048H15.9266C16.7726 65.9019 17.6261 65.7022 18.3411 65.2397C18.4671 65.1253 18.7438 65.151 18.6303 65.4054L17.9136 66.9905C17.8133 67.2167 17.6244 67.1919 17.486 67.003C17.2694 66.7911 17.0082 66.6304 16.7215 66.5324C16.4347 66.4345 16.1298 66.4019 15.8288 66.437H15.6523C15.4038 66.437 15.238 66.5 15.238 66.8265V68.9394C15.238 69.6569 15.5397 69.9213 16.5837 69.9213C18.4828 69.9213 19.2352 69.0529 19.5393 68.5756C19.6271 68.4364 19.9668 68.5002 19.9668 68.7132C19.9668 69.3545 19.4258 70.6256 18.6336 70.6256C17.9293 70.5874 17.2383 70.5493 16.1818 70.5493C15.0218 70.5493 13.6537 70.512 12.5094 70.6256C12.381 70.6372 12.3305 70.1972 12.4308 70.1723Z" fill="white"/>
<path d="M24.9862 67.2284V69.043C24.9862 69.9238 25.5895 70.0746 26.3949 70.1757C26.4827 70.1881 26.4197 70.6032 26.3195 70.6032H22.5079C22.4076 70.6032 22.3322 70.189 22.4325 70.1757C23.0746 70.087 23.4765 69.8351 23.4765 69.043V63.4342C23.4765 62.6056 23.0365 62.3645 22.4325 62.2013C22.3322 62.1764 22.3952 61.7613 22.5079 61.7737C22.9882 61.828 23.4713 61.8532 23.9546 61.8491C24.8852 61.8491 25.6648 61.7737 26.3062 61.7737C28.2558 61.7737 29.8692 62.4904 29.8692 64.465C29.8658 66.7005 27.7654 67.6435 24.9862 67.2284ZM24.9862 63.4309V66.6127C27.124 66.9143 28.2434 66.3989 28.2434 64.7517C28.2708 64.4457 28.232 64.1375 28.1296 63.8479C28.0272 63.5583 27.8636 63.2941 27.65 63.0733C27.4364 62.8526 27.1778 62.6805 26.8917 62.5686C26.6057 62.4567 26.2988 62.4077 25.9921 62.425C25.2 62.425 24.9862 62.7009 24.9862 63.4309Z" fill="white"/>
<path d="M33.4161 67.3026V63.3534C33.4362 63.2098 33.4247 63.0634 33.3823 62.9247C33.3399 62.7859 33.2676 62.6581 33.1706 62.5503C33.0735 62.4424 32.9541 62.3571 32.8206 62.3003C32.6871 62.2436 32.5427 62.2167 32.3977 62.2216C32.2966 62.2083 32.3721 61.7932 32.4723 61.7932H35.906C36.0063 61.7932 36.0825 62.2075 35.9814 62.2216C35.8374 62.2185 35.6945 62.2467 35.5626 62.3043C35.4306 62.3619 35.3127 62.4475 35.217 62.5552C35.1213 62.6628 35.0502 62.7899 35.0085 62.9278C34.9668 63.0656 34.9556 63.2108 34.9755 63.3534V67.3655C34.9755 69.1255 35.9939 69.9433 37.3271 69.9433C37.6664 69.9657 38.0066 69.9136 38.3236 69.7905C38.6407 69.6675 38.9269 69.4764 39.1622 69.2309C39.3976 68.9854 39.5763 68.6913 39.6858 68.3693C39.7954 68.0473 39.8331 67.7053 39.7963 67.3672V63.3551C39.7963 62.5373 39.3306 62.3103 38.7191 62.2233C38.6313 62.21 38.6943 61.7949 38.7945 61.7949H41.6192C41.7079 61.7949 41.7849 62.2092 41.6822 62.2233C41.5382 62.2202 41.3953 62.2484 41.2633 62.306C41.1313 62.3636 41.0134 62.4492 40.9177 62.5568C40.8221 62.6644 40.7509 62.7916 40.7092 62.9294C40.6675 63.0673 40.6563 63.2125 40.6763 63.3551V67.2909C40.7151 67.7605 40.6514 68.2329 40.4895 68.6754C40.3277 69.1179 40.0717 69.52 39.7391 69.8537C39.4065 70.1875 39.0053 70.445 38.5634 70.6084C38.1215 70.7718 37.6493 70.8372 37.1796 70.8C35.4047 70.8 33.4161 69.8563 33.4161 67.3026ZM37.1133 58.6619C37.3403 58.3305 38.3968 59.3033 38.0943 59.5295L36.4471 60.7724C36.2814 60.8975 35.843 60.4956 35.969 60.32L37.1133 58.6619Z" fill="white"/>
<path d="M51.7576 68.06C51.7576 69.6186 50.3357 70.6286 48.2361 70.6286C47.632 70.6286 46.9278 70.5524 45.9989 70.5524C45.3398 70.5416 44.6806 70.567 44.0244 70.6286C43.9117 70.6411 43.8479 70.2011 43.949 70.1762C44.6781 69.9873 45.244 69.8738 45.244 68.9424V63.3594C45.244 62.554 44.7286 62.3402 44.1876 62.1993C44.0873 62.1744 44.1503 61.7593 44.2505 61.7718C44.7561 61.8256 45.2643 61.8508 45.7727 61.8472C46.7786 61.8472 47.5202 61.7718 48.0737 61.7718C49.6961 61.7718 51.0293 62.4512 51.0417 63.835C51.0494 64.2888 50.8935 64.7303 50.6027 65.0788C50.3118 65.4273 49.9053 65.6596 49.4574 65.7333V65.8087C49.7577 65.8002 50.0566 65.8523 50.3362 65.9618C50.6159 66.0713 50.8707 66.2361 51.0853 66.4462C51.3 66.6563 51.4702 66.9074 51.5857 67.1847C51.7012 67.462 51.7596 67.7596 51.7576 68.06ZM46.7521 63.356V65.5932H48.0472C48.2405 65.6194 48.4373 65.6008 48.6223 65.5389C48.8072 65.4769 48.9755 65.3732 49.114 65.2359C49.2526 65.0985 49.3577 64.9312 49.4213 64.7467C49.4848 64.5623 49.5051 64.3657 49.4806 64.1722C49.4952 63.9313 49.4571 63.6901 49.3687 63.4655C49.2804 63.2408 49.144 63.0382 48.9692 62.8718C48.7944 62.7053 48.5854 62.5791 48.3567 62.5019C48.128 62.4247 47.8852 62.3983 47.6453 62.4247C46.9783 62.4255 46.7562 62.6517 46.7562 63.356H46.7521ZM50.1353 68.3359C50.1567 68.0551 50.1176 67.7729 50.0206 67.5085C49.9236 67.2441 49.771 67.0036 49.573 66.8033C49.3751 66.603 49.1364 66.4475 48.8731 66.3474C48.6099 66.2473 48.3282 66.2048 48.0472 66.223H46.7562V68.9391C46.7562 69.631 47.1084 69.9715 48.2021 69.9715C49.305 69.9715 50.1353 69.6434 50.1353 68.3359Z" fill="white"/>
<path d="M54.1633 70.172C54.8933 69.9831 55.4592 69.8696 55.4592 68.9383V63.3552C55.4592 62.4744 54.9438 62.2979 54.4027 62.2233C54.3025 62.2101 54.3779 61.7949 54.4657 61.7949H57.9367C58.0246 61.7949 58.0875 62.2092 57.9997 62.2233C57.8536 62.2164 57.7078 62.2418 57.5726 62.2977C57.4375 62.3536 57.3163 62.4387 57.2178 62.5467C57.1193 62.6548 57.0458 62.7833 57.0027 62.9231C56.9595 63.0628 56.9477 63.2103 56.9681 63.3552V68.9383C56.9681 69.6558 57.2705 69.9202 58.3146 69.9202C60.2137 69.9202 60.966 69.0518 61.2693 68.5745C61.358 68.4353 61.6969 68.4991 61.6969 68.7121C61.6969 69.3534 61.1567 70.6245 60.3637 70.6245C59.6594 70.5863 58.9683 70.5482 57.9118 70.5482C56.7518 70.5482 55.3838 70.5109 54.2395 70.6245C54.1136 70.6369 54.063 70.1969 54.1633 70.172Z" fill="white"/>
<path d="M63.9136 70.172C64.5549 70.0834 64.9576 69.8315 64.9576 69.0393V63.3552C64.9576 62.5622 64.5549 62.3103 63.9136 62.2233C63.8125 62.2101 63.8879 61.7949 63.9882 61.7949H67.4351C67.5354 61.7949 67.6108 62.2092 67.5097 62.2233C66.9695 62.2979 66.4665 62.4719 66.4665 63.3552V69.0393C66.4665 69.9201 66.9695 70.0958 67.5097 70.172C67.6108 70.1845 67.5354 70.5996 67.4351 70.5996H63.9907C63.8879 70.5996 63.8125 70.1845 63.9136 70.172Z" fill="white"/>
<path d="M70.1669 66.3606C70.1367 65.7191 70.2423 65.0784 70.4768 64.4805C70.7113 63.8826 71.0694 63.3409 71.5277 62.8909C71.986 62.4409 72.5341 62.0928 73.1362 61.8693C73.7383 61.6457 74.3808 61.5518 75.0217 61.5937C76.48 61.5937 77.7378 62.0469 77.5903 62.4869L77.4246 62.9774C76.9713 64.3231 76.4808 62.6004 74.2428 62.6004C72.4439 62.6004 71.5631 63.7696 71.5631 65.5834C71.5355 66.1059 71.6157 66.6285 71.7989 67.1186C71.982 67.6087 72.2641 68.0559 72.6276 68.4323C72.991 68.8087 73.4281 69.1061 73.9115 69.3063C74.395 69.5064 74.9144 69.6048 75.4376 69.5954C76.1458 69.5387 76.835 69.3376 77.4627 69.0046C77.563 68.9408 77.8273 69.2308 77.7519 69.3435C77.0548 70.0925 76.1396 70.6031 75.136 70.8027C73.0231 70.8002 70.1669 69.5681 70.1669 66.3606Z" fill="white"/>
<path d="M89.2365 70.5997H85.9163C85.7506 70.5997 85.7398 70.1969 85.879 70.1721C86.3439 70.0834 86.8468 69.9235 86.382 68.838L86.2436 68.524C86.1177 68.2216 85.9038 68.1926 85.5268 68.1926H82.9582C82.5812 68.1926 82.3674 68.2175 82.2415 68.524L82.1155 68.838C81.6755 69.9202 82.1536 70.0809 82.7569 70.1721C82.9226 70.1969 82.8828 70.5997 82.7195 70.5997H80.0026C79.8518 70.5997 79.8137 70.1969 79.9645 70.1721C80.4807 70.0834 80.7823 69.9078 81.248 68.838L83.3733 63.9585C83.7307 63.3105 83.9492 62.5951 84.0147 61.8579C84.2982 61.7139 84.6154 61.6489 84.9327 61.6699L87.9986 68.8256C88.451 69.8953 88.7526 70.0958 89.2555 70.1721C89.4378 70.1969 89.3873 70.5997 89.2365 70.5997ZM85.7274 67.2911L84.2558 63.7695L82.7718 67.2911C82.6964 67.4675 82.8853 67.4924 83.0618 67.4924H85.4382C85.6172 67.4924 85.8028 67.4684 85.7274 67.2911Z" fill="white"/>
<path d="M95.3297 70.1723C96.0589 69.9834 96.6248 69.8699 96.6248 68.9386V63.3555C96.6248 62.5501 96.1094 62.3363 95.5684 62.1955C95.4681 62.1706 95.5311 61.7554 95.6313 61.7679C96.1541 61.8248 96.6798 61.8499 97.2056 61.8433C98.1859 61.8433 99.0667 61.7679 99.708 61.7679C102.751 61.7679 104.399 63.5792 104.399 66.0062C104.421 66.6258 104.314 67.2432 104.084 67.8191C103.854 68.395 103.507 68.9168 103.065 69.3511C102.622 69.7854 102.094 70.1227 101.514 70.3416C100.934 70.5604 100.315 70.656 99.6956 70.6223C99.0915 70.6223 98.3118 70.5461 97.3813 70.5461C96.7222 70.5355 96.0631 70.5609 95.4068 70.6223C95.2792 70.6372 95.2295 70.1972 95.3297 70.1723ZM102.888 66.7254C102.888 64.3224 101.58 62.4374 99.3169 62.4374C98.4237 62.4374 98.1345 62.7133 98.1345 63.3555V68.9386C98.1345 69.618 98.5994 69.9577 99.8199 69.9577C101.87 69.9544 102.888 68.8507 102.888 66.7229V66.7254Z" fill="white"/>
<path d="M107.13 66.2483C107.107 65.6384 107.208 65.0301 107.428 64.4608C107.648 63.8915 107.982 63.3731 108.41 62.9374C108.837 62.5016 109.349 62.1577 109.914 61.9267C110.479 61.6958 111.085 61.5826 111.696 61.5941C112.297 61.5747 112.896 61.6789 113.456 61.9003C114.015 62.1216 114.524 62.4554 114.949 62.881C115.375 63.3066 115.708 63.8149 115.929 64.3746C116.151 64.9342 116.255 65.5333 116.235 66.1348C116.261 66.7458 116.161 67.3557 115.942 67.9267C115.723 68.4977 115.389 69.0178 114.962 69.4549C114.534 69.8921 114.021 70.237 113.455 70.4684C112.889 70.6998 112.281 70.8129 111.67 70.8006C111.068 70.8175 110.469 70.7112 109.91 70.4882C109.351 70.2653 108.843 69.9303 108.418 69.504C107.992 69.0777 107.659 68.569 107.438 68.0092C107.216 67.4493 107.111 66.8501 107.13 66.2483ZM114.739 66.8391C114.739 64.2986 113.016 62.4475 111.205 62.4475C110.098 62.4475 108.636 63.1767 108.636 65.5415C108.636 68.1101 110.359 69.943 112.157 69.943C113.267 69.9455 114.739 69.2163 114.739 66.8391Z" fill="white"/>
<path d="M129.924 70.6009H126.641C126.554 70.6009 126.491 70.1866 126.566 70.1733C126.702 70.1677 126.836 70.1324 126.957 70.0699C127.079 70.0074 127.185 69.9191 127.269 69.8113C127.353 69.7035 127.412 69.5787 127.443 69.4456C127.474 69.3125 127.475 69.1743 127.447 69.0406L127.208 64.8148L125.17 68.9661C124.96 69.3799 124.791 69.8134 124.667 70.2603C124.642 70.412 124.378 70.4874 124.176 70.4874C124.096 70.4937 124.016 70.4754 123.946 70.4348C123.876 70.3942 123.821 70.3334 123.787 70.2603L120.882 64.7526L120.693 69.0406C120.655 69.9214 121.171 70.1219 121.574 70.1733C121.674 70.1857 121.599 70.6009 121.51 70.6009H118.906C118.806 70.6009 118.731 70.1866 118.831 70.1733C119.372 70.1095 119.825 69.9247 119.875 69.0406L120.278 61.8219C120.29 61.6073 120.768 61.5949 120.894 61.8219L124.54 68.6379L127.924 61.8219C128.037 61.5949 128.54 61.6073 128.552 61.8219L128.955 69.0406C129.005 69.9214 129.458 70.1095 129.986 70.1733C130.087 70.1857 130.012 70.6009 129.924 70.6009Z" fill="white"/>
<path d="M132.507 70.172C133.148 70.0834 133.551 69.8315 133.551 69.0393V63.3552C133.551 62.5622 133.148 62.3103 132.507 62.2233C132.407 62.2101 132.482 61.7949 132.582 61.7949H136.028C136.129 61.7949 136.204 62.2092 136.104 62.2233C135.563 62.2979 135.061 62.4719 135.061 63.3552V69.0393C135.061 69.9201 135.563 70.0958 136.104 70.172C136.204 70.1845 136.129 70.5996 136.028 70.5996H132.582C132.482 70.5996 132.407 70.1845 132.507 70.172Z" fill="white"/>
<path d="M146.445 70.4855L140.458 64.2213V69.0014C140.458 69.8557 140.961 69.9957 141.678 70.1714C141.778 70.1963 141.729 70.599 141.603 70.599H138.62C138.519 70.599 138.443 70.2087 138.557 70.1714C139.085 69.9949 139.588 69.8947 139.588 69.0014V64.121C139.651 63.4972 139.485 62.8717 139.123 62.3602C139.009 62.2094 138.896 62.1116 138.896 62.071C138.893 62.0015 138.917 61.9334 138.964 61.8815C139.01 61.8297 139.076 61.7984 139.145 61.7943H140.076C140.131 61.7869 140.188 61.7934 140.241 61.8132C140.294 61.833 140.341 61.8655 140.378 61.9078L146.239 68.1082V63.3794C146.239 62.4862 145.673 62.3851 145.018 62.2194C144.918 62.1937 144.968 61.791 145.094 61.791H148.077C148.178 61.791 148.243 62.1937 148.14 62.2194C147.587 62.3851 147.109 62.4829 147.109 63.3794V68.2681C147.083 69.0091 147.133 69.7507 147.26 70.4813C147.31 70.6702 147.109 70.72 146.907 70.72C146.817 70.7202 146.728 70.6991 146.648 70.6583C146.568 70.6176 146.498 70.5583 146.445 70.4855Z" fill="white"/>
<path d="M150.662 70.172C151.304 70.0834 151.706 69.8315 151.706 69.0393V63.3552C151.706 62.5622 151.304 62.3103 150.662 62.2233C150.562 62.2101 150.637 61.7949 150.738 61.7949H154.184C154.285 61.7949 154.36 62.2092 154.26 62.2233C153.719 62.2979 153.216 62.4719 153.216 63.3552V69.0393C153.216 69.9201 153.719 70.0958 154.26 70.172C154.36 70.1845 154.285 70.5996 154.184 70.5996H150.738C150.636 70.5996 150.561 70.1845 150.662 70.172Z" fill="white"/>
<path d="M156.915 66.359C156.884 65.7173 156.989 65.0763 157.223 64.4781C157.457 63.8799 157.815 63.3379 158.274 62.8878C158.732 62.4377 159.28 62.0895 159.883 61.8662C160.485 61.6429 161.128 61.5495 161.769 61.592C163.228 61.592 164.486 62.0453 164.338 62.4853L164.172 62.9758C163.719 64.3214 163.228 62.5988 160.99 62.5988C159.191 62.5988 158.311 63.7679 158.311 65.5817C158.284 66.1041 158.364 66.6265 158.547 67.1165C158.73 67.6066 159.012 68.0536 159.375 68.43C159.738 68.8063 160.175 69.1039 160.658 69.3041C161.142 69.5043 161.661 69.6029 162.184 69.5938C162.892 69.5373 163.581 69.3362 164.209 69.003C164.31 68.9392 164.574 69.2292 164.498 69.3419C163.801 70.0912 162.886 70.6018 161.882 70.8011C159.769 70.7986 156.915 69.5665 156.915 66.359Z" fill="white"/>
<path d="M175.985 70.5997H172.664C172.498 70.5997 172.488 70.1969 172.627 70.1721C173.092 70.0834 173.595 69.9235 173.13 68.838L172.991 68.524C172.865 68.2216 172.652 68.1926 172.275 68.1926H169.706C169.328 68.1926 169.114 68.2175 168.989 68.524L168.863 68.838C168.422 69.9202 168.9 70.0809 169.505 70.1721C169.67 70.1969 169.63 70.5997 169.466 70.5997H166.754C166.603 70.5997 166.565 70.1969 166.715 70.1721C167.231 70.0834 167.533 69.9078 167.999 68.838L170.124 63.9585C170.482 63.3105 170.7 62.5951 170.766 61.8579C171.049 61.7139 171.366 61.6489 171.684 61.6699L174.75 68.8256C175.203 69.8953 175.504 70.0958 176.007 70.1721C176.183 70.1969 176.136 70.5997 175.985 70.5997ZM172.476 67.2911L171.004 63.7695L169.52 67.2911C169.445 67.4675 169.634 67.4924 169.809 67.4924H172.187C172.362 67.4924 172.551 67.4684 172.476 67.2911Z" fill="white"/>
<path d="M186.227 70.4855L180.24 64.2213V69.0014C180.24 69.8557 180.743 69.9957 181.46 70.1714C181.561 70.1963 181.511 70.599 181.385 70.599H178.402C178.301 70.599 178.226 70.2087 178.339 70.1714C178.866 69.9949 179.37 69.8947 179.37 69.0014V64.121C179.433 63.497 179.268 62.8714 178.905 62.3602C178.792 62.2094 178.678 62.1116 178.678 62.071C178.675 62.0015 178.699 61.9334 178.746 61.8815C178.792 61.8297 178.857 61.7984 178.927 61.7943H179.858C179.913 61.7869 179.97 61.7934 180.023 61.8132C180.075 61.833 180.122 61.8655 180.159 61.9078L186.02 68.1082V63.3794C186.02 62.4862 185.454 62.3851 184.8 62.2194C184.699 62.1937 184.75 61.791 184.876 61.791H187.858C187.96 61.791 188.024 62.1937 187.921 62.2194C187.368 62.3851 186.891 62.4829 186.891 63.3794V68.2681C186.865 69.0091 186.915 69.7507 187.041 70.4813C187.091 70.6702 186.891 70.72 186.689 70.72C186.599 70.72 186.51 70.6988 186.43 70.658C186.35 70.6173 186.28 70.5582 186.227 70.4855Z" fill="white"/>
<path d="M199.209 70.5997H195.889C195.723 70.5997 195.713 70.1969 195.851 70.1721C196.317 70.0834 196.82 69.9235 196.354 68.838L196.216 68.524C196.09 68.2216 195.876 68.1926 195.499 68.1926H192.93C192.552 68.1926 192.339 68.2175 192.213 68.524L192.087 68.838C191.647 69.9202 192.126 70.0809 192.729 70.1721C192.894 70.1969 192.855 70.5997 192.691 70.5997H189.975C189.824 70.5997 189.786 70.1969 189.936 70.1721C190.452 70.0834 190.754 69.9078 191.22 68.838L193.345 63.9585C193.703 63.3105 193.921 62.5951 193.987 61.8579C194.27 61.7139 194.587 61.6489 194.905 61.6699L197.971 68.8256C198.424 69.8953 198.725 70.0958 199.228 70.1721C199.411 70.1969 199.36 70.5997 199.209 70.5997ZM195.7 67.2911L194.229 63.7695L192.745 67.2911C192.669 67.4675 192.858 67.4924 193.034 67.4924H195.411C195.587 67.4924 195.776 67.4684 195.7 67.2911Z" fill="white"/>
<path d="M1.26647 53.3157V53.2983C1.2536 52.8778 1.32529 52.4591 1.47726 52.0668C1.62922 51.6745 1.85837 51.3168 2.15115 51.0147C2.44393 50.7127 2.79436 50.4725 3.18169 50.3084C3.56901 50.1442 3.98536 50.0595 4.40602 50.0593C5.26151 50.0251 6.09675 50.3248 6.73518 50.8953L6.27866 51.4314C5.763 50.9504 5.07773 50.6932 4.37289 50.7163C4.04678 50.7249 3.72564 50.7986 3.42843 50.9331C3.13122 51.0676 2.86393 51.2602 2.64227 51.4995C2.4206 51.7389 2.24903 52.0201 2.1377 52.3267C2.02636 52.6334 1.9775 52.9592 1.99397 53.285V53.3032C1.96822 53.641 2.01369 53.9804 2.12738 54.2995C2.24107 54.6186 2.42048 54.9103 2.654 55.1557C2.88753 55.4011 3.16993 55.5948 3.483 55.7241C3.79608 55.8535 4.13283 55.9157 4.47146 55.9067C5.12682 55.9042 5.7627 55.6835 6.27866 55.2794V53.7233H4.37289V53.0878H6.95811V55.5835C6.26575 56.1994 5.37163 56.5402 4.44496 56.5414C4.01935 56.5569 3.59518 56.4837 3.19939 56.3264C2.80359 56.1691 2.44481 55.9313 2.14589 55.6279C1.84697 55.3246 1.61445 54.9623 1.46305 54.5643C1.31164 54.1662 1.24469 53.741 1.26647 53.3157Z" fill="white"/>
<path d="M9.13038 53.3156V53.2982C9.12919 52.8789 9.21057 52.4634 9.36995 52.0755C9.52933 51.6876 9.76358 51.3349 10.0593 51.0375C10.355 50.7401 10.7063 50.5039 11.0933 50.3423C11.4803 50.1807 11.8953 50.0969 12.3146 50.0957C12.734 50.0945 13.1495 50.1759 13.5374 50.3353C13.9253 50.4947 14.2781 50.7289 14.5754 51.0246C14.8728 51.3203 15.109 51.6716 15.2706 52.0586C15.4322 52.4456 15.516 52.8607 15.5172 53.28C15.5263 53.2883 15.5263 53.2883 15.5172 53.2982C15.5195 54.1452 15.1853 54.9584 14.588 55.5589C13.9908 56.1594 13.1794 56.498 12.3325 56.5003C11.4856 56.5027 10.6724 56.1684 10.0719 55.5712C9.47135 54.9739 9.13269 54.1626 9.13038 53.3156ZM14.7839 53.3156V53.2982C14.7972 52.9649 14.7433 52.6323 14.6255 52.3202C14.5076 52.0082 14.3281 51.7231 14.0977 51.4818C13.8673 51.2406 13.5907 51.0482 13.2843 50.9161C12.978 50.784 12.6482 50.715 12.3146 50.713C11.983 50.7139 11.655 50.7819 11.3503 50.9128C11.0456 51.0437 10.7705 51.2349 10.5415 51.4748C10.3126 51.7147 10.1345 51.9985 10.0181 52.309C9.90156 52.6195 9.84902 52.9503 9.86365 53.2816V53.2999C9.85041 53.6332 9.90441 53.9656 10.0223 54.2776C10.1403 54.5896 10.3198 54.8746 10.5502 55.1157C10.7806 55.3569 11.0571 55.5492 11.3634 55.6813C11.6697 55.8133 11.9994 55.8823 12.3329 55.8843C12.6645 55.8834 12.9926 55.8154 13.2973 55.6845C13.602 55.5536 13.8771 55.3625 14.106 55.1225C14.335 54.8826 14.513 54.5988 14.6295 54.2883C14.746 53.9778 14.7985 53.6469 14.7839 53.3156Z" fill="white"/>
<path d="M17.8657 50.1679H20.5313C21.128 50.1334 21.7148 50.3321 22.1677 50.7223C22.2983 50.8541 22.4012 51.0107 22.4704 51.1829C22.5395 51.3551 22.5735 51.5393 22.5704 51.7248V51.7422C22.5763 52.0573 22.4837 52.3663 22.3054 52.6261C22.1272 52.886 21.8722 53.0836 21.5761 53.1915C22.3218 53.4152 22.9176 53.8444 22.9176 54.7028V54.7211C22.9176 55.7982 22.0145 56.4296 20.6456 56.4296H17.864L17.8657 50.1679ZM20.4144 52.9586C21.2646 52.9586 21.8554 52.5742 21.8554 51.84V51.8234C21.8554 51.2053 21.3632 50.8026 20.4683 50.8026H18.5625V52.9569L20.4144 52.9586ZM20.663 55.7949C21.6109 55.7949 22.2017 55.3731 22.2017 54.6763V54.6581C22.2017 53.9786 21.6292 53.5809 20.5371 53.5809H18.5609V55.7908L20.663 55.7949Z" fill="white"/>
<path d="M25.2393 50.166H25.946V56.4277H25.2393V50.166Z" fill="white"/>
<path d="M28.6321 50.166H33.1579V50.8107H29.3389V52.9476H32.7536V53.5914H29.3364V55.7831H33.2002V56.4277H28.6296L28.6321 50.166Z" fill="white"/>
<path d="M35.4785 50.1676H38.1715C38.8241 50.1326 39.4641 50.3576 39.9513 50.7932C40.1091 50.9572 40.233 51.1508 40.3159 51.3628C40.3988 51.5748 40.4391 51.801 40.4344 52.0286V52.046C40.4331 52.5081 40.2573 52.9528 39.9421 53.2908C39.627 53.6288 39.1958 53.8353 38.7349 53.8689L40.6581 56.4277H39.7905L37.9743 53.9941H36.1853V56.4277H35.4785V50.1676ZM38.1085 53.361C39.0481 53.361 39.7184 52.878 39.7184 52.0726V52.056C39.7184 51.287 39.1285 50.8214 38.1176 50.8214H36.1853V53.3618L38.1085 53.361Z" fill="white"/>
<path d="M42.7991 50.166H43.4619L47.4069 55.184V50.166H48.0954V56.4277H47.532L43.4884 51.2904V56.4277H42.7999L42.7991 50.166Z" fill="white"/>
<path d="M50.4419 53.3156V53.2982C50.4407 52.8789 50.5221 52.4634 50.6815 52.0755C50.8409 51.6876 51.0751 51.3349 51.3708 51.0375C51.6665 50.7401 52.0178 50.5039 52.4048 50.3423C52.7918 50.1807 53.2068 50.0969 53.6262 50.0957C54.0455 50.0945 54.461 50.1759 54.8489 50.3353C55.2368 50.4947 55.5896 50.7289 55.887 51.0246C56.1843 51.3203 56.4206 51.6716 56.5821 52.0586C56.7437 52.4456 56.8275 52.8607 56.8287 53.28C56.8379 53.2883 56.8379 53.2883 56.8287 53.2982C56.8299 53.7176 56.7484 54.1331 56.589 54.521C56.4295 54.9088 56.1953 55.2615 55.8996 55.5589C55.6038 55.8562 55.2524 56.0924 54.8654 56.254C54.4784 56.4155 54.0634 56.4992 53.644 56.5003C53.2247 56.5015 52.8091 56.42 52.4213 56.2606C52.0334 56.1012 51.6807 55.8669 51.3834 55.5712C51.086 55.2754 50.8498 54.924 50.6883 54.537C50.5268 54.15 50.4431 53.735 50.4419 53.3156ZM56.0954 53.3156V53.2982C56.1088 52.965 56.0549 52.6324 55.9371 52.3204C55.8192 52.0084 55.6398 51.7234 55.4095 51.4821C55.1792 51.2409 54.9026 51.0485 54.5964 50.9164C54.2902 50.7842 53.9605 50.7151 53.627 50.713C53.2954 50.7139 52.9674 50.7819 52.6626 50.9128C52.3579 51.0437 52.0828 51.2349 51.8539 51.4748C51.6249 51.7147 51.4469 51.9985 51.3304 52.309C51.2139 52.6195 51.1614 52.9503 51.176 53.2816V53.2999C51.1628 53.6331 51.2167 53.9655 51.3346 54.2774C51.4525 54.5893 51.632 54.8743 51.8623 55.1154C52.0926 55.3566 52.369 55.5489 52.6752 55.681C52.9814 55.8131 53.311 55.8822 53.6444 55.8843C53.9761 55.8834 54.3041 55.8154 54.6088 55.6845C54.9135 55.5536 55.1886 55.3625 55.4175 55.1225C55.6465 54.8826 55.8245 54.5988 55.941 54.2883C56.0575 53.9778 56.1101 53.6469 56.0954 53.3156Z" fill="white"/>
<path d="M62.7126 50.167H64.8861C65.3123 50.1387 65.7398 50.1983 66.142 50.3419C66.5443 50.4856 66.9128 50.7103 67.2248 51.0021C67.5367 51.2939 67.7854 51.6466 67.9556 52.0385C68.1257 52.4303 68.2135 52.8529 68.2137 53.28V53.2982C68.214 53.7263 68.1265 54.1499 67.9568 54.5429C67.7871 54.9358 67.5387 55.2899 67.2269 55.5832C66.9152 55.8765 66.5466 56.1028 66.144 56.2482C65.7414 56.3936 65.3133 56.4551 64.8861 56.4287H62.7126V50.167ZM64.8861 55.7757C65.2215 55.7994 65.558 55.7529 65.8745 55.6394C66.191 55.5259 66.4803 55.3479 66.7242 55.1165C66.9682 54.8851 67.1613 54.6055 67.2913 54.2955C67.4214 53.9855 67.4854 53.6518 67.4796 53.3156V53.2982C67.486 52.9611 67.4224 52.6264 67.2928 52.3151C67.1632 52.0038 66.9705 51.7229 66.7267 51.4899C66.483 51.257 66.1935 51.0772 65.8767 50.9618C65.5599 50.8465 65.2226 50.7982 64.8861 50.8199H63.4186V55.7757H64.8861Z" fill="white"/>
<path d="M70.561 50.166H75.0876V50.8107H71.2678V52.9476H74.685V53.5914H71.2678V55.7831H75.1324V56.4277H70.561V50.166Z" fill="white"/>
<path d="M80.9424 50.166H81.6491V55.7748H85.174V56.4277H80.9424V50.166Z" fill="white"/>
<path d="M89.6503 50.123H90.3131L93.1668 56.4295H92.4062L91.6737 54.7723H88.2648L87.5191 56.4295H86.7949L89.6503 50.123ZM91.3903 54.1392L89.9685 50.9467L88.5374 54.1392H91.3903Z" fill="white"/>
<path d="M24.0519 7.40039H23.22C23.0781 7.40039 22.9631 7.51539 22.9631 7.65726V12.1043C22.9631 12.2462 23.0781 12.3612 23.22 12.3612H24.0519C24.1938 12.3612 24.3088 12.2462 24.3088 12.1043V7.65726C24.3088 7.51539 24.1938 7.40039 24.0519 7.40039Z" fill="white"/>
<path d="M26.2165 7.40039H25.3846C25.2427 7.40039 25.1277 7.51539 25.1277 7.65726V12.1043C25.1277 12.2462 25.2427 12.3612 25.3846 12.3612H26.2165C26.3583 12.3612 26.4733 12.2462 26.4733 12.1043V7.65726C26.4733 7.51539 26.3583 7.40039 26.2165 7.40039Z" fill="white"/>
<path d="M21.8754 7.40039H21.0435C20.9016 7.40039 20.7866 7.51539 20.7866 7.65726V12.1043C20.7866 12.2462 20.9016 12.3612 21.0435 12.3612H21.8754C22.0173 12.3612 22.1323 12.2462 22.1323 12.1043V7.65726C22.1323 7.51539 22.0173 7.40039 21.8754 7.40039Z" fill="white"/>
<path d="M27.9041 6.42383H19.3488C19.2701 6.42383 19.2063 6.48764 19.2063 6.56635V6.89447C19.2063 6.97318 19.2701 7.03699 19.3488 7.03699H27.9041C27.9828 7.03699 28.0466 6.97318 28.0466 6.89447V6.56635C28.0466 6.48764 27.9828 6.42383 27.9041 6.42383Z" fill="white"/>
<path d="M31.7867 14.946C32.066 15.1523 32.3858 15.3984 32.7388 15.6917C33.4888 16.3215 34.1986 16.9976 34.8641 17.716C36.6031 19.6027 38.041 21.746 39.1273 24.0705C39.6571 25.1461 40.1117 26.2572 40.4878 27.3957C40.8938 28.536 41.2208 29.703 41.4664 30.8882C41.8807 32.9514 42.0879 35.2648 42.0879 35.2648H45.2547L45.249 35.2135L45.3724 35.2599V35.2375C45.2045 30.6772 43.7208 26.2628 41.1005 22.5267C38.4801 18.7905 34.8349 15.8922 30.6043 14.1812L30.572 14.168C30.8124 14.2983 31.0458 14.441 31.2714 14.5955C31.428 14.6974 31.6036 14.8192 31.7867 14.946Z" fill="white"/>
<path d="M39.9499 35.1969C39.9292 34.9599 39.8944 34.7288 39.867 34.4934C39.6489 31.8211 39.0389 29.1953 38.0565 26.7005C37.7443 25.9221 37.3845 25.1636 36.9793 24.4293C36.865 24.2247 36.7448 24.0308 36.6272 23.8336C34.6474 19.9148 31.4185 16.7672 27.4505 14.888L27.4355 14.8789L27.4621 14.9137C28.2238 15.6813 28.9026 16.527 29.4872 17.4368C32.0259 21.4393 33.5719 25.9902 33.9964 30.7109C34.1312 31.8746 34.1979 33.0452 34.1961 34.2167C34.2069 34.5283 34.2185 35.0362 34.2226 35.211L34.2102 35.2748H34.8689L39.9308 35.2599V35.2557H39.9582L39.9499 35.1969Z" fill="white"/>
<path d="M26.9463 5.97352C26.9566 5.09178 26.6223 4.24082 26.0145 3.60193C25.4067 2.96304 24.5735 2.58671 23.6924 2.55308V1.99377H24.5914V1.89682V1.56538C24.5912 1.5574 24.5878 1.54981 24.5821 1.54424C24.5764 1.53867 24.5687 1.53557 24.5607 1.53557H24.4273C24.4194 1.53557 24.4117 1.53867 24.4059 1.54424C24.4002 1.54981 24.3969 1.5574 24.3966 1.56538V1.89186H23.6899V0.612502H23.7089C23.7191 0.612502 23.7288 0.608473 23.7359 0.601325C23.743 0.594177 23.747 0.584504 23.747 0.574395V0.220582C23.747 0.210396 23.7431 0.200603 23.7359 0.193323C23.7288 0.186043 23.7191 0.181857 23.7089 0.181641H23.5557C23.5506 0.181639 23.5455 0.182632 23.5408 0.184599C23.5362 0.186566 23.5319 0.189468 23.5284 0.193096C23.5248 0.196723 23.5221 0.201018 23.5202 0.205739C23.5183 0.210459 23.5174 0.215508 23.5175 0.220582V0.574395C23.5174 0.579431 23.5183 0.584436 23.5202 0.589112C23.5221 0.593787 23.5249 0.598016 23.5284 0.601578C23.532 0.60514 23.5363 0.607946 23.5409 0.609821C23.5456 0.611697 23.5506 0.612615 23.5557 0.612502H23.578V1.89186H22.8621V1.56538C22.8619 1.5574 22.8586 1.54981 22.8528 1.54424C22.8471 1.53867 22.8394 1.53557 22.8314 1.53557H22.698C22.694 1.53546 22.6901 1.53614 22.6863 1.53759C22.6826 1.53904 22.6792 1.54121 22.6764 1.54399C22.6735 1.54677 22.6713 1.5501 22.6697 1.55378C22.6682 1.55745 22.6674 1.5614 22.6674 1.56538V1.89682V1.9946H23.5788V2.55473C22.6955 2.58839 21.8605 2.96632 21.2523 3.60769C20.6441 4.24906 20.3109 5.10296 20.3241 5.98677V6.00253H26.9446L26.9463 5.97352Z" fill="white"/>
<path d="M27.9041 12.8848H19.3488C19.2701 12.8848 19.2063 12.9486 19.2063 13.0273V13.3554C19.2063 13.4341 19.2701 13.4979 19.3488 13.4979H27.9041C27.9828 13.4979 28.0466 13.4341 28.0466 13.3554V13.0273C28.0466 12.9486 27.9828 12.8848 27.9041 12.8848Z" fill="white"/>
<path d="M24.8458 15.3611L24.7546 15.2832V35.2607L32.0827 35.2863C32.0827 35.2863 32.0827 35.0792 32.0827 34.9756C32.0827 26.4543 29.1478 19.0633 24.8458 15.3611Z" fill="white"/>
<path d="M41.9299 38.3223H39.9934C39.8516 38.3223 39.7366 38.4373 39.7366 38.5791V40.5139C39.7366 40.6558 39.8516 40.7708 39.9934 40.7708H41.9299C42.0717 40.7708 42.1867 40.6558 42.1867 40.5139V38.5791C42.1867 38.4373 42.0717 38.3223 41.9299 38.3223Z" fill="white"/>
<path d="M15.1194 38.3184H13.1822C13.0403 38.3184 12.9253 38.4334 12.9253 38.5752V40.5125C12.9253 40.6543 13.0403 40.7693 13.1822 40.7693H15.1194C15.2613 40.7693 15.3763 40.6543 15.3763 40.5125V38.5752C15.3763 38.4334 15.2613 38.3184 15.1194 38.3184Z" fill="white"/>
<path d="M34.102 38.3223H32.1656C32.0237 38.3223 31.9087 38.4373 31.9087 38.5791V40.5139C31.9087 40.6558 32.0237 40.7708 32.1656 40.7708H34.102C34.2438 40.7708 34.3589 40.6558 34.3589 40.5139V38.5791C34.3589 38.4373 34.2438 38.3223 34.102 38.3223Z" fill="white"/>
<path d="M24.6104 38.3184H22.6731C22.5313 38.3184 22.4163 38.4334 22.4163 38.5752V40.5125C22.4163 40.6543 22.5313 40.7693 22.6731 40.7693H24.6104C24.7522 40.7693 24.8672 40.6543 24.8672 40.5125V38.5752C24.8672 38.4334 24.7522 38.3184 24.6104 38.3184Z" fill="white"/>
<path d="M46.4979 36.8932H46.3868H42.19V36.164C42.19 36.1071 42.1674 36.0525 42.1271 36.0123C42.0869 35.972 42.0323 35.9494 41.9754 35.9494H39.9553C39.8984 35.9494 39.8438 35.972 39.8035 36.0123C39.7633 36.0525 39.7407 36.1071 39.7407 36.164V36.8932H34.3631V36.164C34.3631 36.1358 34.3575 36.1078 34.3467 36.0817C34.3358 36.0556 34.3199 36.0319 34.2999 36.012C34.2799 35.992 34.2561 35.9763 34.23 35.9655C34.2039 35.9548 34.1759 35.9493 34.1476 35.9494H32.1275C32.0706 35.9494 32.016 35.972 31.9758 36.0123C31.9356 36.0525 31.9129 36.1071 31.9129 36.164V36.8932H24.8699V36.1599C24.8699 36.103 24.8472 36.0484 24.807 36.0081C24.7668 35.9679 24.7121 35.9453 24.6552 35.9453H22.6343C22.5774 35.9453 22.5228 35.9679 22.4825 36.0081C22.4423 36.0484 22.4197 36.103 22.4197 36.1599V36.8932H15.3766V36.1599C15.3766 36.103 15.354 36.0484 15.3137 36.0081C15.2735 35.9679 15.2189 35.9453 15.162 35.9453H13.1411C13.0841 35.9453 13.0296 35.9679 12.9893 36.0081C12.9491 36.0484 12.9265 36.103 12.9265 36.1599V36.8932H7.54722V36.1599C7.54722 36.1316 7.54162 36.1037 7.53078 36.0776C7.51994 36.0515 7.50407 36.0278 7.48405 36.0079C7.46404 35.9879 7.44029 35.9721 7.41416 35.9614C7.38803 35.9507 7.36003 35.9452 7.33177 35.9453H5.31167C5.25467 35.9453 5.19997 35.9679 5.15959 36.0081C5.11921 36.0483 5.09644 36.1029 5.09622 36.1599V36.8932H0.918444H0.802428C0.783712 36.8932 0.765201 36.8969 0.74791 36.904C0.730619 36.9112 0.714869 36.9217 0.701635 36.9349C0.688401 36.9482 0.677897 36.9639 0.670735 36.9812C0.663573 36.9985 0.659912 37.017 0.659912 37.0357V37.4202C0.659912 37.458 0.674908 37.4943 0.701635 37.521C0.728363 37.5477 0.76463 37.5627 0.802428 37.5627H46.5028C46.5407 37.5627 46.5771 37.5477 46.6039 37.521C46.6308 37.4943 46.646 37.4581 46.6462 37.4202V37.0357C46.6461 37.0165 46.6422 36.9976 46.6346 36.9799C46.627 36.9623 46.616 36.9464 46.6022 36.9331C46.5883 36.9198 46.572 36.9094 46.5541 36.9026C46.5362 36.8957 46.5171 36.8925 46.4979 36.8932Z" fill="white"/>
<path d="M7.28983 38.3184H5.35257C5.21071 38.3184 5.0957 38.4334 5.0957 38.5752V40.5125C5.0957 40.6543 5.21071 40.7693 5.35257 40.7693H7.28983C7.43169 40.7693 7.54669 40.6543 7.54669 40.5125V38.5752C7.54669 38.4334 7.43169 38.3184 7.28983 38.3184Z" fill="white"/>
<path d="M22.5433 35.2704V15.2871L22.4522 15.3642C18.1501 19.0672 15.2161 26.4673 15.2161 34.9845C15.2161 35.0889 15.2161 35.2952 15.2161 35.2952L22.5433 35.2704Z" fill="white"/>
<path d="M2.04298 35.2706H3.23202L4.34812 35.2747V35.2706H5.20904C5.20904 35.2706 5.41784 32.9563 5.83048 30.8915C6.34511 28.536 7.12975 26.2478 8.1688 24.0721C9.25511 21.7472 10.6933 19.6036 12.4328 17.7168C13.0978 16.9979 13.8073 16.3215 14.5573 15.6917C14.9094 15.4009 15.2293 15.1556 15.5085 14.9459C15.6924 14.8183 15.8698 14.6974 16.0256 14.5897C16.2511 14.4351 16.4845 14.2924 16.7249 14.1621L16.6926 14.1754C12.4619 15.8884 8.81707 18.7888 6.1976 22.5266C3.57812 26.2645 2.09582 30.6803 1.92944 35.2416V35.2656H2.04713L2.04298 35.2706Z" fill="white"/>
<path d="M17.8097 17.4462C18.3937 16.536 19.0722 15.69 19.8339 14.9223L19.8604 14.8867L19.8463 14.8958C15.8773 16.7758 12.6478 19.9246 10.668 23.8447C10.5503 24.0419 10.4302 24.2358 10.3158 24.4404C9.91243 25.175 9.55405 25.9335 9.24276 26.7116C8.25818 29.2075 7.64648 31.8347 7.42732 34.5087C7.4008 34.744 7.36602 34.976 7.34448 35.213L7.34033 35.2677H7.36683L12.2705 35.2826H13.0866L13.0742 35.218C13.0784 35.0465 13.0899 34.5377 13.1007 34.2237C13.0996 33.0519 13.1663 31.8811 13.3004 30.7171C13.7255 25.9975 15.2714 21.4477 17.8097 17.4462Z" fill="white"/>
<path d="M46.3836 41.3457H0.911894C0.770032 41.3457 0.655029 41.4607 0.655029 41.6026V42.6773C0.655029 42.8191 0.770032 42.9341 0.911894 42.9341H46.3836C46.5255 42.9341 46.6405 42.8191 46.6405 42.6773V41.6026C46.6405 41.4607 46.5255 41.3457 46.3836 41.3457Z" fill="white"/>
<path d="M46.4251 80.8178H0.686523V78.332H46.4251" fill="white"/>
</svg>
