<svg width="105" height="52" viewBox="0 0 105 52" fill="none" xmlns="http://www.w3.org/2000/svg">
    <g clip-path="url(#clip0_3076_18639)">
        <path
            d="M59.2112 26.3494V31.5684C59.2112 32.0503 59.3251 32.4245 59.5464 32.6908C59.7678 32.9572 60.1094 33.084 60.5711 33.084C61.0329 33.084 61.3745 32.9508 61.6085 32.6845C61.8425 32.4182 61.9564 32.044 61.9564 31.5684V26.3494H64.4486V31.5684C64.4486 32.3928 64.2714 33.0967 63.9299 33.6801C63.582 34.2635 63.1076 34.7011 62.513 34.9928C61.9121 35.2845 61.2543 35.4303 60.5205 35.4303C59.7868 35.4303 59.1416 35.2845 58.566 34.9928C57.9904 34.7011 57.5413 34.2635 57.2187 33.6864C56.8898 33.1094 56.7317 32.4055 56.7317 31.5684V26.3494H59.2112ZM61.7983 26.0957L59.2871 26.4889V25.1508L61.7983 24.6055V26.0957Z"
            fill="#E30238" />
        <path
            d="M74.1389 35.3399H71.6467L68.3259 30.3111V35.3399H65.8337V26.3477H68.3259L71.6467 31.4399V26.3477H74.1389V35.3399Z"
            fill="#E30238" />
        <path d="M78.0605 26.3477V35.3399H75.5684V26.3477H78.0605Z" fill="#E30238" />
        <path
            d="M79.7305 28.4622C80.0973 27.771 80.6223 27.232 81.2991 26.8451C81.9759 26.4583 82.7603 26.2617 83.6395 26.2617C84.7591 26.2617 85.7015 26.5598 86.4669 27.1622C87.2323 27.7646 87.7193 28.5764 87.9407 29.6037H85.2588C85.1006 29.2612 84.8729 29.0012 84.5883 28.8237C84.3036 28.6461 83.9747 28.5573 83.6015 28.5573C83.0259 28.5573 82.5642 28.7666 82.2226 29.1788C81.8811 29.591 81.7103 30.1427 81.7103 30.8339C81.7103 31.5251 81.8811 32.0832 82.2226 32.4954C82.5642 32.9076 83.0259 33.1168 83.6015 33.1168C83.9747 33.1168 84.3036 33.0281 84.5883 32.8505C84.8729 32.6729 85.0943 32.4129 85.2588 32.0705H87.9407C87.7193 33.0978 87.2259 33.9159 86.4669 34.512C85.7015 35.1144 84.7591 35.4125 83.6395 35.4125C82.7539 35.4125 81.9759 35.2222 81.2991 34.829C80.6223 34.4422 80.0973 33.9032 79.7305 33.212C79.3636 32.5207 79.1738 31.7281 79.1738 30.8339C79.1738 29.9398 79.3573 29.1598 79.7305 28.4685V28.4622Z"
            fill="#E30238" />
        <path
            d="M94.8037 33.875H91.6221L91.1414 35.3399H88.5227L91.7929 26.3477H94.6709L97.9284 35.3399H95.2971L94.8164 33.875H94.8037ZM94.1775 31.9599L93.2098 29.0491L92.2546 31.9599H94.1775Z"
            fill="#E30238" />
        <path
            d="M57.6551 19.5325C57.8765 19.1457 58.1738 18.8476 58.5533 18.632C58.9328 18.4164 59.3629 18.3086 59.831 18.3086C60.3813 18.3086 60.8684 18.4481 61.2858 18.7335C61.7033 19.0188 61.9943 19.412 62.1587 19.913H61.0202C60.9063 19.6783 60.7482 19.5008 60.5394 19.3803C60.3307 19.2598 60.0967 19.2027 59.8247 19.2027C59.5337 19.2027 59.2807 19.2725 59.053 19.4057C58.8253 19.5388 58.6545 19.7291 58.528 19.9764C58.4015 20.2237 58.3382 20.5091 58.3382 20.8452C58.3382 21.1813 58.4015 21.4603 58.528 21.7076C58.6545 21.9549 58.8253 22.1452 59.053 22.2847C59.2807 22.4242 59.5337 22.4876 59.8247 22.4876C60.0967 22.4876 60.3307 22.4242 60.5394 22.3037C60.7419 22.1832 60.9063 22.0057 61.0202 21.7647H62.1587C61.9943 22.272 61.7033 22.6652 61.2922 22.9505C60.881 23.2359 60.394 23.3754 59.8373 23.3754C59.3629 23.3754 58.9391 23.2676 58.5596 23.052C58.1801 22.8364 57.8765 22.5383 57.6614 22.1515C57.4401 21.7647 57.3325 21.3335 57.3325 20.8452C57.3325 20.3569 57.4401 19.9193 57.6614 19.5325H57.6551Z"
            fill="#003876" />
        <path
            d="M66.1183 18.3711V21.4404C66.1183 21.7765 66.2069 22.0365 66.384 22.214C66.5611 22.3916 66.8015 22.4804 67.1177 22.4804C67.434 22.4804 67.687 22.3916 67.8641 22.214C68.0412 22.0365 68.1234 21.7765 68.1234 21.4404V18.3711H69.1228V21.434C69.1228 21.8589 69.0343 22.214 68.8509 22.5057C68.6674 22.7974 68.4271 23.0194 68.1234 23.1652C67.8198 23.3111 67.4783 23.3872 67.1051 23.3872C66.7319 23.3872 66.403 23.3111 66.0993 23.1652C65.8021 23.0194 65.5617 22.7974 65.3846 22.5057C65.2075 22.214 65.1252 21.8589 65.1252 21.434V18.3711H66.1183Z"
            fill="#003876" />
        <path
            d="M73.1964 19.1789V20.4218H74.86V21.2082H73.1964V22.5208H75.0751V23.3326H72.2034V18.3672H75.0751V19.1789H73.1964Z"
            fill="#003876" />
        <path
            d="M82.33 23.3326H81.3369L79.0915 19.9272V23.3326H78.0984V18.3672H79.0915L81.3369 21.7789V18.3672H82.33V23.3326Z"
            fill="#003876" />
        <path
            d="M88.8009 18.3711V19.1765H87.4852V23.3301H86.4922V19.1765H85.1765V18.3711H88.8072H88.8009Z"
            fill="#003876" />
        <path
            d="M94.6835 22.3877H92.7163L92.3874 23.3326H91.3438L93.1212 18.3672H94.2787L96.0561 23.3326H95.0061L94.6772 22.3877H94.6835ZM94.4115 21.595L93.6968 19.5213L92.982 21.595H94.4115Z"
            fill="#003876" />
        <path
            d="M95.1895 0H7.47651C4.55422 2.92341 2.91596 4.56585 0 7.49561V52H95.1895C100.604 52 105 47.5927 105 42.1644V9.83561C105 4.40098 100.604 0 95.1895 0ZM101.837 42.1644C101.837 45.8361 98.8518 48.8293 95.1895 48.8293H51.8675V3.17073H95.1895C98.8518 3.17073 101.837 6.15756 101.837 9.83561V42.1644Z"
            fill="#003876" />
        <path
            d="M25.0418 42.9828C16.7367 42.6657 10.2849 35.5633 10.2849 27.2242V23.0262C10.2849 21.5423 11.4804 20.3438 12.9605 20.3438H38.3123C39.7924 20.3438 40.9879 21.5423 40.9879 23.0262V27.5984C40.9879 36.2798 33.7771 43.3062 25.0418 42.9764V42.9828ZM15.6298 25.7086V27.313C15.6298 32.7033 19.7539 37.3516 25.1241 37.6179C30.8674 37.9033 35.6304 33.2994 35.6304 27.6047V25.7086H15.6298Z"
            fill="white" />
        <path
            d="M23.9728 15.7299H14.2066C12.4798 15.7299 10.9427 14.4679 10.7783 12.743C10.5885 10.7708 12.1319 9.10938 14.0674 9.10938H23.8337C25.5605 9.10938 27.0975 10.3713 27.262 12.0962C27.4518 14.0684 25.9084 15.7299 23.9728 15.7299Z"
            fill="white" />
        <path
            d="M35.118 16.1402C37.1686 16.1402 38.8309 14.4736 38.8309 12.4178C38.8309 10.3619 37.1686 8.69531 35.118 8.69531C33.0674 8.69531 31.405 10.3619 31.405 12.4178C31.405 14.4736 33.0674 16.1402 35.118 16.1402Z"
            fill="#73B5E3" />
    </g>
    <defs>
        <clipPath id="clip0_3076_18639">
            <rect width="105" height="52" fill="white" />
        </clipPath>
    </defs>
</svg>