<svg width="596" height="350" viewBox="0 0 596 350" fill="none" xmlns="http://www.w3.org/2000/svg">
<g clip-path="url(#clip0_0_1)">
<path d="M134 134V268H0V154.664L20.664 134H134Z" fill="#6DB0E2"/>
<path d="M134 0V134H0V20.664L20.664 0H134Z" fill="#1B3F7E"/>
<path d="M268 0V134H134V20.664L154.664 0H268Z" fill="#E30238"/>
</g>
<path d="M582.3 325.499H65.857C65.6316 325.499 65.4154 325.409 65.256 325.25C65.0966 325.09 65.007 324.874 65.007 324.649C65.007 324.423 65.0966 324.207 65.256 324.048C65.4154 323.888 65.6316 323.799 65.857 323.799H582.3C582.526 323.799 582.742 323.888 582.901 324.048C583.061 324.207 583.15 324.423 583.15 324.649C583.15 324.874 583.061 325.09 582.901 325.25C582.742 325.409 582.526 325.499 582.3 325.499Z" fill="#D1D3D4"/>
<path d="M395.555 47.584H88.926C75.1713 47.584 64.021 58.7343 64.021 72.489V268.397C64.021 282.152 75.1713 293.302 88.926 293.302H395.555C409.31 293.302 420.46 282.152 420.46 268.397V72.489C420.46 58.7343 409.31 47.584 395.555 47.584Z" fill="white"/>
<path d="M395.555 294.151H88.926C82.0981 294.142 75.5525 291.426 70.7244 286.598C65.8964 281.77 63.18 275.224 63.171 268.396V72.4712C63.171 65.639 65.8839 59.0864 70.7135 54.2537C75.543 49.421 82.0938 46.7037 88.926 46.6992H395.555C402.387 46.7037 408.938 49.421 413.768 54.2537C418.597 59.0864 421.31 65.639 421.31 72.4712V268.396C421.301 275.224 418.585 281.77 413.757 286.598C408.929 291.426 402.383 294.142 395.555 294.151ZM88.926 48.3992C82.5447 48.4037 76.4262 50.9419 71.9155 55.4558C67.4048 59.9696 64.871 66.0899 64.871 72.4712V268.396C64.88 274.773 67.4173 280.887 71.9265 285.396C76.4357 289.905 82.549 292.442 88.926 292.451H395.555C401.932 292.442 408.045 289.905 412.555 285.396C417.064 280.887 419.601 274.773 419.61 268.396V72.4712C419.61 66.0899 417.076 59.9696 412.566 55.4558C408.055 50.9419 401.936 48.4037 395.555 48.3992H88.926Z" fill="#1B3F7E"/>
<path d="M421.072 248.456H65.126C64.9006 248.456 64.6844 248.366 64.525 248.207C64.3656 248.048 64.276 247.831 64.276 247.606C64.276 247.38 64.3656 247.164 64.525 247.005C64.6844 246.845 64.9006 246.756 65.126 246.756H421.072C421.297 246.756 421.514 246.845 421.673 247.005C421.832 247.164 421.922 247.38 421.922 247.606C421.922 247.831 421.832 248.048 421.673 248.207C421.514 248.366 421.297 248.456 421.072 248.456Z" fill="#1B3F7E"/>
<path d="M242.3 277.712C240.439 277.716 238.619 277.167 237.071 276.135C235.522 275.103 234.315 273.635 233.601 271.917C232.887 270.198 232.7 268.306 233.062 266.481C233.424 264.656 234.32 262.979 235.636 261.664C236.951 260.348 238.628 259.452 240.453 259.09C242.278 258.728 244.17 258.915 245.888 259.629C247.607 260.343 249.075 261.55 250.107 263.099C251.138 264.647 251.687 266.467 251.684 268.328C251.68 270.816 250.689 273.2 248.931 274.959C247.172 276.718 244.787 277.708 242.3 277.712ZM242.3 260.712C240.776 260.709 239.286 261.158 238.017 262.002C236.748 262.846 235.759 264.047 235.173 265.454C234.588 266.861 234.433 268.41 234.728 269.905C235.023 271.4 235.755 272.774 236.832 273.853C237.908 274.931 239.28 275.666 240.774 275.965C242.269 276.263 243.818 276.112 245.226 275.53C246.634 274.947 247.838 273.96 248.685 272.693C249.532 271.427 249.984 269.937 249.984 268.413C249.995 267.396 249.805 266.387 249.424 265.444C249.043 264.501 248.479 263.643 247.765 262.919C247.05 262.195 246.2 261.62 245.262 261.226C244.324 260.833 243.317 260.629 242.3 260.627V260.712Z" fill="#D1D3D4"/>
<path d="M306.781 333.133H177.7C173.775 333.133 170.594 336.314 170.594 340.239V341.31C170.594 345.234 173.775 348.416 177.7 348.416H306.781C310.706 348.416 313.887 345.234 313.887 341.31V340.239C313.887 336.314 310.706 333.133 306.781 333.133Z" fill="white"/>
<path d="M306.781 349.299H177.7C175.593 349.299 173.572 348.463 172.08 346.975C170.589 345.486 169.749 343.467 169.744 341.36V340.272C169.744 338.16 170.582 336.135 172.073 334.64C173.565 333.145 175.588 332.303 177.7 332.299H306.781C308.89 332.303 310.911 333.143 312.402 334.634C313.893 336.125 314.733 338.146 314.737 340.255V341.343C314.737 343.453 313.899 345.477 312.407 346.969C310.915 348.461 308.891 349.299 306.781 349.299ZM177.7 333.999C176.041 333.999 174.45 334.658 173.276 335.831C172.103 337.004 171.444 338.596 171.444 340.255V341.343C171.444 343.002 172.103 344.593 173.276 345.766C174.45 346.94 176.041 347.599 177.7 347.599H306.781C308.437 347.599 310.026 346.942 311.199 345.773C312.371 344.603 313.033 343.016 313.037 341.36V340.272C313.037 338.613 312.378 337.021 311.205 335.848C310.031 334.675 308.44 334.016 306.781 334.016L177.7 333.999Z" fill="#1B3F7E"/>
<path d="M291.107 333.387H193.374L200.089 293.301H284.392L291.107 333.387Z" fill="white"/>
<path d="M291.107 334.237H193.374C193.25 334.241 193.126 334.216 193.014 334.162C192.902 334.109 192.804 334.03 192.728 333.931C192.649 333.838 192.591 333.729 192.559 333.612C192.527 333.494 192.521 333.371 192.541 333.251L199.341 293.165C199.373 292.967 199.474 292.786 199.627 292.656C199.779 292.525 199.973 292.453 200.174 292.451H284.477C284.678 292.453 284.872 292.525 285.024 292.656C285.177 292.786 285.278 292.967 285.31 293.165L292.11 333.251C292.127 333.371 292.119 333.494 292.087 333.611C292.055 333.728 291.999 333.837 291.923 333.931C291.827 334.051 291.701 334.143 291.557 334.197C291.414 334.251 291.258 334.265 291.107 334.237ZM194.377 332.537H290.104L283.678 294.151H200.82L194.377 332.537Z" fill="#1B3F7E"/>
<path d="M196.74 313.344L285.735 301.257L284.392 293.301H200.089L196.74 313.344Z" fill="#1B3F7E"/>
<path d="M196.74 314.194C196.51 314.194 196.29 314.102 196.128 313.939C196.037 313.843 195.969 313.727 195.931 313.6C195.892 313.473 195.884 313.339 195.907 313.208L199.307 293.165C199.339 292.967 199.44 292.786 199.593 292.656C199.745 292.525 199.939 292.453 200.14 292.451H284.443C284.644 292.453 284.838 292.525 284.99 292.656C285.143 292.786 285.244 292.967 285.276 293.165L286.619 301.121C286.654 301.348 286.599 301.58 286.466 301.767C286.397 301.858 286.31 301.933 286.21 301.989C286.111 302.044 286.001 302.079 285.888 302.09L196.893 314.177L196.74 314.194ZM200.803 294.151L197.76 312.358L284.749 300.458L283.678 294.066L200.803 294.151Z" fill="#1B3F7E"/>
<path d="M270.758 99.2637H213.74C207.985 99.2637 203.319 103.929 203.319 109.685V138.5C203.319 144.255 207.985 148.921 213.74 148.921H270.758C276.513 148.921 281.179 144.255 281.179 138.5V109.685C281.179 103.929 276.513 99.2637 270.758 99.2637Z" fill="#6DB0E2"/>
<path d="M261.697 111.52H222.784C221.983 111.52 221.189 111.363 220.449 111.056C219.708 110.749 219.035 110.3 218.469 109.733C217.902 109.166 217.452 108.493 217.146 107.753C216.839 107.013 216.681 106.219 216.681 105.417V89.9645C216.681 83.1834 219.375 76.6801 224.17 71.8852C228.965 67.0902 235.468 64.3965 242.249 64.3965C249.03 64.3965 255.533 67.0902 260.328 71.8852C265.123 76.6801 267.817 83.1834 267.817 89.9645V105.417C267.813 107.038 267.166 108.59 266.019 109.734C264.871 110.878 263.317 111.52 261.697 111.52ZM228.904 99.2975H255.577V89.9645C255.641 88.173 255.343 86.3871 254.702 84.7132C254.061 83.0393 253.089 81.5118 251.844 80.2218C250.599 78.9318 249.107 77.9059 247.457 77.2051C245.807 76.5044 244.033 76.1432 242.241 76.1432C240.448 76.1432 238.674 76.5044 237.024 77.2051C235.374 77.9059 233.882 78.9318 232.637 80.2218C231.393 81.5118 230.421 83.0393 229.779 84.7132C229.138 86.3871 228.84 88.173 228.904 89.9645V99.2975Z" fill="#6DB0E2"/>
<path d="M242.249 123.828C246.371 123.828 249.712 120.487 249.712 116.365C249.712 112.244 246.371 108.902 242.249 108.902C238.127 108.902 234.786 112.244 234.786 116.365C234.786 120.487 238.127 123.828 242.249 123.828Z" fill="#1B3F7E"/>
<path d="M244.323 117.793H240.158V135.15H244.323V117.793Z" fill="#1B3F7E"/>
<path d="M362.456 222.292H122.042C114.377 222.292 107.026 219.247 101.607 213.828C96.1868 208.408 93.142 201.057 93.142 193.392C93.142 185.727 96.1868 178.377 101.607 172.957C107.026 167.537 114.377 164.492 122.042 164.492H362.456C370.121 164.492 377.472 167.537 382.891 172.957C388.311 178.377 391.356 185.727 391.356 193.392C391.356 201.057 388.311 208.408 382.891 213.828C377.472 219.247 370.121 222.292 362.456 222.292ZM122.042 166.192C114.828 166.192 107.91 169.058 102.809 174.159C97.7077 179.26 94.842 186.178 94.842 193.392C94.842 200.606 97.7077 207.525 102.809 212.626C107.91 217.727 114.828 220.592 122.042 220.592H362.456C369.67 220.592 376.588 217.727 381.689 212.626C386.79 207.525 389.656 200.606 389.656 193.392C389.656 186.178 386.79 179.26 381.689 174.159C376.588 169.058 369.67 166.192 362.456 166.192H122.042Z" fill="#D1D3D4"/>
<path d="M193 195.585L196.672 200.43L192.592 203.269L188.937 198.339L185.35 203.099L181.372 200.243L185.044 195.534L179.196 193.596L180.777 189.057L186.54 191.046V185.164H191.504V191.046L197.267 189.244L198.797 193.766L193 195.585Z" fill="black"/>
<path d="M219.588 195.585L223.26 200.43L219.18 203.269L215.508 198.339L211.938 203.099L207.96 200.243L211.615 195.534L205.784 193.596L207.365 189.057L213.111 191.046V185.164H218.092V191.046L223.838 189.244L225.385 193.766L219.588 195.585Z" fill="black"/>
<path d="M246.261 195.585L249.916 200.43L245.853 203.269L242.181 198.339L238.594 203.099L234.616 200.243L238.288 195.534L232.44 193.596L234.021 189.057L239.784 191.046V185.164H244.765V191.046L250.511 189.244L252.041 193.766L246.261 195.585Z" fill="black"/>
<path d="M272.9 195.585L276.572 200.43L272.492 203.269L268.82 198.339L265.25 203.099L261.272 200.243L264.927 195.534L259.096 193.596L260.677 189.057L266.423 191.046V185.164H271.404V191.046L277.15 189.244L278.697 193.766L272.9 195.585Z" fill="black"/>
<path d="M299.59 195.585L303.245 200.43L299.182 203.269L295.51 198.339L291.923 203.099L287.945 200.243L291.617 195.534L285.769 193.596L287.35 189.057L293.113 191.046V185.164H298.094V191.046L303.84 189.244L305.37 193.766L299.59 195.585Z" fill="black"/>
<path d="M561.9 314.942L580.26 229.806L586.38 187.476C586.38 187.476 541.619 140.199 528.886 124.899C516.153 109.599 501.975 87.4988 495.073 88.8758C488.171 90.2528 486.573 97.9708 490.721 107.729C492.421 111.741 495.056 116.229 496.178 120.343C497.096 123.743 496.433 133.059 493.135 135.303C489.174 137.989 485.978 124.219 480.997 126.463C478.379 127.653 475.591 134.164 477.597 141.338C478.804 144.784 480.347 148.104 482.204 151.249C486.012 157.862 485.893 161.925 488.222 169.116C490.551 176.307 490.296 166.617 487.576 173.23C484.295 181.254 479.722 190.604 479.229 199.41C478.447 213.486 494.529 236.912 501.193 248.285C507.857 259.658 493.424 290.972 493.424 290.972L561.9 314.942Z" fill="white"/>
<path d="M561.9 315.792C561.81 315.81 561.718 315.81 561.628 315.792L493.016 291.738C492.905 291.697 492.804 291.633 492.719 291.551C492.635 291.469 492.568 291.371 492.523 291.262C492.473 291.155 492.447 291.039 492.447 290.922C492.447 290.804 492.473 290.688 492.523 290.582C492.676 290.276 506.633 259.539 500.343 248.676C499.255 246.806 497.912 244.613 496.45 242.199C488.936 229.925 477.597 211.361 478.277 199.342C478.685 191.743 482.085 183.737 485.077 176.682C485.621 175.39 486.165 174.115 486.675 172.874C486.952 172.123 487.33 171.414 487.797 170.765C487.627 170.357 487.474 169.882 487.287 169.338C486.505 166.89 485.995 164.833 485.587 162.861C484.798 158.925 483.393 155.138 481.422 151.641C479.538 148.397 477.967 144.982 476.73 141.441C474.656 133.774 477.665 126.923 480.657 125.579C483.649 124.236 486.25 127.619 488.341 130.68C489.08 131.905 489.952 133.046 490.942 134.079C491.86 134.93 492.319 134.725 492.642 134.487C495.481 132.566 496.212 123.693 495.328 120.479C494.443 117.657 493.305 114.92 491.928 112.302C491.231 110.857 490.517 109.378 489.922 107.967C487.236 101.609 486.845 96.0675 488.851 92.2765C489.461 91.141 490.321 90.1591 491.367 89.4051C492.413 88.6511 493.616 88.1448 494.886 87.9245C500.564 86.8195 509.489 98.4305 519.808 111.894C523.021 116.076 526.336 120.395 529.532 124.254C542.095 139.554 586.584 186.388 587.026 186.864C587.117 186.958 587.185 187.071 587.227 187.194C587.268 187.318 587.281 187.449 587.264 187.578L581.127 229.909L562.767 315.096C562.741 315.214 562.69 315.326 562.617 315.423C562.543 315.52 562.45 315.6 562.342 315.657C562.215 315.752 562.059 315.8 561.9 315.792ZM494.461 290.395L561.271 313.821L579.427 229.637L585.53 187.799C581.688 183.754 540.31 140.03 528.24 125.41C525.027 121.517 521.695 117.181 518.482 112.999C509.336 101.099 499.867 88.7745 495.243 89.6755C494.221 89.8219 493.247 90.2057 492.4 90.7961C491.553 91.3865 490.855 92.1672 490.364 93.0755C488.664 96.3395 489.055 101.575 491.503 107.304C492.081 108.664 492.761 110.075 493.475 111.554C494.903 114.276 496.08 117.121 496.994 120.055C497.929 123.454 497.368 133.382 493.594 135.932C493.002 136.335 492.281 136.501 491.572 136.398C490.864 136.294 490.22 135.927 489.769 135.372C488.677 134.259 487.713 133.028 486.896 131.699C484.754 128.554 483.105 126.361 481.32 127.177C479.212 128.129 476.458 134.13 478.345 141.049C479.526 144.428 481.04 147.679 482.867 150.757C484.91 154.395 486.373 158.329 487.202 162.419C487.678 164.374 488.171 166.396 488.902 168.776C489.055 169.235 489.191 169.61 489.293 169.899H489.429C489.775 170.023 490.071 170.255 490.273 170.562C490.475 170.868 490.573 171.232 490.551 171.599C490.571 171.862 490.492 172.124 490.328 172.332C490.164 172.54 489.928 172.679 489.667 172.721C489.515 172.752 489.358 172.748 489.208 172.71C489.058 172.672 488.918 172.6 488.8 172.5C488.617 172.839 488.458 173.191 488.324 173.553C487.797 174.794 487.253 176.069 486.709 177.378C483.768 184.314 480.436 192.168 480.028 199.478C479.399 210.987 490.568 229.262 497.963 241.366C499.442 243.797 500.785 245.99 501.873 247.877C508.044 258.451 496.807 285.176 494.512 290.395H494.461Z" fill="#1B3F7E"/>
<path d="M463.111 217.337L533.714 242.089C536.567 243.09 539.691 241.588 540.691 238.735L593.628 87.7412C594.628 84.8882 593.126 81.7646 590.273 80.7644L519.669 56.0117C516.816 55.0115 513.693 56.5134 512.692 59.3664L459.756 210.36C458.756 213.213 460.258 216.336 463.111 217.337Z" fill="white"/>
<path d="M535.55 243.218C534.838 243.217 534.131 243.097 533.459 242.861L462.841 218.092C461.261 217.534 459.967 216.373 459.241 214.863C458.515 213.353 458.415 211.617 458.965 210.034L511.92 59.0403C512.485 57.467 513.649 56.1806 515.158 55.4611C516.667 54.7415 518.4 54.6471 519.978 55.1983L590.596 79.9673C591.38 80.2381 592.103 80.6617 592.722 81.2136C593.341 81.7655 593.845 82.4347 594.204 83.1825C594.562 83.9303 594.769 84.7419 594.813 85.5702C594.856 86.3986 594.734 87.2273 594.455 88.0083L541.5 238.985C541.225 239.769 540.799 240.491 540.244 241.109C539.69 241.728 539.019 242.231 538.27 242.589C537.42 242.995 536.492 243.21 535.55 243.218ZM463.402 216.494L534.02 241.246C534.591 241.45 535.197 241.539 535.803 241.508C536.409 241.476 537.003 241.325 537.55 241.062C538.097 240.8 538.586 240.432 538.99 239.979C539.394 239.526 539.704 238.998 539.902 238.424L592.857 87.4983C593.26 86.344 593.189 85.0771 592.66 83.9748C592.131 82.8725 591.187 82.0245 590.035 81.6163L519.4 56.7623C518.243 56.3603 516.975 56.4335 515.872 56.9657C514.769 57.4979 513.923 58.4458 513.518 59.6013L460.58 210.612C460.177 211.767 460.248 213.034 460.777 214.136C461.306 215.238 462.25 216.086 463.402 216.494Z" fill="#1B3F7E"/>
<path d="M542.401 220.591C542.305 220.608 542.208 220.608 542.112 220.591L469.675 195.193C469.463 195.117 469.29 194.959 469.195 194.755C469.099 194.551 469.088 194.317 469.165 194.105L512.702 70.0055C512.735 69.8985 512.79 69.7996 512.863 69.7148C512.936 69.63 513.026 69.5611 513.127 69.5125C513.341 69.4359 513.576 69.4359 513.79 69.5125L586.21 94.9105C586.422 94.9875 586.596 95.1443 586.694 95.3475C586.793 95.5507 586.808 95.7842 586.737 95.9985L543.2 220.098C543.128 220.312 542.975 220.489 542.775 220.591C542.651 220.615 542.525 220.615 542.401 220.591ZM471.001 193.816L541.823 218.653L584.85 96.1005L514.028 71.2635L471.001 193.816Z" fill="#D1D3D4"/>
<path d="M507.313 227.903C506.845 227.905 506.38 227.831 505.936 227.682L492.2 222.837C491.149 222.467 490.287 221.696 489.803 220.692C489.319 219.689 489.252 218.534 489.616 217.482L491.469 212.212C491.839 211.157 492.613 210.292 493.62 209.807C494.627 209.323 495.786 209.258 496.841 209.628L510.611 214.456C511.666 214.825 512.531 215.599 513.015 216.607C513.5 217.614 513.564 218.773 513.195 219.828L511.342 225.098C511.052 225.93 510.506 226.65 509.782 227.153C509.059 227.657 508.194 227.919 507.313 227.903ZM495.413 211.09C494.889 211.092 494.379 211.257 493.953 211.561C493.527 211.866 493.205 212.295 493.033 212.79L491.197 218.06C491.087 218.37 491.039 218.699 491.056 219.028C491.073 219.356 491.155 219.679 491.298 219.976C491.44 220.273 491.639 220.539 491.885 220.758C492.13 220.978 492.416 221.147 492.727 221.256L506.514 226.084C507.141 226.302 507.828 226.263 508.427 225.977C509.026 225.69 509.487 225.179 509.71 224.554L511.563 219.284C511.781 218.652 511.74 217.96 511.451 217.359C511.161 216.757 510.645 216.294 510.016 216.071L496.246 211.243C495.972 211.149 495.685 211.097 495.396 211.09H495.413Z" fill="#D1D3D4"/>
<path d="M567 81.5495C566.91 81.5657 566.818 81.5657 566.728 81.5495L546.09 74.3245C545.878 74.2477 545.705 74.09 545.61 73.886C545.514 73.682 545.503 73.4484 545.58 73.2365C545.653 73.0255 545.807 72.852 546.007 72.7533C546.208 72.6547 546.439 72.639 546.651 72.7095L567.289 79.9515C567.514 79.9898 567.715 80.1161 567.848 80.3026C567.98 80.4891 568.033 80.7205 567.994 80.946C567.956 81.1714 567.83 81.3724 567.643 81.5047C567.457 81.637 567.225 81.6898 567 81.6515V81.5495Z" fill="#D1D3D4"/>
<path d="M543.625 73.0486H543.336L540.582 72.0796C540.468 72.0504 540.361 71.9977 540.268 71.925C540.176 71.8523 540.099 71.761 540.044 71.6571C539.988 71.5532 539.955 71.4389 539.946 71.3214C539.937 71.2039 539.952 71.0859 539.991 70.9747C540.03 70.8635 540.092 70.7617 540.172 70.6756C540.253 70.5896 540.35 70.5212 540.459 70.4748C540.567 70.4285 540.684 70.4051 540.802 70.4063C540.919 70.4075 541.036 70.4331 541.143 70.4816L543.914 71.4506C544.026 71.4696 544.132 71.5104 544.228 71.5706C544.324 71.6309 544.407 71.7094 544.473 71.8018C544.538 71.8941 544.585 71.9985 544.61 72.1089C544.635 72.2192 544.638 72.3335 544.62 72.4451C544.601 72.5568 544.56 72.6636 544.5 72.7594C544.439 72.8553 544.361 72.9383 544.268 73.0039C544.176 73.0694 544.072 73.116 543.961 73.1412C543.851 73.1664 543.737 73.1696 543.625 73.1506V73.0486Z" fill="#D1D3D4"/>
<path d="M527.033 175.492C541.595 175.492 553.4 163.687 553.4 149.125C553.4 134.563 541.595 122.758 527.033 122.758C512.471 122.758 500.666 134.563 500.666 149.125C500.666 163.687 512.471 175.492 527.033 175.492Z" fill="#6DB0E2"/>
<path d="M500.394 141.218C499.957 142.659 499.091 143.933 497.913 144.871C496.736 145.809 495.3 146.367 493.798 146.471C490.062 146.786 486.343 145.688 483.377 143.394C481.666 142.109 480.227 140.497 479.144 138.651C478.219 137.287 477.639 135.72 477.452 134.083C477.266 132.445 477.479 130.787 478.073 129.25C480.249 124.881 487.202 124.15 493.067 126.938C498.558 129.59 501.465 137.104 500.394 141.218Z" fill="white"/>
<path d="M492.404 147.408C488.945 147.314 485.605 146.124 482.867 144.008C481.068 142.653 479.55 140.961 478.396 139.027C477.394 137.545 476.772 135.84 476.586 134.061C476.399 132.282 476.653 130.484 477.325 128.827C479.637 124.169 486.862 122.962 493.441 126.124C499.221 128.912 502.417 136.749 501.227 141.424C500.749 143.034 499.791 144.461 498.483 145.515C497.174 146.569 495.576 147.199 493.9 147.323C493.403 147.377 492.904 147.405 492.404 147.408ZM486.029 126.124C482.765 126.124 479.977 127.348 478.838 129.626C478.295 131.035 478.106 132.556 478.287 134.056C478.468 135.555 479.013 136.988 479.875 138.228C480.902 139.975 482.266 141.5 483.887 142.716C486.675 144.885 490.175 145.929 493.696 145.64C495.029 145.547 496.304 145.055 497.353 144.227C498.403 143.399 499.178 142.274 499.578 140.999C500.496 137.429 498.031 130.272 492.778 127.705C490.676 126.678 488.369 126.138 486.029 126.124Z" fill="#1B3F7E"/>
<path d="M492.2 161.228C492.487 162.253 492.538 163.33 492.35 164.379C492.162 165.427 491.738 166.419 491.112 167.28C490.254 168.244 489.183 168.995 487.984 169.473C486.409 170.269 484.677 170.705 482.913 170.749C481.149 170.793 479.397 170.444 477.784 169.728C475.912 168.598 474.315 167.064 473.109 165.24C470.899 162.214 468.978 158.678 469.216 154.921C469.539 149.515 475.642 143.548 481.116 146.302C485.672 148.563 491.061 156.417 492.2 161.228Z" fill="white"/>
<path d="M482.255 171.633C480.553 171.652 478.873 171.255 477.359 170.477C475.362 169.298 473.664 167.675 472.395 165.734C469.42 161.671 468.128 158.22 468.332 154.871C468.528 153.045 469.144 151.289 470.132 149.74C471.12 148.192 472.453 146.893 474.027 145.946C475.136 145.247 476.405 144.843 477.714 144.771C479.023 144.7 480.329 144.964 481.507 145.538C486.284 147.918 491.843 156.044 493.05 161.025C493.371 162.18 493.424 163.392 493.206 164.57C492.988 165.748 492.504 166.862 491.792 167.825C490.86 168.889 489.697 169.727 488.392 170.273C486.465 171.154 484.374 171.618 482.255 171.633ZM478.226 146.456C477.026 146.466 475.851 146.801 474.826 147.425C473.485 148.217 472.347 149.312 471.506 150.623C470.665 151.934 470.142 153.424 469.981 154.973C469.794 157.914 470.984 161.008 473.704 164.731C474.839 166.45 476.336 167.9 478.09 168.981C479.594 169.65 481.229 169.972 482.874 169.922C484.52 169.872 486.133 169.451 487.593 168.692C488.682 168.277 489.655 167.606 490.432 166.737C490.975 165.979 491.339 165.108 491.495 164.189C491.651 163.27 491.595 162.327 491.333 161.433C490.245 156.877 485.009 149.21 480.708 147.068C479.939 146.675 479.089 146.466 478.226 146.456Z" fill="#1B3F7E"/>
<path d="M483.802 176.053C484.645 177.224 485.224 178.564 485.502 179.98C485.708 181.589 485.45 183.224 484.757 184.691C484.064 186.158 482.966 187.396 481.592 188.259C480.207 189.092 478.67 189.641 477.071 189.875C475.471 190.108 473.841 190.021 472.276 189.619C470.408 189.209 468.648 188.409 467.11 187.273C465.572 186.136 464.291 184.688 463.351 183.023C462.445 181.338 461.992 179.446 462.037 177.532C462.081 175.619 462.622 173.75 463.606 172.109C469.097 163.626 479.501 169.831 483.802 176.053Z" fill="white"/>
<path d="M475.421 190.842C474.305 190.837 473.193 190.706 472.106 190.451C470.119 190.01 468.247 189.156 466.613 187.943C464.978 186.73 463.618 185.187 462.62 183.413C461.634 181.598 461.142 179.557 461.193 177.492C461.244 175.428 461.835 173.413 462.909 171.649C463.687 170.304 464.797 169.182 466.134 168.39C467.471 167.598 468.989 167.163 470.542 167.127C475.778 166.974 481.558 171.309 484.499 175.627C485.429 176.892 486.063 178.351 486.352 179.894C486.588 181.664 486.31 183.464 485.55 185.08C484.79 186.696 483.581 188.059 482.068 189.006C480.078 190.251 477.768 190.889 475.421 190.842ZM470.712 168.742H470.576C469.3 168.767 468.053 169.125 466.958 169.781C465.864 170.437 464.96 171.368 464.337 172.482C463.436 173.995 462.942 175.716 462.903 177.476C462.865 179.237 463.282 180.978 464.116 182.529C464.998 184.088 466.198 185.443 467.64 186.507C469.081 187.57 470.73 188.317 472.48 188.7C473.934 189.085 475.452 189.174 476.941 188.96C478.431 188.747 479.862 188.237 481.15 187.459C482.374 186.679 483.355 185.57 483.98 184.26C484.605 182.949 484.85 181.49 484.686 180.047C484.424 178.751 483.885 177.528 483.105 176.46C480.436 172.686 475.336 168.81 470.712 168.81V168.742Z" fill="#1B3F7E"/>
<path d="M579.461 232.204C579.461 232.204 594.132 188.769 592.092 178.433C590.052 168.097 586.788 126.43 582.589 124.679C578.39 122.928 569.448 134.42 569.159 147.34C568.979 154.96 569.971 162.563 572.1 169.882C572.1 169.882 557.718 175.611 554.879 210.342" fill="white"/>
<path d="M579.461 233.054H579.189C578.977 232.977 578.803 232.82 578.705 232.617C578.606 232.414 578.591 232.18 578.662 231.966C578.815 231.541 593.231 188.633 591.259 178.62C590.63 175.407 589.882 169.304 589.032 162.215C587.519 149.754 584.714 126.515 582.232 125.495C581.766 125.391 581.283 125.397 580.819 125.512C580.356 125.627 579.926 125.848 579.563 126.158C575.687 128.674 570.213 137.446 569.992 147.391C569.801 154.909 570.752 162.412 572.814 169.644C572.877 169.85 572.862 170.071 572.771 170.266C572.68 170.461 572.519 170.615 572.321 170.698C572.185 170.698 558.364 176.784 555.627 210.444C555.609 210.67 555.502 210.879 555.33 211.025C555.158 211.172 554.934 211.244 554.709 211.226C554.484 211.208 554.275 211.101 554.128 210.929C553.981 210.757 553.909 210.534 553.927 210.308C556.443 179.436 567.952 171.208 570.927 169.508C568.967 162.31 568.062 154.866 568.241 147.408C568.462 137.446 573.783 127.892 578.594 124.781C579.174 124.294 579.87 123.964 580.614 123.824C581.359 123.684 582.127 123.738 582.844 123.982C585.717 125.172 587.587 136.698 590.647 162.062C591.497 169.117 592.245 175.203 592.857 178.348C594.914 188.803 580.804 230.776 580.209 232.561C580.143 232.705 580.037 232.827 579.905 232.914C579.773 233.001 579.619 233.05 579.461 233.054Z" fill="#1B3F7E"/>
<path d="M513.467 159.546C512.969 159.553 512.476 159.45 512.022 159.245C511.568 159.04 511.165 158.738 510.84 158.361C510.516 157.983 510.279 157.538 510.145 157.059C510.011 156.579 509.985 156.076 510.067 155.585L512.566 140.523C512.615 140.062 512.757 139.616 512.984 139.213C513.211 138.809 513.519 138.456 513.887 138.176C514.255 137.895 514.677 137.693 515.127 137.581C515.576 137.469 516.044 137.45 516.501 137.526C516.958 137.601 517.394 137.769 517.784 138.019C518.174 138.27 518.508 138.597 518.767 138.981C519.026 139.365 519.203 139.798 519.289 140.253C519.374 140.708 519.366 141.176 519.264 141.628L517.666 151.318L541.194 144.229C542.057 143.963 542.991 144.051 543.79 144.473C544.588 144.895 545.187 145.618 545.453 146.481C545.719 147.345 545.631 148.278 545.208 149.077C544.786 149.876 544.063 150.474 543.2 150.74L514.436 159.393C514.122 159.49 513.796 159.542 513.467 159.546Z" fill="white"/>
<path d="M559.894 348.415L573.545 279.514L498.082 258.74L469.335 348.415H559.894Z" fill="#1B3F7E"/>
<path d="M559.894 349.299H469.318C469.186 349.298 469.057 349.266 468.939 349.207C468.821 349.148 468.718 349.063 468.638 348.959C468.561 348.849 468.511 348.723 468.49 348.59C468.47 348.457 468.479 348.322 468.519 348.194L497.3 258.485C497.37 258.278 497.516 258.105 497.708 258.001C497.901 257.897 498.125 257.869 498.337 257.924L573.8 278.698C574.008 278.754 574.187 278.887 574.3 279.07C574.414 279.253 574.454 279.473 574.412 279.684L560.812 348.585C560.775 348.796 560.66 348.987 560.49 349.119C560.321 349.25 560.108 349.315 559.894 349.299ZM470.491 347.599H559.197L572.559 280.143L498.643 259.743L470.491 347.599Z" fill="#1B3F7E"/>
<path d="M363.561 117.199C363.561 117.199 399.261 81.4991 441.948 89.4891L439.109 102.222L465.476 92.6001L446.776 65.6211L445.161 77.1131C445.161 77.1131 407.948 62.6801 350.114 87.9251L363.561 117.199Z" fill="#E30238"/>
<defs>
<clipPath id="clip0_0_1">
<rect width="268" height="268" fill="white"/>
</clipPath>
</defs>
</svg>
