<svg width="680" height="510" viewBox="0 0 680 510" fill="none" xmlns="http://www.w3.org/2000/svg">
<g clip-path="url(#clip0_3046_49298)">
<path d="M145 191V325H11V211.664L31.664 191H145Z" fill="#6DB0E2"/>
<path d="M145 57V191H11V77.664L31.664 57H145Z" fill="#1B3F7E"/>
<path d="M279 57V191H145V77.664L165.664 57H279Z" fill="#E30238"/>
</g>
<path d="M593.3 382.499H76.8568C76.6314 382.499 76.4152 382.409 76.2558 382.25C76.0964 382.09 76.0068 381.874 76.0068 381.649C76.0068 381.423 76.0964 381.207 76.2558 381.048C76.4152 380.888 76.6314 380.799 76.8568 380.799H593.3C593.525 380.799 593.742 380.888 593.901 381.048C594.06 381.207 594.15 381.423 594.15 381.649C594.15 381.874 594.06 382.09 593.901 382.25C593.742 382.409 593.525 382.499 593.3 382.499Z" fill="#D1D3D4"/>
<path d="M406.555 104.584H99.926C86.1713 104.584 75.021 115.734 75.021 129.489V325.397C75.021 339.152 86.1713 350.302 99.926 350.302H406.555C420.31 350.302 431.46 339.152 431.46 325.397V129.489C431.46 115.734 420.31 104.584 406.555 104.584Z" fill="white"/>
<path d="M406.555 351.151H99.9259C93.098 351.142 86.5523 348.426 81.7243 343.598C76.8962 338.77 74.1799 332.224 74.1709 325.396V129.471C74.1709 122.639 76.8838 116.086 81.7133 111.254C86.5428 106.421 93.0937 103.704 99.9259 103.699H406.555C413.387 103.704 419.938 106.421 424.767 111.254C429.597 116.086 432.31 122.639 432.31 129.471V325.396C432.301 332.224 429.585 338.77 424.757 343.598C419.928 348.426 413.383 351.142 406.555 351.151ZM99.9259 105.399C93.5445 105.404 87.4261 107.942 82.9154 112.456C78.4047 116.97 75.8709 123.09 75.8709 129.471V325.396C75.8799 331.773 78.4171 337.887 82.9264 342.396C87.4356 346.905 93.5489 349.442 99.9259 349.451H406.555C412.932 349.442 419.045 346.905 423.554 342.396C428.064 337.887 430.601 331.773 430.61 325.396V129.471C430.61 123.09 428.076 116.97 423.565 112.456C419.055 107.942 412.936 105.404 406.555 105.399H99.9259Z" fill="#1B3F7E"/>
<path d="M432.072 305.456H76.1259C75.9004 305.456 75.6842 305.366 75.5248 305.207C75.3654 305.048 75.2759 304.831 75.2759 304.606C75.2759 304.38 75.3654 304.164 75.5248 304.005C75.6842 303.845 75.9004 303.756 76.1259 303.756H432.072C432.297 303.756 432.514 303.845 432.673 304.005C432.832 304.164 432.922 304.38 432.922 304.606C432.922 304.831 432.832 305.048 432.673 305.207C432.514 305.366 432.297 305.456 432.072 305.456Z" fill="#1B3F7E"/>
<path d="M253.3 334.712C251.439 334.716 249.619 334.167 248.071 333.135C246.522 332.103 245.314 330.635 244.601 328.917C243.887 327.198 243.699 325.306 244.062 323.481C244.424 321.656 245.32 319.979 246.635 318.664C247.951 317.348 249.628 316.452 251.453 316.09C253.278 315.728 255.17 315.915 256.888 316.629C258.607 317.343 260.075 318.55 261.107 320.099C262.138 321.647 262.687 323.467 262.684 325.328C262.679 327.816 261.689 330.2 259.93 331.959C258.171 333.718 255.787 334.708 253.3 334.712ZM253.3 317.712C251.776 317.709 250.285 318.158 249.017 319.002C247.748 319.846 246.758 321.047 246.173 322.454C245.587 323.861 245.432 325.41 245.728 326.905C246.023 328.4 246.755 329.774 247.831 330.853C248.908 331.931 250.28 332.666 251.774 332.965C253.268 333.263 254.818 333.112 256.226 332.53C257.634 331.947 258.838 330.96 259.685 329.693C260.532 328.427 260.984 326.937 260.984 325.413C260.995 324.396 260.805 323.387 260.424 322.444C260.043 321.501 259.479 320.643 258.765 319.919C258.05 319.195 257.199 318.62 256.261 318.226C255.323 317.833 254.317 317.629 253.3 317.627V317.712Z" fill="#D1D3D4"/>
<path d="M317.781 390.133H188.7C184.775 390.133 181.594 393.314 181.594 397.239V398.31C181.594 402.234 184.775 405.416 188.7 405.416H317.781C321.706 405.416 324.887 402.234 324.887 398.31V397.239C324.887 393.314 321.706 390.133 317.781 390.133Z" fill="white"/>
<path d="M317.781 406.299H188.7C186.593 406.299 184.572 405.463 183.08 403.975C181.589 402.486 180.748 400.467 180.744 398.36V397.272C180.744 395.16 181.582 393.135 183.073 391.64C184.565 390.145 186.588 389.303 188.7 389.299H317.781C319.89 389.303 321.911 390.143 323.402 391.634C324.893 393.125 325.732 395.146 325.737 397.255V398.343C325.737 400.453 324.899 402.477 323.407 403.969C321.915 405.461 319.891 406.299 317.781 406.299ZM188.7 390.999C187.041 390.999 185.449 391.658 184.276 392.831C183.103 394.004 182.444 395.596 182.444 397.255V398.343C182.444 400.002 183.103 401.593 184.276 402.766C185.449 403.94 187.041 404.599 188.7 404.599H317.781C319.437 404.599 321.026 403.942 322.199 402.773C323.371 401.603 324.032 400.016 324.037 398.36V397.272C324.037 395.613 323.378 394.021 322.205 392.848C321.031 391.675 319.44 391.016 317.781 391.016L188.7 390.999Z" fill="#1B3F7E"/>
<path d="M302.107 390.387H204.374L211.089 350.301H295.392L302.107 390.387Z" fill="white"/>
<path d="M302.107 391.237H204.374C204.25 391.241 204.126 391.216 204.014 391.162C203.902 391.109 203.803 391.03 203.728 390.931C203.649 390.838 203.591 390.729 203.559 390.612C203.527 390.494 203.52 390.371 203.541 390.251L210.341 350.165C210.373 349.967 210.474 349.786 210.627 349.656C210.779 349.525 210.973 349.453 211.174 349.451H295.477C295.678 349.453 295.872 349.525 296.024 349.656C296.176 349.786 296.278 349.967 296.31 350.165L303.11 390.251C303.127 390.371 303.119 390.494 303.087 390.611C303.055 390.728 302.999 390.837 302.923 390.931C302.827 391.051 302.701 391.143 302.557 391.197C302.413 391.251 302.258 391.265 302.107 391.237ZM205.377 389.537H301.104L294.678 351.151H211.82L205.377 389.537Z" fill="#1B3F7E"/>
<path d="M207.74 370.344L296.735 358.257L295.392 350.301H211.089L207.74 370.344Z" fill="#1B3F7E"/>
<path d="M207.74 371.194C207.51 371.194 207.29 371.102 207.128 370.939C207.037 370.843 206.969 370.727 206.931 370.6C206.892 370.473 206.884 370.339 206.907 370.208L210.307 350.165C210.339 349.967 210.44 349.786 210.593 349.656C210.745 349.525 210.939 349.453 211.14 349.451H295.443C295.644 349.453 295.838 349.525 295.99 349.656C296.142 349.786 296.244 349.967 296.276 350.165L297.619 358.121C297.654 358.348 297.599 358.58 297.466 358.767C297.397 358.858 297.31 358.933 297.21 358.989C297.111 359.044 297.001 359.079 296.888 359.09L207.893 371.177L207.74 371.194ZM211.803 351.151L208.76 369.358L295.749 357.458L294.678 351.066L211.803 351.151Z" fill="#1B3F7E"/>
<path d="M281.758 156.264H224.74C218.984 156.264 214.319 160.929 214.319 166.685V195.5C214.319 201.255 218.984 205.921 224.74 205.921H281.758C287.513 205.921 292.179 201.255 292.179 195.5V166.685C292.179 160.929 287.513 156.264 281.758 156.264Z" fill="#6DB0E2"/>
<path d="M272.697 168.52H233.784C232.982 168.52 232.189 168.363 231.448 168.056C230.708 167.749 230.035 167.3 229.468 166.733C228.902 166.166 228.452 165.493 228.145 164.753C227.839 164.013 227.681 163.219 227.681 162.417V146.964C227.681 140.183 230.375 133.68 235.17 128.885C239.965 124.09 246.468 121.396 253.249 121.396C260.03 121.396 266.533 124.09 271.328 128.885C276.123 133.68 278.817 140.183 278.817 146.964V162.417C278.812 164.038 278.166 165.59 277.018 166.734C275.871 167.878 274.317 168.52 272.697 168.52ZM239.904 156.297H266.577V146.964C266.641 145.173 266.343 143.387 265.702 141.713C265.06 140.039 264.088 138.512 262.844 137.222C261.599 135.932 260.107 134.906 258.457 134.205C256.807 133.504 255.033 133.143 253.24 133.143C251.448 133.143 249.674 133.504 248.024 134.205C246.374 134.906 244.882 135.932 243.637 137.222C242.392 138.512 241.42 140.039 240.779 141.713C240.138 143.387 239.84 145.173 239.904 146.964V156.297Z" fill="#6DB0E2"/>
<path d="M253.249 180.828C257.371 180.828 260.712 177.487 260.712 173.365C260.712 169.244 257.371 165.902 253.249 165.902C249.127 165.902 245.786 169.244 245.786 173.365C245.786 177.487 249.127 180.828 253.249 180.828Z" fill="#1B3F7E"/>
<path d="M255.323 174.793H251.158V192.15H255.323V174.793Z" fill="#1B3F7E"/>
<path d="M373.456 279.292H133.042C125.377 279.292 118.026 276.247 112.606 270.828C107.187 265.408 104.142 258.057 104.142 250.392C104.142 242.727 107.187 235.377 112.606 229.957C118.026 224.537 125.377 221.492 133.042 221.492H373.456C381.121 221.492 388.471 224.537 393.891 229.957C399.311 235.377 402.356 242.727 402.356 250.392C402.356 258.057 399.311 265.408 393.891 270.828C388.471 276.247 381.121 279.292 373.456 279.292ZM133.042 223.192C125.828 223.192 118.91 226.058 113.809 231.159C108.708 236.26 105.842 243.178 105.842 250.392C105.842 257.606 108.708 264.525 113.809 269.626C118.91 274.727 125.828 277.592 133.042 277.592H373.456C380.67 277.592 387.588 274.727 392.689 269.626C397.79 264.525 400.656 257.606 400.656 250.392C400.656 243.178 397.79 236.26 392.689 231.159C387.588 226.058 380.67 223.192 373.456 223.192H133.042Z" fill="#D1D3D4"/>
<path d="M204 252.585L207.672 257.43L203.592 260.269L199.937 255.339L196.35 260.099L192.372 257.243L196.044 252.534L190.196 250.596L191.777 246.057L197.54 248.046V242.164H202.504V248.046L208.267 246.244L209.797 250.766L204 252.585Z" fill="black"/>
<path d="M230.588 252.585L234.26 257.43L230.18 260.269L226.508 255.339L222.938 260.099L218.96 257.243L222.615 252.534L216.784 250.596L218.365 246.057L224.111 248.046V242.164H229.092V248.046L234.838 246.244L236.385 250.766L230.588 252.585Z" fill="black"/>
<path d="M257.261 252.585L260.916 257.43L256.853 260.269L253.181 255.339L249.594 260.099L245.616 257.243L249.288 252.534L243.44 250.596L245.021 246.057L250.784 248.046V242.164H255.765V248.046L261.511 246.244L263.041 250.766L257.261 252.585Z" fill="black"/>
<path d="M283.9 252.585L287.572 257.43L283.492 260.269L279.82 255.339L276.25 260.099L272.272 257.243L275.927 252.534L270.096 250.596L271.677 246.057L277.423 248.046V242.164H282.404V248.046L288.15 246.244L289.697 250.766L283.9 252.585Z" fill="black"/>
<path d="M310.59 252.585L314.245 257.43L310.182 260.269L306.51 255.339L302.923 260.099L298.945 257.243L302.617 252.534L296.769 250.596L298.35 246.057L304.113 248.046V242.164H309.094V248.046L314.84 246.244L316.37 250.766L310.59 252.585Z" fill="black"/>
<path d="M572.9 371.942L591.26 286.806L597.38 244.476C597.38 244.476 552.619 197.199 539.886 181.899C527.153 166.599 512.975 144.499 506.073 145.876C499.171 147.253 497.573 154.971 501.721 164.729C503.421 168.741 506.056 173.229 507.178 177.343C508.096 180.743 507.433 190.059 504.135 192.303C500.174 194.989 496.978 181.219 491.997 183.463C489.379 184.653 486.591 191.164 488.597 198.338C489.804 201.784 491.347 205.104 493.204 208.249C497.012 214.862 496.893 218.925 499.222 226.116C501.551 233.307 501.296 223.617 498.576 230.23C495.295 238.254 490.722 247.604 490.229 256.41C489.447 270.486 505.529 293.912 512.193 305.285C518.857 316.658 504.424 347.972 504.424 347.972L572.9 371.942Z" fill="white"/>
<path d="M572.9 372.792C572.81 372.81 572.718 372.81 572.628 372.792L504.016 348.738C503.905 348.697 503.804 348.633 503.719 348.551C503.634 348.469 503.568 348.371 503.523 348.262C503.473 348.155 503.447 348.039 503.447 347.922C503.447 347.804 503.473 347.688 503.523 347.582C503.676 347.276 517.633 316.539 511.343 305.676C510.255 303.806 508.912 301.613 507.45 299.199C499.936 286.925 488.597 268.361 489.277 256.342C489.685 248.743 493.085 240.737 496.077 233.682C496.621 232.39 497.165 231.115 497.675 229.874C497.952 229.123 498.33 228.414 498.797 227.765C498.627 227.357 498.474 226.882 498.287 226.338C497.505 223.89 496.995 221.833 496.587 219.861C495.798 215.925 494.392 212.138 492.422 208.641C490.538 205.397 488.967 201.982 487.73 198.441C485.656 190.774 488.665 183.923 491.657 182.579C494.649 181.236 497.25 184.619 499.341 187.68C500.08 188.905 500.952 190.046 501.942 191.079C502.86 191.93 503.319 191.725 503.642 191.487C506.481 189.566 507.212 180.693 506.328 177.479C505.443 174.657 504.305 171.92 502.928 169.302C502.231 167.857 501.517 166.378 500.922 164.967C498.236 158.609 497.845 153.067 499.851 149.276C500.461 148.141 501.321 147.159 502.367 146.405C503.412 145.651 504.616 145.145 505.886 144.924C511.564 143.819 520.489 155.43 530.808 168.894C534.021 173.076 537.336 177.395 540.532 181.254C553.095 196.554 597.584 243.388 598.026 243.864C598.117 243.958 598.185 244.071 598.226 244.194C598.268 244.318 598.28 244.449 598.264 244.578L592.127 286.909L573.767 372.096C573.741 372.214 573.69 372.326 573.617 372.423C573.543 372.52 573.449 372.6 573.342 372.657C573.215 372.752 573.059 372.8 572.9 372.792ZM505.461 347.395L572.271 370.821L590.427 286.637L596.53 244.799C592.688 240.754 551.31 197.03 539.24 182.41C536.027 178.517 532.695 174.181 529.482 169.999C520.336 158.099 510.867 145.774 506.243 146.675C505.221 146.822 504.247 147.206 503.4 147.796C502.552 148.387 501.855 149.167 501.364 150.075C499.664 153.339 500.055 158.575 502.503 164.304C503.081 165.664 503.761 167.075 504.475 168.554C505.902 171.276 507.08 174.121 507.994 177.055C508.929 180.454 508.368 190.382 504.594 192.932C504.002 193.335 503.28 193.501 502.572 193.398C501.864 193.294 501.22 192.927 500.769 192.372C499.676 191.259 498.713 190.028 497.896 188.699C495.754 185.554 494.105 183.361 492.32 184.177C490.212 185.129 487.458 191.13 489.345 198.049C490.526 201.428 492.04 204.679 493.867 207.757C495.91 211.395 497.373 215.329 498.202 219.419C498.678 221.374 499.171 223.396 499.902 225.776C500.055 226.235 500.191 226.61 500.293 226.899H500.429C500.774 227.023 501.07 227.255 501.273 227.562C501.475 227.868 501.573 228.232 501.551 228.599C501.571 228.862 501.492 229.124 501.328 229.332C501.164 229.54 500.928 229.679 500.667 229.721C500.515 229.752 500.358 229.748 500.208 229.71C500.058 229.672 499.918 229.6 499.8 229.5C499.617 229.839 499.458 230.191 499.324 230.553C498.797 231.794 498.253 233.069 497.709 234.378C494.768 241.314 491.436 249.168 491.028 256.478C490.399 267.987 501.568 286.262 508.963 298.366C510.442 300.797 511.785 302.99 512.873 304.877C519.044 315.451 507.807 342.176 505.512 347.395H505.461Z" fill="#1B3F7E"/>
<path d="M474.11 274.337L544.714 299.089C547.567 300.09 550.691 298.588 551.691 295.735L604.627 144.741C605.627 141.888 604.126 138.765 601.273 137.764L530.669 113.012C527.816 112.011 524.692 113.513 523.692 116.366L470.756 267.36C469.756 270.213 471.257 273.336 474.11 274.337Z" fill="white"/>
<path d="M546.55 300.218C545.838 300.217 545.131 300.097 544.459 299.861L473.841 275.092C472.261 274.534 470.967 273.373 470.241 271.863C469.514 270.353 469.415 268.617 469.965 267.034L522.92 116.04C523.485 114.467 524.649 113.181 526.158 112.461C527.667 111.742 529.399 111.647 530.978 112.198L601.596 136.967C602.38 137.238 603.102 137.662 603.722 138.214C604.341 138.765 604.844 139.435 605.203 140.182C605.562 140.93 605.769 141.742 605.812 142.57C605.856 143.399 605.734 144.227 605.455 145.008L552.5 295.985C552.225 296.769 551.799 297.491 551.244 298.109C550.69 298.728 550.019 299.231 549.27 299.589C548.42 299.995 547.492 300.21 546.55 300.218ZM474.402 273.494L545.02 298.246C545.591 298.45 546.197 298.539 546.803 298.508C547.409 298.476 548.002 298.325 548.549 298.062C549.096 297.8 549.586 297.432 549.99 296.979C550.393 296.526 550.703 295.998 550.902 295.424L603.857 144.498C604.26 143.344 604.189 142.077 603.66 140.975C603.131 139.873 602.187 139.025 601.035 138.616L530.4 113.762C529.243 113.36 527.975 113.433 526.872 113.966C525.769 114.498 524.923 115.446 524.518 116.601L471.58 267.612C471.177 268.767 471.248 270.034 471.777 271.136C472.305 272.238 473.249 273.086 474.402 273.494Z" fill="#1B3F7E"/>
<path d="M553.401 277.591C553.305 277.608 553.207 277.608 553.112 277.591L480.675 252.193C480.463 252.117 480.29 251.959 480.195 251.755C480.099 251.551 480.088 251.317 480.165 251.105L523.702 127.005C523.735 126.899 523.79 126.8 523.863 126.715C523.936 126.63 524.026 126.561 524.127 126.512C524.341 126.436 524.575 126.436 524.79 126.512L597.21 151.91C597.422 151.988 597.596 152.144 597.694 152.347C597.793 152.551 597.808 152.784 597.737 152.998L554.2 277.098C554.128 277.312 553.975 277.489 553.775 277.591C553.651 277.615 553.524 277.615 553.401 277.591ZM482.001 250.816L552.823 275.653L595.85 153.1L525.028 128.263L482.001 250.816Z" fill="#D1D3D4"/>
<path d="M518.313 284.903C517.845 284.905 517.38 284.831 516.936 284.682L503.2 279.837C502.149 279.467 501.287 278.696 500.803 277.692C500.319 276.689 500.252 275.534 500.616 274.482L502.469 269.212C502.839 268.157 503.613 267.292 504.62 266.807C505.627 266.323 506.786 266.258 507.841 266.628L521.611 271.456C522.666 271.825 523.531 272.599 524.015 273.607C524.5 274.614 524.564 275.773 524.195 276.828L522.342 282.098C522.052 282.93 521.506 283.65 520.782 284.153C520.059 284.657 519.194 284.919 518.313 284.903ZM506.413 268.09C505.889 268.092 505.379 268.257 504.953 268.561C504.527 268.866 504.205 269.295 504.033 269.79L502.197 275.06C502.087 275.37 502.039 275.699 502.056 276.028C502.073 276.356 502.155 276.679 502.298 276.976C502.44 277.273 502.639 277.539 502.885 277.758C503.13 277.978 503.416 278.147 503.727 278.256L517.514 283.084C518.141 283.302 518.828 283.263 519.427 282.977C520.026 282.69 520.487 282.179 520.71 281.554L522.563 276.284C522.781 275.652 522.74 274.96 522.451 274.359C522.161 273.757 521.645 273.294 521.016 273.071L507.246 268.243C506.972 268.149 506.685 268.097 506.396 268.09H506.413Z" fill="#D1D3D4"/>
<path d="M578 138.549C577.91 138.566 577.818 138.566 577.728 138.549L557.09 131.324C556.878 131.248 556.705 131.09 556.61 130.886C556.514 130.682 556.503 130.448 556.58 130.236C556.653 130.026 556.807 129.852 557.007 129.753C557.208 129.655 557.439 129.639 557.651 129.709L578.289 136.951C578.514 136.99 578.715 137.116 578.848 137.303C578.98 137.489 579.033 137.721 578.994 137.946C578.956 138.171 578.83 138.372 578.643 138.505C578.457 138.637 578.225 138.69 578 138.651V138.549Z" fill="#D1D3D4"/>
<path d="M554.625 130.049H554.336L551.582 129.08C551.468 129.05 551.361 128.998 551.268 128.925C551.176 128.852 551.099 128.761 551.043 128.657C550.988 128.553 550.954 128.439 550.945 128.321C550.936 128.204 550.952 128.086 550.991 127.975C551.03 127.864 551.092 127.762 551.172 127.676C551.253 127.59 551.35 127.521 551.458 127.475C551.567 127.428 551.684 127.405 551.801 127.406C551.919 127.407 552.035 127.433 552.143 127.482L554.914 128.451C555.025 128.47 555.132 128.51 555.228 128.571C555.324 128.631 555.407 128.709 555.473 128.802C555.538 128.894 555.585 128.998 555.61 129.109C555.635 129.219 555.638 129.334 555.619 129.445C555.6 129.557 555.56 129.664 555.499 129.759C555.439 129.855 555.361 129.938 555.268 130.004C555.176 130.069 555.072 130.116 554.961 130.141C554.851 130.166 554.736 130.17 554.625 130.151V130.049Z" fill="#D1D3D4"/>
<path d="M538.033 232.492C552.595 232.492 564.4 220.687 564.4 206.125C564.4 191.563 552.595 179.758 538.033 179.758C523.471 179.758 511.666 191.563 511.666 206.125C511.666 220.687 523.471 232.492 538.033 232.492Z" fill="#6DB0E2"/>
<path d="M511.394 198.218C510.956 199.659 510.091 200.933 508.913 201.871C507.735 202.809 506.3 203.367 504.798 203.471C501.061 203.786 497.343 202.688 494.377 200.394C492.666 199.109 491.227 197.497 490.144 195.651C489.219 194.287 488.639 192.72 488.452 191.083C488.266 189.445 488.479 187.787 489.073 186.25C491.249 181.881 498.202 181.15 504.067 183.938C509.558 186.59 512.465 194.104 511.394 198.218Z" fill="white"/>
<path d="M503.404 204.408C499.945 204.314 496.605 203.124 493.867 201.008C492.068 199.653 490.55 197.961 489.396 196.027C488.394 194.545 487.772 192.84 487.585 191.061C487.399 189.282 487.653 187.484 488.325 185.827C490.637 181.169 497.862 179.962 504.441 183.124C510.221 185.912 513.417 193.749 512.227 198.424C511.749 200.034 510.791 201.461 509.483 202.515C508.174 203.569 506.576 204.199 504.9 204.323C504.403 204.377 503.904 204.405 503.404 204.408ZM497.029 183.124C493.765 183.124 490.977 184.348 489.838 186.626C489.295 188.035 489.106 189.556 489.287 191.056C489.468 192.555 490.013 193.988 490.875 195.228C491.902 196.975 493.266 198.5 494.887 199.716C497.675 201.885 501.175 202.929 504.696 202.64C506.029 202.547 507.304 202.055 508.353 201.227C509.402 200.399 510.178 199.274 510.578 197.999C511.496 194.429 509.031 187.272 503.778 184.705C501.675 183.678 499.369 183.138 497.029 183.124Z" fill="#1B3F7E"/>
<path d="M503.2 218.228C503.487 219.253 503.538 220.33 503.35 221.379C503.161 222.427 502.738 223.419 502.112 224.28C501.254 225.244 500.183 225.995 498.984 226.473C497.409 227.269 495.677 227.705 493.913 227.749C492.148 227.793 490.396 227.444 488.784 226.728C486.911 225.598 485.314 224.064 484.109 222.24C481.899 219.214 479.978 215.678 480.216 211.921C480.539 206.515 486.642 200.548 492.116 203.302C496.672 205.563 502.061 213.417 503.2 218.228Z" fill="white"/>
<path d="M493.255 228.633C491.553 228.652 489.872 228.255 488.359 227.477C486.362 226.298 484.664 224.675 483.395 222.734C480.42 218.671 479.128 215.22 479.332 211.871C479.528 210.045 480.144 208.289 481.132 206.74C482.12 205.192 483.453 203.893 485.027 202.946C486.136 202.247 487.405 201.843 488.714 201.771C490.023 201.7 491.328 201.964 492.507 202.538C497.284 204.918 502.843 213.044 504.05 218.025C504.37 219.18 504.424 220.392 504.206 221.57C503.988 222.748 503.504 223.862 502.792 224.825C501.86 225.889 500.697 226.727 499.392 227.273C497.465 228.154 495.374 228.618 493.255 228.633ZM489.226 203.456C488.026 203.466 486.851 203.801 485.826 204.425C484.484 205.217 483.347 206.312 482.506 207.623C481.664 208.934 481.142 210.424 480.981 211.973C480.794 214.914 481.984 218.008 484.704 221.731C485.839 223.45 487.336 224.9 489.09 225.981C490.594 226.65 492.229 226.972 493.874 226.922C495.52 226.872 497.132 226.451 498.593 225.692C499.682 225.277 500.655 224.606 501.432 223.737C501.975 222.979 502.338 222.108 502.495 221.189C502.651 220.27 502.595 219.327 502.333 218.433C501.245 213.877 496.009 206.21 491.708 204.068C490.939 203.675 490.089 203.466 489.226 203.456Z" fill="#1B3F7E"/>
<path d="M494.802 233.053C495.644 234.224 496.224 235.564 496.502 236.98C496.708 238.589 496.45 240.224 495.757 241.691C495.064 243.158 493.966 244.396 492.592 245.259C491.207 246.092 489.67 246.641 488.07 246.875C486.471 247.108 484.841 247.021 483.276 246.619C481.408 246.209 479.648 245.409 478.11 244.273C476.572 243.136 475.291 241.688 474.351 240.023C473.445 238.338 472.992 236.446 473.036 234.532C473.081 232.619 473.622 230.75 474.606 229.109C480.097 220.626 490.501 226.831 494.802 233.053Z" fill="white"/>
<path d="M486.421 247.842C485.305 247.837 484.193 247.706 483.106 247.451C481.119 247.01 479.247 246.156 477.613 244.943C475.978 243.73 474.618 242.187 473.62 240.413C472.634 238.598 472.142 236.557 472.193 234.492C472.244 232.428 472.835 230.413 473.909 228.649C474.687 227.304 475.797 226.182 477.134 225.39C478.471 224.598 479.989 224.163 481.542 224.127C486.778 223.974 492.558 228.309 495.499 232.627C496.429 233.892 497.063 235.351 497.352 236.894C497.588 238.664 497.31 240.464 496.55 242.08C495.79 243.696 494.581 245.059 493.068 246.006C491.078 247.251 488.768 247.889 486.421 247.842ZM481.712 225.742H481.576C480.3 225.767 479.053 226.125 477.958 226.781C476.864 227.437 475.96 228.368 475.337 229.482C474.436 230.995 473.942 232.716 473.903 234.476C473.865 236.237 474.282 237.978 475.116 239.529C475.998 241.088 477.198 242.443 478.64 243.507C480.081 244.57 481.73 245.317 483.48 245.7C484.934 246.085 486.452 246.174 487.941 245.96C489.43 245.747 490.862 245.237 492.15 244.459C493.374 243.679 494.355 242.57 494.98 241.26C495.605 239.949 495.85 238.49 495.686 237.047C495.424 235.751 494.884 234.528 494.105 233.46C491.436 229.686 486.336 225.81 481.712 225.81V225.742Z" fill="#1B3F7E"/>
<path d="M590.461 289.204C590.461 289.204 605.132 245.769 603.092 235.433C601.052 225.097 597.788 183.43 593.589 181.679C589.39 179.928 580.448 191.42 580.159 204.34C579.979 211.96 580.971 219.563 583.1 226.882C583.1 226.882 568.718 232.611 565.879 267.342" fill="white"/>
<path d="M590.461 290.054H590.189C589.977 289.977 589.803 289.82 589.705 289.617C589.606 289.414 589.591 289.18 589.662 288.966C589.815 288.541 604.231 245.633 602.259 235.62C601.63 232.407 600.882 226.304 600.032 219.215C598.519 206.754 595.714 183.515 593.232 182.495C592.766 182.391 592.283 182.397 591.819 182.512C591.356 182.627 590.926 182.848 590.563 183.158C586.687 185.674 581.213 194.446 580.992 204.391C580.801 211.909 581.752 219.412 583.814 226.644C583.877 226.85 583.862 227.071 583.771 227.266C583.68 227.461 583.519 227.615 583.321 227.698C583.185 227.698 569.364 233.784 566.627 267.444C566.609 267.67 566.502 267.879 566.33 268.025C566.158 268.172 565.934 268.244 565.709 268.226C565.484 268.208 565.275 268.101 565.128 267.929C564.981 267.757 564.909 267.534 564.927 267.308C567.443 236.436 578.952 228.208 581.927 226.508C579.967 219.31 579.062 211.866 579.241 204.408C579.462 194.446 584.783 184.892 589.594 181.781C590.174 181.294 590.87 180.964 591.614 180.824C592.359 180.684 593.127 180.738 593.844 180.982C596.717 182.172 598.587 193.698 601.647 219.062C602.497 226.117 603.245 232.203 603.857 235.348C605.914 245.803 591.804 287.776 591.209 289.561C591.143 289.705 591.037 289.827 590.905 289.914C590.773 290.001 590.619 290.05 590.461 290.054Z" fill="#1B3F7E"/>
<path d="M524.467 216.546C523.969 216.553 523.476 216.45 523.022 216.245C522.568 216.04 522.165 215.738 521.84 215.361C521.516 214.983 521.279 214.538 521.145 214.059C521.011 213.579 520.985 213.076 521.067 212.585L523.566 197.523C523.615 197.062 523.757 196.616 523.984 196.213C524.211 195.809 524.518 195.456 524.887 195.176C525.255 194.895 525.677 194.693 526.127 194.581C526.576 194.469 527.044 194.45 527.5 194.526C527.957 194.601 528.394 194.769 528.784 195.019C529.174 195.27 529.508 195.597 529.767 195.981C530.026 196.365 530.203 196.798 530.289 197.253C530.374 197.708 530.366 198.176 530.264 198.628L528.666 208.318L552.194 201.229C553.057 200.963 553.991 201.051 554.79 201.473C555.588 201.895 556.186 202.618 556.452 203.481C556.718 204.345 556.631 205.278 556.208 206.077C555.786 206.876 555.063 207.474 554.2 207.74L525.436 216.393C525.122 216.49 524.796 216.542 524.467 216.546Z" fill="white"/>
<path d="M570.894 405.415L584.545 336.514L509.082 315.74L480.335 405.415H570.894Z" fill="#1B3F7E"/>
<path d="M570.894 406.299H480.318C480.186 406.298 480.056 406.266 479.939 406.207C479.821 406.148 479.718 406.063 479.638 405.959C479.561 405.849 479.511 405.723 479.49 405.59C479.47 405.457 479.479 405.322 479.519 405.194L508.3 315.485C508.37 315.278 508.516 315.105 508.708 315.001C508.901 314.897 509.125 314.869 509.337 314.924L584.8 335.698C585.008 335.754 585.187 335.887 585.3 336.07C585.414 336.253 585.454 336.473 585.412 336.684L571.812 405.585C571.775 405.796 571.66 405.987 571.49 406.119C571.321 406.25 571.108 406.315 570.894 406.299ZM481.491 404.599H570.197L583.559 337.143L509.643 316.743L481.491 404.599Z" fill="#1B3F7E"/>
<path d="M374.561 174.199C374.561 174.199 410.261 138.499 452.948 146.489L450.109 159.222L476.476 149.6L457.776 122.621L456.161 134.113C456.161 134.113 418.948 119.68 361.114 144.925L374.561 174.199Z" fill="#E30238"/>
<defs>
<clipPath id="clip0_3046_49298">
<rect width="268" height="268" fill="white" transform="translate(11 57)"/>
</clipPath>
</defs>
</svg>
