<svg width="418" height="339" viewBox="0 0 418 339" fill="none" xmlns="http://www.w3.org/2000/svg">
<path d="M418 164V298H284V184.664L304.664 164H418Z" fill="#1B3F7E"/>
<path d="M418 30V164H284V50.664L304.664 30H418Z" fill="#E30238"/>
<path d="M57.0684 298.524L37.667 321.214C37.667 321.214 0.1207 300.177 1.49995 296.03C2.8792 291.884 27.2766 298.142 27.2766 298.142L39.3834 282.475" fill="white"/>
<path d="M37.6669 321.979C37.5315 321.981 37.3982 321.944 37.2838 321.871C25.836 315.461 -0.645555 300.069 0.77967 295.785C2.20489 291.501 20.5949 295.663 26.9854 297.315L38.7857 282.015C38.9122 281.858 39.0944 281.757 39.2943 281.731C39.4942 281.705 39.6963 281.758 39.8584 281.877C40.0186 282.001 40.1231 282.184 40.149 282.384C40.1748 282.585 40.1199 282.788 39.9963 282.948L27.8896 298.615C27.7983 298.734 27.6742 298.824 27.5325 298.872C27.3909 298.921 27.238 298.928 27.0927 298.891C15.6449 295.953 2.92517 294.209 2.22022 296.29C1.88307 298.661 20.1505 310.519 37.4677 320.265L56.486 298.019C56.6228 297.89 56.8023 297.815 56.9905 297.81C57.1786 297.805 57.3622 297.868 57.5061 297.989C57.6501 298.11 57.7444 298.28 57.7711 298.466C57.7977 298.652 57.7549 298.841 57.6507 298.998L38.234 321.688C38.169 321.777 38.0838 321.85 37.9852 321.901C37.8867 321.951 37.7777 321.978 37.6669 321.979Z" fill="#003876"/>
<path d="M119.502 83.1468C117.468 81.1602 114.904 79.8005 112.116 79.23C109.725 78.8781 108.407 79.8879 106.415 80.76C105.618 81.1119 105.526 82.2901 104.683 82.642C103.84 82.9939 102.109 82.1218 101.143 82.0912C98.566 81.9471 95.9905 82.4012 93.6187 83.4179C91.2469 84.4346 89.1434 85.9863 87.4732 87.951C85.4054 90.8407 83.7929 94.0295 82.6918 97.4064C76.9603 111.85 68.179 126.354 53.9115 132.596C66.7998 141.776 82.5539 147.606 98.354 146.688C106.074 146.23 113.6 144.094 120.407 140.43C125.755 137.538 135.471 131.556 136.437 124.916C137.341 118.689 134.383 109.142 132.421 103.266C129.981 95.5336 125.522 88.5892 119.502 83.1468Z" fill="white"/>
<path d="M95.105 147.513C81.1133 147.513 66.4626 142.495 53.467 133.192C53.3595 133.111 53.2748 133.004 53.2211 132.881C53.1674 132.757 53.1465 132.622 53.1605 132.488C53.1737 132.356 53.2217 132.23 53.2998 132.122C53.3779 132.015 53.4832 131.93 53.605 131.876C65.4665 126.705 74.7534 115.322 81.9868 97.1148L82.3087 96.2886C83.3873 93.1269 84.9372 90.1456 86.9062 87.4452C88.6485 85.3892 90.846 83.766 93.3249 82.7039C95.8037 81.6417 98.496 81.1697 101.189 81.3252C101.71 81.3673 102.224 81.47 102.722 81.6312C103.257 81.8221 103.823 81.9154 104.392 81.9066C104.561 81.9066 104.714 81.57 104.882 81.2946C105.119 80.7616 105.529 80.3246 106.047 80.0553C106.43 79.887 106.783 79.7034 107.12 79.5351C108.634 78.611 110.414 78.2179 112.177 78.4182C115.112 79.0381 117.812 80.4758 119.962 82.5645C126.074 88.1048 130.605 95.1631 133.096 103.021C135.272 109.508 138.046 118.826 137.142 125.037C136.191 131.494 127.701 137.277 120.728 141.102C113.821 144.799 106.193 146.955 98.3693 147.421C97.2965 147.482 96.2084 147.513 95.105 147.513ZM55.444 132.779C68.9146 142.097 84.0864 146.779 98.354 145.952C105.953 145.52 113.366 143.431 120.069 139.832C129.494 134.737 135.042 129.444 135.701 124.884C136.559 119.009 133.847 109.906 131.732 103.587C129.325 95.982 124.941 89.1505 119.027 83.7885C117.101 81.8961 114.679 80.586 112.039 80.0094C110.578 79.8475 109.106 80.1933 107.871 80.9886C107.518 81.1569 107.151 81.3405 106.752 81.5088C106.542 81.673 106.378 81.8892 106.277 82.1361C106.011 82.7121 105.542 83.1699 104.959 83.4213C104.1 83.5777 103.214 83.4929 102.4 83.1765C101.994 83.0551 101.579 82.9681 101.158 82.9164C98.6974 82.7552 96.2325 83.1675 93.9585 84.1207C91.6845 85.074 89.6636 86.5421 88.0556 88.4091C86.1957 90.9845 84.7385 93.827 83.7339 96.8394L83.3967 97.6656C76.2553 115.658 67.1063 127.133 55.444 132.779Z" fill="#003876"/>
<path d="M92.8829 131.908C95.4269 129.23 86.2165 131.311 85.3583 148.876C84.6994 162.278 89.0364 184.173 89.0364 184.173L60.1947 208.255L78.0177 213.334C78.0177 213.334 110.522 189.742 110.507 188.013C110.491 186.284 92.8829 131.908 92.8829 131.908Z" fill="white"/>
<path d="M78.0177 214.037C77.9521 214.052 77.8841 214.052 77.8184 214.037L59.9955 208.958C59.8735 208.92 59.7638 208.85 59.6777 208.756C59.5915 208.662 59.5319 208.547 59.5051 208.422C59.4834 208.298 59.4947 208.171 59.5377 208.053C59.5808 207.935 59.654 207.83 59.7503 207.749L88.2701 183.942C87.6878 180.882 84.0404 161.206 84.6534 148.875C85.2817 136.16 90.3236 130.882 92.6684 130.331C92.89 130.249 93.1328 130.244 93.3578 130.316C93.5828 130.388 93.7771 130.534 93.9097 130.729C94.0112 130.954 94.0421 131.204 93.9983 131.448C93.9545 131.691 93.8382 131.915 93.6645 132.09C96.8674 141.959 111.135 186.329 111.212 188.012C111.288 189.695 93.3887 203.037 78.4315 213.9C78.3116 213.988 78.1667 214.036 78.0177 214.037ZM61.6506 207.917L77.8798 212.507C89.726 203.909 108.422 189.924 109.786 187.859C109.311 185.273 99.0589 153.281 92.2086 132.06C90.4156 133.391 86.5997 137.95 86.0786 148.89C85.435 162.063 89.7107 183.804 89.7566 184.08C89.7783 184.204 89.767 184.331 89.724 184.449C89.6809 184.567 89.6077 184.672 89.5114 184.753L61.6506 207.917Z" fill="#003876"/>
<path d="M168.067 338.197C260.06 338.197 334.635 333.464 334.635 327.625C334.635 321.786 260.06 317.053 168.067 317.053C76.0747 317.053 1.49995 321.786 1.49995 327.625C1.49995 333.464 76.0747 338.197 168.067 338.197Z" fill="#D1D3D4"/>
<path d="M143.655 117.357C142.597 116.531 95.718 119.438 87.6264 135.059C79.5348 150.681 108.652 197.789 108.652 197.789L167.945 180.057C167.945 180.057 172.174 139.634 143.655 117.357Z" fill="#E30238"/>
<path d="M330.911 255.073C338.573 290.263 313.134 315.86 313.134 315.86H134C134 315.86 108.591 290.37 116.208 255.073C123.824 219.776 177.814 200.543 194.227 186.07C210.64 171.596 204.786 146.993 178.979 128.174C153.171 109.355 118.23 97.4215 119.211 56.7694C119.794 30.7594 140.329 13.8223 140.329 13.8223H306.866C306.866 13.8223 327.401 30.6523 327.984 56.7694C328.903 97.4215 293.962 109.355 268.14 128.174C242.317 146.993 236.463 171.596 252.891 186.07C269.32 200.543 323.294 219.852 330.911 255.073Z" fill="white"/>
<path d="M313.134 316.563H134C133.81 316.561 133.628 316.484 133.494 316.349C133.249 316.088 107.917 290.109 115.533 254.919C121.05 229.429 150.873 211.987 172.65 199.258C181.507 194.086 189.139 189.619 193.767 185.488C196.743 182.989 199.098 179.837 200.649 176.277C202.199 172.717 202.902 168.847 202.702 164.97C202.135 152.73 193.338 139.435 178.565 128.679C173.492 124.976 167.945 121.472 162.581 118.076C140.513 104.138 117.709 89.7096 118.445 56.6922C119.027 30.6822 139.609 13.3932 139.823 13.2249C139.946 13.1168 140.104 13.057 140.268 13.0566H306.866C307.029 13.0597 307.186 13.1192 307.31 13.2249C307.51 13.3932 328.091 30.621 328.689 56.6922C329.424 89.7096 306.605 104.122 284.537 118.076C279.189 121.472 273.641 124.976 268.553 128.679C253.795 139.389 244.999 152.669 244.432 164.97C244.229 168.846 244.929 172.715 246.477 176.275C248.024 179.835 250.377 182.989 253.351 185.488C257.949 189.557 265.611 194.025 274.469 199.258C296.246 211.987 326.083 229.429 331.6 254.919C339.263 290.109 313.885 316.119 313.624 316.349C313.562 316.417 313.486 316.471 313.402 316.508C313.317 316.544 313.226 316.563 313.134 316.563ZM134.291 315.155H312.827C315.172 312.661 337.347 287.998 330.237 255.21C324.842 230.317 295.311 213.074 273.764 200.466C264.86 195.264 257.152 190.766 252.431 186.589C249.286 183.952 246.799 180.62 245.166 176.857C243.533 173.094 242.799 169.004 243.022 164.909C243.62 152.18 252.615 138.563 267.726 127.547C272.86 123.813 278.453 120.294 283.802 116.837C305.533 103.067 327.999 88.8834 327.279 56.6616C326.742 32.5641 308.659 16.1778 306.605 14.403H140.528C138.475 16.1778 120.391 32.5641 119.84 56.6616C119.119 88.8834 141.601 103.097 163.332 116.837C168.711 120.233 174.274 123.752 179.393 127.547C194.503 138.563 203.514 152.18 204.096 164.909C204.313 168.993 203.577 173.071 201.947 176.822C200.317 180.574 197.837 183.896 194.702 186.528C189.967 190.705 182.274 195.203 173.37 200.405C151.808 213.012 122.292 230.255 116.897 255.149C109.802 287.998 131.946 312.661 134.291 315.155Z" fill="#003876"/>
<path d="M170.581 109.402C176.113 112.906 181.845 116.516 187.27 120.479C200.089 129.401 209.746 142.149 214.855 156.893C219.789 171.03 218.41 186.085 221.475 200.697C221.514 201.258 221.683 201.803 221.967 202.288C222.251 202.774 222.644 203.188 223.115 203.497C223.819 203.786 224.596 203.851 225.339 203.684C226.082 203.517 226.755 203.126 227.268 202.564C228.09 201.493 228.58 200.206 228.678 198.861C230.609 187.141 230.517 176.079 231.252 164.206C232.203 149.029 242.547 133.086 259.787 120.54C265.228 116.578 270.944 112.967 276.492 109.463C288.966 101.568 337.792 66.7149 305.333 56.2803C298.391 54.0618 290.652 54.6585 283.25 55.3011L167.209 65.2767C160.481 65.8581 153.616 66.4701 147.471 68.7957C141.325 71.1213 135.931 75.4971 134.843 81.0357C132.851 91.4703 161.508 103.71 170.581 109.402Z" fill="#6DB0E2"/>
<path d="M313.272 252.121C306.481 246.907 298.059 244.267 289.503 244.669C277.641 245.098 266.101 248.969 254.255 248.403C240.141 247.729 226.808 240.753 212.77 242.191C196.296 243.813 184.343 256.282 168.328 259.985C159.823 261.943 150.566 261.316 142.275 263.871C132.498 266.931 128.222 275.147 129.356 283.256C129.709 285.781 136.62 305.609 140.498 305.609H306.575C315.111 305.609 321.547 269.195 320.689 264.146C319.764 259.371 317.127 255.095 313.272 252.121Z" fill="#6DB0E2"/>
<path d="M309.9 0.802734H137.218C133.613 0.802734 130.69 3.71742 130.69 7.31288C130.69 10.9083 133.613 13.823 137.218 13.823H309.9C313.506 13.823 316.429 10.9083 316.429 7.31288C316.429 3.71742 313.506 0.802734 309.9 0.802734Z" fill="#003876"/>
<path d="M309.916 14.4953H137.188C135.277 14.4953 133.445 13.7377 132.094 12.3891C130.744 11.0405 129.985 9.21145 129.985 7.30428C129.985 5.39711 130.744 3.56805 132.094 2.21948C133.445 0.870903 135.277 0.113281 137.188 0.113281H309.916C311.826 0.113281 313.658 0.870903 315.009 2.21948C316.359 3.56805 317.118 5.39711 317.118 7.30428C317.118 9.21145 316.359 11.0405 315.009 12.3891C313.658 13.7377 311.826 14.4953 309.916 14.4953ZM137.188 1.47498C136.395 1.43444 135.602 1.55535 134.857 1.83038C134.112 2.10541 133.431 2.5288 132.856 3.0748C132.28 3.6208 131.822 4.27799 131.509 5.00641C131.195 5.73482 131.034 6.51923 131.034 7.31193C131.034 8.10462 131.195 8.88904 131.509 9.61745C131.822 10.3459 132.28 11.0031 132.856 11.5491C133.431 12.0951 134.112 12.5184 134.857 12.7935C135.602 13.0685 136.395 13.1894 137.188 13.1489H309.916C311.414 13.0722 312.826 12.4238 313.86 11.3376C314.894 10.2514 315.47 8.81026 315.47 7.31193C315.47 5.8136 314.894 4.37249 313.86 3.28625C312.826 2.20001 311.414 1.55162 309.916 1.47498H137.188Z" fill="#003876"/>
<path d="M313.241 315.859H133.893C130.287 315.859 127.364 318.774 127.364 322.37C127.364 325.965 130.287 328.88 133.893 328.88H313.241C316.847 328.88 319.77 325.965 319.77 322.37C319.77 318.774 316.847 315.859 313.241 315.859Z" fill="#003876"/>
<path d="M313.241 329.568H133.939C132.028 329.568 130.196 328.81 128.845 327.461C127.495 326.113 126.736 324.284 126.736 322.377C126.736 320.469 127.495 318.64 128.845 317.292C130.196 315.943 132.028 315.186 133.939 315.186H313.241C315.151 315.186 316.983 315.943 318.334 317.292C319.685 318.64 320.444 320.469 320.444 322.377C320.444 324.284 319.685 326.113 318.334 327.461C316.983 328.81 315.151 329.568 313.241 329.568ZM133.939 316.532C132.386 316.532 130.897 317.148 129.799 318.244C128.701 319.34 128.084 320.826 128.084 322.377C128.084 323.927 128.701 325.413 129.799 326.509C130.897 327.605 132.386 328.221 133.939 328.221H313.241C314.794 328.221 316.283 327.605 317.381 326.509C318.478 325.413 319.095 323.927 319.095 322.377C319.095 320.826 318.478 319.34 317.381 318.244C316.283 317.148 314.794 316.532 313.241 316.532H133.939Z" fill="#003876"/>
<path d="M220.923 209.279C215.958 209.279 215.943 225.681 220.923 225.681C225.904 225.681 225.904 209.279 220.923 209.279Z" fill="#6DB0E2"/>
<path d="M229.613 225.65C227.605 225.65 227.605 231.449 229.613 231.449C231.62 231.449 231.635 225.65 229.613 225.65Z" fill="#6DB0E2"/>
<path d="M217.337 94.1309C194.527 93.9357 171.86 90.51 150.015 83.9564C149.927 83.9305 149.845 83.8869 149.774 83.8284C149.704 83.7698 149.646 83.6975 149.604 83.6159C149.563 83.5343 149.538 83.445 149.532 83.3536C149.526 83.2622 149.539 83.1705 149.57 83.0843C149.63 82.9081 149.756 82.7626 149.923 82.6794C150.089 82.5963 150.282 82.5823 150.459 82.6406C151.409 82.9619 246.577 113.791 297.579 66.1472C297.716 66.0251 297.896 65.9614 298.079 65.9694C298.263 65.9775 298.436 66.0568 298.562 66.1904C298.687 66.324 298.756 66.5014 298.753 66.6848C298.75 66.8682 298.675 67.0431 298.544 67.1723C276.047 88.1792 245.137 94.1309 217.337 94.1309Z" fill="#003876"/>
<path d="M195.867 279.11C177.961 279.11 160.149 276.534 142.98 271.46C142.886 271.436 142.797 271.394 142.72 271.335C142.643 271.275 142.579 271.201 142.532 271.116C142.485 271.031 142.456 270.937 142.447 270.84C142.438 270.743 142.45 270.646 142.48 270.554C142.511 270.461 142.561 270.377 142.626 270.305C142.691 270.232 142.771 270.175 142.859 270.135C142.948 270.095 143.044 270.074 143.141 270.072C143.239 270.071 143.335 270.09 143.425 270.128C143.93 270.312 195.652 287.219 242.394 270.128L297.824 249.856C297.913 249.812 298.01 249.787 298.11 249.784C298.209 249.78 298.308 249.797 298.4 249.834C298.492 249.871 298.575 249.927 298.644 249.999C298.713 250.07 298.766 250.155 298.799 250.248C298.833 250.342 298.847 250.441 298.839 250.54C298.832 250.638 298.804 250.735 298.756 250.822C298.709 250.909 298.644 250.985 298.565 251.046C298.486 251.106 298.396 251.149 298.299 251.172L242.93 271.414C227.811 276.697 211.884 279.301 195.867 279.11Z" fill="#003876"/>
<path d="M265.059 253.358H264.891C248.922 249.426 221.046 242.74 220.755 242.648C220.587 242.591 220.447 242.474 220.362 242.319C220.277 242.165 220.254 241.984 220.296 241.812C220.339 241.641 220.444 241.492 220.591 241.394C220.739 241.297 220.917 241.258 221.092 241.286C221.368 241.363 249.244 248.033 265.228 251.996C265.318 252.016 265.404 252.054 265.479 252.107C265.554 252.16 265.618 252.228 265.667 252.307C265.716 252.385 265.748 252.473 265.762 252.564C265.776 252.655 265.772 252.748 265.749 252.838C265.708 252.989 265.618 253.122 265.493 253.216C265.369 253.31 265.216 253.36 265.059 253.358Z" fill="#003876"/>
<path d="M120.437 120.004L123.747 130.347C123.747 130.347 123.916 135.503 116.468 136.1C109.02 136.696 106.446 132.29 106.446 132.29L100.99 112.783C100.99 112.783 109.909 103.511 104.76 92.8926C106.953 95.0143 109.748 96.4108 112.763 96.8925C115.779 97.3743 118.87 96.9179 121.617 95.5854C123.371 100.644 124.815 105.804 125.939 111.038C126.874 116.653 120.437 120.004 120.437 120.004Z" fill="white"/>
<path d="M115.089 136.91C108.346 136.91 105.894 132.856 105.787 132.672C105.781 132.611 105.781 132.55 105.787 132.489L100.316 112.996C100.283 112.868 100.282 112.734 100.314 112.606C100.347 112.478 100.41 112.359 100.499 112.262C100.591 112.17 108.99 103.22 104.147 93.244C104.072 93.0806 104.057 92.896 104.104 92.7226C104.152 92.5492 104.259 92.3982 104.408 92.2959C104.556 92.1937 104.735 92.1468 104.914 92.1635C105.094 92.1802 105.261 92.2594 105.388 92.3872C107.467 94.4067 110.121 95.7337 112.986 96.1857C115.851 96.6378 118.786 96.1927 121.387 94.9117C121.483 94.8667 121.588 94.8434 121.694 94.8434C121.8 94.8434 121.905 94.8667 122 94.9117C122.104 94.9477 122.197 95.0082 122.272 95.0882C122.347 95.1682 122.401 95.2652 122.43 95.3707C124.212 100.464 125.666 105.667 126.782 110.946C127.625 116.056 123.073 119.361 121.433 120.371L124.498 130.132C124.506 130.198 124.506 130.265 124.498 130.331C124.498 130.331 124.59 136.222 116.514 136.864C116.024 136.895 115.549 136.91 115.089 136.91ZM107.151 131.968C107.518 132.519 110.016 135.839 116.346 135.334C122.675 134.829 122.905 131.127 122.92 130.469L119.656 120.249C119.598 120.077 119.604 119.89 119.671 119.722C119.738 119.554 119.863 119.415 120.024 119.331C120.024 119.331 125.954 116.163 125.127 111.176C124.092 106.252 122.751 101.398 121.112 96.6406C118.741 97.6606 116.151 98.0663 113.582 97.8202C111.013 97.5742 108.548 96.6842 106.415 95.233C108.944 103.923 103.181 111.344 101.817 112.981L107.151 131.968Z" fill="#003876"/>
<path d="M104.07 111.161C103.513 110.3 102.698 109.636 101.741 109.264C100.832 108.964 99.8778 108.824 98.921 108.851C98.4003 108.798 97.8746 108.871 97.3885 109.065C97.0583 109.227 96.7658 109.456 96.5303 109.738C95.8976 110.337 95.5099 111.15 95.4422 112.018C95.4566 112.721 95.6462 113.41 95.9939 114.022C96.313 114.713 96.7255 115.356 97.2199 115.935C97.7222 116.506 98.3331 116.971 99.0171 117.305C99.7012 117.638 100.445 117.833 101.205 117.877C101.965 117.921 102.726 117.814 103.444 117.562C104.162 117.31 104.823 116.918 105.388 116.409" fill="white"/>
<path d="M101.526 118.657H101.158C100.283 118.616 99.4252 118.4 98.6353 118.022C97.8454 117.643 97.14 117.11 96.5609 116.454C96.0246 115.823 95.5761 115.123 95.2276 114.373C94.832 113.649 94.6165 112.841 94.5993 112.017C94.6752 110.963 95.1328 109.973 95.8866 109.232C96.1962 108.879 96.5708 108.588 96.99 108.375C97.5894 108.142 98.2339 108.048 98.875 108.1C99.9157 108.072 100.953 108.227 101.94 108.559C103.054 108.99 104 109.768 104.637 110.777C104.693 110.862 104.731 110.957 104.748 111.057C104.766 111.157 104.763 111.259 104.741 111.357C104.718 111.456 104.675 111.549 104.615 111.631C104.555 111.713 104.479 111.781 104.392 111.833C104.218 111.937 104.011 111.969 103.814 111.924C103.617 111.878 103.445 111.758 103.335 111.588C102.871 110.886 102.194 110.35 101.404 110.058C100.571 109.795 99.7016 109.671 98.829 109.691C98.4253 109.646 98.0165 109.693 97.6337 109.829C97.3961 109.959 97.1834 110.13 97.0054 110.334C96.5164 110.812 96.2079 111.444 96.1318 112.124C96.1534 112.7 96.3166 113.262 96.6069 113.761C96.8941 114.389 97.2653 114.976 97.7103 115.505C98.6003 116.496 99.8434 117.1 101.174 117.188C101.831 117.225 102.489 117.132 103.109 116.914C103.73 116.696 104.302 116.358 104.79 115.918C104.862 115.846 104.946 115.79 105.04 115.751C105.133 115.712 105.233 115.692 105.334 115.692C105.436 115.692 105.536 115.712 105.629 115.751C105.723 115.79 105.807 115.846 105.879 115.918C105.95 115.988 106.007 116.071 106.045 116.163C106.084 116.255 106.104 116.354 106.104 116.454C106.104 116.553 106.084 116.652 106.045 116.744C106.007 116.836 105.95 116.919 105.879 116.989C104.683 118.061 103.133 118.655 101.526 118.657Z" fill="#003876"/>
<path d="M114.568 103.48C114.568 103.48 120.1 107.489 119.594 108.728C119.089 109.968 116.529 110.258 116.529 110.258" fill="white"/>
<path d="M116.483 110.993C116.28 111.003 116.081 110.932 115.93 110.796C115.779 110.66 115.689 110.469 115.679 110.266C115.669 110.063 115.74 109.865 115.876 109.714C116.013 109.564 116.204 109.473 116.407 109.463C117.311 109.371 118.675 108.958 118.889 108.438C117.54 106.747 115.932 105.281 114.123 104.093C113.963 103.974 113.855 103.796 113.824 103.599C113.792 103.402 113.839 103.2 113.955 103.037C114.013 102.954 114.087 102.883 114.173 102.829C114.259 102.776 114.355 102.74 114.455 102.724C114.555 102.708 114.658 102.713 114.756 102.738C114.855 102.763 114.947 102.807 115.028 102.869C119.012 105.76 120.79 107.826 120.315 108.989C119.656 110.519 117.081 110.901 116.575 110.947L116.483 110.993Z" fill="#003876"/>
<path d="M111.21 103.551C111.646 103.274 111.682 102.553 111.291 101.94C110.9 101.327 110.23 101.054 109.795 101.331C109.359 101.608 109.323 102.329 109.714 102.942C110.104 103.555 110.774 103.828 111.21 103.551Z" fill="#003876"/>
<path d="M117.105 101.397C117.54 101.12 117.577 100.399 117.186 99.7857C116.795 99.1726 116.125 98.9 115.69 99.1767C115.254 99.4534 115.218 100.175 115.609 100.788C115.999 101.401 116.669 101.674 117.105 101.397Z" fill="#003876"/>
<path d="M121.265 111.359C121.265 111.359 113.848 119.208 109.97 111.359H121.265Z" fill="white"/>
<path d="M114.614 115.643C114.354 115.665 114.092 115.665 113.832 115.643C112.799 115.448 111.833 114.991 111.028 114.315C110.223 113.64 109.605 112.769 109.235 111.787C109.149 111.604 109.138 111.395 109.204 111.203C109.269 111.012 109.407 110.854 109.587 110.762C109.678 110.718 109.776 110.691 109.877 110.685C109.977 110.679 110.078 110.692 110.174 110.725C110.269 110.758 110.357 110.809 110.433 110.876C110.508 110.942 110.57 111.023 110.614 111.114C110.879 111.867 111.33 112.542 111.924 113.077C112.519 113.612 113.238 113.989 114.016 114.174C117.081 114.648 120.637 111.007 120.667 110.976C120.738 110.904 120.823 110.848 120.916 110.809C121.01 110.77 121.11 110.75 121.211 110.75C121.312 110.75 121.412 110.77 121.506 110.809C121.599 110.848 121.684 110.904 121.755 110.976C121.897 111.122 121.976 111.317 121.976 111.519C121.976 111.722 121.897 111.917 121.755 112.062C121.679 112.078 118.261 115.643 114.614 115.643Z" fill="#003876"/>
<path d="M120.437 120.004C120.437 120.004 115.028 121.534 112.085 120.876C112.085 120.876 115.993 126.43 122.322 126.262L120.437 120.004Z" fill="#003876"/>
<path d="M122.046 127.028C115.549 127.028 111.625 121.55 111.457 121.305C111.368 121.178 111.321 121.026 111.321 120.871C111.321 120.716 111.368 120.564 111.456 120.437C111.544 120.309 111.669 120.211 111.814 120.156C111.959 120.1 112.118 120.09 112.269 120.127C114.982 120.8 120.177 119.301 120.223 119.286C120.416 119.228 120.624 119.249 120.802 119.344C120.979 119.438 121.113 119.599 121.173 119.791L123.058 126.033C123.095 126.146 123.104 126.266 123.085 126.383C123.067 126.5 123.02 126.61 122.951 126.706C122.882 126.801 122.792 126.879 122.688 126.935C122.585 126.991 122.47 127.022 122.353 127.028H122.046ZM113.924 121.826C115.888 123.85 118.492 125.137 121.295 125.467L119.932 120.877C117.976 121.405 115.965 121.703 113.939 121.764L113.924 121.826Z" fill="#003876"/>
<path d="M167.945 180.117C167.945 180.117 167.945 209.983 164.466 222.59C154.566 258.331 82.278 315.43 82.278 315.43L66.2634 299.549L110.292 236.238L57.0684 298.463L39.3834 282.413L108.652 197.789L167.945 180.117Z" fill="#003876"/>
<path d="M82.278 316.196C82.0787 316.194 81.8873 316.118 81.7417 315.982L65.727 300.162C65.5988 300.036 65.5194 299.868 65.5026 299.689C65.4857 299.51 65.5327 299.331 65.6351 299.183L100.959 248.371L57.6508 299.014C57.5859 299.096 57.5046 299.162 57.4121 299.21C57.3197 299.257 57.2182 299.284 57.1144 299.29C57.0136 299.297 56.9124 299.283 56.8173 299.249C56.7223 299.215 56.6355 299.161 56.5627 299.091L38.8776 283.041C38.7418 282.899 38.666 282.71 38.666 282.513C38.666 282.317 38.7418 282.128 38.8776 281.986L108.07 197.361C108.165 197.245 108.293 197.159 108.438 197.116L167.73 179.384C167.845 179.354 167.964 179.349 168.081 179.371C168.197 179.392 168.308 179.438 168.405 179.506C168.498 179.579 168.574 179.672 168.627 179.778C168.68 179.883 168.709 180 168.711 180.118C168.711 181.342 168.711 210.229 165.202 222.805C161.064 237.753 145.923 257.995 120.192 282.965C101.082 301.524 82.937 315.89 82.7531 316.028C82.6177 316.135 82.4507 316.194 82.278 316.196ZM67.2595 299.55L82.324 314.437C88.9137 309.143 154.459 255.899 163.73 222.407C166.795 211.345 167.133 186.514 167.179 181.097L109.097 198.57L40.4408 282.46L57.0071 297.5L109.71 235.871C109.835 235.722 110.014 235.626 110.209 235.606C110.404 235.586 110.598 235.643 110.752 235.764C110.908 235.88 111.012 236.053 111.041 236.245C111.069 236.437 111.021 236.633 110.905 236.789L67.2595 299.55Z" fill="#003876"/>
<path d="M66.2634 299.549L54.7696 312.294C54.7696 312.294 35.9352 305.975 36.7628 309.54C37.5903 313.105 62.1103 332.995 63.3517 333.408C64.593 333.821 82.278 315.369 82.278 315.369" fill="white"/>
<path d="M63.3363 334.234H63.1218C61.5893 333.73 36.9313 313.687 36.0272 309.754C35.9555 309.5 35.9563 309.231 36.0294 308.977C36.1025 308.723 36.245 308.494 36.4409 308.316C38.5405 306.419 50.2334 310.045 54.5398 311.376L65.6964 299.014C65.8358 298.877 66.0223 298.799 66.2176 298.795C66.413 298.791 66.6024 298.862 66.7473 298.993C66.8921 299.124 66.9814 299.305 66.9968 299.499C67.0123 299.694 66.9527 299.887 66.8304 300.039L55.3367 312.769C55.2369 312.879 55.1069 312.959 54.9626 312.997C54.8183 313.035 54.666 313.03 54.5244 312.983C46.1876 310.183 38.3719 308.546 37.4677 309.372C38.234 312.432 60.6698 330.792 63.4436 332.567C65.2366 331.557 74.0485 322.821 81.7263 314.819C81.7962 314.747 81.8797 314.691 81.9718 314.652C82.0639 314.614 82.1628 314.594 82.2627 314.594C82.3626 314.594 82.4615 314.614 82.5536 314.652C82.6457 314.691 82.7291 314.747 82.7991 314.819C82.8709 314.89 82.9279 314.974 82.9668 315.068C83.0057 315.161 83.0257 315.261 83.0257 315.362C83.0257 315.463 83.0057 315.563 82.9668 315.656C82.9279 315.749 82.8709 315.834 82.7991 315.905C66.7691 332.735 64.1179 334.234 63.3363 334.234Z" fill="#003876"/>
<path d="M84.1324 305.531C84.0326 305.533 83.9339 305.511 83.8436 305.469C83.7534 305.427 83.6739 305.364 83.6113 305.287C83.552 305.22 83.5068 305.143 83.4785 305.058C83.4501 304.974 83.4392 304.885 83.4464 304.796C83.4535 304.707 83.4786 304.621 83.5201 304.542C83.5617 304.464 83.6187 304.394 83.6879 304.338C84.2856 303.833 143.241 253.588 154.965 225.237C166.581 197.162 160.466 185.962 160.405 185.855C160.315 185.699 160.292 185.513 160.339 185.34C160.387 185.166 160.501 185.019 160.658 184.929C160.814 184.84 161 184.816 161.174 184.864C161.348 184.911 161.495 185.025 161.585 185.182C161.845 185.641 168.144 196.947 156.221 225.757C144.298 254.567 85.1591 304.858 84.5615 305.317C84.4505 305.44 84.2973 305.516 84.1324 305.531Z" fill="white"/>
<path d="M114.568 212.172C114.397 212.168 114.234 212.103 114.108 211.989C114.044 211.927 113.993 211.853 113.958 211.772C113.924 211.69 113.906 211.603 113.906 211.514C113.906 211.426 113.924 211.338 113.958 211.256C113.993 211.175 114.044 211.101 114.108 211.04L128.943 194.883C129.037 194.784 129.159 194.715 129.292 194.685C129.426 194.655 129.566 194.665 129.694 194.715C129.82 194.764 129.929 194.85 130.005 194.962C130.082 195.074 130.123 195.207 130.123 195.342V207.368C130.123 207.546 130.052 207.718 129.925 207.844C129.799 207.97 129.627 208.041 129.448 208.041C129.27 208.041 129.098 207.97 128.972 207.844C128.845 207.718 128.774 207.546 128.774 207.368V197.04L115.104 211.912C115.039 211.991 114.957 212.055 114.864 212.1C114.772 212.145 114.671 212.17 114.568 212.172Z" fill="white"/>
<path d="M99.9018 220.142L119.625 197.85H70.7076L44.4559 223.829L99.9018 220.142Z" fill="white"/>
<path d="M44.4559 224.58C44.3202 224.58 44.1872 224.542 44.0731 224.468C43.9589 224.395 43.8683 224.29 43.8123 224.167C43.7541 224.038 43.7362 223.895 43.7608 223.756C43.7854 223.617 43.8514 223.488 43.9502 223.387L70.2172 197.377C70.3503 197.252 70.5251 197.181 70.7076 197.178H119.625C119.761 197.176 119.895 197.214 120.01 197.287C120.124 197.361 120.214 197.466 120.269 197.591C120.319 197.714 120.336 197.849 120.317 197.98C120.298 198.112 120.244 198.236 120.161 198.341L100.407 220.617C100.285 220.752 100.115 220.835 99.9324 220.847L44.5019 224.58H44.4559ZM70.9988 198.57L46.2796 223.05L99.5646 219.516L118.077 198.57H70.9988Z" fill="#003876"/>
<path d="M136.437 124.915C136.437 124.915 148.482 173.186 145.141 174.716C141.8 176.246 100.055 189.557 97.7409 190.567C95.4269 191.577 89.8026 195.647 88.7758 197.85C87.7491 200.053 86.8142 208.789 88.7758 208.223C91.6443 207.554 94.4693 206.711 97.2352 205.699C98.7677 204.903 100.99 200.298 100.99 200.298C100.99 200.298 100.714 204.75 102.814 203.801C104.913 202.853 108.652 197.85 108.652 197.85C108.652 197.85 161.294 196.06 166.412 185.518C171.531 174.976 168.726 152.21 160.282 134.814C151.838 117.418 137.187 114.266 136.437 124.915Z" fill="white"/>
<path d="M88.6073 208.958C88.4212 208.955 88.238 208.911 88.0711 208.829C87.9041 208.747 87.7575 208.629 87.6418 208.484C86.2165 206.816 87.274 199.411 88.1475 197.544C89.2662 195.142 94.9978 191.026 97.4651 189.894C98.5072 189.435 106.921 186.681 116.683 183.483C128.943 179.46 143.011 174.885 144.85 174.028C146.382 172.207 141.402 147.681 135.747 125.068C135.739 124.992 135.739 124.915 135.747 124.839C136.007 121.182 137.877 118.719 140.881 118.183C146.398 117.127 155.026 122.375 160.911 134.478C169.477 152.103 172.236 175.13 167.041 185.794C161.845 196.458 113.939 198.309 109.02 198.493C108.147 199.64 105.097 203.511 103.105 204.414C102.84 204.555 102.543 204.622 102.244 204.608C101.944 204.595 101.654 204.501 101.404 204.337C100.908 203.926 100.576 203.35 100.469 202.716C99.7855 204.116 98.7893 205.341 97.557 206.296C95.4313 207.137 93.2435 207.812 91.0133 208.315C90.201 208.53 89.4808 208.713 88.975 208.866C88.8567 208.912 88.7332 208.943 88.6073 208.958ZM137.142 124.808C137.448 126.047 140.283 137.522 142.72 149.043C148.022 174.089 146.352 174.87 145.448 175.283C143.532 176.17 129.494 180.76 117.112 184.799C107.794 187.859 98.9976 190.72 98.0321 191.149C95.6567 192.204 90.3696 196.182 89.4042 198.08C88.4387 199.977 87.8716 206.816 88.7145 207.535C89.3446 207.28 89.9959 207.08 90.6608 206.938C92.7869 206.446 94.8761 205.807 96.9134 205.026C97.8789 204.521 99.534 201.629 100.346 199.931C100.419 199.789 100.537 199.675 100.683 199.609C100.829 199.543 100.992 199.528 101.148 199.567C101.303 199.606 101.44 199.697 101.536 199.824C101.633 199.952 101.684 200.108 101.679 200.268C101.544 201.262 101.727 202.274 102.201 203.159C102.277 203.159 102.415 203.159 102.538 203.159C104.07 202.44 107.135 198.768 108.101 197.406C108.163 197.322 108.243 197.253 108.336 197.206C108.429 197.158 108.532 197.132 108.637 197.131C108.76 197.131 121.924 196.672 135.532 194.928C158.029 192.051 164.405 188.043 165.784 185.197C170.795 174.87 168.037 152.394 159.654 135.09C154.137 123.768 145.999 118.642 141.157 119.575C138.797 120.034 137.387 121.901 137.187 124.869L137.142 124.808Z" fill="#003876"/>
<path d="M99.9018 220.143C98.0321 217.465 73.6654 177.303 73.6654 177.303L16.2579 182.933L44.4559 223.861L99.9018 220.143Z" fill="white"/>
<path d="M44.4559 224.579C44.3415 224.578 44.229 224.55 44.1277 224.496C44.0264 224.443 43.9393 224.367 43.8736 224.273L15.6909 183.269C15.6318 183.164 15.6008 183.045 15.6008 182.925C15.6008 182.804 15.6318 182.686 15.6909 182.581C15.7423 182.469 15.8213 182.373 15.9206 182.3C16.0198 182.228 16.136 182.182 16.2579 182.168L73.65 176.552C73.7815 176.536 73.915 176.557 74.0346 176.614C74.1542 176.671 74.2547 176.761 74.3243 176.874C74.5695 177.287 98.7064 217.082 100.53 219.714C100.594 219.82 100.627 219.942 100.627 220.066C100.627 220.19 100.594 220.311 100.53 220.418C100.477 220.529 100.395 220.625 100.292 220.694C100.19 220.764 100.071 220.806 99.9477 220.815L44.5019 224.579H44.4559ZM17.5146 183.483L44.7931 223.11L98.6605 219.53C94.584 213.104 75.673 182.045 73.2823 178.006L17.5146 183.483Z" fill="#003876"/>
<path d="M64.4091 202.807C63.5399 200.95 62.2172 199.34 60.5625 198.126C59.5398 197.291 58.3023 196.761 56.9918 196.596C56.3381 196.533 55.6794 196.641 55.0802 196.909C54.481 197.177 53.9621 197.596 53.5743 198.126C53.0552 199.023 52.8553 200.069 53.0073 201.094C53.1093 202.304 53.4732 203.478 54.0738 204.535C54.6744 205.592 55.4974 206.505 56.486 207.214C59.9955 209.57 66.9837 208.269 64.4091 202.807Z" fill="white"/>
<path d="M60.4399 209.02C58.902 209.037 57.3931 208.601 56.1029 207.765C55.0279 207.012 54.1316 206.033 53.4775 204.896C52.8234 203.759 52.4275 202.492 52.3177 201.186C52.1373 200.005 52.3758 198.798 52.9919 197.774C53.4509 197.143 54.0672 196.643 54.7796 196.324C55.4921 196.004 56.2759 195.877 57.0531 195.953C58.4915 196.107 59.857 196.664 60.9916 197.56C62.7291 198.847 64.1193 200.546 65.0374 202.502C66.4166 205.439 65.2213 207.092 64.3784 207.78C63.2487 208.636 61.8568 209.074 60.4399 209.02ZM56.6853 197.33C56.1979 197.316 55.7142 197.419 55.2744 197.629C54.8347 197.839 54.4514 198.151 54.1567 198.539C53.7261 199.3 53.5642 200.184 53.6969 201.048C53.7928 202.152 54.1275 203.221 54.6778 204.182C55.2282 205.144 55.9811 205.975 56.8845 206.617C57.8587 207.26 58.9963 207.611 60.1637 207.63C61.3311 207.649 62.4797 207.335 63.4743 206.725C64.4244 205.914 64.5163 204.69 63.7808 203.098C62.9549 201.352 61.7068 199.837 60.1487 198.692C59.2335 197.944 58.1212 197.477 56.9458 197.346L56.6853 197.33Z" fill="#003876"/>
<path d="M57.1297 200.559C57.7912 201.48 58.405 202.435 58.9687 203.42L60.1947 200.559" fill="white"/>
<path d="M59.03 204.124C58.9081 204.123 58.7886 204.091 58.6836 204.029C58.5786 203.967 58.4919 203.878 58.4323 203.772C57.7734 202.671 56.8998 201.37 56.7466 201.095C56.6682 201.026 56.6057 200.941 56.5634 200.846C56.5211 200.751 56.4999 200.648 56.5014 200.544C56.5014 200.361 56.574 200.186 56.7034 200.057C56.8327 199.928 57.0081 199.855 57.191 199.855C57.5895 199.855 57.6967 199.855 58.9227 201.89L59.6123 200.36C59.6836 200.188 59.8204 200.051 59.9928 199.979C60.1652 199.908 60.3591 199.907 60.5319 199.978C60.7017 200.052 60.8356 200.19 60.9044 200.362C60.9732 200.533 60.9715 200.725 60.8997 200.896L59.6736 203.772C59.6205 203.89 59.5372 203.991 59.4323 204.066C59.3274 204.142 59.2045 204.188 59.076 204.201L59.03 204.124Z" fill="#003876"/>
</svg>
