<svg width="603" height="473" viewBox="0 0 603 473" fill="none" xmlns="http://www.w3.org/2000/svg">
<path d="M536 288V422H402V308.664L422.664 288H536Z" fill="#6DB0E2"/>
<path d="M402 154V288H268V174.664L288.664 154H402Z" fill="#1B3F7E"/>
<path d="M536 154V288H402V174.664L422.664 154H536Z" fill="#E30238"/>
<path d="M155.196 376.278C122.685 360.361 88.1494 348.973 52.5505 342.43C70.9041 330.255 71.9409 299.083 75.015 277.263C84.9103 207.238 154.341 162.508 208.328 125.658C212.876 122.454 217.587 119.49 222.444 116.777C228.173 113.702 244.126 104.184 248.31 112.974C252.329 121.436 242.361 136.831 237.396 143.037C240.691 138.126 244.339 133.461 248.31 129.079C249.53 127.442 251.226 126.222 253.166 125.585C256.804 124.748 260.278 128.205 260.824 131.881C261.37 135.557 259.842 139.16 258.168 142.527C254.137 150.477 249.113 157.882 243.216 164.565C247.182 160.07 261.843 143.237 261.534 160.288C261.279 171.029 256.802 181.235 249.074 188.695C252.466 185.716 256.118 183.049 259.987 180.724C260.531 180.296 261.158 179.986 261.828 179.814C262.499 179.642 263.197 179.611 263.88 179.723C264.602 180.075 265.222 180.605 265.681 181.265C266.14 181.924 266.421 182.691 266.499 183.49C268.937 194.409 262.861 202.234 258.714 211.569C255.476 218.849 253.585 225.691 249.456 232.697C234.54 258.065 218.715 282.996 201.653 306.962C197.251 313.059 155.414 376.387 155.196 376.278Z" fill="white"/>
<path d="M155.141 377.206C155.018 377.201 154.899 377.164 154.796 377.097C122.361 361.213 87.9045 349.849 52.3868 343.322C52.2119 343.288 52.051 343.202 51.9241 343.077C51.7973 342.952 51.71 342.792 51.6732 342.617C51.6364 342.443 51.6516 342.261 51.717 342.096C51.7825 341.93 51.8952 341.787 52.0412 341.684C67.4843 331.439 70.4857 306.672 72.9049 286.763C73.3051 283.415 73.6871 280.194 74.1236 277.137C83.6915 209.405 149.011 164.947 201.452 129.207L207.764 124.912C212.334 121.687 217.07 118.704 221.952 115.977L223.226 115.286C228.683 112.338 238.669 106.86 244.89 108.88C245.805 109.156 246.651 109.623 247.372 110.25C248.094 110.878 248.673 111.651 249.073 112.52C251.238 117.087 249.71 123.202 247.164 128.807C247.273 128.661 247.4 128.534 247.527 128.388C248.892 126.616 250.774 125.313 252.911 124.658C253.773 124.479 254.662 124.481 255.523 124.663C256.384 124.844 257.198 125.202 257.914 125.713C258.911 126.411 259.758 127.302 260.405 128.334C261.052 129.365 261.485 130.516 261.679 131.718C262.261 135.613 260.697 139.38 258.932 142.892C256.9 146.893 254.622 150.764 252.111 154.484C254.84 152.446 257.386 151.354 259.387 152.118C261.388 152.882 262.516 155.612 262.425 160.271C262.256 168.233 259.8 175.978 255.349 182.581C256.713 181.635 258.077 180.761 259.478 179.906C260.129 179.405 260.88 179.048 261.68 178.86C262.479 178.672 263.31 178.656 264.116 178.814C265.005 179.193 265.774 179.806 266.341 180.588C266.908 181.37 267.252 182.292 267.336 183.254C269.337 192.226 265.899 199.032 262.261 206.238C261.333 208.058 260.442 209.969 259.496 211.916C258.368 214.445 257.386 216.975 256.44 219.432C254.743 224.158 252.656 228.735 250.201 233.116C234.012 260.668 218.369 284.98 202.362 307.454C200.234 310.457 188.956 327.472 178.042 343.85L162.835 366.688C156.742 375.787 155.778 377.206 155.141 377.206ZM54.806 341.939C89.4818 348.5 123.127 359.663 154.85 375.132C156.96 372.093 166.837 357.243 176.423 342.849C187.337 326.471 198.615 309.456 200.779 306.453C216.75 284.016 232.357 259.74 248.528 232.261C250.932 227.954 252.976 223.456 254.64 218.813C255.585 216.356 256.586 213.79 257.732 211.224C258.605 209.241 259.551 207.33 260.515 205.474C264.025 198.559 267.318 192.044 265.462 183.637C265.19 182.417 264.608 180.889 263.462 180.525C262.902 180.465 262.336 180.516 261.796 180.675C261.256 180.834 260.752 181.098 260.315 181.453C256.502 183.752 252.898 186.383 249.546 189.314C249.366 189.46 249.136 189.53 248.905 189.512C248.674 189.494 248.458 189.388 248.303 189.216C248.147 189.044 248.063 188.819 248.068 188.587C248.072 188.355 248.165 188.133 248.328 187.968C252.08 184.369 255.085 180.066 257.174 175.304C259.262 170.542 260.391 165.415 260.497 160.216C260.497 156.576 259.915 154.302 258.678 153.792C256.295 152.882 251.402 156.595 243.998 164.911L243.835 165.111C243.75 165.197 243.65 165.264 243.539 165.31C243.428 165.357 243.309 165.38 243.189 165.38C243.069 165.38 242.95 165.357 242.839 165.31C242.728 165.264 242.628 165.197 242.543 165.111C242.456 165.03 242.387 164.931 242.34 164.821C242.292 164.712 242.268 164.594 242.268 164.474C242.268 164.355 242.292 164.237 242.34 164.127C242.387 164.018 242.456 163.919 242.543 163.837C248.382 157.218 253.351 149.879 257.332 142C258.969 138.761 260.406 135.303 259.896 131.918C259.738 130.964 259.391 130.051 258.876 129.232C258.36 128.414 257.687 127.706 256.895 127.151C256.379 126.769 255.788 126.502 255.16 126.367C254.533 126.232 253.884 126.232 253.257 126.368C251.51 126.976 249.984 128.091 248.873 129.571C246.581 132.137 244.362 134.794 242.289 137.542C240.088 140.908 238.25 143.219 238.032 143.492C237.883 143.673 237.67 143.791 237.437 143.822C237.204 143.852 236.968 143.793 236.777 143.656C236.585 143.52 236.454 143.314 236.413 143.082C236.372 142.851 236.425 142.612 236.559 142.419C237.978 140.289 239.469 138.215 241.015 136.195C245.708 128.916 250.219 119.125 247.436 113.266C247.146 112.609 246.718 112.022 246.181 111.545C245.645 111.068 245.012 110.711 244.326 110.5C238.869 108.68 228.883 114.139 224.099 116.778L222.826 117.469C218.005 120.219 213.335 123.226 208.838 126.477L202.526 130.772C150.339 166.294 85.3831 210.515 75.9244 277.446C75.4879 280.485 75.1059 283.706 74.7057 287.036C72.3046 306.49 69.4306 330.602 54.806 341.939Z" fill="#003876"/>
<path d="M205.831 2.21415L82.7239 32.5339C77.7587 33.7567 74.7245 38.7749 75.9468 43.7422L140.756 307.117C141.978 312.084 146.994 315.12 151.959 313.897L275.067 283.577C280.032 282.354 283.066 277.336 281.844 272.369L217.035 8.99412C215.813 4.0268 210.797 0.991295 205.831 2.21415Z" fill="white"/>
<path d="M149.702 315.096C147.849 315.09 146.032 314.581 144.445 313.622C143.299 312.936 142.301 312.027 141.51 310.948C140.72 309.87 140.153 308.645 139.843 307.344L75.051 43.9677C74.4086 41.3495 74.8313 38.5832 76.2262 36.2766C77.6212 33.9699 79.8743 32.3116 82.4907 31.666L205.599 1.34845C208.219 0.705286 210.986 1.12766 213.295 2.52293C215.603 3.9182 217.264 6.17247 217.914 8.79134L282.706 272.168C283.343 274.791 282.917 277.559 281.519 279.868C280.121 282.177 277.867 283.838 275.248 284.488L152.14 314.787C151.343 314.99 150.524 315.093 149.702 315.096ZM208.055 2.87706C207.375 2.87478 206.697 2.9542 206.036 3.11363L82.9272 33.4311C80.7786 33.9607 78.9281 35.3218 77.7821 37.2156C76.6361 39.1094 76.2884 41.3808 76.8155 43.5309L141.608 306.907C142.137 309.057 143.498 310.908 145.39 312.055C147.283 313.201 149.554 313.549 151.703 313.022L274.812 282.723C276.963 282.189 278.815 280.825 279.963 278.929C281.112 277.033 281.464 274.759 280.942 272.605L216.15 9.22809C215.706 7.41578 214.667 5.8049 213.199 4.65341C211.732 3.50191 209.92 2.87641 208.055 2.87706Z" fill="#003876"/>
<path d="M213.653 27.2551L87.3835 58.3535L140.67 274.902L266.939 243.804L213.653 27.2551Z" fill="#6DB0E2"/>
<path d="M218.416 266.933L194.395 272.849C191.342 273.601 189.476 276.687 190.228 279.742L192.489 288.93C193.24 291.985 196.325 293.851 199.378 293.099L223.399 287.183C226.452 286.431 228.318 283.346 227.566 280.291L225.305 271.103C224.554 268.048 221.469 266.181 218.416 266.933Z" fill="white"/>
<path d="M197.996 294.206C196.519 294.204 195.086 293.706 193.925 292.792C192.764 291.878 191.943 290.601 191.593 289.166L189.32 279.976C188.93 278.283 189.22 276.504 190.129 275.023C191.037 273.543 192.491 272.478 194.176 272.06L218.205 266.145C219.905 265.733 221.7 266.011 223.196 266.918C224.692 267.825 225.769 269.287 226.191 270.986L228.446 280.085C228.863 281.786 228.588 283.584 227.68 285.082C226.773 286.58 225.308 287.656 223.608 288.074L199.633 294.006C199.098 294.14 198.548 294.207 197.996 294.206ZM219.824 267.692C219.432 267.696 219.041 267.745 218.66 267.838L194.649 273.752C194.039 273.9 193.465 274.168 192.959 274.54C192.453 274.911 192.026 275.38 191.703 275.918C191.377 276.459 191.161 277.059 191.068 277.683C190.974 278.308 191.004 278.944 191.157 279.557L193.412 288.656C193.562 289.267 193.83 289.842 194.201 290.349C194.573 290.856 195.04 291.285 195.577 291.611C196.115 291.937 196.711 292.154 197.332 292.25C197.953 292.345 198.586 292.318 199.197 292.168L223.207 286.254C223.818 286.105 224.393 285.837 224.899 285.465C225.406 285.093 225.835 284.625 226.161 284.088C226.487 283.551 226.704 282.954 226.799 282.333C226.895 281.712 226.867 281.078 226.718 280.467L224.462 271.368C224.314 270.758 224.047 270.183 223.675 269.677C223.304 269.171 222.836 268.744 222.298 268.42C221.542 267.941 220.664 267.689 219.769 267.692H219.824Z" fill="#E6E7E8"/>
<path d="M124.073 36.197C123.876 36.1831 123.689 36.1067 123.538 35.9791C123.388 35.8515 123.282 35.6792 123.236 35.4873C123.206 35.3701 123.2 35.2482 123.218 35.1287C123.236 35.0092 123.277 34.8944 123.34 34.791C123.402 34.6877 123.485 34.5979 123.583 34.5268C123.68 34.4558 123.791 34.4049 123.909 34.3772L159.852 25.5331C159.968 25.503 160.089 25.4961 160.207 25.5128C160.326 25.5294 160.44 25.5693 160.543 25.6302C160.646 25.6911 160.736 25.7717 160.808 25.8674C160.88 25.9632 160.932 26.0722 160.962 26.1882C161.017 26.4245 160.977 26.6731 160.851 26.8806C160.726 27.0881 160.524 27.238 160.289 27.2983L124.345 36.1424L124.073 36.197Z" fill="#E6E7E8"/>
<path d="M165.073 26.0982C164.871 26.0992 164.674 26.0313 164.515 25.9056C164.357 25.7799 164.245 25.604 164.2 25.4067C164.144 25.1728 164.181 24.9264 164.303 24.7193C164.425 24.5123 164.623 24.3607 164.855 24.2966L169.693 23.1137C169.934 23.0558 170.189 23.0961 170.4 23.2258C170.612 23.3555 170.763 23.5639 170.821 23.8053C170.879 24.0466 170.839 24.301 170.709 24.5126C170.579 24.7242 170.371 24.8756 170.13 24.9335L165.291 26.1346L165.073 26.0982Z" fill="#E6E7E8"/>
<path d="M228.632 197.395L153.814 215.822C147.191 217.453 143.143 224.147 144.774 230.773L146.096 236.145C147.726 242.772 154.417 246.821 161.041 245.19L235.859 226.763C242.483 225.132 246.53 218.437 244.9 211.811L243.578 206.439C241.947 199.813 235.256 195.764 228.632 197.395Z" fill="white"/>
<path d="M158.051 246.582C155.091 246.574 152.218 245.575 149.891 243.745C147.564 241.915 145.916 239.358 145.209 236.482L143.9 231.023C143.064 227.608 143.616 224.002 145.433 220.994C147.25 217.985 150.185 215.82 153.595 214.972L228.428 196.556C230.117 196.14 231.871 196.061 233.59 196.323C235.31 196.586 236.961 197.184 238.449 198.085C239.937 198.986 241.233 200.171 242.263 201.573C243.293 202.975 244.038 204.566 244.453 206.256L245.781 211.715C246.616 215.127 246.064 218.731 244.246 221.736C242.429 224.742 239.494 226.903 236.086 227.747L161.253 246.109C160.208 246.393 159.133 246.552 158.051 246.582ZM231.611 198.067C230.685 198.074 229.763 198.19 228.864 198.412L154.031 216.738C152.572 217.095 151.198 217.738 149.987 218.628C148.776 219.518 147.753 220.639 146.976 221.925C146.199 223.211 145.683 224.639 145.457 226.125C145.232 227.611 145.303 229.127 145.664 230.586L146.974 236.045C147.705 238.989 149.572 241.522 152.167 243.091C154.761 244.66 157.871 245.137 160.816 244.416L235.649 225.982C238.59 225.254 241.122 223.39 242.691 220.797C244.259 218.205 244.736 215.096 244.016 212.152L242.689 206.692C242.071 204.216 240.647 202.015 238.642 200.436C236.636 198.858 234.163 197.993 231.611 197.976V198.067Z" fill="#003876"/>
<path d="M225.653 134.107L126.849 158.441L131.219 176.2L230.023 151.866L225.653 134.107Z" fill="white"/>
<path d="M140.425 168.26C142.123 168.26 143.499 166.883 143.499 165.185C143.499 163.486 142.123 162.109 140.425 162.109C138.728 162.109 137.351 163.486 137.351 165.185C137.351 166.883 138.728 168.26 140.425 168.26Z" fill="#6DB0E2"/>
<path d="M151.703 165.493C153.401 165.493 154.777 164.116 154.777 162.417C154.777 160.719 153.401 159.342 151.703 159.342C150.005 159.342 148.629 160.719 148.629 162.417C148.629 164.116 150.005 165.493 151.703 165.493Z" fill="#6DB0E2"/>
<path d="M162.963 162.709C164.661 162.709 166.037 161.333 166.037 159.634C166.037 157.936 164.661 156.559 162.963 156.559C161.265 156.559 159.889 157.936 159.889 159.634C159.889 161.333 161.265 162.709 162.963 162.709Z" fill="#6DB0E2"/>
<path d="M174.24 159.942C175.938 159.942 177.314 158.565 177.314 156.866C177.314 155.168 175.938 153.791 174.24 153.791C172.543 153.791 171.166 155.168 171.166 156.866C171.166 158.565 172.543 159.942 174.24 159.942Z" fill="#6DB0E2"/>
<path d="M232.765 163.068L133.961 187.402L138.331 205.161L237.135 180.827L232.765 163.068Z" fill="white"/>
<path d="M147.538 197.211C149.235 197.211 150.612 195.834 150.612 194.136C150.612 192.437 149.235 191.061 147.538 191.061C145.84 191.061 144.464 192.437 144.464 194.136C144.464 195.834 145.84 197.211 147.538 197.211Z" fill="#6DB0E2"/>
<path d="M158.815 194.428C160.513 194.428 161.889 193.051 161.889 191.353C161.889 189.654 160.513 188.277 158.815 188.277C157.117 188.277 155.741 189.654 155.741 191.353C155.741 193.051 157.117 194.428 158.815 194.428Z" fill="#6DB0E2"/>
<path d="M170.093 191.663C171.791 191.663 173.167 190.286 173.167 188.587C173.167 186.889 171.791 185.512 170.093 185.512C168.396 185.512 167.019 186.889 167.019 188.587C167.019 190.286 168.396 191.663 170.093 191.663Z" fill="#6DB0E2"/>
<path d="M181.352 188.897C183.05 188.897 184.426 187.52 184.426 185.822C184.426 184.123 183.05 182.746 181.352 182.746C179.655 182.746 178.278 184.123 178.278 185.822C178.278 187.52 179.655 188.897 181.352 188.897Z" fill="#6DB0E2"/>
<path d="M182.93 79.7357L138.985 90.5586L145.886 118.601L189.83 107.778L182.93 79.7357Z" fill="white"/>
<path d="M150.521 90.9541C150.367 90.951 150.216 90.907 150.084 90.8267C149.899 90.7097 149.763 90.5283 149.702 90.3172L147.556 81.5823C147.173 80.0336 147.1 78.4245 147.34 76.8474C147.58 75.2703 148.129 73.7561 148.955 72.3917C149.782 71.0273 150.869 69.8395 152.155 68.8966C153.442 67.9536 154.901 67.274 156.451 66.8966C159.574 66.1276 162.876 66.631 165.628 68.2963C168.381 69.9617 170.36 72.6525 171.13 75.7772L173.276 84.5121C173.326 84.7243 173.291 84.9475 173.179 85.1345C173.067 85.3214 172.887 85.4572 172.676 85.513L150.721 90.9723L150.521 90.9541ZM159.361 68.2433C158.516 68.2413 157.673 68.339 156.851 68.5344C155.51 68.8645 154.247 69.4562 153.135 70.2756C152.022 71.095 151.083 72.126 150.37 73.3094C149.657 74.4929 149.184 75.8055 148.979 77.172C148.774 78.5386 148.84 79.9322 149.175 81.2729L151.121 89.2071L171.476 84.1845L169.529 76.2685C168.982 73.9827 167.681 71.9478 165.836 70.4919C163.992 69.0361 161.711 68.244 159.361 68.2433Z" fill="white"/>
<path d="M163.326 99.1426C165.717 99.1426 167.655 97.2035 167.655 94.8115C167.655 92.4196 165.717 90.4805 163.326 90.4805C160.935 90.4805 158.997 92.4196 158.997 94.8115C158.997 97.2035 160.935 99.1426 163.326 99.1426Z" fill="#6DB0E2"/>
<path d="M164.698 95.316L162.349 95.8945L164.762 105.701L167.111 105.123L164.698 95.316Z" fill="#6DB0E2"/>
<path d="M172.549 135.158H172.33H172.003L171.403 135.012C157.266 132.669 144.253 125.85 134.277 115.559C129.555 110.549 125.712 104.778 122.909 98.4891C121.302 94.9931 120.082 91.3318 119.271 87.5705C119.149 87.1218 119.204 86.6437 119.424 86.2343C119.644 85.8248 120.012 85.5151 120.453 85.3685C121.199 85.041 121.999 84.6406 122.963 84.1129C126.813 82.1984 129.787 78.8851 131.276 74.8502C132.332 71.8736 132.383 68.6324 131.421 65.6239C131.337 65.406 131.298 65.1728 131.309 64.9392C131.32 64.7056 131.379 64.4768 131.484 64.2677C131.589 64.0585 131.736 63.8736 131.916 63.7248C132.096 63.576 132.306 63.4667 132.531 63.4038L137.788 60.9653C140.025 59.9826 142.281 58.9817 144.554 58.0354C149.266 55.9676 154.254 54.6005 159.361 53.9773C162.999 53.5952 166.637 53.304 170.275 53.0311L175.986 52.5943C176.19 52.5551 176.399 52.5572 176.602 52.6005C176.804 52.6437 176.996 52.7272 177.166 52.846C177.335 52.9648 177.479 53.1165 177.589 53.2921C177.699 53.4677 177.773 53.6636 177.805 53.8682L178.006 54.6325C178.202 55.5281 178.476 56.4049 178.824 57.2529C179.613 59.0668 180.757 60.7047 182.187 62.0703C183.618 63.4359 185.307 64.5018 187.155 65.2054C190.097 66.3071 193.249 66.7301 196.377 66.4428C196.664 66.3883 196.958 66.3926 197.243 66.4556C197.527 66.5186 197.796 66.6389 198.032 66.8091C198.269 66.9794 198.468 67.1961 198.619 67.446C198.769 67.6958 198.866 67.9737 198.906 68.2626C200.508 74.1376 201.123 80.2381 200.725 86.3148C199.779 102.838 192.83 117.251 180.079 129.444C178.715 130.717 177.278 131.937 175.877 133.083L173.931 134.721C173.825 134.812 173.701 134.88 173.567 134.921L172.694 135.121L172.549 135.158ZM133.24 64.9688C134.291 68.3455 134.221 71.9717 133.04 75.3051C131.413 79.7481 128.163 83.409 123.945 85.5505C123.084 86.0458 122.198 86.4953 121.29 86.8971C121.212 86.924 121.139 86.9606 121.071 87.0063C121.902 90.6686 123.09 94.2404 124.618 97.6702C127.334 103.776 131.068 109.376 135.66 114.23C145.368 124.235 158.031 130.857 171.785 133.12C172.039 133.12 172.276 133.229 172.512 133.283H172.603H173.04L174.859 131.755C176.241 130.608 177.678 129.407 178.988 128.115C191.393 116.359 198.16 102.256 198.997 86.2602C199.357 80.3824 198.742 74.4855 197.178 68.8085C197.153 68.659 197.097 68.5164 197.014 68.39C196.846 68.3546 196.673 68.3546 196.505 68.39C193.104 68.6893 189.679 68.223 186.482 67.0252C182.328 65.4079 178.985 62.2074 177.187 58.1264C176.801 57.182 176.491 56.2084 176.259 55.2148L176.077 54.5415L170.366 54.9964C166.837 55.2694 163.09 55.5606 159.597 55.9427C154.66 56.5518 149.838 57.8759 145.282 59.8734C143.026 60.8197 140.789 61.7842 138.552 62.7669C136.793 63.5433 135.029 64.3076 133.259 65.0598L133.24 64.9688Z" fill="white"/>
<path d="M70.6133 307.618C70.6133 307.618 84.8195 188.731 98.7348 175.72C115.288 160.27 130.367 149.788 133.132 158.614C135.897 167.44 138.461 182.162 115.833 198.649L119.144 228.075C119.144 228.075 141.426 243.525 129.821 292.077" fill="white"/>
<path d="M70.6128 308.455H70.4855C70.2663 308.428 70.0668 308.315 69.9306 308.141C69.7943 307.967 69.7322 307.747 69.7579 307.527C70.34 302.668 84.1642 188.204 98.1522 175.138C114.159 160.198 125.019 153.301 130.403 154.775C131.259 155.011 132.035 155.474 132.649 156.114C133.264 156.755 133.695 157.549 133.895 158.415C140.171 178.432 128.111 190.716 116.706 199.141L119.925 227.73C122.727 229.877 141.571 246.328 130.603 292.314C130.579 292.421 130.535 292.522 130.471 292.612C130.408 292.702 130.327 292.777 130.234 292.835C130.14 292.893 130.036 292.931 129.928 292.948C129.819 292.965 129.709 292.959 129.602 292.933C129.391 292.877 129.209 292.742 129.094 292.555C128.979 292.369 128.939 292.146 128.984 291.932C140.316 244.472 118.87 229.022 118.652 228.876C118.557 228.804 118.478 228.714 118.419 228.611C118.359 228.508 118.321 228.394 118.307 228.276L114.996 198.85C114.979 198.705 115.001 198.558 115.058 198.424C115.116 198.29 115.207 198.174 115.323 198.086C136.405 182.654 135.478 168.969 132.313 158.906C132.183 158.318 131.899 157.775 131.49 157.334C131.08 156.892 130.561 156.568 129.984 156.395C125.31 155.157 114.414 162.254 99.2982 176.412C85.7467 189.06 71.5587 306.599 71.4132 307.782C71.3792 307.97 71.2806 308.14 71.1345 308.263C70.9883 308.386 70.8038 308.454 70.6128 308.455Z" fill="#003876"/>
<path d="M0 387.068L54.4786 320.938L167.019 370.599L133.859 443.736L0 387.068Z" fill="#E30238"/>
<path d="M418.566 363.705C418.566 363.705 376.22 280.341 344.315 242.78C339.95 237.649 334.402 236.793 330.473 239.45C325.852 242.58 325.671 253.08 325.671 253.08C325.671 253.08 313.556 246.056 307.754 247.512C301.951 248.968 301.278 258.158 301.278 258.158C301.278 258.158 288.345 253.881 283.088 258.485C277.831 263.089 277.631 271.478 277.631 271.478C277.631 271.478 209.438 216.648 201.925 212.008C194.413 207.367 180.934 215.647 187.592 225.329C191.721 231.37 226.136 265.655 237.268 276.555C248.4 287.456 274.302 317.027 277.286 325.689C280.269 334.352 282.652 344.306 264.971 345.525C247.291 346.744 231.556 349.893 223.807 356.444C216.059 362.995 210.965 372.913 214.84 374.86C218.714 376.807 281.215 369.655 304.952 379.337C328.69 389.018 359.522 424.431 359.522 424.431L418.566 363.705Z" fill="white"/>
<path d="M359.504 425.412C359.377 425.408 359.252 425.379 359.136 425.326C359.02 425.273 358.916 425.197 358.831 425.102C358.522 424.739 327.799 389.744 304.552 380.263C288.291 373.621 253.166 374.986 232.175 375.805C220.806 376.241 215.804 376.405 214.385 375.805C213.874 375.548 213.437 375.164 213.119 374.689C212.8 374.214 212.61 373.664 212.566 373.093C212.075 368.944 216.823 361.228 223.135 355.896C230.211 349.927 244.235 346.197 264.844 344.777C271.119 344.341 275.249 342.739 277.086 339.991C279.469 336.352 278.032 331.202 276.358 326.143C273.557 317.772 248.237 288.674 236.632 277.318C225.026 265.963 191.011 232.024 186.901 225.873C185.52 224.126 184.827 221.933 184.955 219.709C185.082 217.486 186.02 215.386 187.592 213.808C190.975 210.278 197.596 208.349 202.453 211.26C209.438 215.537 266.99 261.759 276.849 269.693C277.246 265.188 279.24 260.974 282.47 257.81C287.254 253.661 297.276 255.99 300.66 256.973C301.042 254.334 302.479 247.874 307.681 246.619C312.883 245.363 321.651 249.785 324.98 251.568C325.234 248.457 326.216 241.341 330.109 238.703C334.693 235.591 340.732 236.992 345.152 242.197C376.766 279.393 419.094 362.447 419.53 363.285C419.613 363.457 419.641 363.649 419.612 363.838C419.582 364.026 419.497 364.201 419.367 364.34L360.304 425.139C360.199 425.24 360.073 425.317 359.934 425.364C359.796 425.411 359.649 425.428 359.504 425.412ZM260.315 373.275C277.249 373.275 294.875 374.349 305.207 378.571C327.253 387.56 354.829 417.878 359.54 423.155L417.457 363.539C413.619 356.06 373.71 278.774 343.606 243.434C339.841 238.994 334.766 237.72 330.982 240.268C327.526 242.633 326.635 250.367 326.58 253.17C326.578 253.326 326.535 253.479 326.455 253.613C326.375 253.747 326.262 253.858 326.126 253.934C325.987 254.014 325.83 254.056 325.671 254.056C325.511 254.056 325.354 254.014 325.216 253.934C325.089 253.934 313.356 247.11 307.972 248.475C302.879 249.749 302.206 258.229 302.188 258.302C302.178 258.439 302.137 258.572 302.068 258.691C301.999 258.81 301.904 258.911 301.791 258.989C301.677 259.066 301.547 259.116 301.411 259.136C301.275 259.155 301.136 259.144 301.005 259.102C300.878 259.102 288.491 255.062 283.616 259.266C278.741 263.47 278.468 271.495 278.468 271.586C278.461 271.755 278.409 271.919 278.316 272.06C278.223 272.201 278.093 272.314 277.941 272.387C277.789 272.46 277.619 272.488 277.452 272.469C277.285 272.45 277.126 272.383 276.995 272.277C276.304 271.732 208.819 217.429 201.452 212.898C197.378 210.405 191.739 212.134 188.865 215.155C187.579 216.427 186.812 218.132 186.715 219.939C186.617 221.745 187.196 223.524 188.338 224.927C192.376 230.841 226.536 264.962 237.905 276.026C248.328 286.235 274.976 316.298 278.086 325.579C279.905 331.038 281.451 336.77 278.596 341.01C276.395 344.304 271.938 346.142 264.953 346.615C244.744 347.998 231.084 351.602 224.317 357.298C218.005 362.629 214.003 369.799 214.367 372.893C214.369 373.163 214.445 373.428 214.586 373.659C214.727 373.89 214.928 374.078 215.168 374.203C216.204 374.695 223.917 374.385 232.084 374.076C240.251 373.766 250.056 373.275 260.315 373.275Z" fill="#003876"/>
<path d="M412.418 339.609L326.38 409.816L369.054 472.999L468.388 390.472L412.418 339.609Z" fill="#003876"/>
<path d="M398.248 44.8047H287.927V126.24H398.248V44.8047Z" fill="white"/>
<path d="M398.248 127.149H287.927C287.686 127.149 287.454 127.054 287.284 126.883C287.113 126.712 287.017 126.481 287.017 126.24V44.8044C287.017 44.5631 287.113 44.3317 287.284 44.161C287.454 43.9904 287.686 43.8945 287.927 43.8945H398.248C398.489 43.8945 398.721 43.9904 398.891 44.161C399.062 44.3317 399.158 44.5631 399.158 44.8044V126.24C399.158 126.481 399.062 126.712 398.891 126.883C398.721 127.054 398.489 127.149 398.248 127.149ZM288.836 125.33H397.339V45.7143H288.764L288.836 125.33Z" fill="#E6E7E8"/>
<path d="M380.895 70.664C380.573 71.1745 380.214 71.661 379.822 72.1198L341.714 110.19C341.521 110.498 341.253 110.752 340.935 110.928C340.616 111.105 340.259 111.197 339.895 111.197C339.531 111.197 339.174 111.105 338.856 110.928C338.537 110.752 338.269 110.498 338.076 110.19L316.685 88.0247C316.414 87.822 316.196 87.5566 316.051 87.2512C315.905 86.9459 315.835 86.6098 315.848 86.2716C315.86 85.9335 315.954 85.6034 316.122 85.3097C316.29 85.016 316.527 84.7674 316.812 84.5853L322.269 79.7447C322.46 79.4991 322.704 79.3003 322.983 79.1635C323.262 79.0268 323.568 78.9557 323.879 78.9557C324.19 78.9557 324.496 79.0268 324.775 79.1635C325.054 79.3003 325.298 79.4991 325.489 79.7447L338.222 92.6651C338.415 92.9734 338.683 93.2276 339.001 93.4039C339.319 93.5801 339.677 93.6725 340.041 93.6725C340.404 93.6725 340.762 93.5801 341.08 93.4039C341.398 93.2276 341.666 92.9734 341.86 92.6651L371.473 63.1847C371.667 62.8957 371.93 62.659 372.238 62.4953C372.545 62.3317 372.889 62.2461 373.237 62.2461C373.585 62.2461 373.929 62.3317 374.236 62.4953C374.544 62.659 374.807 62.8957 375.001 63.1847C376.675 64.8771 378.348 66.5513 380.004 68.2437C380.38 68.6938 380.726 69.168 381.04 69.6631L380.895 70.664Z" fill="#6DB0E2"/>
<path d="M286.944 170.935C286.718 170.928 286.501 170.839 286.334 170.686C286.167 170.532 286.061 170.324 286.035 170.098C286.019 169.861 286.096 169.626 286.248 169.443C286.4 169.26 286.617 169.143 286.853 169.115C296.221 168.242 303.57 164.457 308.681 157.887C320.559 142.638 316.794 117.124 316.758 116.87C316.74 116.751 316.745 116.631 316.774 116.514C316.802 116.398 316.853 116.289 316.924 116.192C316.995 116.096 317.085 116.015 317.187 115.953C317.29 115.891 317.403 115.85 317.522 115.832C317.76 115.801 318.001 115.863 318.194 116.005C318.388 116.148 318.518 116.36 318.558 116.597C318.722 117.67 322.487 143.129 310.118 158.997C304.661 165.985 296.894 169.916 287.017 170.935H286.944Z" fill="#E6E7E8"/>
<path d="M140.298 394.675C140.172 394.7 140.042 394.7 139.916 394.675L46.366 351C46.2442 350.96 46.1322 350.894 46.0375 350.807C45.9429 350.721 45.8677 350.615 45.8168 350.497C45.766 350.379 45.7406 350.252 45.7425 350.123C45.7444 349.995 45.7735 349.868 45.8278 349.752C45.882 349.635 45.9604 349.532 46.0575 349.448C46.1547 349.364 46.2685 349.301 46.3916 349.265C46.5146 349.228 46.644 349.218 46.7713 349.234C46.8985 349.251 47.0208 349.295 47.13 349.362L140.68 393.037C140.79 393.088 140.888 393.16 140.969 393.249C141.05 393.338 141.113 393.442 141.153 393.555C141.194 393.669 141.212 393.789 141.205 393.91C141.199 394.03 141.169 394.148 141.117 394.256C141.031 394.394 140.91 394.506 140.766 394.579C140.622 394.653 140.46 394.686 140.298 394.675Z" fill="white"/>
<path d="M344.479 421.283C344.338 421.282 344.199 421.248 344.073 421.185C343.947 421.122 343.837 421.031 343.751 420.919C343.607 420.726 343.545 420.483 343.579 420.244C343.613 420.005 343.74 419.79 343.933 419.645L418.021 363.05C418.211 362.903 418.452 362.838 418.691 362.869C418.93 362.899 419.146 363.023 419.294 363.214C419.441 363.405 419.506 363.646 419.475 363.885C419.444 364.123 419.32 364.34 419.13 364.488L345.025 421.192C344.857 421.281 344.666 421.313 344.479 421.283Z" fill="white"/>
</svg>
