<svg width="562" height="442" viewBox="0 0 562 442" fill="none" xmlns="http://www.w3.org/2000/svg">
<g clip-path="url(#clip0_3046_48081)">
<path d="M272 74.0009L272 144.288C298.737 144.288 323.865 154.704 342.753 173.589C361.641 192.473 372.059 217.596 372.059 244.328L372.059 244.469L442.361 244.469L442.361 244.328C442.361 150.244 366.102 74.0009 272 74.0009Z" fill="#6DB0E2"/>
<path d="M562 134V268H428V154.664L448.664 134H562Z" fill="#6DB0E2"/>
<path d="M428 0V134H294V20.664L314.664 0H428Z" fill="#1B3F7E"/>
<path d="M562 0V134H428V20.664L448.664 0H562Z" fill="#E30238"/>
<path d="M425.912 433.025C441.024 433.025 453.274 429.84 453.274 425.91C453.274 421.981 441.024 418.795 425.912 418.795C410.801 418.795 398.551 421.981 398.551 425.91C398.551 429.84 410.801 433.025 425.912 433.025Z" fill="#D1D3D4"/>
<path d="M70.7154 441.431C108.335 441.431 138.833 437.015 138.833 431.569C138.833 426.122 108.335 421.707 70.7154 421.707C33.0953 421.707 2.59814 426.122 2.59814 431.569C2.59814 437.015 33.0953 441.431 70.7154 441.431Z" fill="#D1D3D4"/>
<path d="M251.52 410.815C310.855 410.815 358.956 406.639 358.956 401.487C358.956 396.336 310.855 392.16 251.52 392.16C192.185 392.16 144.084 396.336 144.084 401.487C144.084 406.639 192.185 410.815 251.52 410.815Z" fill="#D1D3D4"/>
<path d="M307.348 340.822H195.674V387.44H307.348V340.822Z" fill="white"/>
<path d="M307.348 388.288H195.674C195.45 388.284 195.238 388.193 195.08 388.035C194.922 387.877 194.831 387.664 194.826 387.44V340.823C194.831 340.599 194.922 340.386 195.08 340.228C195.238 340.07 195.45 339.979 195.674 339.975H307.348C307.571 339.979 307.784 340.07 307.942 340.228C308.1 340.386 308.191 340.599 308.195 340.823V387.44C308.191 387.664 308.1 387.877 307.942 388.035C307.784 388.193 307.571 388.284 307.348 388.288ZM196.595 386.593H306.574V341.671H196.595V386.593Z" fill="#1B3F7E"/>
<path d="M338.56 386.666H164.48C160.247 386.666 156.815 390.099 156.815 394.334C156.815 398.569 160.247 402.003 164.48 402.003H338.56C342.793 402.003 346.224 398.569 346.224 394.334C346.224 390.099 342.793 386.666 338.56 386.666Z" fill="white"/>
<path d="M338.468 402.851H164.48C163.33 402.905 162.181 402.725 161.103 402.321C160.025 401.918 159.04 401.3 158.207 400.505C157.374 399.709 156.711 398.753 156.258 397.695C155.806 396.636 155.572 395.496 155.572 394.344C155.572 393.193 155.806 392.053 156.258 390.994C156.711 389.935 157.374 388.979 158.207 388.184C159.04 387.389 160.025 386.771 161.103 386.367C162.181 385.964 163.33 385.784 164.48 385.837H338.468C339.618 385.784 340.766 385.964 341.845 386.367C342.923 386.771 343.908 387.389 344.741 388.184C345.574 388.979 346.237 389.935 346.689 390.994C347.142 392.053 347.376 393.193 347.376 394.344C347.376 395.496 347.142 396.636 346.689 397.695C346.237 398.753 345.574 399.709 344.741 400.505C343.908 401.3 342.923 401.918 341.845 402.321C340.766 402.725 339.618 402.905 338.468 402.851ZM164.407 387.515C162.599 387.515 160.865 388.233 159.586 389.512C158.308 390.791 157.589 392.526 157.589 394.335C157.589 396.144 158.308 397.879 159.586 399.158C160.865 400.437 162.599 401.155 164.407 401.155H338.468C340.276 401.155 342.01 400.437 343.288 399.158C344.567 397.879 345.285 396.144 345.285 394.335C345.285 392.526 344.567 390.791 343.288 389.512C342.01 388.233 340.276 387.515 338.468 387.515H164.407Z" fill="#1B3F7E"/>
<path d="M307.348 340.822V345.891C273.243 349.357 218.908 363.108 195.674 369.265V340.822H307.348Z" fill="#1B3F7E"/>
<path d="M195.674 370.076C195.494 370.078 195.319 370.019 195.176 369.911C195.08 369.832 195.002 369.734 194.948 369.623C194.894 369.511 194.865 369.389 194.863 369.265V340.823C194.863 340.608 194.948 340.401 195.1 340.249C195.253 340.097 195.459 340.012 195.674 340.012H307.348C307.563 340.012 307.769 340.097 307.921 340.249C308.073 340.401 308.158 340.608 308.158 340.823V345.892C308.16 346.092 308.087 346.285 307.954 346.435C307.822 346.585 307.638 346.68 307.44 346.703C273.151 350.187 218.005 364.178 195.876 370.04L195.674 370.076ZM196.484 341.634V368.196C219.11 362.224 272.617 348.731 306.537 345.173V341.634H196.484Z" fill="#1B3F7E"/>
<path d="M469.801 67.125H33.2206C23.0752 67.125 14.8508 75.3531 14.8508 85.503V322.537C14.8508 332.687 23.0752 340.915 33.2206 340.915H469.801C479.946 340.915 488.171 332.687 488.171 322.537V85.503C488.171 75.3531 479.946 67.125 469.801 67.125Z" fill="white"/>
<path d="M469.801 341.763H33.2204C28.1252 341.758 23.2401 339.731 19.6372 336.126C16.0343 332.522 14.0081 327.634 14.0032 322.537V85.5209C14.0081 80.4233 16.0343 75.536 19.6372 71.9315C23.2401 68.327 28.1252 66.2998 33.2204 66.2949H469.893C474.972 66.3241 479.834 68.362 483.417 71.9639C487 75.5658 489.013 80.4393 489.018 85.5209V322.537C489.013 327.634 486.987 332.522 483.384 336.126C479.781 339.731 474.896 341.758 469.801 341.763ZM33.2204 68.0092C28.5716 68.0141 24.1148 69.8651 20.8293 73.1556C17.5438 76.446 15.6983 80.9068 15.6983 85.5578V322.537C15.6983 327.188 17.5438 331.648 20.8293 334.939C24.1148 338.229 28.5716 340.08 33.2204 340.085H469.893C474.542 340.08 478.999 338.229 482.284 334.939C485.57 331.648 487.415 327.188 487.415 322.537V85.5209C487.41 83.2133 486.951 80.9293 486.062 78.7996C485.174 76.67 483.875 74.7365 482.239 73.1099C480.602 71.4833 478.662 70.1955 476.527 69.3203C474.393 68.445 472.107 67.9995 469.801 68.0092H33.2204Z" fill="#1B3F7E"/>
<path d="M482.385 103.511H16.0299C15.8066 103.507 15.5938 103.416 15.4358 103.258C15.2779 103.1 15.1871 102.887 15.1824 102.663C15.1872 102.442 15.2786 102.231 15.437 102.076C15.5955 101.921 15.8083 101.834 16.0299 101.834H482.385C482.605 101.834 482.816 101.921 482.971 102.077C483.127 102.233 483.214 102.443 483.214 102.663C483.214 102.885 483.128 103.098 482.973 103.257C482.818 103.415 482.607 103.507 482.385 103.511Z" fill="#1B3F7E"/>
<path d="M252.515 312.268H250.47C249.77 311.9 249.088 311.494 248.369 311.181C216.752 296.803 192.486 275.863 176.512 247.697C168.739 233.994 163.344 219.073 160.556 203.567C158.959 194.883 158.304 186.051 158.603 177.226C158.603 175.843 159.174 175.198 160.74 174.94C162.951 174.572 165.144 174.037 167.299 173.465C178.059 170.516 186.701 165.097 192.394 156.304C196.643 149.812 198.655 142.11 198.124 134.368C198.032 133.041 198.438 132.525 199.967 132.212C209.99 130.59 219.958 128.728 230 127.179C241.562 125.176 253.354 124.859 265.007 126.239C277.776 127.972 290.452 130.295 303.165 132.285C304.529 132.507 304.731 133.06 304.768 134.129C304.706 136.982 304.866 139.835 305.247 142.663C306.071 147.463 307.836 152.052 310.442 156.165C313.048 160.278 316.442 163.834 320.429 166.627C326.718 170.925 333.889 173.759 341.416 174.922C343.829 175.364 344.345 176.341 344.4 178.313C344.77 192.151 342.846 205.954 338.707 219.162C327.652 255.144 304.731 283.512 269.226 303.715C263.828 306.794 258.098 309.485 252.515 312.268Z" fill="#6DB0E2"/>
<path d="M289.973 195.162H213.048C205.274 195.162 198.972 201.467 198.972 209.245V248.121C198.972 255.899 205.274 262.204 213.048 262.204H289.973C297.747 262.204 304.049 255.899 304.049 248.121V209.245C304.049 201.467 297.747 195.162 289.973 195.162Z" fill="white"/>
<path d="M277.775 207.145H225.246C224.268 207.145 223.331 206.757 222.64 206.065C221.949 205.374 221.561 204.436 221.561 203.458V182.61C221.755 174.792 224.995 167.359 230.591 161.898C236.186 156.438 243.694 153.381 251.511 153.381C259.328 153.381 266.835 156.438 272.431 161.898C278.026 167.359 281.267 174.792 281.46 182.61V203.458C281.46 204.436 281.072 205.374 280.381 206.065C279.69 206.757 278.753 207.145 277.775 207.145ZM228.931 199.772H274.09V182.61C273.923 176.731 271.47 171.148 267.254 167.049C263.038 162.95 257.39 160.656 251.511 160.656C245.631 160.656 239.984 162.95 235.767 167.049C231.551 171.148 229.099 176.731 228.931 182.61V199.772Z" fill="white"/>
<path d="M251.52 228.325C257.076 228.325 261.58 223.818 261.58 218.26C261.58 212.701 257.076 208.195 251.52 208.195C245.964 208.195 241.46 212.701 241.46 218.26C241.46 223.818 245.964 228.325 251.52 228.325Z" fill="#6DB0E2"/>
<path d="M254.321 220.195H248.701V243.643H254.321V220.195Z" fill="#6DB0E2"/>
<path d="M39.356 92.7839C42.7649 92.7839 45.5284 90.0192 45.5284 86.6088C45.5284 83.1983 42.7649 80.4336 39.356 80.4336C35.9471 80.4336 33.1836 83.1983 33.1836 86.6088C33.1836 90.0192 35.9471 92.7839 39.356 92.7839Z" fill="#6DB0E2"/>
<path d="M60.9317 92.7839C64.3406 92.7839 67.104 90.0192 67.104 86.6088C67.104 83.1983 64.3406 80.4336 60.9317 80.4336C57.5228 80.4336 54.7593 83.1983 54.7593 86.6088C54.7593 90.0192 57.5228 92.7839 60.9317 92.7839Z" fill="#D1D3D4"/>
<path d="M82.5073 92.7839C85.9162 92.7839 88.6797 90.0192 88.6797 86.6088C88.6797 83.1983 85.9162 80.4336 82.5073 80.4336C79.0984 80.4336 76.335 83.1983 76.335 86.6088C76.335 90.0192 79.0984 92.7839 82.5073 92.7839Z" fill="#D1D3D4"/>
<path d="M331.3 307.238C331.132 307.247 330.965 307.205 330.822 307.116C330.678 307.028 330.565 306.899 330.497 306.745C330.429 306.59 330.409 306.419 330.441 306.254C330.473 306.088 330.554 305.937 330.674 305.818L449.017 180.951C449.176 180.792 449.392 180.703 449.616 180.703C449.841 180.703 450.056 180.792 450.215 180.951C450.369 181.112 450.456 181.327 450.456 181.55C450.456 181.773 450.369 181.988 450.215 182.149L331.963 307.017C331.874 307.098 331.769 307.159 331.655 307.197C331.541 307.235 331.42 307.249 331.3 307.238Z" fill="#D1D3D4"/>
<path d="M121.053 167.181C120.884 167.18 120.719 167.13 120.579 167.036C120.44 166.941 120.331 166.807 120.268 166.651C120.205 166.495 120.189 166.323 120.224 166.158C120.259 165.993 120.342 165.842 120.463 165.724L170.8 116.305C170.877 116.224 170.97 116.159 171.073 116.115C171.176 116.071 171.287 116.049 171.399 116.049C171.511 116.049 171.621 116.071 171.724 116.115C171.827 116.159 171.92 116.224 171.998 116.305C172.156 116.464 172.245 116.679 172.245 116.904C172.245 117.128 172.156 117.344 171.998 117.503L121.624 166.923C121.552 167.003 121.464 167.068 121.365 167.112C121.267 167.156 121.16 167.18 121.053 167.181Z" fill="#D1D3D4"/>
<path d="M372.904 197.854C372.794 197.856 372.686 197.835 372.584 197.794C372.483 197.753 372.391 197.692 372.314 197.614C372.156 197.455 372.066 197.24 372.066 197.015C372.066 196.79 372.156 196.575 372.314 196.416L431.422 134.72C431.577 134.563 431.788 134.473 432.009 134.469C432.229 134.465 432.443 134.548 432.604 134.699C432.765 134.85 432.86 135.059 432.87 135.279C432.88 135.5 432.803 135.716 432.656 135.881L373.475 197.596C373.323 197.75 373.12 197.842 372.904 197.854Z" fill="#D1D3D4"/>
<path d="M20.3968 305.43L21.7787 314.646C21.7787 314.646 27.3061 317.116 27.6009 318.665C27.8957 320.213 29.4435 324.49 29.075 325.706C28.2827 327.752 25.6295 327.015 25.6295 327.015C25.9343 328.219 26.0155 329.469 25.869 330.702C25.4821 331.531 12.9715 332.545 11.129 329.964C9.28649 327.384 5.14087 300.674 5.14087 300.674" fill="white"/>
<path d="M18.5174 332.453C15.4036 332.453 11.5527 332.103 10.3735 330.481C8.43892 327.845 4.66179 303.568 4.23802 300.822C4.2197 300.712 4.22338 300.601 4.24884 300.493C4.2743 300.386 4.32102 300.284 4.38626 300.195C4.4515 300.105 4.53394 300.03 4.62872 299.973C4.7235 299.916 4.82872 299.879 4.93818 299.863C5.04722 299.845 5.15882 299.848 5.26642 299.874C5.37402 299.899 5.47544 299.946 5.56472 300.011C5.65399 300.077 5.7293 300.159 5.78624 300.254C5.84318 300.349 5.8806 300.454 5.89627 300.563C7.48082 310.831 10.4657 327.753 11.737 329.485C13.0083 331.218 23.271 330.813 25.132 330.186C25.145 329.212 25.0398 328.24 24.8187 327.292C24.7876 327.15 24.7933 327.003 24.8352 326.864C24.8771 326.726 24.954 326.6 25.0583 326.499C25.1653 326.4 25.2958 326.329 25.4375 326.293C25.5793 326.258 25.7277 326.259 25.869 326.296C25.869 326.296 27.7115 326.794 28.2826 325.485C28.1785 323.809 27.8309 322.158 27.2508 320.582C27.0482 319.937 26.8823 319.365 26.7902 318.96C25.2806 317.427 23.4492 316.25 21.4285 315.513C21.2991 315.454 21.186 315.365 21.0993 315.253C21.0125 315.14 20.9548 315.008 20.9311 314.868L19.5676 305.651C19.5359 305.431 19.5927 305.207 19.7258 305.029C19.8588 304.851 20.0571 304.734 20.277 304.702C20.4969 304.67 20.7204 304.727 20.8983 304.86C21.0763 304.993 21.1941 305.191 21.2259 305.411L22.534 314.259C24.3765 315.163 28.0616 317.024 28.4301 318.665C28.4301 319.034 28.688 319.568 28.8538 320.195C29.7014 323.015 30.2725 325.098 29.8488 326.186C29.6001 326.811 29.159 327.341 28.5893 327.699C28.0195 328.057 27.3507 328.224 26.6797 328.177C26.9145 329.158 26.9145 330.181 26.6797 331.163C26.5323 331.513 26.2927 331.992 22.8841 332.343C22.6446 332.269 20.7837 332.453 18.5174 332.453Z" fill="#1B3F7E"/>
<path d="M25.6293 327.108C24.717 325.496 24.0348 323.765 23.6025 321.965L25.6293 327.108Z" fill="white"/>
<path d="M25.6294 327.919C25.4895 327.919 25.352 327.884 25.2295 327.816C25.1071 327.748 25.0038 327.651 24.9292 327.532C23.9628 325.841 23.2373 324.023 22.7735 322.131C22.7224 321.914 22.7571 321.685 22.8704 321.493C22.9837 321.301 23.1668 321.16 23.3815 321.099C23.599 321.043 23.8297 321.076 24.0232 321.19C24.2167 321.304 24.357 321.49 24.4133 321.707C24.8084 323.422 25.4279 325.077 26.2558 326.629C26.3408 326.756 26.389 326.904 26.3952 327.057C26.4014 327.209 26.3654 327.361 26.2911 327.494C26.2167 327.628 26.107 327.738 25.974 327.813C25.841 327.888 25.6899 327.925 25.5373 327.919H25.6294Z" fill="#1B3F7E"/>
<path d="M124.332 305.43L122.969 314.646C122.969 314.646 117.441 317.116 117.128 318.665C116.815 320.213 115.285 324.49 115.654 325.706C116.446 327.752 119.099 327.015 119.099 327.015C118.794 328.219 118.713 329.469 118.86 330.702C119.247 331.531 131.757 332.545 133.6 329.964C135.442 327.384 139.588 300.674 139.588 300.674" fill="white"/>
<path d="M126.211 332.454C123.945 332.454 122.084 332.269 121.9 332.251C118.491 331.901 118.215 331.421 118.104 331.071C117.87 330.09 117.87 329.066 118.104 328.085C117.433 328.132 116.764 327.965 116.195 327.607C115.625 327.249 115.184 326.719 114.935 326.094C114.511 325.006 115.083 322.923 115.93 320.103C116.114 319.476 116.262 318.942 116.354 318.573C116.741 316.933 120.334 315.071 122.25 314.168L123.558 305.32C123.59 305.1 123.708 304.901 123.886 304.768C124.064 304.635 124.287 304.578 124.507 304.61C124.727 304.642 124.925 304.76 125.058 304.938C125.191 305.116 125.248 305.339 125.216 305.559L123.853 314.776C123.833 314.917 123.776 315.051 123.689 315.164C123.602 315.277 123.487 315.366 123.355 315.421C121.335 316.158 119.503 317.336 117.994 318.868C117.902 319.274 117.736 319.845 117.533 320.49C116.953 322.066 116.606 323.718 116.501 325.394C116.999 326.702 118.841 326.223 118.934 326.205C119.073 326.165 119.221 326.163 119.361 326.198C119.502 326.233 119.631 326.305 119.736 326.405C119.84 326.506 119.916 326.633 119.956 326.772C119.997 326.911 120 327.059 119.965 327.2C119.744 328.148 119.639 329.12 119.652 330.094C121.495 330.721 131.702 331.255 133.047 329.394C134.392 327.532 137.303 310.739 138.888 300.472C138.903 300.362 138.941 300.257 138.998 300.162C139.055 300.067 139.13 299.985 139.219 299.92C139.309 299.854 139.41 299.808 139.518 299.782C139.625 299.757 139.737 299.753 139.846 299.771C139.955 299.787 140.061 299.824 140.155 299.881C140.25 299.938 140.333 300.014 140.398 300.103C140.463 300.192 140.51 300.294 140.535 300.401C140.561 300.509 140.564 300.621 140.546 300.73C140.122 303.476 136.345 327.753 134.41 330.389C133.176 332.103 129.325 332.454 126.211 332.454Z" fill="#1B3F7E"/>
<path d="M121.052 327.108C121.966 325.495 122.654 323.765 123.098 321.965L121.052 327.108Z" fill="white"/>
<path d="M121.053 327.919C120.896 327.92 120.742 327.875 120.61 327.79C120.421 327.672 120.285 327.484 120.233 327.266C120.181 327.049 120.218 326.82 120.334 326.629C121.214 325.089 121.872 323.432 122.287 321.707C122.344 321.494 122.481 321.311 122.67 321.197C122.86 321.083 123.086 321.048 123.3 321.099C123.409 321.124 123.512 321.172 123.602 321.238C123.692 321.305 123.768 321.389 123.825 321.485C123.881 321.581 123.918 321.688 123.933 321.799C123.947 321.91 123.939 322.023 123.908 322.131C123.453 324.017 122.733 325.829 121.771 327.513C121.694 327.636 121.589 327.737 121.463 327.807C121.338 327.878 121.197 327.917 121.053 327.919Z" fill="#1B3F7E"/>
<path d="M135.792 224.028C135.792 224.028 128.975 199.456 120.96 190.59C112.945 181.724 91.0565 172.323 54.7777 177.023C54.7777 177.023 35.9474 182.019 24.5976 192.82C13.2478 203.622 9.17585 222.848 9.17585 222.848C9.17585 222.848 -4.51392 272.618 3.15088 308.84L25.5925 310.204C25.5925 310.204 22.1655 267.678 33.6811 233.908C35.7816 276.305 39.0612 344.14 41.3459 410.518L67.8595 409.965L75.4137 324.711L78.1959 409.025H105.336C105.336 409.025 112.945 302.886 109.242 229.189C122.932 263.494 119.136 310.296 119.136 310.296L141.578 308.932C148.579 275.881 137.764 231.438 135.792 224.028Z" fill="#1B3F7E"/>
<path d="M60.7844 147.715C59.7157 141.06 48.6423 139.42 49.1951 147.272C49.2748 150.001 50.3194 152.614 52.1431 154.645C53.0656 155.627 54.2566 156.314 55.5672 156.622C56.8779 156.93 58.2503 156.846 59.5131 156.378" fill="white"/>
<path d="M57.265 157.816C56.1804 157.8 55.1096 157.57 54.1137 157.14C53.1178 156.71 52.2165 156.088 51.4612 155.309C49.4743 153.093 48.3326 150.247 48.2368 147.272C48.103 146.546 48.1226 145.8 48.2943 145.082C48.466 144.364 48.786 143.69 49.2338 143.103C49.6815 142.516 50.2471 142.03 50.894 141.675C51.541 141.32 52.2551 141.104 52.9904 141.042C54.9852 140.838 56.9841 141.387 58.5959 142.58C60.2078 143.773 61.3166 145.525 61.7055 147.493C61.7411 147.62 61.7496 147.753 61.7305 147.883C61.7115 148.014 61.6652 148.139 61.5947 148.25C61.5243 148.361 61.4312 148.457 61.3215 148.53C61.2119 148.603 61.0881 148.652 60.9582 148.674C60.8284 148.696 60.6953 148.691 60.5677 148.658C60.4401 148.625 60.3208 148.566 60.2175 148.484C60.1142 148.403 60.0293 148.3 59.9682 148.183C59.9071 148.066 59.8713 147.938 59.863 147.807C59.5413 146.324 58.6901 145.01 57.4689 144.11C56.2477 143.211 54.7405 142.788 53.23 142.922C51.9771 143.069 49.9319 143.807 50.153 147.125C50.2228 149.661 51.189 152.091 52.8799 153.982C53.6703 154.836 54.6957 155.437 55.8268 155.709C56.9579 155.981 58.1443 155.913 59.2365 155.512C59.4665 155.412 59.7265 155.406 59.9608 155.495C60.195 155.585 60.3848 155.763 60.4894 155.991C60.5902 156.224 60.5966 156.487 60.5072 156.724C60.4178 156.961 60.2396 157.155 60.0104 157.263C59.1438 157.637 58.2087 157.825 57.265 157.816Z" fill="#1B3F7E"/>
<path d="M88.3481 147.715C89.3984 141.06 100.472 139.42 99.919 147.272C99.8393 150.001 98.7947 152.614 96.971 154.645C96.0485 155.627 94.8575 156.314 93.5469 156.622C92.2362 156.93 90.8638 156.846 89.601 156.378" fill="white"/>
<path d="M91.8488 157.816C90.9238 157.818 90.0082 157.63 89.1588 157.263C88.9144 157.158 88.7219 156.96 88.6234 156.713C88.5249 156.466 88.5286 156.19 88.6337 155.946C88.7387 155.701 88.9365 155.508 89.1836 155.41C89.4307 155.311 89.7067 155.315 89.951 155.42C91.0405 155.819 92.2237 155.887 93.3516 155.615C94.4795 155.343 95.5017 154.743 96.2892 153.89C97.9019 152.051 98.838 149.717 98.9424 147.273C99.1635 143.955 97.0999 143.217 95.8655 143.07C94.355 142.937 92.8477 143.359 91.6265 144.259C90.4054 145.158 89.5541 146.472 89.2325 147.955C89.2242 148.086 89.1883 148.214 89.1272 148.331C89.0662 148.448 88.9812 148.551 88.8779 148.632C88.7747 148.714 88.6553 148.773 88.5277 148.806C88.4001 148.839 88.267 148.844 88.1372 148.822C88.0073 148.8 87.8835 148.751 87.7739 148.678C87.6642 148.605 87.5711 148.51 87.5007 148.398C87.4302 148.287 87.384 148.162 87.3649 148.032C87.3458 147.901 87.3544 147.768 87.39 147.641C87.775 145.671 88.8828 143.917 90.4956 142.723C92.1084 141.529 94.1094 140.982 96.105 141.19C96.8272 141.252 97.5288 141.462 98.1665 141.807C98.8041 142.151 99.364 142.624 99.8116 143.194C100.259 143.765 100.585 144.421 100.768 145.123C100.951 145.824 100.988 146.556 100.877 147.273C100.772 150.224 99.6303 153.043 97.6527 155.236C96.9035 156.028 96.0049 156.664 95.0088 157.107C94.0126 157.55 92.9386 157.791 91.8488 157.816Z" fill="#1B3F7E"/>
<path d="M87.3717 181.043L79.6148 227.495L76.7773 244.417L73.166 227.311L63.3823 181.043H87.3717Z" fill="#E30238"/>
<path d="M77.2562 197.042L79.6146 227.476L76.8324 244.416L73.1474 227.31L74.5109 197.522L71.6182 192.545L74.9899 187.328L79.6699 192.158L77.2562 197.042Z" fill="white"/>
<path d="M87.3717 181.042C86.2237 183.117 84.5171 184.829 82.4457 185.982C80.3743 187.136 78.0211 187.685 75.6534 187.568C73.2182 187.637 70.8068 187.072 68.6556 185.928C66.5044 184.784 64.6872 183.1 63.3823 181.042L63.7508 176.379L64.5984 165.54L65.4091 155.42H85.3449L86.0082 163.696L86.2109 166.388L87.3717 181.042Z" fill="white"/>
<path d="M75.6534 188.507C73.0443 188.583 70.4609 187.975 68.1595 186.743C65.8582 185.511 63.9191 183.698 62.5348 181.484C62.4427 181.329 62.4039 181.148 62.4242 180.968L64.4694 155.346C64.4835 155.106 64.5887 154.881 64.7634 154.716C64.9381 154.552 65.1691 154.461 65.4091 154.461H85.3449C85.5836 154.465 85.8122 154.558 85.986 154.721C86.1598 154.885 86.2662 155.108 86.2846 155.346L88.3298 180.968C88.3645 181.12 88.3645 181.277 88.3298 181.429C87.1079 183.692 85.2665 185.56 83.0214 186.814C80.7762 188.068 78.2203 188.655 75.6534 188.507ZM64.3404 180.802C65.5819 182.648 67.2708 184.148 69.2491 185.164C71.2275 186.179 73.4309 186.676 75.6534 186.609C77.8021 186.719 79.9401 186.239 81.8364 185.223C83.7327 184.206 85.3154 182.69 86.4136 180.839L84.4605 156.36H66.2935L64.3404 180.802Z" fill="#1B3F7E"/>
<path d="M87.5558 162.922C87.3383 164.154 86.8813 165.331 86.2108 166.387C84.5321 168.812 82.2783 170.782 79.6515 172.12C75.3585 174.498 68.9466 177.171 63.7507 176.378L64.5983 165.539C68.4173 165.992 72.2764 165.992 76.0955 165.539C79.474 165.432 82.8165 164.81 86.0081 163.696C86.524 163.456 87.0584 163.217 87.5558 162.922Z" fill="#1B3F7E"/>
<path d="M65.7774 177.43C65.0683 177.436 64.3598 177.387 63.6585 177.282C63.4287 177.25 63.2202 177.131 63.0761 176.949C62.932 176.767 62.8635 176.537 62.8846 176.305L63.7322 165.467C63.7659 165.216 63.8905 164.986 64.0823 164.821C64.2826 164.671 64.5339 164.605 64.7824 164.637C68.5282 165.077 72.3127 165.077 76.0585 164.637C79.3456 164.516 82.595 163.895 85.6948 162.794C86.1923 162.573 86.6897 162.333 87.1504 162.075C87.3003 161.984 87.4724 161.936 87.6478 161.936C87.8233 161.936 87.9954 161.984 88.1453 162.075C88.2834 162.177 88.3909 162.316 88.4558 162.475C88.5208 162.634 88.5409 162.808 88.5138 162.978C88.2629 164.29 87.7625 165.542 87.0398 166.665C85.296 169.233 82.9321 171.319 80.1673 172.729C76.8324 174.702 71.0838 177.43 65.7774 177.43ZM64.7824 175.587C70.1625 176.01 76.6481 172.785 79.2645 171.347C81.7767 170.063 83.9201 168.16 85.4921 165.817C85.7361 165.421 85.9516 165.008 86.137 164.582C82.94 165.675 79.6006 166.296 76.2243 166.425C72.6599 166.803 69.0654 166.803 65.501 166.425L64.7824 175.587Z" fill="#1B3F7E"/>
<path d="M75.9482 168.083H74.1057C70.0674 168.063 66.2013 166.445 63.3527 163.581C60.5041 160.718 58.905 156.842 58.905 152.802V128.617L76.4825 132.986L91.2225 128.617V152.802C91.2225 154.808 90.8274 156.796 90.0598 158.65C89.2922 160.504 88.1671 162.188 86.7487 163.607C85.3304 165.026 83.6466 166.152 81.7934 166.92C79.9402 167.688 77.954 168.083 75.9482 168.083Z" fill="white"/>
<path d="M75.948 169.041H74.1055C69.8147 169.017 65.7076 167.296 62.6804 164.254C59.6532 161.211 57.9516 157.095 57.9468 152.802V128.617C57.9494 128.472 57.9837 128.329 58.0473 128.198C58.111 128.068 58.2024 127.953 58.3153 127.861C58.4306 127.777 58.5627 127.719 58.7026 127.69C58.8425 127.661 58.9869 127.663 59.126 127.695L76.4639 131.99L90.9644 127.714C91.1042 127.669 91.2527 127.659 91.3972 127.685C91.5417 127.711 91.6777 127.771 91.7935 127.861C91.9127 127.948 92.0099 128.062 92.0771 128.193C92.1443 128.324 92.1797 128.47 92.1804 128.617V152.802C92.1756 157.107 90.4638 161.235 87.4207 164.28C84.3776 167.324 80.2516 169.037 75.948 169.041ZM59.8446 129.834V152.802C59.8543 156.6 61.3683 160.241 64.055 162.925C66.7416 165.61 70.3821 167.12 74.1792 167.124H76.0217C79.806 167.1 83.4276 165.582 86.0984 162.899C88.7692 160.217 90.273 156.588 90.2827 152.802V129.889L76.8324 133.889C76.6697 133.935 76.4976 133.935 76.3349 133.889L59.8446 129.834Z" fill="#1B3F7E"/>
<path d="M58.8682 141.743V140.361H59.1445L61.7425 139.826C63.1355 139.483 64.564 139.303 65.9986 139.292C68.0675 139.363 70.1235 139.647 72.1342 140.14C74.2384 140.664 76.4293 140.739 78.5645 140.361C80.149 140.066 81.7152 139.752 83.2997 139.494C84.4736 139.292 85.6681 139.236 86.8557 139.329C88.6617 139.584 90.4517 139.94 92.2174 140.398C92.3415 140.416 92.4534 140.482 92.5292 140.582C92.605 140.682 92.6386 140.808 92.6228 140.932V142.13C92.627 142.238 92.6018 142.345 92.5499 142.439C92.4979 142.533 92.4212 142.611 92.328 142.665C92.0138 142.87 91.7695 143.166 91.6278 143.513C91.5287 143.752 91.4486 143.999 91.3883 144.25C91.1303 145.153 90.9092 146.094 90.6329 146.997C90.4006 147.838 89.9596 148.607 89.3508 149.232C88.742 149.857 87.9851 150.319 87.1505 150.573C85.8905 151.014 84.5354 151.109 83.226 150.849C82.2444 150.719 81.3084 150.355 80.4971 149.787C79.6858 149.219 79.0229 148.465 78.5645 147.587C78.1189 146.725 77.7549 145.824 77.4774 144.895C77.3071 144.438 77.0911 144 76.8325 143.587C76.7833 143.508 76.7189 143.439 76.643 143.385C76.567 143.332 76.4812 143.293 76.3903 143.273C76.0654 143.245 75.7387 143.245 75.4138 143.273C75.2636 143.267 75.1152 143.308 74.9896 143.391C74.864 143.474 74.7675 143.594 74.7137 143.734C74.5309 144.132 74.383 144.545 74.2715 144.969C73.9823 146.132 73.4691 147.228 72.7606 148.195C72.0291 149.382 70.8888 150.261 69.5547 150.665C69.0519 150.788 68.5408 150.875 68.0254 150.923C66.56 151.082 65.0782 150.873 63.7139 150.315C62.8267 149.984 62.1009 149.324 61.6872 148.471C61.0716 147.134 60.5902 145.738 60.25 144.306C60.1348 143.795 59.8869 143.325 59.5315 142.941C59.1912 142.621 58.9594 142.202 58.8682 141.743Z" fill="#1B3F7E"/>
<path d="M94.3178 141.742H93.9678C93.7374 141.644 93.5536 141.461 93.4541 141.231C93.3547 141.002 93.3473 140.742 93.4334 140.507C94.7005 137.535 95.3536 134.337 95.3536 131.106C95.3536 127.875 94.7005 124.677 93.4334 121.705C92.1299 118.809 90.0758 116.314 87.484 114.48C84.8922 112.645 81.8571 111.538 78.6934 111.272C76.1381 111.259 73.5941 111.613 71.1392 112.323C68.2489 112.887 65.4956 114.008 63.0322 115.622C59.7453 118.276 57.5538 122.05 56.8782 126.221C56.2103 130.489 56.0618 134.822 56.436 139.125C56.4461 139.376 56.3571 139.621 56.1882 139.807C56.0193 139.993 55.7841 140.106 55.5332 140.12C55.4083 140.128 55.2831 140.11 55.1651 140.068C55.047 140.027 54.9385 139.962 54.8458 139.878C54.7531 139.794 54.6782 139.692 54.6254 139.578C54.5725 139.465 54.5429 139.342 54.5382 139.217C54.1462 134.741 54.3071 130.234 55.0173 125.797C55.7722 121.194 58.1918 117.028 61.8161 114.092C64.471 112.302 67.4505 111.05 70.5864 110.406C73.2159 109.652 75.9398 109.279 78.675 109.3C82.197 109.572 85.5811 110.787 88.4726 112.817C91.3641 114.847 93.6567 117.618 95.1101 120.839C96.4733 124.045 97.176 127.493 97.176 130.977C97.176 134.461 96.4733 137.91 95.1101 141.116C95.0514 141.285 94.9456 141.433 94.8053 141.544C94.6649 141.655 94.4958 141.724 94.3178 141.742Z" fill="#1B3F7E"/>
<path d="M77.3853 157.318C76.585 157.326 75.7849 157.283 74.9901 157.189C74.8654 157.178 74.7442 157.141 74.6341 157.081C74.524 157.022 74.4271 156.94 74.3495 156.842C74.2719 156.744 74.2152 156.631 74.1828 156.509C74.1504 156.388 74.1429 156.262 74.161 156.138C74.1747 156.014 74.2128 155.895 74.2732 155.786C74.3336 155.677 74.415 155.581 74.5127 155.504C74.6104 155.426 74.7225 155.369 74.8424 155.336C74.9623 155.303 75.0877 155.293 75.2112 155.309C76.5344 155.442 77.8677 155.442 79.191 155.309C79.4674 154.184 78.325 149.686 76.5746 145.152C76.5299 145.031 76.5094 144.902 76.5143 144.773C76.5193 144.644 76.5496 144.518 76.6034 144.4C76.6573 144.283 76.7338 144.178 76.8284 144.09C76.9231 144.002 77.0341 143.934 77.155 143.889C77.276 143.844 77.4046 143.824 77.5335 143.829C77.6624 143.834 77.7891 143.864 77.9063 143.918C78.0235 143.972 78.1289 144.048 78.2166 144.143C78.3042 144.238 78.3724 144.349 78.4171 144.47C79.5411 147.401 82.1021 154.442 80.8308 156.433C80.7153 156.636 80.5532 156.809 80.3577 156.937C80.1623 157.066 79.9392 157.145 79.7069 157.17C78.9375 157.275 78.1617 157.324 77.3853 157.318Z" fill="#1B3F7E"/>
<path d="M70.9365 161.631C70.7169 161.612 70.511 161.516 70.3549 161.36C70.1988 161.204 70.1024 160.999 70.0826 160.779C70.0629 160.559 70.121 160.34 70.2468 160.158C70.3725 159.977 70.558 159.846 70.7707 159.788C71.0655 159.788 78.2328 158.369 82.8022 159.511C82.9245 159.542 83.0395 159.596 83.1409 159.67C83.2422 159.745 83.3279 159.839 83.3929 159.947C83.4579 160.055 83.501 160.174 83.5198 160.299C83.5386 160.423 83.5327 160.55 83.5024 160.673C83.4372 160.917 83.2798 161.127 83.0633 161.257C82.8468 161.388 82.5881 161.429 82.3416 161.373C78.1591 160.322 71.2866 161.631 71.1208 161.65L70.9365 161.631Z" fill="#1B3F7E"/>
<path d="M78.9513 409.026L78.7671 426.556L91.0381 428.75L91.5909 425.063C93.4674 427.415 95.7985 429.365 98.445 430.796C102.296 432.639 124.811 440.455 122.895 432.897C120.979 425.34 111.637 422.188 107.51 417.764C106.316 416.565 105.4 415.118 104.83 413.524C104.26 411.931 104.049 410.231 104.212 408.547" fill="white"/>
<path d="M118.768 436.897C111.711 436.897 99.569 432.215 98.0949 431.515C95.8528 430.361 93.8368 428.812 92.1437 426.943L91.8673 428.787C91.8485 428.897 91.8078 429.003 91.7477 429.098C91.6877 429.193 91.6093 429.275 91.5172 429.34C91.4295 429.408 91.3281 429.456 91.22 429.482C91.1119 429.507 90.9996 429.509 90.8908 429.487L78.675 427.294C78.4797 427.259 78.3028 427.157 78.1748 427.006C78.0469 426.854 77.9761 426.662 77.9749 426.464L78.1591 408.934C78.1639 408.712 78.2553 408.501 78.4138 408.346C78.5722 408.191 78.785 408.104 79.0066 408.104C79.1171 408.104 79.2264 408.126 79.3282 408.169C79.4301 408.212 79.5223 408.275 79.5995 408.354C79.6768 408.433 79.7375 408.526 79.778 408.629C79.8186 408.732 79.8382 408.842 79.8358 408.952L79.67 425.764L90.3933 427.607L90.7987 424.805C90.8238 424.641 90.8967 424.487 91.0083 424.364C91.1198 424.241 91.2652 424.153 91.4262 424.112C91.5872 424.071 91.7568 424.078 91.9138 424.132C92.0709 424.186 92.2085 424.286 92.3095 424.418C94.1014 426.684 96.3325 428.565 98.8688 429.948C102.738 431.791 118.731 437.082 121.826 434.538C122.103 434.317 122.379 433.948 122.14 433.008C120.942 428.307 116.612 425.432 112.595 422.648C110.562 421.389 108.671 419.912 106.957 418.243C105.677 416.966 104.698 415.42 104.089 413.718C103.48 412.015 103.258 410.199 103.438 408.399C103.498 408.202 103.627 408.033 103.802 407.925C103.977 407.816 104.186 407.775 104.389 407.808C104.592 407.842 104.776 407.949 104.906 408.109C105.036 408.268 105.104 408.47 105.096 408.676C104.953 410.224 105.153 411.785 105.682 413.248C106.211 414.71 107.055 416.038 108.155 417.137C109.788 418.701 111.578 420.091 113.498 421.284C117.662 424.105 122.379 427.312 123.724 432.621C123.931 433.188 123.959 433.805 123.804 434.388C123.649 434.972 123.319 435.494 122.858 435.883C121.644 436.665 120.206 437.021 118.768 436.897Z" fill="#1B3F7E"/>
<path d="M66.8645 409.027L67.0487 426.557L54.7224 428.658L54.1697 424.972C52.3076 427.333 49.9891 429.296 47.3524 430.741C43.5016 432.585 20.9678 440.4 22.9025 432.843C24.8371 425.285 34.1601 422.133 38.2873 417.709C39.4819 416.511 40.397 415.063 40.9672 413.47C41.5373 411.876 41.7484 410.177 41.5854 408.492" fill="white"/>
<path d="M27.0849 436.897C25.6528 437.019 24.2205 436.663 23.013 435.883C22.5522 435.493 22.2221 434.971 22.0672 434.388C21.9124 433.804 21.9402 433.187 22.147 432.62C23.492 427.311 28.2088 424.104 32.3729 421.284C34.2926 420.09 36.0833 418.7 37.7161 417.136C38.8175 416.045 39.6644 414.725 40.1963 413.268C40.7283 411.812 40.932 410.256 40.7931 408.712C40.7612 408.492 40.8166 408.269 40.9475 408.09C41.0784 407.91 41.2743 407.79 41.4932 407.753C41.6023 407.732 41.7145 407.733 41.8232 407.756C41.9318 407.779 42.0348 407.824 42.1258 407.888C42.2169 407.951 42.2943 408.033 42.3534 408.127C42.4125 408.221 42.452 408.326 42.4698 408.435C42.6293 410.231 42.3936 412.039 41.7793 413.733C41.1649 415.428 40.1867 416.967 38.9137 418.242C37.1998 419.911 35.3093 421.388 33.2757 422.648C29.1669 425.431 24.9292 428.307 23.7315 433.007C23.492 433.947 23.7315 434.316 24.0448 434.537C27.1402 437.081 43.1331 431.791 47.0023 429.947C49.5386 428.565 51.7697 426.684 53.5616 424.417C53.6641 424.287 53.8025 424.19 53.9596 424.137C54.1168 424.085 54.2859 424.08 54.446 424.122C54.603 424.164 54.7443 424.251 54.8524 424.372C54.9605 424.493 55.0306 424.644 55.054 424.804L55.4778 427.606L66.2012 425.763L66.0169 408.952C66.0169 408.727 66.1062 408.511 66.2652 408.352C66.4241 408.193 66.6397 408.104 66.8644 408.104C67.0861 408.104 67.2989 408.19 67.4573 408.346C67.6158 408.501 67.7072 408.712 67.712 408.933L67.8963 426.463C67.895 426.662 67.8242 426.853 67.6963 427.005C67.5684 427.156 67.3914 427.258 67.1961 427.293L54.9251 429.486C54.8132 429.509 54.698 429.507 54.5869 429.481C54.4758 429.456 54.3713 429.407 54.2802 429.339C54.1908 429.274 54.1154 429.191 54.0584 429.096C54.0015 429.001 53.9641 428.896 53.9485 428.786L53.6722 426.943C51.979 428.812 49.963 430.36 47.7209 431.514C46.2469 432.215 34.0864 436.897 27.0849 436.897Z" fill="#1B3F7E"/>
<path d="M104.967 289.56H83.6313C83.4312 289.563 83.2357 289.5 83.0757 289.379C82.9156 289.259 82.7999 289.089 82.7469 288.896L77.0904 268.306L72.1156 287.588C72.063 287.787 71.946 287.964 71.7828 288.091C71.6197 288.218 71.4193 288.287 71.2128 288.288L42.0092 287.551C41.889 287.548 41.7705 287.522 41.6607 287.473C41.5508 287.425 41.4518 287.354 41.3694 287.267C41.287 287.179 41.223 287.076 41.181 286.963C41.1389 286.851 41.1199 286.731 41.1248 286.611C41.1296 286.369 41.2288 286.14 41.401 285.971C41.5733 285.802 41.8049 285.707 42.046 285.707L70.5127 286.426L76.1691 264.491C76.2187 264.294 76.3329 264.12 76.4933 263.996C76.6537 263.873 76.851 263.807 77.0535 263.809C77.2561 263.807 77.4534 263.873 77.6138 263.996C77.7742 264.12 77.8883 264.294 77.9379 264.491L84.3314 287.717H104.967C105.212 287.717 105.446 287.814 105.619 287.987C105.792 288.159 105.889 288.394 105.889 288.638C105.889 288.759 105.865 288.879 105.819 288.991C105.772 289.103 105.704 289.204 105.619 289.29C105.533 289.376 105.432 289.444 105.32 289.49C105.208 289.536 105.088 289.56 104.967 289.56Z" fill="white"/>
<path d="M425.415 330.886C425.616 327.96 424.976 325.037 423.573 322.462C422.221 320.754 420.96 318.976 419.795 317.135C418.192 313.706 419.316 309.669 418.948 305.909C418.618 302.759 417.227 299.814 415.005 297.559C413.052 295.568 410.509 294.204 408.63 292.139C405.553 288.729 404.668 283.955 402.918 279.715C400.432 273.722 396.135 268.656 390.629 265.227C393.982 271.992 386.336 280.563 389.799 287.347C390.887 289.466 392.987 291.033 393.798 293.264C395.732 298.794 389.265 304.582 391.329 309.964C392.361 312.656 395.253 314.222 396.598 316.766C398.441 320.213 396.985 324.379 397.133 328.269C397.335 333.633 400.597 338.425 404.503 342.13C406.916 344.453 409.588 346.444 412.204 348.527C415.318 351.034 416.626 353.651 419.372 349.651C423.171 344.119 425.272 337.597 425.415 330.886Z" fill="#1B3F7E"/>
<path d="M428.897 333.965C427.902 329.817 427.184 325.32 428.897 321.412C430.74 316.988 435.567 313.854 436.12 309.061C436.488 305.928 434.885 302.757 435.512 299.66C436.138 296.564 438.681 294.444 440.763 292.158C445.559 286.881 448.413 280.125 448.852 273.006C452.066 276.824 454.665 281.122 456.553 285.743C457.479 288.069 457.859 290.576 457.664 293.072C457.469 295.568 456.705 297.986 455.429 300.14C454.624 301.1 453.966 302.175 453.476 303.329C452.537 306.37 455.153 309.227 456.498 312.121C457.3 313.777 457.634 315.621 457.465 317.453C457.297 319.285 456.631 321.037 455.54 322.518C452.813 325.928 447.525 327.255 446.18 331.421C445.85 332.972 445.695 334.555 445.719 336.14C445.43 338.894 444.325 341.5 442.546 343.621C440.766 345.743 438.394 347.284 435.733 348.048C432.509 348.822 432.564 347.55 432.048 344.822C431.182 341.154 429.782 337.615 428.897 333.965Z" fill="#1B3F7E"/>
<path d="M418.598 304.141C416.295 296.177 415.373 287.864 412.941 279.919C410.868 273.73 408.35 267.699 405.406 261.873L415.281 266.039C418.45 267.366 421.877 268.951 423.37 272.048C425.968 277.431 421.306 284.343 424.033 289.671C425.219 291.4 426.524 293.045 427.939 294.592C430.85 298.666 430.408 304.288 428.805 309.044C428.124 311.072 425.12 321.652 422.449 318.721C421.38 317.542 421.288 313.191 420.846 311.551C420.146 309.062 419.298 306.629 418.598 304.141Z" fill="#1B3F7E"/>
<path d="M423.923 409.967C421.951 396.953 415.779 351.072 415.723 350.612L417.566 350.354C417.566 350.814 423.794 396.695 425.765 409.69L423.923 409.967Z" fill="#1B3F7E"/>
<path d="M426.373 422.262H424.531C424.641 406.796 431.09 347.68 434.812 343.625L436.175 344.86C433.338 347.938 426.502 405.082 426.373 422.262Z" fill="#1B3F7E"/>
<path d="M429.726 419.313L427.884 419.22C429.358 385.911 422.356 315.994 422.209 315.22L424.051 315.035C424.125 315.736 431.2 385.856 429.726 419.313Z" fill="#1B3F7E"/>
<path d="M407.064 378.574H443.822L441.261 415.81C441.046 418.915 439.662 421.823 437.388 423.948C435.114 426.072 432.119 427.255 429.008 427.257H421.896C418.784 427.255 415.79 426.072 413.516 423.948C411.242 421.823 409.858 418.915 409.643 415.81L407.064 378.574Z" fill="white"/>
<path d="M429.008 428.214H421.896C418.545 428.204 415.322 426.928 412.872 424.641C410.422 422.354 408.927 419.226 408.685 415.882L406.124 378.647C406.116 378.516 406.134 378.384 406.178 378.261C406.223 378.137 406.292 378.024 406.382 377.928C406.47 377.835 406.575 377.761 406.693 377.71C406.81 377.66 406.936 377.633 407.064 377.633H443.822C443.953 377.63 444.084 377.655 444.205 377.705C444.326 377.756 444.435 377.831 444.526 377.927C444.616 378.023 444.685 378.136 444.729 378.26C444.773 378.384 444.79 378.516 444.78 378.647L442.2 415.882C441.963 419.224 440.471 422.353 438.025 424.64C435.578 426.927 432.357 428.204 429.008 428.214ZM408.096 379.532L410.583 415.753C410.792 418.614 412.074 421.29 414.172 423.245C416.27 425.201 419.029 426.291 421.896 426.297H429.008C431.873 426.29 434.63 425.2 436.725 423.244C438.82 421.288 440.098 418.612 440.302 415.753L442.808 379.532H408.096Z" fill="#1B3F7E"/>
</g>
<defs>
<clipPath id="clip0_3046_48081">
<rect width="562" height="442" fill="white"/>
</clipPath>
</defs>
</svg>
