<svg width="613" height="459" viewBox="0 0 613 459" fill="none" xmlns="http://www.w3.org/2000/svg">
<path d="M549 224V358H415V244.664L435.664 224H549Z" fill="#1B3F7E"/>
<path d="M549 90V224H415V110.664L435.664 90H549Z" fill="#E30238"/>
<path d="M188.068 358.524L168.667 381.214C168.667 381.214 131.121 360.177 132.5 356.03C133.879 351.884 158.277 358.142 158.277 358.142L170.383 342.475" fill="white"/>
<path d="M168.667 381.979C168.531 381.981 168.398 381.944 168.284 381.871C156.836 375.461 130.354 360.069 131.78 355.785C133.205 351.501 151.595 355.663 157.985 357.315L169.786 342.015C169.912 341.858 170.094 341.757 170.294 341.731C170.494 341.705 170.696 341.758 170.858 341.877C171.019 342.001 171.123 342.184 171.149 342.384C171.175 342.585 171.12 342.788 170.996 342.948L158.89 358.615C158.798 358.734 158.674 358.824 158.533 358.872C158.391 358.921 158.238 358.928 158.093 358.891C146.645 355.953 133.925 354.209 133.22 356.29C132.883 358.661 151.15 370.519 168.468 380.265L187.486 358.019C187.623 357.89 187.802 357.815 187.991 357.81C188.179 357.805 188.362 357.868 188.506 357.989C188.65 358.11 188.744 358.28 188.771 358.466C188.798 358.652 188.755 358.841 188.651 358.998L169.234 381.688C169.169 381.777 169.084 381.85 168.985 381.901C168.887 381.951 168.778 381.978 168.667 381.979Z" fill="#003876"/>
<path d="M250.502 143.147C248.468 141.16 245.904 139.8 243.116 139.23C240.725 138.878 239.407 139.888 237.415 140.76C236.618 141.112 236.526 142.29 235.683 142.642C234.84 142.994 233.108 142.122 232.143 142.091C229.566 141.947 226.99 142.401 224.619 143.418C222.247 144.435 220.143 145.986 218.473 147.951C216.405 150.841 214.793 154.029 213.692 157.406C207.96 171.85 199.179 186.354 184.911 192.596C197.8 201.776 213.554 207.606 229.354 206.688C237.073 206.23 244.6 204.094 251.407 200.43C256.755 197.538 266.471 191.556 267.436 184.916C268.341 178.689 265.383 169.142 263.421 163.266C260.981 155.534 256.522 148.589 250.502 143.147Z" fill="white"/>
<path d="M226.105 207.513C212.113 207.513 197.463 202.495 184.467 193.192C184.359 193.111 184.275 193.004 184.221 192.881C184.167 192.757 184.146 192.622 184.16 192.488C184.174 192.356 184.222 192.23 184.3 192.122C184.378 192.015 184.483 191.93 184.605 191.876C196.466 186.705 205.753 175.322 212.987 157.115L213.309 156.289C214.387 153.127 215.937 150.146 217.906 147.445C219.648 145.389 221.846 143.766 224.325 142.704C226.804 141.642 229.496 141.17 232.189 141.325C232.71 141.367 233.224 141.47 233.722 141.631C234.257 141.822 234.823 141.915 235.392 141.907C235.561 141.907 235.714 141.57 235.882 141.295C236.119 140.762 236.529 140.325 237.047 140.055C237.43 139.887 237.783 139.703 238.12 139.535C239.634 138.611 241.414 138.218 243.177 138.418C246.112 139.038 248.812 140.476 250.962 142.564C257.074 148.105 261.605 155.163 264.096 163.021C266.272 169.508 269.046 178.826 268.141 185.037C267.191 191.494 258.701 197.277 251.728 201.102C244.821 204.799 237.193 206.955 229.369 207.421C228.296 207.482 227.208 207.513 226.105 207.513ZM186.444 192.779C199.915 202.097 215.086 206.779 229.354 205.952C236.953 205.52 244.366 203.431 251.069 199.832C260.494 194.737 266.042 189.444 266.701 184.884C267.559 179.009 264.847 169.906 262.732 163.587C260.325 155.982 255.941 149.15 250.027 143.788C248.101 141.896 245.679 140.586 243.039 140.009C241.578 139.847 240.106 140.193 238.871 140.989C238.518 141.157 238.15 141.34 237.752 141.509C237.542 141.673 237.378 141.889 237.277 142.136C237.011 142.712 236.542 143.17 235.959 143.421C235.1 143.578 234.214 143.493 233.4 143.176C232.994 143.055 232.579 142.968 232.158 142.916C229.697 142.755 227.232 143.167 224.958 144.121C222.684 145.074 220.664 146.542 219.056 148.409C217.196 150.984 215.738 153.827 214.734 156.839L214.397 157.666C207.255 175.658 198.106 187.133 186.444 192.779Z" fill="#003876"/>
<path d="M223.883 191.908C226.427 189.23 217.217 191.311 216.358 208.876C215.699 222.278 220.036 244.173 220.036 244.173L191.195 268.255L209.018 273.334C209.018 273.334 241.522 249.742 241.507 248.013C241.491 246.284 223.883 191.908 223.883 191.908Z" fill="white"/>
<path d="M209.018 274.037C208.952 274.052 208.884 274.052 208.818 274.037L190.995 268.958C190.874 268.92 190.764 268.85 190.678 268.756C190.592 268.662 190.532 268.547 190.505 268.422C190.483 268.298 190.495 268.171 190.538 268.053C190.581 267.935 190.654 267.83 190.75 267.749L219.27 243.942C218.688 240.882 215.04 221.206 215.653 208.875C216.282 196.16 221.324 190.882 223.668 190.331C223.89 190.249 224.133 190.244 224.358 190.316C224.583 190.388 224.777 190.534 224.91 190.729C225.011 190.954 225.042 191.204 224.998 191.448C224.955 191.691 224.838 191.915 224.665 192.09C227.867 201.959 242.135 246.329 242.212 248.012C242.288 249.695 224.389 263.037 209.431 273.9C209.312 273.988 209.167 274.036 209.018 274.037ZM192.651 267.917L208.88 272.507C220.726 263.909 239.422 249.924 240.786 247.859C240.311 245.273 230.059 213.281 223.209 192.06C221.416 193.391 217.6 197.95 217.079 208.89C216.435 222.063 220.711 243.804 220.757 244.08C220.778 244.204 220.767 244.331 220.724 244.449C220.681 244.567 220.608 244.672 220.511 244.753L192.651 267.917Z" fill="#003876"/>
<path d="M299.067 398.197C391.06 398.197 465.635 393.464 465.635 387.625C465.635 381.786 391.06 377.053 299.067 377.053C207.075 377.053 132.5 381.786 132.5 387.625C132.5 393.464 207.075 398.197 299.067 398.197Z" fill="#D1D3D4"/>
<path d="M274.655 177.357C273.597 176.531 226.718 179.438 218.627 195.059C210.535 210.681 239.652 257.789 239.652 257.789L298.945 240.057C298.945 240.057 303.175 199.634 274.655 177.357Z" fill="#E30238"/>
<path d="M461.911 315.073C469.573 350.263 444.134 375.86 444.134 375.86H265C265 375.86 239.591 350.37 247.208 315.073C254.824 279.776 308.814 260.543 325.227 246.07C341.64 231.596 335.786 206.993 309.979 188.174C284.172 169.355 249.231 157.421 250.211 116.769C250.794 90.7594 271.329 73.8223 271.329 73.8223H437.866C437.866 73.8223 458.401 90.6523 458.984 116.769C459.903 157.421 424.962 169.355 399.14 188.174C373.317 206.993 367.463 231.596 383.891 246.07C400.32 260.543 454.294 279.852 461.911 315.073Z" fill="white"/>
<path d="M444.134 376.563H265C264.81 376.561 264.628 376.484 264.494 376.349C264.249 376.088 238.917 350.109 246.533 314.919C252.05 289.429 281.873 271.987 303.649 259.258C312.507 254.086 320.139 249.619 324.767 245.488C327.743 242.989 330.098 239.837 331.648 236.277C333.199 232.717 333.901 228.847 333.702 224.97C333.135 212.73 324.338 199.435 309.565 188.679C304.492 184.976 298.945 181.472 293.581 178.076C271.513 164.138 248.709 149.71 249.445 116.692C250.027 90.6822 270.609 73.3932 270.823 73.2249C270.946 73.1168 271.104 73.057 271.268 73.0566H437.866C438.029 73.0597 438.186 73.1192 438.31 73.2249C438.509 73.3932 459.091 90.621 459.689 116.692C460.424 149.71 437.605 164.122 415.537 178.076C410.189 181.472 404.641 184.976 399.553 188.679C384.795 199.389 375.999 212.669 375.432 224.97C375.229 228.846 375.929 232.715 377.477 236.275C379.024 239.835 381.377 242.989 384.351 245.488C388.948 249.557 396.611 254.025 405.469 259.258C427.246 271.987 457.083 289.429 462.6 314.919C470.263 350.109 444.885 376.119 444.624 376.349C444.562 376.417 444.486 376.471 444.402 376.508C444.317 376.544 444.226 376.563 444.134 376.563ZM265.291 375.155H443.827C446.172 372.661 468.347 347.998 461.236 315.21C455.842 290.317 426.311 273.074 404.764 260.466C395.86 255.264 388.152 250.766 383.431 246.589C380.286 243.952 377.799 240.62 376.166 236.857C374.533 233.094 373.799 229.004 374.022 224.909C374.62 212.18 383.615 198.563 398.726 187.547C403.86 183.813 409.453 180.294 414.802 176.837C436.533 163.067 458.999 148.883 458.279 116.662C457.742 92.5641 439.659 76.1778 437.605 74.403H271.528C269.475 76.1778 251.391 92.5641 250.84 116.662C250.119 148.883 272.601 163.097 294.332 176.837C299.711 180.233 305.274 183.752 310.392 187.547C325.503 198.563 334.514 212.18 335.096 224.909C335.313 228.993 334.577 233.071 332.947 236.822C331.317 240.574 328.837 243.896 325.702 246.528C320.967 250.705 313.274 255.203 304.37 260.405C282.807 273.012 253.292 290.255 247.897 315.149C240.802 347.998 262.946 372.661 265.291 375.155Z" fill="#003876"/>
<path d="M301.581 169.402C307.113 172.906 312.845 176.516 318.27 180.479C331.089 189.401 340.746 202.149 345.855 216.893C350.789 231.03 349.41 246.085 352.475 260.697C352.514 261.258 352.683 261.803 352.967 262.288C353.251 262.774 353.644 263.188 354.115 263.497C354.819 263.786 355.596 263.851 356.339 263.684C357.082 263.517 357.755 263.126 358.268 262.564C359.09 261.493 359.58 260.206 359.678 258.861C361.609 247.141 361.517 236.079 362.252 224.206C363.203 209.029 373.547 193.086 390.788 180.54C396.228 176.578 401.944 172.967 407.492 169.463C419.966 161.568 468.792 126.715 436.333 116.28C429.391 114.062 421.652 114.659 414.25 115.301L298.209 125.277C291.482 125.858 284.616 126.47 278.471 128.796C272.325 131.121 266.931 135.497 265.843 141.036C263.851 151.47 292.508 163.71 301.581 169.402Z" fill="#6DB0E2"/>
<path d="M444.272 312.121C437.481 306.907 429.059 304.267 420.503 304.669C408.641 305.098 397.101 308.969 385.255 308.403C371.141 307.729 357.808 300.753 343.77 302.191C327.296 303.813 315.343 316.282 299.328 319.985C290.823 321.943 281.566 321.316 273.275 323.871C263.498 326.931 259.222 335.147 260.356 343.256C260.709 345.781 267.62 365.609 271.498 365.609H437.575C446.111 365.609 452.547 329.195 451.689 324.146C450.764 319.371 448.127 315.095 444.272 312.121Z" fill="#6DB0E2"/>
<path d="M440.9 60.8027H268.218C264.613 60.8027 261.69 63.7174 261.69 67.3129C261.69 70.9083 264.613 73.823 268.218 73.823H440.9C444.506 73.823 447.429 70.9083 447.429 67.3129C447.429 63.7174 444.506 60.8027 440.9 60.8027Z" fill="#003876"/>
<path d="M440.916 74.4953H268.188C266.277 74.4953 264.445 73.7377 263.095 72.3891C261.744 71.0405 260.985 69.2115 260.985 67.3043C260.985 65.3971 261.744 63.5681 263.095 62.2195C264.445 60.8709 266.277 60.1133 268.188 60.1133H440.916C442.826 60.1133 444.658 60.8709 446.009 62.2195C447.36 63.5681 448.118 65.3971 448.118 67.3043C448.118 69.2115 447.36 71.0405 446.009 72.3891C444.658 73.7377 442.826 74.4953 440.916 74.4953ZM268.188 61.475C267.395 61.4344 266.602 61.5554 265.857 61.8304C265.112 62.1054 264.432 62.5288 263.856 63.0748C263.28 63.6208 262.822 64.278 262.509 65.0064C262.196 65.7348 262.034 66.5192 262.034 67.3119C262.034 68.1046 262.196 68.889 262.509 69.6175C262.822 70.3459 263.28 71.0031 263.856 71.5491C264.432 72.0951 265.112 72.5184 265.857 72.7935C266.602 73.0685 267.395 73.1894 268.188 73.1489H440.916C442.414 73.0722 443.827 72.4238 444.86 71.3376C445.894 70.2514 446.47 68.8103 446.47 67.3119C446.47 65.8136 445.894 64.3725 444.86 63.2863C443.827 62.2 442.414 61.5516 440.916 61.475H268.188Z" fill="#003876"/>
<path d="M444.241 375.859H264.893C261.287 375.859 258.364 378.774 258.364 382.37C258.364 385.965 261.287 388.88 264.893 388.88H444.241C447.847 388.88 450.77 385.965 450.77 382.37C450.77 378.774 447.847 375.859 444.241 375.859Z" fill="#003876"/>
<path d="M444.241 389.568H264.939C263.028 389.568 261.196 388.81 259.845 387.461C258.495 386.113 257.736 384.284 257.736 382.377C257.736 380.469 258.495 378.64 259.845 377.292C261.196 375.943 263.028 375.186 264.939 375.186H444.241C446.151 375.186 447.983 375.943 449.334 377.292C450.685 378.64 451.444 380.469 451.444 382.377C451.444 384.284 450.685 386.113 449.334 387.461C447.983 388.81 446.151 389.568 444.241 389.568ZM264.939 376.532C263.386 376.532 261.897 377.148 260.799 378.244C259.701 379.34 259.084 380.826 259.084 382.377C259.084 383.927 259.701 385.413 260.799 386.509C261.897 387.605 263.386 388.221 264.939 388.221H444.241C445.794 388.221 447.283 387.605 448.381 386.509C449.478 385.413 450.095 383.927 450.095 382.377C450.095 380.826 449.478 379.34 448.381 378.244C447.283 377.148 445.794 376.532 444.241 376.532H264.939Z" fill="#003876"/>
<path d="M351.923 269.279C346.958 269.279 346.943 285.681 351.923 285.681C356.904 285.681 356.904 269.279 351.923 269.279Z" fill="#6DB0E2"/>
<path d="M360.613 285.65C358.605 285.65 358.605 291.449 360.613 291.449C362.62 291.449 362.636 285.65 360.613 285.65Z" fill="#6DB0E2"/>
<path d="M348.337 154.131C325.527 153.936 302.86 150.51 281.014 143.956C280.926 143.93 280.845 143.887 280.774 143.828C280.704 143.77 280.646 143.698 280.604 143.616C280.562 143.534 280.538 143.445 280.532 143.354C280.526 143.262 280.539 143.171 280.57 143.084C280.629 142.908 280.756 142.763 280.923 142.679C281.089 142.596 281.282 142.582 281.459 142.641C282.409 142.962 377.577 173.791 428.579 126.147C428.716 126.025 428.895 125.961 429.079 125.969C429.263 125.978 429.436 126.057 429.562 126.19C429.687 126.324 429.756 126.501 429.753 126.685C429.75 126.868 429.675 127.043 429.544 127.172C407.047 148.179 376.137 154.131 348.337 154.131Z" fill="#003876"/>
<path d="M326.867 339.11C308.961 339.11 291.149 336.534 273.98 331.46C273.886 331.436 273.797 331.394 273.72 331.335C273.643 331.275 273.579 331.201 273.532 331.116C273.485 331.031 273.456 330.937 273.447 330.84C273.438 330.743 273.45 330.646 273.48 330.554C273.511 330.461 273.561 330.377 273.626 330.305C273.691 330.232 273.771 330.175 273.859 330.135C273.948 330.095 274.044 330.074 274.141 330.072C274.239 330.071 274.335 330.09 274.425 330.128C274.93 330.312 326.652 347.219 373.394 330.128L428.824 309.856C428.913 309.812 429.01 309.787 429.11 309.784C429.209 309.78 429.308 309.797 429.4 309.834C429.492 309.871 429.575 309.927 429.644 309.999C429.713 310.07 429.766 310.155 429.799 310.248C429.833 310.342 429.847 310.441 429.839 310.54C429.832 310.638 429.803 310.735 429.756 310.822C429.709 310.909 429.644 310.985 429.565 311.046C429.486 311.106 429.396 311.149 429.299 311.172L373.93 331.414C358.811 336.697 342.884 339.301 326.867 339.11Z" fill="#003876"/>
<path d="M396.059 313.358H395.891C379.922 309.426 352.046 302.74 351.755 302.648C351.587 302.591 351.447 302.474 351.362 302.319C351.277 302.165 351.254 301.984 351.296 301.812C351.338 301.641 351.444 301.492 351.591 301.394C351.739 301.297 351.917 301.258 352.092 301.286C352.368 301.363 380.244 308.033 396.228 311.996C396.318 312.016 396.403 312.054 396.479 312.107C396.554 312.16 396.618 312.228 396.667 312.307C396.715 312.385 396.748 312.473 396.762 312.564C396.776 312.655 396.772 312.748 396.749 312.838C396.708 312.989 396.618 313.122 396.493 313.216C396.368 313.31 396.216 313.36 396.059 313.358Z" fill="#003876"/>
<path d="M251.437 180.004L254.747 190.347C254.747 190.347 254.916 195.503 247.468 196.1C240.02 196.696 237.445 192.29 237.445 192.29L231.99 172.783C231.99 172.783 240.909 163.511 235.76 152.893C237.953 155.014 240.747 156.411 243.763 156.893C246.779 157.374 249.87 156.918 252.617 155.585C254.371 160.644 255.814 165.804 256.939 171.038C257.874 176.653 251.437 180.004 251.437 180.004Z" fill="white"/>
<path d="M246.089 196.91C239.346 196.91 236.894 192.856 236.786 192.672C236.78 192.611 236.78 192.55 236.786 192.489L231.315 172.996C231.283 172.868 231.282 172.734 231.314 172.606C231.346 172.478 231.41 172.359 231.499 172.262C231.591 172.17 239.989 163.22 235.147 153.244C235.072 153.081 235.057 152.896 235.104 152.723C235.152 152.549 235.259 152.398 235.407 152.296C235.556 152.194 235.735 152.147 235.914 152.163C236.094 152.18 236.261 152.259 236.388 152.387C238.467 154.407 241.121 155.734 243.986 156.186C246.851 156.638 249.786 156.193 252.387 154.912C252.483 154.867 252.588 154.843 252.694 154.843C252.8 154.843 252.904 154.867 253 154.912C253.104 154.948 253.197 155.008 253.272 155.088C253.347 155.168 253.401 155.265 253.429 155.371C255.212 160.464 256.666 165.667 257.782 170.946C258.625 176.056 254.073 179.361 252.433 180.371L255.498 190.132C255.506 190.198 255.506 190.265 255.498 190.331C255.498 190.331 255.59 196.222 247.514 196.864C247.024 196.895 246.549 196.91 246.089 196.91ZM238.15 191.968C238.518 192.519 241.016 195.839 247.345 195.334C253.675 194.829 253.905 191.127 253.92 190.469L250.656 180.249C250.598 180.077 250.604 179.89 250.671 179.722C250.738 179.554 250.863 179.415 251.023 179.331C251.023 179.331 256.954 176.163 256.127 171.176C255.092 166.252 253.751 161.398 252.111 156.641C249.741 157.661 247.151 158.066 244.582 157.82C242.013 157.574 239.548 156.684 237.415 155.233C239.943 163.923 234.181 171.344 232.817 172.981L238.15 191.968Z" fill="#003876"/>
<path d="M235.07 171.161C234.513 170.3 233.698 169.636 232.741 169.264C231.832 168.964 230.878 168.824 229.921 168.851C229.4 168.798 228.875 168.871 228.388 169.065C228.058 169.227 227.766 169.456 227.53 169.738C226.898 170.337 226.51 171.15 226.442 172.018C226.457 172.721 226.646 173.41 226.994 174.022C227.313 174.713 227.725 175.356 228.22 175.935C228.722 176.506 229.333 176.971 230.017 177.305C230.701 177.638 231.445 177.833 232.205 177.877C232.965 177.921 233.726 177.814 234.444 177.562C235.162 177.31 235.823 176.918 236.388 176.409" fill="white"/>
<path d="M232.526 178.657H232.158C231.283 178.616 230.425 178.4 229.635 178.022C228.845 177.643 228.14 177.11 227.561 176.454C227.025 175.823 226.576 175.123 226.228 174.373C225.832 173.649 225.617 172.841 225.599 172.017C225.675 170.963 226.133 169.973 226.887 169.232C227.196 168.879 227.571 168.588 227.99 168.375C228.589 168.142 229.234 168.048 229.875 168.1C230.916 168.072 231.953 168.227 232.94 168.559C234.054 168.99 235 169.768 235.637 170.777C235.693 170.862 235.731 170.957 235.748 171.057C235.766 171.157 235.764 171.259 235.741 171.357C235.718 171.456 235.675 171.549 235.615 171.631C235.555 171.713 235.479 171.781 235.392 171.833C235.218 171.937 235.011 171.969 234.814 171.924C234.617 171.878 234.445 171.758 234.335 171.588C233.871 170.886 233.194 170.35 232.404 170.058C231.572 169.795 230.702 169.671 229.829 169.691C229.425 169.646 229.017 169.693 228.634 169.829C228.396 169.959 228.183 170.13 228.005 170.334C227.516 170.812 227.208 171.444 227.132 172.124C227.153 172.7 227.317 173.262 227.607 173.761C227.894 174.389 228.265 174.976 228.71 175.505C229.6 176.496 230.843 177.1 232.174 177.188C232.831 177.225 233.489 177.132 234.109 176.914C234.73 176.696 235.302 176.358 235.79 175.918C235.862 175.846 235.946 175.79 236.04 175.751C236.133 175.712 236.233 175.692 236.335 175.692C236.436 175.692 236.536 175.712 236.629 175.751C236.723 175.79 236.807 175.846 236.879 175.918C236.95 175.988 237.007 176.071 237.045 176.163C237.084 176.255 237.104 176.354 237.104 176.454C237.104 176.553 237.084 176.652 237.045 176.744C237.007 176.836 236.95 176.919 236.879 176.989C235.683 178.061 234.133 178.655 232.526 178.657Z" fill="#003876"/>
<path d="M245.568 163.48C245.568 163.48 251.1 167.489 250.594 168.728C250.089 169.968 247.529 170.258 247.529 170.258" fill="white"/>
<path d="M247.483 170.993C247.28 171.003 247.081 170.932 246.93 170.796C246.78 170.66 246.689 170.469 246.679 170.266C246.669 170.063 246.74 169.865 246.876 169.714C247.013 169.564 247.204 169.473 247.407 169.463C248.311 169.371 249.675 168.958 249.889 168.438C248.541 166.747 246.932 165.281 245.123 164.093C244.963 163.974 244.855 163.796 244.824 163.599C244.792 163.402 244.839 163.2 244.955 163.037C245.013 162.954 245.087 162.883 245.173 162.829C245.259 162.776 245.355 162.74 245.455 162.724C245.555 162.708 245.658 162.713 245.756 162.738C245.855 162.763 245.947 162.807 246.028 162.869C250.012 165.76 251.79 167.826 251.315 168.989C250.656 170.519 248.081 170.901 247.575 170.947L247.483 170.993Z" fill="#003876"/>
<path d="M242.21 163.551C242.645 163.274 242.682 162.553 242.291 161.94C241.9 161.327 241.23 161.054 240.795 161.331C240.359 161.608 240.323 162.329 240.714 162.942C241.104 163.555 241.774 163.828 242.21 163.551Z" fill="#003876"/>
<path d="M248.105 161.397C248.54 161.12 248.577 160.399 248.186 159.786C247.795 159.173 247.125 158.9 246.69 159.177C246.254 159.453 246.218 160.175 246.608 160.788C246.999 161.401 247.669 161.674 248.105 161.397Z" fill="#003876"/>
<path d="M252.265 171.359C252.265 171.359 244.847 179.208 240.97 171.359H252.265Z" fill="white"/>
<path d="M245.614 175.643C245.354 175.665 245.092 175.665 244.832 175.643C243.799 175.448 242.833 174.991 242.028 174.315C241.223 173.64 240.605 172.769 240.235 171.787C240.149 171.604 240.138 171.395 240.203 171.203C240.269 171.012 240.407 170.854 240.587 170.762C240.678 170.718 240.776 170.691 240.877 170.685C240.977 170.679 241.078 170.692 241.174 170.725C241.269 170.758 241.357 170.809 241.433 170.876C241.508 170.942 241.57 171.023 241.614 171.114C241.879 171.867 242.33 172.542 242.924 173.077C243.519 173.612 244.238 173.989 245.016 174.174C248.081 174.648 251.636 171.007 251.667 170.976C251.738 170.904 251.823 170.848 251.916 170.809C252.01 170.77 252.11 170.75 252.211 170.75C252.312 170.75 252.412 170.77 252.506 170.809C252.599 170.848 252.684 170.904 252.755 170.976C252.896 171.122 252.976 171.317 252.976 171.519C252.976 171.722 252.896 171.917 252.755 172.062C252.678 172.078 249.261 175.643 245.614 175.643Z" fill="#003876"/>
<path d="M251.437 180.004C251.437 180.004 246.028 181.534 243.085 180.876C243.085 180.876 246.993 186.43 253.322 186.262L251.437 180.004Z" fill="#003876"/>
<path d="M253.046 187.028C246.548 187.028 242.625 181.55 242.457 181.305C242.368 181.178 242.321 181.026 242.321 180.871C242.321 180.716 242.368 180.564 242.456 180.437C242.544 180.309 242.669 180.211 242.814 180.156C242.959 180.1 243.118 180.09 243.269 180.127C245.981 180.8 251.177 179.301 251.223 179.286C251.416 179.228 251.624 179.249 251.801 179.344C251.979 179.438 252.113 179.599 252.173 179.791L254.058 186.033C254.094 186.146 254.104 186.266 254.085 186.383C254.067 186.5 254.02 186.61 253.95 186.706C253.881 186.801 253.792 186.879 253.688 186.935C253.585 186.991 253.47 187.022 253.353 187.028H253.046ZM244.924 181.826C246.888 183.85 249.492 185.137 252.295 185.467L250.931 180.877C248.976 181.405 246.965 181.703 244.939 181.764L244.924 181.826Z" fill="#003876"/>
<path d="M298.945 240.117C298.945 240.117 298.945 269.983 295.466 282.59C285.566 318.331 213.278 375.43 213.278 375.43L197.263 359.549L241.292 296.238L188.068 358.463L170.383 342.413L239.652 257.789L298.945 240.117Z" fill="#003876"/>
<path d="M213.278 376.196C213.079 376.194 212.887 376.118 212.742 375.982L196.727 360.162C196.599 360.036 196.519 359.868 196.503 359.689C196.486 359.51 196.533 359.331 196.635 359.183L231.959 308.371L188.651 359.014C188.586 359.096 188.505 359.162 188.412 359.21C188.32 359.257 188.218 359.284 188.114 359.29C188.014 359.297 187.912 359.283 187.817 359.249C187.722 359.215 187.636 359.161 187.563 359.091L169.878 343.041C169.742 342.899 169.666 342.71 169.666 342.513C169.666 342.317 169.742 342.128 169.878 341.986L239.07 257.361C239.165 257.245 239.293 257.159 239.438 257.116L298.73 239.384C298.845 239.354 298.964 239.349 299.081 239.371C299.197 239.392 299.308 239.438 299.405 239.506C299.498 239.579 299.574 239.672 299.627 239.778C299.68 239.883 299.709 240 299.711 240.118C299.711 241.342 299.711 270.229 296.202 282.805C292.064 297.753 276.923 317.995 251.192 342.965C232.082 361.524 213.937 375.89 213.753 376.028C213.618 376.135 213.451 376.194 213.278 376.196ZM198.26 359.55L213.324 374.437C219.914 369.143 285.459 315.899 294.73 282.407C297.795 271.345 298.133 246.514 298.179 241.097L240.097 258.57L171.441 342.46L188.007 357.5L240.71 295.871C240.835 295.722 241.014 295.626 241.209 295.606C241.404 295.586 241.598 295.643 241.752 295.764C241.908 295.88 242.012 296.053 242.041 296.245C242.069 296.437 242.021 296.633 241.905 296.789L198.26 359.55Z" fill="#003876"/>
<path d="M197.263 359.549L185.77 372.294C185.77 372.294 166.935 365.975 167.763 369.54C168.59 373.105 193.11 392.995 194.352 393.408C195.593 393.821 213.278 375.369 213.278 375.369" fill="white"/>
<path d="M194.336 394.234H194.122C192.589 393.73 167.931 373.687 167.027 369.754C166.956 369.5 166.956 369.231 167.03 368.977C167.103 368.723 167.245 368.494 167.441 368.316C169.541 366.419 181.234 370.045 185.54 371.376L196.696 359.014C196.836 358.877 197.022 358.799 197.218 358.795C197.413 358.791 197.603 358.862 197.747 358.993C197.892 359.124 197.981 359.305 197.997 359.499C198.012 359.694 197.953 359.887 197.831 360.039L186.337 372.769C186.237 372.879 186.107 372.959 185.963 372.997C185.818 373.035 185.666 373.03 185.525 372.983C177.188 370.183 169.372 368.546 168.468 369.372C169.234 372.432 191.67 390.792 194.444 392.567C196.237 391.557 205.049 382.821 212.726 374.819C212.796 374.747 212.88 374.691 212.972 374.652C213.064 374.614 213.163 374.594 213.263 374.594C213.363 374.594 213.462 374.614 213.554 374.652C213.646 374.691 213.729 374.747 213.799 374.819C213.871 374.89 213.928 374.974 213.967 375.068C214.006 375.161 214.026 375.261 214.026 375.362C214.026 375.463 214.006 375.563 213.967 375.656C213.928 375.749 213.871 375.834 213.799 375.905C197.769 392.735 195.118 394.234 194.336 394.234Z" fill="#003876"/>
<path d="M215.132 365.531C215.033 365.533 214.934 365.511 214.844 365.469C214.753 365.427 214.674 365.364 214.611 365.287C214.552 365.22 214.507 365.143 214.479 365.058C214.45 364.974 214.439 364.885 214.446 364.796C214.454 364.707 214.479 364.621 214.52 364.542C214.562 364.464 214.619 364.394 214.688 364.338C215.286 363.833 274.241 313.588 285.965 285.237C297.581 257.162 291.466 245.962 291.405 245.855C291.316 245.699 291.292 245.513 291.339 245.34C291.387 245.166 291.501 245.019 291.658 244.929C291.814 244.84 292 244.816 292.174 244.864C292.348 244.911 292.496 245.025 292.585 245.182C292.846 245.641 299.144 256.947 287.221 285.757C275.298 314.567 216.159 364.858 215.562 365.317C215.451 365.44 215.297 365.516 215.132 365.531Z" fill="white"/>
<path d="M245.568 272.172C245.397 272.168 245.234 272.103 245.108 271.989C245.044 271.927 244.993 271.853 244.958 271.772C244.924 271.69 244.906 271.603 244.906 271.514C244.906 271.426 244.924 271.338 244.958 271.256C244.993 271.175 245.044 271.101 245.108 271.04L259.943 254.883C260.037 254.784 260.159 254.715 260.292 254.685C260.426 254.655 260.566 254.665 260.694 254.715C260.82 254.764 260.929 254.85 261.005 254.962C261.082 255.074 261.123 255.207 261.123 255.342V267.368C261.123 267.546 261.052 267.718 260.925 267.844C260.799 267.97 260.627 268.041 260.448 268.041C260.27 268.041 260.098 267.97 259.972 267.844C259.845 267.718 259.774 267.546 259.774 267.368V257.04L246.104 271.912C246.039 271.991 245.957 272.055 245.864 272.1C245.772 272.145 245.671 272.17 245.568 272.172Z" fill="white"/>
<path d="M230.902 280.142L250.625 257.85H201.708L175.456 283.829L230.902 280.142Z" fill="white"/>
<path d="M175.456 284.58C175.32 284.58 175.187 284.542 175.073 284.468C174.959 284.395 174.868 284.29 174.812 284.167C174.754 284.038 174.736 283.895 174.761 283.756C174.785 283.617 174.851 283.488 174.95 283.387L201.217 257.377C201.35 257.252 201.525 257.181 201.708 257.178H250.625C250.761 257.176 250.895 257.214 251.009 257.287C251.124 257.361 251.214 257.466 251.269 257.591C251.319 257.714 251.336 257.849 251.317 257.98C251.298 258.112 251.244 258.236 251.161 258.341L231.407 280.617C231.285 280.752 231.115 280.835 230.932 280.847L175.502 284.58H175.456ZM201.999 258.57L177.28 283.05L230.565 279.516L249.077 258.57H201.999Z" fill="#003876"/>
<path d="M267.436 184.915C267.436 184.915 279.482 233.186 276.141 234.716C272.8 236.246 231.055 249.557 228.741 250.567C226.427 251.577 220.803 255.647 219.776 257.85C218.749 260.053 217.814 268.789 219.776 268.223C222.644 267.554 225.469 266.711 228.235 265.699C229.768 264.903 231.99 260.298 231.99 260.298C231.99 260.298 231.714 264.75 233.813 263.801C235.913 262.853 239.652 257.85 239.652 257.85C239.652 257.85 292.294 256.06 297.412 245.518C302.531 234.976 299.726 212.21 291.282 194.814C282.838 177.418 268.187 174.266 267.436 184.915Z" fill="white"/>
<path d="M219.607 268.958C219.421 268.955 219.238 268.911 219.071 268.829C218.904 268.747 218.758 268.629 218.642 268.484C217.217 266.816 218.274 259.411 219.148 257.544C220.266 255.142 225.998 251.026 228.465 249.894C229.507 249.435 237.921 246.681 247.683 243.483C259.943 239.46 274.011 234.885 275.85 234.028C277.383 232.207 272.402 207.681 266.747 185.068C266.739 184.992 266.739 184.915 266.747 184.839C267.008 181.182 268.877 178.719 271.881 178.183C277.398 177.127 286.026 182.375 291.911 194.478C300.477 212.103 303.236 235.13 298.041 245.794C292.846 256.458 244.94 258.309 240.02 258.493C239.147 259.64 236.097 263.511 234.105 264.414C233.84 264.555 233.543 264.622 233.244 264.608C232.945 264.595 232.654 264.501 232.404 264.337C231.908 263.926 231.576 263.35 231.469 262.716C230.786 264.116 229.789 265.341 228.557 266.296C226.431 267.137 224.244 267.812 222.013 268.315C221.201 268.53 220.481 268.713 219.975 268.866C219.857 268.912 219.733 268.943 219.607 268.958ZM268.142 184.808C268.448 186.047 271.283 197.522 273.72 209.043C279.022 234.089 277.352 234.87 276.448 235.283C274.532 236.17 260.494 240.76 248.112 244.799C238.794 247.859 229.998 250.72 229.032 251.149C226.657 252.204 221.37 256.182 220.404 258.08C219.439 259.977 218.872 266.816 219.715 267.535C220.345 267.28 220.996 267.08 221.661 266.938C223.787 266.446 225.876 265.807 227.914 265.026C228.879 264.521 230.534 261.629 231.346 259.931C231.419 259.789 231.538 259.675 231.683 259.609C231.829 259.543 231.993 259.528 232.148 259.567C232.303 259.606 232.44 259.697 232.537 259.824C232.633 259.952 232.684 260.108 232.68 260.268C232.544 261.262 232.727 262.274 233.201 263.159C233.277 263.159 233.415 263.159 233.538 263.159C235.07 262.44 238.135 258.768 239.101 257.406C239.163 257.322 239.243 257.253 239.336 257.206C239.429 257.158 239.532 257.132 239.637 257.131C239.76 257.131 252.924 256.672 266.533 254.928C289.03 252.051 295.405 248.043 296.784 245.197C301.795 234.87 299.037 212.394 290.654 195.09C285.137 183.768 276.999 178.642 272.157 179.575C269.797 180.034 268.387 181.901 268.188 184.869L268.142 184.808Z" fill="#003876"/>
<path d="M230.902 280.143C229.032 277.465 204.665 237.303 204.665 237.303L147.258 242.933L175.456 283.861L230.902 280.143Z" fill="white"/>
<path d="M175.456 284.579C175.342 284.578 175.229 284.55 175.128 284.496C175.026 284.443 174.939 284.367 174.874 284.273L146.691 243.269C146.632 243.164 146.601 243.045 146.601 242.925C146.601 242.804 146.632 242.686 146.691 242.581C146.742 242.469 146.821 242.373 146.921 242.3C147.02 242.228 147.136 242.182 147.258 242.168L204.65 236.552C204.781 236.536 204.915 236.557 205.035 236.614C205.154 236.671 205.255 236.761 205.324 236.874C205.57 237.287 229.706 277.082 231.53 279.714C231.594 279.82 231.627 279.942 231.627 280.066C231.627 280.19 231.594 280.311 231.53 280.418C231.477 280.529 231.395 280.625 231.292 280.694C231.19 280.764 231.071 280.806 230.948 280.815L175.502 284.579H175.456ZM148.515 243.483L175.793 283.11L229.66 279.53C225.584 273.104 206.673 242.045 204.282 238.006L148.515 243.483Z" fill="#003876"/>
<path d="M195.409 262.807C194.54 260.95 193.217 259.34 191.563 258.126C190.54 257.291 189.302 256.761 187.992 256.596C187.338 256.533 186.679 256.641 186.08 256.909C185.481 257.177 184.962 257.596 184.574 258.126C184.055 259.023 183.855 260.069 184.007 261.094C184.109 262.304 184.473 263.478 185.074 264.535C185.674 265.592 186.497 266.505 187.486 267.214C190.996 269.57 197.984 268.269 195.409 262.807Z" fill="white"/>
<path d="M191.44 269.02C189.902 269.037 188.393 268.601 187.103 267.765C186.028 267.012 185.132 266.033 184.478 264.896C183.823 263.759 183.428 262.492 183.318 261.186C183.137 260.005 183.376 258.798 183.992 257.774C184.451 257.143 185.067 256.643 185.78 256.324C186.492 256.004 187.276 255.877 188.053 255.953C189.492 256.107 190.857 256.664 191.992 257.56C193.729 258.847 195.119 260.546 196.037 262.502C197.417 265.439 196.221 267.092 195.378 267.78C194.249 268.636 192.857 269.074 191.44 269.02ZM187.685 257.33C187.198 257.316 186.714 257.419 186.274 257.629C185.835 257.839 185.451 258.151 185.157 258.539C184.726 259.3 184.564 260.184 184.697 261.048C184.793 262.152 185.128 263.221 185.678 264.182C186.228 265.144 186.981 265.975 187.885 266.617C188.859 267.26 189.996 267.611 191.164 267.63C192.331 267.649 193.48 267.335 194.474 266.725C195.424 265.914 195.516 264.69 194.781 263.098C193.955 261.352 192.707 259.837 191.149 258.692C190.234 257.944 189.121 257.477 187.946 257.346L187.685 257.33Z" fill="#003876"/>
<path d="M188.13 260.559C188.791 261.48 189.405 262.435 189.969 263.42L191.195 260.559" fill="white"/>
<path d="M190.03 264.124C189.908 264.123 189.789 264.091 189.684 264.029C189.579 263.967 189.492 263.878 189.432 263.772C188.773 262.671 187.9 261.37 187.746 261.095C187.668 261.026 187.606 260.941 187.563 260.846C187.521 260.751 187.5 260.648 187.501 260.544C187.501 260.361 187.574 260.186 187.703 260.057C187.833 259.928 188.008 259.855 188.191 259.855C188.589 259.855 188.697 259.855 189.923 261.89L190.612 260.36C190.684 260.188 190.82 260.051 190.993 259.979C191.165 259.908 191.359 259.907 191.532 259.978C191.702 260.052 191.835 260.19 191.904 260.362C191.973 260.533 191.971 260.725 191.9 260.896L190.674 263.772C190.62 263.89 190.537 263.991 190.432 264.066C190.327 264.142 190.204 264.188 190.076 264.201L190.03 264.124Z" fill="#003876"/>
</svg>
